<?xml version="1.0" encoding="UTF-8" standalone="no"?>
<svg
   xmlns:dc="http://purl.org/dc/elements/1.1/"
   xmlns:cc="http://creativecommons.org/ns#"
   xmlns:rdf="http://www.w3.org/1999/02/22-rdf-syntax-ns#"
   xmlns:svg="http://www.w3.org/2000/svg"
   xmlns="http://www.w3.org/2000/svg"
   xmlns:sodipodi="http://sodipodi.sourceforge.net/DTD/sodipodi-0.dtd"
   xmlns:inkscape="http://www.inkscape.org/namespaces/inkscape"
   width="162.56mm"
   height="128.5mm"
   viewBox="0 0 162.56 128.5"
   version="1.1"
   id="svg1364"
   inkscape:version="1.0.1 (3bc2e813f5, 2020-09-07)"
   sodipodi:docname="CyclicCA.svg">
  <defs
     id="defs1358" />
  <sodipodi:namedview
     id="base"
     pagecolor="#ffffff"
     bordercolor="#666666"
     borderopacity="1.0"
     inkscape:pageopacity="0.0"
     inkscape:pageshadow="2"
     inkscape:zoom="4"
     inkscape:cx="545.59743"
     inkscape:cy="276.97943"
     inkscape:document-units="mm"
     inkscape:current-layer="layer1"
     inkscape:document-rotation="0"
     showgrid="true"
     inkscape:snap-nodes="true"
     inkscape:window-width="1695"
     inkscape:window-height="1030"
     inkscape:window-x="88"
     inkscape:window-y="0"
     inkscape:window-maximized="0"
     inkscape:snap-bbox="true"
     inkscape:snap-bbox-midpoints="false"
     inkscape:snap-bbox-edge-midpoints="false">
    <inkscape:grid
       type="xygrid"
       id="grid1368"
       units="mm"
       spacingx="1"
       spacingy="1" />
  </sodipodi:namedview>
  <metadata
     id="metadata1361">
    <rdf:RDF>
      <cc:Work
         rdf:about="">
        <dc:format>image/svg+xml</dc:format>
        <dc:type
           rdf:resource="http://purl.org/dc/dcmitype/StillImage" />
        <dc:title></dc:title>
      </cc:Work>
    </rdf:RDF>
  </metadata>
  <g
     inkscape:groupmode="layer"
     id="layer3"
     inkscape:label="Background"
     style="display:inline"
     sodipodi:insensitive="true">
    <rect
       style="display:inline;fill:#e6e6e6;fill-opacity:1;stroke-width:0.757267"
       id="rect1961"
       width="162.56"
       height="128.5"
       x="0"
       y="0" />
  </g>
  <g
     inkscape:label="Layer 1"
     inkscape:groupmode="layer"
     id="layer1"
     style="display:inline">
    <text
       xml:space="preserve"
       style="font-size:3.52777px;line-height:1.25;font-family:Sudo;-inkscape-font-specification:Sudo;stroke-width:0.264583"
       x="1"
       y="5.9999995"
       id="text4190"><tspan
         sodipodi:role="line"
         id="tspan4188"
         x="1"
         y="5.9999995"
         style="stroke-width:0.264583" /></text>
    <text
       xml:space="preserve"
       style="font-size:3.52777px;line-height:1.25;font-family:Sudo;-inkscape-font-specification:Sudo;stroke-width:0.264583"
       x="18"
       y="94"
       id="text920"><tspan
         sodipodi:role="line"
         id="tspan918"
         x="18"
         y="94"
         style="stroke-width:0.264583" /></text>
    <rect
       style="display:inline;fill:#000000;fill-opacity:0.983806;stroke-width:0.993997"
       id="rect3459-2-3-8"
       width="11"
       height="14.000001"
       x="144.76244"
       y="91"
       ry="1.2727274" />
    <rect
       style="display:inline;fill:#000000;fill-opacity:0.983806;stroke-width:0.993997"
       id="rect3459-2-3-8-7"
       width="11"
       height="14.000001"
       x="144.76244"
       y="107"
       ry="1.2727275" />
    <path
       style="fill:none;stroke:#000000;stroke-width:0.264583px;stroke-linecap:butt;stroke-linejoin:miter;stroke-opacity:1"
       d="M 8,63.999998 V 58"
       id="path2704" />
    <path
       style="display:inline;fill:none;stroke:#000000;stroke-width:0.264583px;stroke-linecap:butt;stroke-linejoin:miter;stroke-opacity:1"
       d="M 8,86 V 80.000002"
       id="path2704-2" />
    <path
       style="display:inline;fill:none;stroke:#000000;stroke-width:0.264583px;stroke-linecap:butt;stroke-linejoin:miter;stroke-opacity:1"
       d="M 8,43 V 37.000002"
       id="path2704-9" />
    <path
       style="display:inline;fill:none;stroke:#000000;stroke-width:0.264583px;stroke-linecap:butt;stroke-linejoin:miter;stroke-opacity:1"
       d="M 8,22 V 16.000002"
       id="path2704-6" />
    <path
       style="fill:none;stroke:#000000;stroke-width:0.264583px;stroke-linecap:butt;stroke-linejoin:miter;stroke-opacity:1"
       d="m 141,63 h -2 v 25 h 2"
       id="path7613" />
  </g>
  <g
     inkscape:groupmode="layer"
     id="layer4"
     inkscape:label="Text"
     style="display:inline">
    <path
       d="M 6.1964517,8.319128 H 5.7537579 L 4.895931,7.299382 H 4.4153413 V 8.319128 H 4.0742775 V 5.7542601 h 0.7183009 q 0.2325434,0 0.3875724,0.031006 0.1550289,0.029283 0.2790521,0.1067977 0.1395261,0.08785 0.2170405,0.2222082 0.079237,0.1326358 0.079237,0.3376186 0,0.2773296 -0.1395261,0.4650868 Q 5.4764283,7.103012 5.2318271,7.1977519 Z M 5.3989139,6.476006 q 0,-0.1102428 -0.039619,-0.1946475 Q 5.3213994,6.1952313 5.2318271,6.1366648 5.1577577,6.0867111 5.0561276,6.0677631 4.9544975,6.0470925 4.816694,6.0470925 H 4.4153413 V 7.0151623 H 4.75985 q 0.1619192,0 0.2824973,-0.027561 0.120578,-0.029283 0.2049827,-0.1067978 0.077515,-0.072347 0.1136879,-0.1653642 0.037896,-0.09474 0.037896,-0.2394333 z"
       style="font-style:normal;font-variant:normal;font-weight:normal;font-stretch:normal;font-size:3.52777px;line-height:1.25;font-family:Verdana;-inkscape-font-specification:Verdana;stroke-width:0.264583"
       id="path6639" />
    <path
       d="M 8.0257935,7.3906768 H 6.6081398 q 0,0.1774221 0.053399,0.310058 0.053399,0.1309133 0.1464162,0.2153179 0.089572,0.082682 0.2118729,0.1240232 0.1240232,0.041341 0.272162,0.041341 0.19637,0 0.3944625,-0.077514 0.1998151,-0.079237 0.2842198,-0.155029 h 0.017225 V 8.201995 q -0.1636416,0.068902 -0.3341735,0.1154105 -0.1705318,0.046509 -0.3582891,0.046509 -0.4788673,0 -0.7475841,-0.2583816 -0.2687169,-0.2601042 -0.2687169,-0.7372488 0,-0.4719771 0.2566591,-0.7493067 0.2583816,-0.2773295 0.6786823,-0.2773295 0.3892949,0 0.5994453,0.2273758 0.2118729,0.2273758 0.2118729,0.645954 z M 7.710568,7.1426305 Q 7.7088454,6.887694 7.5813772,6.7481679 7.4556315,6.6086419 7.1972499,6.6086419 q -0.2601042,0 -0.4151331,0.1533064 -0.1533064,0.1533064 -0.173977,0.3806822 z"
       style="font-style:normal;font-variant:normal;font-weight:normal;font-stretch:normal;font-size:3.52777px;line-height:1.25;font-family:Verdana;-inkscape-font-specification:Verdana;stroke-width:0.264583"
       id="path6641" />
    <path
       d="m 9.8913084,7.7644689 q 0,0.2635492 -0.2187631,0.4323585 -0.2170406,0.1688093 -0.5942777,0.1688093 -0.2135954,0 -0.39274,-0.049954 Q 8.5081056,8.2640066 8.3875275,8.2037176 V 7.8402608 h 0.017225 q 0.1533064,0.1154105 0.3410637,0.1843122 0.1877573,0.067179 0.3600117,0.067179 0.2135955,0 0.3341735,-0.068902 0.1205781,-0.068902 0.1205781,-0.2170406 0,-0.1136879 -0.065457,-0.1722544 Q 9.4296666,7.574989 9.2436318,7.533648 9.1747301,7.5181451 9.0627647,7.4974746 8.9525219,7.476804 8.8612271,7.4526884 8.6080131,7.3855092 8.5012154,7.2563184 8.3961402,7.1254051 8.3961402,6.9359252 q 0,-0.1188555 0.048231,-0.2239307 0.049954,-0.1050752 0.1498614,-0.1877573 0.096462,-0.080959 0.2446012,-0.1274682 0.1498613,-0.048231 0.3341735,-0.048231 0.1722544,0 0.3479539,0.043064 0.177422,0.041341 0.294555,0.1016301 V 6.8394628 H 9.798291 Q 9.6742678,6.7481679 9.4968458,6.6861564 9.3194238,6.6224222 9.1488919,6.6224222 q -0.177422,0 -0.2997226,0.068902 -0.1223007,0.067179 -0.1223007,0.2015376 0,0.1188556 0.074069,0.1791446 0.072347,0.060289 0.234266,0.098185 0.089572,0.020671 0.1998151,0.041341 0.1119654,0.02067 0.1860348,0.037896 0.2256532,0.051676 0.3479538,0.1774221 0.1223007,0.1274682 0.1223011,0.3376184 z"
       style="font-style:normal;font-variant:normal;font-weight:normal;font-stretch:normal;font-size:3.52777px;line-height:1.25;font-family:Verdana;-inkscape-font-specification:Verdana;stroke-width:0.264583"
       id="path6643" />
    <path
       d="m 11.965251,7.3906768 h -1.417653 q 0,0.1774221 0.0534,0.310058 0.0534,0.1309133 0.146416,0.2153179 0.08957,0.082682 0.211873,0.1240232 0.124023,0.041341 0.272162,0.041341 0.19637,0 0.394462,-0.077514 0.199815,-0.079237 0.28422,-0.155029 h 0.01722 V 8.201995 q -0.163641,0.068902 -0.334173,0.1154105 -0.170532,0.046509 -0.358289,0.046509 -0.478867,0 -0.747584,-0.2583816 -0.268717,-0.2601042 -0.268717,-0.7372488 0,-0.4719771 0.256659,-0.7493067 0.258381,-0.2773295 0.678682,-0.2773295 0.389295,0 0.599445,0.2273758 0.211873,0.2273758 0.211873,0.645954 z M 11.650026,7.1426305 q -0.0017,-0.2549365 -0.129191,-0.3944626 -0.125746,-0.139526 -0.384127,-0.139526 -0.260104,0 -0.415133,0.1533064 -0.153307,0.1533064 -0.173977,0.3806822 z"
       style="font-style:normal;font-variant:normal;font-weight:normal;font-stretch:normal;font-size:3.52777px;line-height:1.25;font-family:Verdana;-inkscape-font-specification:Verdana;stroke-width:0.264583"
       id="path6645" />
    <path
       d="m 13.455252,8.3019026 q -0.0913,0.024116 -0.199815,0.039618 -0.106798,0.015503 -0.191203,0.015503 -0.294555,0 -0.447861,-0.158474 Q 12.463066,8.0400759 12.463066,7.6903995 V 6.6672084 h -0.218763 v -0.272162 h 0.218763 V 5.8421098 h 0.323839 v 0.5529366 h 0.668347 v 0.272162 h -0.668347 v 0.8767749 q 0,0.1515838 0.0069,0.237711 0.0069,0.084405 0.04823,0.1584741 0.0379,0.068902 0.103353,0.1016301 0.06718,0.031006 0.20326,0.031006 0.07924,0 0.165364,-0.022393 0.08613,-0.024116 0.124023,-0.039618 h 0.01723 z"
       style="font-style:normal;font-variant:normal;font-weight:normal;font-stretch:normal;font-size:3.52777px;line-height:1.25;font-family:Verdana;-inkscape-font-specification:Verdana;stroke-width:0.264583"
       id="path6647" />
    <path
       d="M 5.5390311,29.270395 H 4.1506607 V 29.008569 H 4.6846493 V 27.28947 H 4.1506607 v -0.234266 q 0.1085203,0 0.2325434,-0.01723 0.1240232,-0.01895 0.1877573,-0.0534 0.079237,-0.04306 0.1240232,-0.10852 0.046509,-0.06718 0.053399,-0.179144 H 5.015378 v 2.311654 h 0.5236533 z"
       style="font-style:normal;font-variant:normal;font-weight:normal;font-stretch:normal;font-size:3.52777px;line-height:1.25;font-family:Verdana;-inkscape-font-specification:Verdana;stroke-width:0.264583"
       id="path6650" />
    <path
       d="M 8.3812287,29.270395 H 7.9385349 L 7.080708,28.250649 H 6.6001183 v 1.019746 H 6.2590546 v -2.564868 h 0.7183008 q 0.2325434,0 0.3875724,0.03101 0.155029,0.02928 0.2790521,0.106798 0.1395261,0.08785 0.2170406,0.222208 0.079237,0.132636 0.079237,0.337619 0,0.277329 -0.1395261,0.465086 -0.139526,0.186035 -0.3841273,0.280775 z M 7.5836909,27.427273 q 0,-0.110243 -0.039618,-0.194647 -0.037896,-0.08613 -0.1274683,-0.144694 -0.074069,-0.04995 -0.1756995,-0.0689 Q 7.1392745,26.99836 7.001471,26.99836 H 6.6001183 v 0.968069 h 0.3445088 q 0.1619191,0 0.2824972,-0.02756 0.1205781,-0.02928 0.2049827,-0.106798 0.077514,-0.07235 0.1136879,-0.165364 0.037896,-0.09474 0.037896,-0.239434 z"
       style="font-style:normal;font-variant:normal;font-weight:normal;font-stretch:normal;font-size:3.52777px;line-height:1.25;font-family:Verdana;-inkscape-font-specification:Verdana;stroke-width:0.264583"
       id="path6652" />
    <path
       d="M 10.246744,29.270395 H 9.9229059 V 29.0568 q -0.1636417,0.129191 -0.313503,0.198092 -0.1498613,0.0689 -0.3307285,0.0689 -0.3031677,0 -0.471977,-0.184312 -0.1688093,-0.186035 -0.1688093,-0.544324 v -1.248844 h 0.3238382 v 1.095538 q 0,0.146416 0.01378,0.251491 0.01378,0.103353 0.058566,0.177422 0.046509,0.07579 0.1205781,0.110243 0.074069,0.03445 0.215318,0.03445 0.1257457,0 0.2738845,-0.06546 0.1498613,-0.06546 0.2790521,-0.167087 v -1.436601 h 0.323838 z"
       style="font-style:normal;font-variant:normal;font-weight:normal;font-stretch:normal;font-size:3.52777px;line-height:1.25;font-family:Verdana;-inkscape-font-specification:Verdana;stroke-width:0.264583"
       id="path6654" />
    <path
       d="M 11.211368,29.270395 H 10.88753 v -2.680278 h 0.323838 z"
       style="font-style:normal;font-variant:normal;font-weight:normal;font-stretch:normal;font-size:3.52777px;line-height:1.25;font-family:Verdana;-inkscape-font-specification:Verdana;stroke-width:0.264583"
       id="path6656" />
    <path
       d="M 13.462733,28.341944 H 12.04508 q 0,0.177422 0.0534,0.310058 0.0534,0.130913 0.146417,0.215318 0.08957,0.08268 0.211873,0.124023 0.124023,0.04134 0.272161,0.04134 0.196371,0 0.394463,-0.07751 0.199815,-0.07924 0.28422,-0.155029 h 0.01722 v 0.353121 q -0.163641,0.0689 -0.334173,0.115411 -0.170532,0.04651 -0.358289,0.04651 -0.478868,0 -0.747584,-0.258381 -0.268717,-0.260104 -0.268717,-0.737249 0,-0.471977 0.256659,-0.749307 0.258381,-0.277329 0.678682,-0.277329 0.389295,0 0.599445,0.227376 0.211873,0.227375 0.211873,0.645954 z m -0.315225,-0.248046 q -0.0017,-0.254937 -0.129191,-0.394463 -0.125746,-0.139526 -0.384127,-0.139526 -0.260105,0 -0.415134,0.153307 -0.153306,0.153306 -0.173976,0.380682 z"
       style="font-style:normal;font-variant:normal;font-weight:normal;font-stretch:normal;font-size:3.52777px;line-height:1.25;font-family:Verdana;-inkscape-font-specification:Verdana;stroke-width:0.264583"
       id="path6658" />
    <path
       d="m 5.7702117,49.655396 q 0,0.191202 -0.072347,0.337618 -0.072347,0.146416 -0.1946475,0.241156 -0.1446937,0.113688 -0.3186706,0.161919 -0.1722544,0.04823 -0.4392488,0.04823 h -0.909503 v -2.564868 h 0.7596419 q 0.2807747,0 0.4203007,0.02067 0.1395261,0.02067 0.2669944,0.08613 0.1412486,0.07407 0.2049827,0.191203 0.063734,0.11541 0.063734,0.277329 0,0.18259 -0.093017,0.311781 -0.093017,0.127468 -0.2480463,0.204983 v 0.01378 q 0.2601042,0.0534 0.4099655,0.229098 0.1498613,0.173977 0.1498613,0.440972 z M 5.1966046,48.499569 q 0,-0.09302 -0.031006,-0.156752 -0.031006,-0.06373 -0.099908,-0.103353 -0.080959,-0.04651 -0.19637,-0.05684 -0.1154104,-0.01206 -0.2859423,-0.01206 H 4.1768585 v 0.740694 h 0.4409713 q 0.1601966,0 0.2549365,-0.0155 0.09474,-0.01723 0.1756995,-0.0689 0.08096,-0.05168 0.1136879,-0.132636 0.034451,-0.08268 0.034451,-0.194647 z m 0.218763,1.169607 q 0,-0.155029 -0.046509,-0.246324 -0.046509,-0.0913 -0.1688093,-0.155029 -0.082682,-0.04306 -0.2015377,-0.05512 -0.117133,-0.01378 -0.2859423,-0.01378 H 4.1768585 v 0.95429 h 0.4513066 q 0.2239307,0 0.3669018,-0.02239 0.1429712,-0.02412 0.234266,-0.08613 0.096462,-0.06718 0.1412486,-0.153306 0.044786,-0.08613 0.044786,-0.222208 z"
       style="font-style:normal;font-variant:normal;font-weight:normal;font-stretch:normal;font-size:3.52777px;line-height:1.25;font-family:Verdana;-inkscape-font-specification:Verdana;stroke-width:0.264583"
       id="path6661" />
    <path
       d="M 6.5556918,50.444321 H 6.2318535 v -2.680279 h 0.3238383 z"
       style="font-style:normal;font-variant:normal;font-weight:normal;font-stretch:normal;font-size:3.52777px;line-height:1.25;font-family:Verdana;-inkscape-font-specification:Verdana;stroke-width:0.264583"
       id="path6663" />
    <path
       d="m 8.8363401,49.483141 q 0,0.470255 -0.2411561,0.742417 -0.2411562,0.272162 -0.645954,0.272162 -0.408243,0 -0.6493991,-0.272162 -0.2394336,-0.272162 -0.2394336,-0.742417 0,-0.470254 0.2394336,-0.742416 Q 7.540987,48.46684 7.94923,48.46684 q 0.4047978,0 0.645954,0.273885 0.2411561,0.272162 0.2411561,0.742416 z m -0.3341735,0 q 0,-0.373792 -0.1464163,-0.554659 -0.1464162,-0.18259 -0.4065203,-0.18259 -0.2635493,0 -0.4099655,0.18259 -0.1446937,0.180867 -0.1446937,0.554659 0,0.361734 0.1464162,0.549492 0.1464163,0.186034 0.408243,0.186034 0.2583816,0 0.4047978,-0.184312 0.1481388,-0.186035 0.1481388,-0.551214 z"
       style="font-style:normal;font-variant:normal;font-weight:normal;font-stretch:normal;font-size:3.52777px;line-height:1.25;font-family:Verdana;-inkscape-font-specification:Verdana;stroke-width:0.264583"
       id="path6665" />
    <path
       d="m 10.760422,50.323743 q -0.161919,0.07751 -0.308336,0.120578 -0.144693,0.04306 -0.308335,0.04306 -0.2084279,0 -0.3824048,-0.06029 -0.173977,-0.06201 -0.2980001,-0.186035 -0.1257457,-0.124023 -0.1946475,-0.313503 -0.068902,-0.189479 -0.068902,-0.442693 0,-0.471977 0.2583816,-0.740694 0.2601042,-0.268717 0.6855728,-0.268717 0.165364,0 0.323838,0.04651 0.160197,0.04651 0.292833,0.113688 v 0.360011 h -0.01723 q -0.148139,-0.11541 -0.306613,-0.177422 -0.156751,-0.06201 -0.306612,-0.06201 -0.2756077,0 -0.4358042,0.186034 -0.1584741,0.184313 -0.1584741,0.542602 0,0.347954 0.155029,0.535711 0.1567515,0.186035 0.4392493,0.186035 0.09819,0 0.199815,-0.02584 0.10163,-0.02584 0.182589,-0.06718 0.07062,-0.03617 0.132636,-0.07579 0.06201,-0.04134 0.09818,-0.07062 h 0.01723 z"
       style="font-style:normal;font-variant:normal;font-weight:normal;font-stretch:normal;font-size:3.52777px;line-height:1.25;font-family:Verdana;-inkscape-font-specification:Verdana;stroke-width:0.264583"
       id="path6667" />
    <path
       d="m 12.922214,50.444321 h -0.42719 l -0.7717,-0.842324 -0.210151,0.199815 v 0.642509 h -0.323838 v -2.680279 h 0.323838 v 1.719099 l 0.935342,-0.962902 h 0.408243 l -0.894001,0.888833 z"
       style="font-style:normal;font-variant:normal;font-weight:normal;font-stretch:normal;font-size:3.52777px;line-height:1.25;font-family:Verdana;-inkscape-font-specification:Verdana;stroke-width:0.264583"
       id="path6669" />
    <path
       d="m 5.8167204,72.258286 q -0.09474,0.04134 -0.1722544,0.07751 -0.075792,0.03617 -0.1998151,0.07579 -0.1050752,0.03273 -0.2290984,0.05512 -0.1223006,0.02412 -0.2704394,0.02412 -0.2790521,0 -0.5081504,-0.07751 Q 4.2095869,72.334076 4.0407776,72.166992 3.8754133,72.00335 3.782396,71.751859 3.689379,71.498645 3.689379,71.164472 q 0,-0.316949 0.089572,-0.566717 0.089572,-0.249769 0.2583816,-0.422024 0.1636417,-0.167086 0.3944625,-0.254936 0.2325435,-0.08785 0.5150407,-0.08785 0.2067053,0 0.411688,0.04995 0.2067053,0.04995 0.4581967,0.175699 v 0.404798 H 5.7908825 Q 5.5790096,70.28597 5.3705818,70.205011 5.162154,70.124051 4.9244429,70.124051 q -0.1946474,0 -0.3513989,0.06373 -0.155029,0.06201 -0.2773296,0.194648 -0.1188556,0.12919 -0.1860348,0.327283 -0.065457,0.19637 -0.065457,0.454752 0,0.270439 0.072347,0.465086 0.074069,0.194648 0.1894798,0.316948 0.1205781,0.127469 0.2807747,0.18948 0.1619191,0.06029 0.3410637,0.06029 0.2463238,0 0.4616418,-0.0844 0.215318,-0.0844 0.4030753,-0.253214 h 0.024116 z"
       style="font-style:normal;font-variant:normal;font-weight:normal;font-stretch:normal;font-size:3.52777px;line-height:1.25;font-family:Verdana;-inkscape-font-specification:Verdana;stroke-width:0.264583"
       id="path6672" />
    <path
       d="m 7.9130563,71.483141 q 0,0.470255 -0.2411562,0.742417 -0.2411561,0.272162 -0.645954,0.272162 -0.4082429,0 -0.649399,-0.272162 -0.2394336,-0.272162 -0.2394336,-0.742417 0,-0.470254 0.2394336,-0.742416 0.2411561,-0.273885 0.649399,-0.273885 0.4047979,0 0.645954,0.273885 0.2411562,0.272162 0.2411562,0.742416 z m -0.3341735,0 q 0,-0.373792 -0.1464163,-0.554659 -0.1464162,-0.18259 -0.4065204,-0.18259 -0.2635492,0 -0.4099654,0.18259 -0.1446937,0.180867 -0.1446937,0.554659 0,0.361734 0.1464162,0.549492 0.1464163,0.186034 0.4082429,0.186034 0.2583816,0 0.4047979,-0.184312 0.1481388,-0.186035 0.1481388,-0.551214 z"
       style="font-style:normal;font-variant:normal;font-weight:normal;font-stretch:normal;font-size:3.52777px;line-height:1.25;font-family:Verdana;-inkscape-font-specification:Verdana;stroke-width:0.264583"
       id="path6674" />
    <path
       d="M 8.7415997,72.444321 H 8.4177614 v -2.680279 h 0.3238383 z"
       style="font-style:normal;font-variant:normal;font-weight:normal;font-stretch:normal;font-size:3.52777px;line-height:1.25;font-family:Verdana;-inkscape-font-specification:Verdana;stroke-width:0.264583"
       id="path6676" />
    <path
       d="m 11.022248,71.483141 q 0,0.470255 -0.241156,0.742417 -0.241156,0.272162 -0.645954,0.272162 -0.4082429,0 -0.649399,-0.272162 -0.2394336,-0.272162 -0.2394336,-0.742417 0,-0.470254 0.2394336,-0.742416 0.2411561,-0.273885 0.649399,-0.273885 0.404798,0 0.645954,0.273885 0.241156,0.272162 0.241156,0.742416 z m -0.334173,0 q 0,-0.373792 -0.146417,-0.554659 -0.146416,-0.18259 -0.40652,-0.18259 -0.2635492,0 -0.4099654,0.18259 -0.1446937,0.180867 -0.1446937,0.554659 0,0.361734 0.1464162,0.549492 0.1464163,0.186034 0.4082429,0.186034 0.258382,0 0.404798,-0.184312 0.148139,-0.186035 0.148139,-0.551214 z"
       style="font-style:normal;font-variant:normal;font-weight:normal;font-stretch:normal;font-size:3.52777px;line-height:1.25;font-family:Verdana;-inkscape-font-specification:Verdana;stroke-width:0.264583"
       id="path6678" />
    <path
       d="m 12.724121,70.873361 h -0.01722 q -0.07235,-0.01723 -0.141249,-0.02412 -0.06718,-0.0086 -0.160196,-0.0086 -0.149862,0 -0.289388,0.06718 -0.139526,0.06546 -0.268717,0.170532 v 1.365978 h -0.323838 v -1.924082 h 0.323838 v 0.28422 q 0.192925,-0.155029 0.339342,-0.218763 0.148138,-0.06546 0.301445,-0.06546 0.0844,0 0.1223,0.0052 0.0379,0.0034 0.113688,0.0155 z"
       style="font-style:normal;font-variant:normal;font-weight:normal;font-stretch:normal;font-size:3.52777px;line-height:1.25;font-family:Verdana;-inkscape-font-specification:Verdana;stroke-width:0.264583"
       id="path6680" />
    <path
       d="M 3.3976579,97.255296 V 97.59636 H 2.1419233 v 1.27985 h 1.2557346 v 0.341064 H 0.83278991 V 98.87621 H 1.8387556 V 97.59636 H 0.83278991 v -0.341064 z"
       style="font-style:normal;font-variant:normal;font-weight:normal;font-stretch:normal;font-size:3.52777px;line-height:1.25;font-family:Verdana;-inkscape-font-specification:Verdana;stroke-width:0.264583"
       id="path6683" />
    <path
       d="M 3.3976579,94.997041 V 95.32088 H 3.1840624 q 0.1291908,0.163641 0.1980926,0.313503 0.068902,0.149861 0.068902,0.330728 0,0.303168 -0.1843122,0.471977 -0.1860347,0.168809 -0.5443239,0.168809 H 1.4735763 v -0.323838 h 1.0955379 q 0.1464163,0 0.2514914,-0.01378 0.1033527,-0.01378 0.1774221,-0.05857 0.075792,-0.04651 0.1102428,-0.120578 0.034451,-0.07407 0.034451,-0.215318 0,-0.125746 -0.065457,-0.273884 -0.065457,-0.149862 -0.1670868,-0.279052 H 1.4735763 v -0.323839 z"
       style="font-style:normal;font-variant:normal;font-weight:normal;font-stretch:normal;font-size:3.52777px;line-height:1.25;font-family:Verdana;-inkscape-font-specification:Verdana;stroke-width:0.264583"
       id="path6685" />
    <path
       d="m 2.4692067,92.749121 v 1.417654 q 0.177422,0 0.3100579,-0.0534 0.1309133,-0.0534 0.215318,-0.146416 0.082682,-0.08957 0.1240231,-0.211873 0.041341,-0.124023 0.041341,-0.272162 0,-0.19637 -0.077515,-0.394463 -0.079237,-0.199815 -0.1550289,-0.284219 v -0.01723 h 0.3531215 q 0.068902,0.163642 0.1154104,0.334174 0.046509,0.170532 0.046509,0.358289 0,0.478867 -0.2583816,0.747584 -0.2601041,0.268717 -0.7372488,0.268717 -0.471977,0 -0.7493066,-0.256659 -0.2773296,-0.258382 -0.2773296,-0.678683 0,-0.389294 0.2273758,-0.599445 0.2273758,-0.211873 0.645954,-0.211873 z m -0.2480464,0.315226 q -0.2549365,0.0017 -0.3944625,0.129191 -0.1395261,0.125745 -0.1395261,0.384127 0,0.260104 0.1533064,0.415133 0.1533064,0.153306 0.3806822,0.173977 z"
       style="font-style:normal;font-variant:normal;font-weight:normal;font-stretch:normal;font-size:3.52777px;line-height:1.25;font-family:Verdana;-inkscape-font-specification:Verdana;stroke-width:0.264583"
       id="path6687" />
    <path
       d="m 2.5298822,107.23754 q 0.1498613,0 0.2962775,0.0706 0.1464163,0.0689 0.2480464,0.19465 0.1102428,0.1378 0.1722544,0.32212 0.062012,0.18258 0.062012,0.44097 0,0.27733 -0.051676,0.49953 -0.051676,0.22049 -0.1533064,0.44959 H 2.6762984 v -0.0241 q 0.1619192,-0.19465 0.2497689,-0.44958 0.08785,-0.25494 0.08785,-0.47887 0,-0.31695 -0.1188555,-0.49265 -0.1188555,-0.17742 -0.3169481,-0.17742 -0.1705318,0 -0.2514914,0.0844 -0.08096,0.0827 -0.1257457,0.25321 -0.034451,0.12919 -0.056844,0.28077 -0.022393,0.14987 -0.056844,0.31868 -0.072347,0.34106 -0.2463238,0.50642 -0.1756995,0.16365 -0.4564742,0.16365 -0.3221157,0 -0.52709841,-0.27217 -0.20670528,-0.27216 -0.20670528,-0.69074 0,-0.27044 0.0516763,-0.49609 0.0516763,-0.22565 0.12746826,-0.39963 H 1.2328066 v 0.0241 q -0.1240232,0.14641 -0.2049828,0.38585 -0.0826821,0.23771 -0.0826821,0.48748 0,0.27388 0.1136879,0.44097 0.1136879,0.16536 0.2928325,0.16536 0.1601966,0 0.2514914,-0.0827 0.091295,-0.0827 0.1395261,-0.29111 0.024116,-0.11024 0.058566,-0.3135 0.034451,-0.20326 0.070624,-0.34451 0.075792,-0.28595 0.2290983,-0.43064 0.1533064,-0.14469 0.4289135,-0.14469 z"
       style="font-style:normal;font-variant:normal;font-weight:normal;font-stretch:normal;font-size:3.52777px;line-height:1.25;font-family:Verdana;-inkscape-font-specification:Verdana;stroke-width:0.264583"
       id="path6690" />
    <path
       d="m 3.2619634,105.22044 v 0.32211 H 3.0569806 q 0.029283,0.0431 0.082682,0.11714 0.051676,0.0723 0.082682,0.14125 0.039619,0.081 0.065457,0.18603 0.027561,0.10508 0.027561,0.24632 0,0.26011 -0.1722544,0.44098 -0.1722544,0.18086 -0.4392487,0.18086 -0.2187631,0 -0.3531215,-0.093 -0.136081,-0.0947 -0.2135954,-0.26872 -0.077514,-0.1757 -0.1050752,-0.42202 -0.027561,-0.24633 -0.041341,-0.52883 h -0.049954 q -0.1102428,0 -0.1825896,0.0396 -0.072347,0.0379 -0.1136879,0.11025 -0.039619,0.0689 -0.053399,0.16536 -0.01378,0.0965 -0.01378,0.20154 0,0.12747 0.034451,0.28422 0.032728,0.15675 0.096463,0.32384 v 0.0172 H 1.3792228 q -0.025838,-0.0947 -0.056844,-0.27388 -0.031006,-0.17915 -0.031006,-0.35312 0,-0.20327 0.034451,-0.35313 0.032728,-0.15158 0.113688,-0.26182 0.079237,-0.10852 0.2049827,-0.16537 0.1257457,-0.0568 0.3117804,-0.0568 z m -0.4736996,0.32211 H 2.2525526 q 0.00861,0.14814 0.025838,0.34968 0.017225,0.19982 0.049954,0.31695 0.039619,0.13952 0.1240232,0.22565 0.082682,0.0861 0.2290984,0.0861 0.1653642,0 0.2497688,-0.0999 0.082682,-0.0999 0.082682,-0.30489 0,-0.17053 -0.065457,-0.31178 -0.067179,-0.14125 -0.1601966,-0.26183 z"
       style="font-style:normal;font-variant:normal;font-weight:normal;font-stretch:normal;font-size:3.52777px;line-height:1.25;font-family:Verdana;-inkscape-font-specification:Verdana;stroke-width:0.264583"
       id="path6692" />
    <path
       d="m 3.2447379,103.5978 q 0.024116,0.0913 0.039619,0.19982 0.015503,0.1068 0.015503,0.1912 0,0.29455 -0.158474,0.44786 -0.1584741,0.15331 -0.5081505,0.15331 H 1.6100437 v 0.21876 H 1.3378818 v -0.21876 H 0.78494514 v -0.32384 H 1.3378818 v -0.66835 h 0.2721619 v 0.66835 h 0.8767749 q 0.1515839,0 0.2377111,-0.007 0.084405,-0.007 0.158474,-0.0482 0.068902,-0.0379 0.1016301,-0.10335 0.031006,-0.0672 0.031006,-0.20326 0,-0.0792 -0.022393,-0.16537 -0.024116,-0.0861 -0.039619,-0.12402 v -0.0172 z"
       style="font-style:normal;font-variant:normal;font-weight:normal;font-stretch:normal;font-size:3.52777px;line-height:1.25;font-family:Verdana;-inkscape-font-specification:Verdana;stroke-width:0.264583"
       id="path6694" />
    <path
       d="m 3.0682933,119.8173 v 1.62264 H 0.50342537 v -0.34107 H 2.7651256 v -1.28157 z"
       style="font-style:normal;font-variant:normal;font-weight:normal;font-stretch:normal;font-size:3.52777px;line-height:1.25;font-family:Verdana;-inkscape-font-specification:Verdana;stroke-width:0.264583"
       id="path6697" />
    <path
       d="m 0.822096,119.15412 v 0.36518 H 0.48619993 v -0.36518 z m 2.2461973,0.0207 v 0.32384 H 1.1442117 v -0.32384 z"
       style="font-style:normal;font-variant:normal;font-weight:normal;font-stretch:normal;font-size:3.52777px;line-height:1.25;font-family:Verdana;-inkscape-font-specification:Verdana;stroke-width:0.264583"
       id="path6699" />
    <path
       d="m 2.8495302,116.97338 q 0.4892025,0 0.7183009,0.22221 0.2290983,0.22221 0.2290983,0.68385 0,0.15331 -0.022393,0.29972 -0.020671,0.1447 -0.060289,0.28594 H 3.3835189 v -0.0172 q 0.031006,-0.0792 0.075792,-0.25149 0.046509,-0.17226 0.046509,-0.34451 0,-0.16537 -0.039619,-0.27389 -0.039619,-0.10852 -0.1102428,-0.1688 -0.067179,-0.0603 -0.1619192,-0.0861 -0.09474,-0.0258 -0.2118729,-0.0258 H 2.8064667 q 0.1171329,0.14642 0.1756994,0.28077 0.056844,0.13264 0.056844,0.33935 0,0.3445 -0.2480463,0.54776 -0.2497689,0.20154 -0.702798,0.20154 -0.2480463,0 -0.4271909,-0.0689 -0.1808671,-0.0706 -0.3117804,-0.1912 -0.1223007,-0.11197 -0.1894799,-0.27216 -0.068902,-0.1602 -0.068902,-0.31867 0,-0.16709 0.034451,-0.27906 0.032728,-0.11368 0.1016301,-0.23943 l -0.082682,-0.0207 v -0.30317 z m -0.3100579,0.32384 H 1.4904431 q -0.058566,0.12919 -0.082682,0.24116 -0.025838,0.11024 -0.025838,0.22048 0,0.267 0.1791446,0.4203 0.1791445,0.15331 0.5202082,0.15331 0.3238383,0 0.4909251,-0.11369 0.1670867,-0.11369 0.1670867,-0.37724 0,-0.14125 -0.053399,-0.28249 -0.055121,-0.14297 -0.1464164,-0.26183 z"
       style="font-style:normal;font-variant:normal;font-weight:normal;font-stretch:normal;font-size:3.52777px;line-height:1.25;font-family:Verdana;-inkscape-font-specification:Verdana;stroke-width:0.264583"
       id="path6701" />
    <path
       d="m 3.0682933,114.72718 v 0.32384 H 1.9727554 q -0.1326359,0 -0.2480464,0.0155 -0.117133,0.0155 -0.1825896,0.0568 -0.072347,0.0431 -0.1067977,0.12402 -0.036174,0.081 -0.036174,0.21015 0,0.13264 0.065457,0.27733 0.065457,0.1447 0.1670868,0.27733 h 1.4366016 v 0.32384 H 0.38801492 v -0.32384 H 1.3578072 q -0.1257457,-0.15158 -0.19637,-0.3135 -0.070624,-0.16192 -0.070624,-0.33245 0,-0.31178 0.1877573,-0.47542 0.1877572,-0.16365 0.5408788,-0.16365 z"
       style="font-style:normal;font-variant:normal;font-weight:normal;font-stretch:normal;font-size:3.52777px;line-height:1.25;font-family:Verdana;-inkscape-font-specification:Verdana;stroke-width:0.264583"
       id="path6703" />
    <path
       d="m 3.0510679,113.10455 q 0.024116,0.0913 0.039619,0.19981 0.015503,0.1068 0.015503,0.19121 0,0.29455 -0.158474,0.44786 -0.1584741,0.1533 -0.5081505,0.1533 H 1.4163737 v 0.21877 h -0.272162 v -0.21877 H 0.59127511 v -0.32384 H 1.1442117 v -0.66834 h 0.272162 v 0.66834 h 0.8767748 q 0.1515839,0 0.2377111,-0.007 0.084405,-0.007 0.1584741,-0.0482 0.068902,-0.0379 0.1016301,-0.10335 0.031006,-0.0672 0.031006,-0.20326 0,-0.0792 -0.022393,-0.16536 -0.024116,-0.0861 -0.039619,-0.12403 v -0.0172 z"
       style="font-style:normal;font-variant:normal;font-weight:normal;font-stretch:normal;font-size:3.52777px;line-height:1.25;font-family:Verdana;-inkscape-font-specification:Verdana;stroke-width:0.264583"
       id="path6705" />
    <path
       d="m 2.3583269,85.400273 q 0.1498613,0 0.2962776,0.07062 0.1464162,0.0689 0.2480463,0.194647 0.1102428,0.137804 0.1722544,0.322116 0.062012,0.18259 0.062012,0.440971 0,0.27733 -0.051676,0.499538 -0.051676,0.220486 -0.1533065,0.449584 H 2.5047431 v -0.02412 q 0.1619192,-0.194647 0.2497689,-0.449584 0.08785,-0.254936 0.08785,-0.478867 0,-0.316948 -0.1188556,-0.492647 -0.1188555,-0.177422 -0.3169481,-0.177422 -0.1705318,0 -0.2514914,0.0844 -0.08096,0.08268 -0.1257457,0.253214 -0.034451,0.129191 -0.056844,0.280775 -0.022393,0.149861 -0.056844,0.318671 -0.072347,0.341063 -0.2463238,0.506427 -0.1756995,0.163642 -0.4564741,0.163642 -0.32211576,0 -0.52709849,-0.272162 -0.20670528,-0.272162 -0.20670528,-0.69074 0,-0.270439 0.0516763,-0.496093 0.0516763,-0.225653 0.12746826,-0.39963 H 1.0612513 v 0.02412 q -0.12402317,0.146416 -0.20498274,0.38585 -0.0826821,0.237711 -0.0826821,0.48748 0,0.273884 0.1136879,0.440971 0.11368794,0.165364 0.29283244,0.165364 0.1601966,0 0.2514914,-0.08268 0.091295,-0.08268 0.1395261,-0.29111 0.024116,-0.110243 0.058567,-0.313503 0.034451,-0.20326 0.070624,-0.344509 0.075792,-0.285942 0.2290984,-0.430636 0.1533064,-0.144693 0.4289134,-0.144693 z"
       style="font-style:normal;font-variant:normal;font-weight:normal;font-stretch:normal;font-size:3.52777px;line-height:1.25;font-family:Verdana;-inkscape-font-specification:Verdana;stroke-width:0.264583"
       id="path6708" />
    <path
       d="m 3.0904081,83.383174 v 0.322115 H 2.8854254 q 0.029283,0.04306 0.082682,0.117133 0.051676,0.07235 0.082682,0.141249 0.039619,0.08096 0.065457,0.186035 0.027561,0.105075 0.027561,0.246323 0,0.260105 -0.1722543,0.440972 -0.1722544,0.180867 -0.4392488,0.180867 -0.218763,0 -0.3531215,-0.09302 -0.1360809,-0.09474 -0.2135954,-0.268716 -0.077514,-0.1757 -0.1050752,-0.422024 -0.027561,-0.246323 -0.041341,-0.528821 h -0.049954 q -0.1102428,0 -0.1825897,0.03962 -0.072347,0.0379 -0.1136879,0.110243 -0.039619,0.0689 -0.053399,0.165364 -0.01378,0.09646 -0.01378,0.201538 0,0.127468 0.034451,0.284219 0.032728,0.156752 0.096462,0.323839 v 0.01722 H 1.2076675 q -0.025838,-0.09474 -0.056844,-0.273884 -0.031006,-0.179145 -0.031006,-0.353122 0,-0.20326 0.034451,-0.353122 0.032728,-0.151583 0.1136879,-0.261826 0.079237,-0.10852 0.2049827,-0.165364 0.1257457,-0.05684 0.3117805,-0.05684 z M 2.6167085,83.705289 H 2.0809973 q 0.00861,0.148139 0.025838,0.349677 0.017225,0.199815 0.049954,0.316948 0.039619,0.139526 0.1240231,0.225653 0.082682,0.08613 0.2290984,0.08613 0.1653642,0 0.2497688,-0.09991 0.082682,-0.09991 0.082682,-0.304891 0,-0.170531 -0.065457,-0.31178 -0.067179,-0.141249 -0.1601961,-0.261827 z"
       style="font-style:normal;font-variant:normal;font-weight:normal;font-stretch:normal;font-size:3.52777px;line-height:1.25;font-family:Verdana;-inkscape-font-specification:Verdana;stroke-width:0.264583"
       id="path6710" />
    <path
       d="m 3.0904081,79.951866 v 0.323838 h -1.095538 q -0.1240231,0 -0.2394336,0.01206 -0.1154104,0.01033 -0.1843122,0.04651 -0.074069,0.03962 -0.1119653,0.113688 -0.037896,0.07407 -0.037896,0.213595 0,0.136081 0.068902,0.272162 0.067179,0.136081 0.1722544,0.272162 0.039619,-0.0052 0.093017,-0.0086 0.051676,-0.0034 0.1033527,-0.0034 H 3.090408 v 0.323838 H 1.99487 q -0.1274682,0 -0.2411561,0.01206 -0.1154105,0.01034 -0.1843122,0.04651 -0.074069,0.03962 -0.1102428,0.113688 -0.037896,0.07407 -0.037896,0.213595 0,0.132636 0.065457,0.266995 0.065457,0.132636 0.1670867,0.265271 h 1.4366017 v 0.323839 H 1.1663265 v -0.323839 h 0.2135954 q -0.1257457,-0.151583 -0.19637,-0.301445 -0.070624,-0.151584 -0.070624,-0.322116 0,-0.19637 0.082682,-0.33245 0.082682,-0.137804 0.2290984,-0.204983 -0.1653642,-0.19637 -0.2377111,-0.358289 -0.074069,-0.16192 -0.074069,-0.346232 0,-0.316948 0.1929249,-0.466809 0.1912024,-0.151584 0.5357112,-0.151584 z"
       style="font-style:normal;font-variant:normal;font-weight:normal;font-stretch:normal;font-size:3.52777px;line-height:1.25;font-family:Verdana;-inkscape-font-specification:Verdana;stroke-width:0.264583"
       id="path6712" />
    <path
       d="m 2.1051129,77.635044 q 0.234266,0 0.4289135,0.06718 0.1929249,0.06718 0.3272833,0.18948 0.1274683,0.113688 0.1980926,0.268717 0.068902,0.153306 0.068902,0.325561 0,0.149861 -0.032728,0.272162 -0.032728,0.120578 -0.1016301,0.246324 h 0.8061506 v 0.323838 H 1.1663265 V 79.004468 H 1.3678641 Q 1.2593439,78.875277 1.186997,78.71508 1.112928,78.553161 1.112928,78.370571 q 0,-0.347953 0.2635492,-0.540878 0.2618267,-0.194648 0.7286361,-0.194648 z m 0.00861,0.334174 q -0.3479539,0 -0.5202083,0.118855 -0.1722544,0.118856 -0.1722544,0.36518 0,0.139526 0.060289,0.280774 0.060289,0.141249 0.1584741,0.27044 h 1.0903703 q 0.062012,-0.137804 0.084405,-0.235989 0.022393,-0.09991 0.022393,-0.225653 0,-0.27044 -0.1825896,-0.422023 -0.1825897,-0.151584 -0.5408791,-0.151584 z"
       style="font-style:normal;font-variant:normal;font-weight:normal;font-stretch:normal;font-size:3.52777px;line-height:1.25;font-family:Verdana;-inkscape-font-specification:Verdana;stroke-width:0.264583"
       id="path6714" />
    <path
       d="m 3.0904081,76.803056 v 0.323838 H 0.41012968 v -0.323838 z"
       style="font-style:normal;font-variant:normal;font-weight:normal;font-stretch:normal;font-size:3.52777px;line-height:1.25;font-family:Verdana;-inkscape-font-specification:Verdana;stroke-width:0.264583"
       id="path6716" />
    <path
       d="m 2.1619569,74.551691 v 1.417653 q 0.177422,0 0.3100579,-0.0534 0.1309133,-0.0534 0.215318,-0.146416 0.082682,-0.08957 0.1240232,-0.211873 0.041341,-0.124023 0.041341,-0.272162 0,-0.19637 -0.077514,-0.394462 -0.079237,-0.199815 -0.1550289,-0.28422 v -0.01723 h 0.3531215 q 0.068902,0.163641 0.1154104,0.334173 0.046509,0.170532 0.046509,0.358289 0,0.478867 -0.2583816,0.747584 -0.2601041,0.268717 -0.7372488,0.268717 -0.471977,0 -0.7493066,-0.256659 -0.2773296,-0.258381 -0.2773296,-0.678682 0,-0.389295 0.2273758,-0.599445 0.2273758,-0.211873 0.645954,-0.211873 z m -0.2480463,0.315225 q -0.2549365,0.0017 -0.3944626,0.129191 -0.1395261,0.125746 -0.1395261,0.384127 0,0.260104 0.1533064,0.415133 0.1533065,0.153307 0.3806823,0.173977 z"
       style="font-style:normal;font-variant:normal;font-weight:normal;font-stretch:normal;font-size:3.52777px;line-height:1.25;font-family:Verdana;-inkscape-font-specification:Verdana;stroke-width:0.264583"
       id="path6718" />
    <path
       d="m 160.49429,113.84734 v 0.36346 l -0.71485,0.25149 v 1.10933 l 0.71485,0.25149 v 0.34623 l -2.56487,-0.93362 v -0.45475 z m -1.00769,0.72003 -1.25918,0.44959 1.25918,0.4513 z"
       style="font-style:normal;font-variant:normal;font-weight:normal;font-stretch:normal;font-size:3.52778px;line-height:1.25;font-family:Verdana;-inkscape-font-specification:Verdana;stroke-width:0.264583"
       id="path6721" />
    <path
       d="m 160.49429,113.1566 v 0.32384 h -2.68028 v -0.32384 z"
       style="font-style:normal;font-variant:normal;font-weight:normal;font-stretch:normal;font-size:3.52778px;line-height:1.25;font-family:Verdana;-inkscape-font-specification:Verdana;stroke-width:0.264583"
       id="path6723" />
    <path
       d="m 160.27553,110.95518 q 0.4892,0 0.7183,0.22221 0.2291,0.22221 0.2291,0.68386 0,0.1533 -0.0224,0.29972 -0.0207,0.14469 -0.0603,0.28594 h -0.33073 v -0.0172 q 0.031,-0.0792 0.0758,-0.2515 0.0465,-0.17225 0.0465,-0.34451 0,-0.16536 -0.0396,-0.27388 -0.0396,-0.10852 -0.11024,-0.16881 -0.0672,-0.0603 -0.16192,-0.0861 -0.0947,-0.0258 -0.21187,-0.0258 h -0.1757 q 0.11713,0.14642 0.1757,0.28078 0.0568,0.13264 0.0568,0.33934 0,0.34451 -0.24805,0.54777 -0.24977,0.20154 -0.7028,0.20154 -0.24804,0 -0.42719,-0.0689 -0.18087,-0.0706 -0.31178,-0.1912 -0.1223,-0.11197 -0.18948,-0.27217 -0.0689,-0.16019 -0.0689,-0.31867 0,-0.16709 0.0345,-0.27905 0.0327,-0.11369 0.10163,-0.23944 l -0.0827,-0.0207 v -0.30317 z m -0.31006,0.32384 h -1.04903 q -0.0586,0.1292 -0.0827,0.24116 -0.0258,0.11024 -0.0258,0.22049 0,0.26699 0.17914,0.4203 0.17915,0.15331 0.52021,0.15331 0.32384,0 0.49093,-0.11369 0.16709,-0.11369 0.16709,-0.37724 0,-0.14125 -0.0534,-0.2825 -0.0551,-0.14297 -0.14642,-0.26183 z"
       style="font-style:normal;font-variant:normal;font-weight:normal;font-stretch:normal;font-size:3.52778px;line-height:1.25;font-family:Verdana;-inkscape-font-specification:Verdana;stroke-width:0.264583"
       id="path6725" />
    <path
       d="m 159.53311,108.67798 q 0.47026,0 0.74242,0.24115 0.27216,0.24116 0.27216,0.64596 0,0.40824 -0.27216,0.6494 -0.27216,0.23943 -0.74242,0.23943 -0.47025,0 -0.74242,-0.23943 -0.27388,-0.24116 -0.27388,-0.6494 0,-0.4048 0.27388,-0.64596 0.27217,-0.24115 0.74242,-0.24115 z m 0,0.33417 q -0.37379,0 -0.55466,0.14642 -0.18259,0.14641 -0.18259,0.40652 0,0.26355 0.18259,0.40996 0.18087,0.1447 0.55466,0.1447 0.36174,0 0.54949,-0.14642 0.18604,-0.14641 0.18604,-0.40824 0,-0.25838 -0.18431,-0.4048 -0.18604,-0.14814 -0.55122,-0.14814 z"
       style="font-style:normal;font-variant:normal;font-weight:normal;font-stretch:normal;font-size:3.52778px;line-height:1.25;font-family:Verdana;-inkscape-font-specification:Verdana;stroke-width:0.264583"
       id="path6727" />
    <path
       d="m 158.92333,106.9761 v 0.0172 q -0.0172,0.0724 -0.0241,0.14125 -0.009,0.0672 -0.009,0.1602 0,0.14986 0.0672,0.28939 0.0655,0.13952 0.17053,0.26871 h 1.36598 v 0.32384 h -1.92408 v -0.32384 h 0.28422 q -0.15503,-0.19292 -0.21877,-0.33934 -0.0654,-0.14814 -0.0654,-0.30144 0,-0.0844 0.005,-0.1223 0.003,-0.0379 0.0155,-0.11369 z"
       style="font-style:normal;font-variant:normal;font-weight:normal;font-stretch:normal;font-size:3.52778px;line-height:1.25;font-family:Verdana;-inkscape-font-specification:Verdana;stroke-width:0.264583"
       id="path6729" />
    <path
       d="m 158.24809,106.32325 v 0.36518 h -0.3359 v -0.36518 z m 2.2462,0.0207 v 0.32384 h -1.92408 v -0.32384 z"
       style="font-style:normal;font-variant:normal;font-weight:normal;font-stretch:normal;font-size:3.52778px;line-height:1.25;font-family:Verdana;-inkscape-font-specification:Verdana;stroke-width:0.264583"
       id="path6731" />
    <path
       d="m 160.47707,104.70405 q 0.0241,0.0913 0.0396,0.19982 0.0155,0.1068 0.0155,0.1912 0,0.29456 -0.15848,0.44787 -0.15847,0.1533 -0.50815,0.1533 h -1.02319 v 0.21877 h -0.27216 v -0.21877 h -0.55294 v -0.32384 h 0.55294 v -0.66835 h 0.27216 v 0.66835 h 0.87678 q 0.15158,0 0.23771,-0.007 0.0844,-0.007 0.15847,-0.0482 0.0689,-0.0379 0.10163,-0.10335 0.031,-0.0672 0.031,-0.20326 0,-0.0792 -0.0224,-0.16537 -0.0241,-0.0861 -0.0396,-0.12402 v -0.0172 z"
       style="font-style:normal;font-variant:normal;font-weight:normal;font-stretch:normal;font-size:3.52778px;line-height:1.25;font-family:Verdana;-inkscape-font-specification:Verdana;stroke-width:0.264583"
       id="path6733" />
    <path
       d="m 160.49429,101.50528 v 0.32384 h -1.09554 q -0.12402,0 -0.23943,0.0121 -0.11541,0.0103 -0.18431,0.0465 -0.0741,0.0396 -0.11197,0.11369 -0.0379,0.0741 -0.0379,0.21359 0,0.13608 0.0689,0.27216 0.0672,0.13609 0.17225,0.27217 0.0396,-0.005 0.093,-0.009 0.0517,-0.003 0.10335,-0.003 h 1.23162 v 0.32384 h -1.09554 q -0.12747,0 -0.24115,0.0121 -0.11542,0.0103 -0.18432,0.0465 -0.0741,0.0396 -0.11024,0.11368 -0.0379,0.0741 -0.0379,0.2136 0,0.13264 0.0655,0.26699 0.0655,0.13264 0.16709,0.26528 h 1.4366 v 0.32384 h -1.92408 v -0.32384 h 0.21359 q -0.12574,-0.15159 -0.19637,-0.30145 -0.0706,-0.15158 -0.0706,-0.32212 0,-0.19637 0.0827,-0.33245 0.0827,-0.1378 0.2291,-0.20498 -0.16537,-0.19637 -0.23771,-0.35829 -0.0741,-0.16192 -0.0741,-0.34623 0,-0.31695 0.19292,-0.46681 0.19121,-0.15159 0.53572,-0.15159 z"
       style="font-style:normal;font-variant:normal;font-weight:normal;font-stretch:normal;font-size:3.52778px;line-height:1.25;font-family:Verdana;-inkscape-font-specification:Verdana;stroke-width:0.264583"
       id="path6735" />
    <path
       d="m 160.49429,99.028257 v 0.346232 l -0.72174,0.08613 v 1.105871 l 0.72174,0.4203 v 0.36002 l -2.56487,-1.526178 v -0.451308 z m -1.0008,0.470256 -1.26607,0.160197 1.26607,0.74414 z"
       style="font-style:italic;font-variant:normal;font-weight:normal;font-stretch:normal;font-size:3.52778px;line-height:1.25;font-family:Verdana;-inkscape-font-specification:'Verdana Italic';stroke-width:0.264583"
       id="path6737" />
    <path
       d="m 158.91127,97.142065 v 0.01723 q -0.0172,0.0689 -0.0241,0.129191 -0.009,0.05857 -0.009,0.142971 0,0.16192 0.0741,0.322117 0.0724,0.158474 0.1757,0.304891 l 1.36598,0.310059 v 0.327284 l -1.92408,-0.43925 v -0.327284 l 0.28422,0.06546 q -0.1602,-0.229099 -0.22221,-0.387574 -0.062,-0.160197 -0.062,-0.306613 0,-0.08441 0.005,-0.122301 0.003,-0.0379 0.0155,-0.110244 z"
       style="font-style:italic;font-variant:normal;font-weight:normal;font-stretch:normal;font-size:3.52778px;line-height:1.25;font-family:Verdana;-inkscape-font-specification:'Verdana Italic';stroke-width:0.264583"
       id="path6739" />
    <path
       d="m 158.57021,95.746802 0.26182,0.05857 v 0.668349 l 0.88712,0.206706 q 0.0672,0.01723 0.15503,0.03101 0.0861,0.01378 0.1378,0.01378 0.12575,0 0.18776,-0.06373 0.0603,-0.06373 0.0603,-0.235989 0,-0.07063 -0.0241,-0.167087 -0.0241,-0.09819 -0.0379,-0.132637 v -0.01722 l 0.27906,0.06029 q 0.0241,0.09646 0.0396,0.206706 0.0155,0.108521 0.0155,0.192925 0,0.237712 -0.10335,0.368626 -0.10508,0.129191 -0.33073,0.129191 -0.0551,0 -0.10852,-0.0069 -0.0551,-0.0086 -0.12403,-0.02239 l -1.03353,-0.239435 v 0.218764 l -0.26182,-0.05857 v -0.218763 l -0.55294,-0.129191 v -0.32384 l 0.55294,0.129192 z"
       style="font-style:italic;font-variant:normal;font-weight:normal;font-stretch:normal;font-size:3.52778px;line-height:1.25;font-family:Verdana;-inkscape-font-specification:'Verdana Italic';stroke-width:0.264583"
       id="path6741" />
    <path
       d="m 159.32296,94.243017 q -0.0499,-0.0086 -0.0844,-0.01206 -0.0345,-0.0034 -0.0758,-0.0034 -0.18431,0 -0.28766,0.10163 -0.10336,0.09991 -0.10336,0.322117 0,0.244602 0.15159,0.434082 0.15158,0.189481 0.39963,0.25666 z m 1.21612,0.647678 q 0,0.399631 -0.18776,0.627008 -0.18776,0.227376 -0.54949,0.227376 -0.52882,0 -0.90606,-0.334174 -0.37896,-0.334175 -0.37896,-0.826824 0,-0.327284 0.16364,-0.501261 0.16192,-0.173978 0.45647,-0.173978 0.0517,0 0.16365,0.0155 0.11196,0.01378 0.2601,0.04651 v 1.417658 q 0.05,0.01033 0.0982,0.0155 0.0482,0.0034 0.0896,0.0034 0.24288,0 0.38241,-0.148139 0.1378,-0.14814 0.1378,-0.420302 0,-0.189481 -0.0741,-0.389296 -0.0741,-0.201539 -0.16709,-0.33762 v -0.01895 l 0.34968,0.07063 q 0.031,0.08613 0.0568,0.155029 0.0258,0.0689 0.0517,0.1757 0.0258,0.106798 0.0396,0.18948 0.0138,0.08268 0.0138,0.206706 z"
       style="font-style:italic;font-variant:normal;font-weight:normal;font-stretch:normal;font-size:3.52778px;line-height:1.25;font-family:Verdana;-inkscape-font-specification:'Verdana Italic';stroke-width:0.264583"
       id="path6743" />
    <path
       d="m 141.87891,110.4511 q 0.0413,0.0947 0.0775,0.17226 0.0362,0.0758 0.0758,0.19981 0.0327,0.10508 0.0551,0.2291 0.0241,0.1223 0.0241,0.27044 0,0.27905 -0.0775,0.50815 -0.0792,0.22738 -0.24633,0.39619 -0.16364,0.16536 -0.41513,0.25838 -0.25322,0.093 -0.58739,0.093 -0.31695,0 -0.56672,-0.0896 -0.24977,-0.0896 -0.42203,-0.25839 -0.16708,-0.16364 -0.25493,-0.39446 -0.0879,-0.23254 -0.0879,-0.51504 0,-0.20671 0.0499,-0.41169 0.05,-0.20671 0.1757,-0.4582 h 0.4048 v 0.0258 q -0.17742,0.21187 -0.25838,0.4203 -0.081,0.20843 -0.081,0.44614 0,0.19465 0.0637,0.3514 0.062,0.15503 0.19465,0.27733 0.12919,0.11886 0.32728,0.18604 0.19638,0.0654 0.45476,0.0654 0.27044,0 0.46509,-0.0723 0.19464,-0.0741 0.31694,-0.18948 0.12747,-0.12058 0.18949,-0.28078 0.0603,-0.16192 0.0603,-0.34106 0,-0.24633 -0.0844,-0.46165 -0.0844,-0.21531 -0.25322,-0.40307 v -0.0241 z"
       style="font-style:normal;font-variant:normal;font-weight:normal;font-stretch:normal;font-size:3.52778px;line-height:1.25;font-family:Verdana;-inkscape-font-specification:Verdana;stroke-width:0.264583"
       id="path6746" />
    <path
       d="m 140.14085,108.33064 2.63378,1.12311 v 0.34623 l -0.80271,-0.35829 -1.83107,0.76653 v -0.3514 l 1.42627,-0.59083 -1.42627,-0.596 z"
       style="font-style:normal;font-variant:normal;font-weight:normal;font-stretch:normal;font-size:3.52778px;line-height:1.25;font-family:Verdana;-inkscape-font-specification:Verdana;stroke-width:0.264583"
       id="path6748" />
    <path
       d="m 141.94436,106.51508 q 0.0775,0.16192 0.12058,0.30833 0.0431,0.1447 0.0431,0.30834 0,0.20843 -0.0603,0.38241 -0.062,0.17397 -0.18604,0.298 -0.12402,0.12574 -0.3135,0.19465 -0.18948,0.0689 -0.4427,0.0689 -0.47198,0 -0.74069,-0.25839 -0.26872,-0.2601 -0.26872,-0.68557 0,-0.16536 0.0465,-0.32384 0.0465,-0.1602 0.11369,-0.29283 h 0.36001 v 0.0172 q -0.11541,0.14814 -0.17742,0.30662 -0.062,0.15675 -0.062,0.30661 0,0.27561 0.18604,0.43581 0.18431,0.15847 0.5426,0.15847 0.34796,0 0.53571,-0.15503 0.18604,-0.15675 0.18604,-0.43925 0,-0.0982 -0.0258,-0.19982 -0.0258,-0.10163 -0.0672,-0.18259 -0.0362,-0.0706 -0.0758,-0.13263 -0.0413,-0.062 -0.0706,-0.0982 v -0.0172 z"
       style="font-style:normal;font-variant:normal;font-weight:normal;font-stretch:normal;font-size:3.52778px;line-height:1.25;font-family:Verdana;-inkscape-font-specification:Verdana;stroke-width:0.264583"
       id="path6750" />
    <path
       d="m 142.06494,105.77266 v 0.32384 h -2.68028 v -0.32384 z"
       style="font-style:normal;font-variant:normal;font-weight:normal;font-stretch:normal;font-size:3.52778px;line-height:1.25;font-family:Verdana;-inkscape-font-specification:Verdana;stroke-width:0.264583"
       id="path6752" />
    <path
       d="m 139.81874,104.78392 v 0.36518 h -0.3359 v -0.36518 z m 2.2462,0.0207 v 0.32384 h -1.92409 v -0.32384 z"
       style="font-style:normal;font-variant:normal;font-weight:normal;font-stretch:normal;font-size:3.52778px;line-height:1.25;font-family:Verdana;-inkscape-font-specification:Verdana;stroke-width:0.264583"
       id="path6754" />
    <path
       d="m 141.94436,102.74097 q 0.0775,0.16192 0.12058,0.30834 0.0431,0.14469 0.0431,0.30834 0,0.20842 -0.0603,0.3824 -0.062,0.17398 -0.18604,0.298 -0.12402,0.12575 -0.3135,0.19465 -0.18948,0.0689 -0.4427,0.0689 -0.47198,0 -0.74069,-0.25838 -0.26872,-0.26011 -0.26872,-0.68557 0,-0.16537 0.0465,-0.32384 0.0465,-0.1602 0.11369,-0.29284 h 0.36001 v 0.0172 q -0.11541,0.14814 -0.17742,0.30661 -0.062,0.15675 -0.062,0.30662 0,0.2756 0.18604,0.4358 0.18431,0.15847 0.5426,0.15847 0.34796,0 0.53571,-0.15502 0.18604,-0.15676 0.18604,-0.43925 0,-0.0982 -0.0258,-0.19982 -0.0258,-0.10163 -0.0672,-0.18259 -0.0362,-0.0706 -0.0758,-0.13264 -0.0413,-0.062 -0.0706,-0.0982 v -0.0172 z"
       style="font-style:normal;font-variant:normal;font-weight:normal;font-stretch:normal;font-size:3.52778px;line-height:1.25;font-family:Verdana;-inkscape-font-specification:Verdana;stroke-width:0.264583"
       id="path6756" />
    <path
       d="m 141.87891,100.31907 q 0.0413,0.0947 0.0775,0.17225 0.0362,0.0758 0.0758,0.19982 0.0327,0.10508 0.0551,0.2291 0.0241,0.1223 0.0241,0.27044 0,0.27905 -0.0775,0.50815 -0.0792,0.22738 -0.24633,0.39619 -0.16364,0.16536 -0.41513,0.25838 -0.25322,0.093 -0.58739,0.093 -0.31695,0 -0.56672,-0.0896 -0.24977,-0.0896 -0.42203,-0.25838 -0.16708,-0.16364 -0.25493,-0.39446 -0.0879,-0.23255 -0.0879,-0.51504 0,-0.20671 0.0499,-0.41169 0.05,-0.20671 0.1757,-0.4582 h 0.4048 v 0.0258 q -0.17742,0.21187 -0.25838,0.4203 -0.081,0.20843 -0.081,0.44614 0,0.19465 0.0637,0.3514 0.062,0.15503 0.19465,0.27733 0.12919,0.11886 0.32728,0.18604 0.19638,0.0654 0.45476,0.0654 0.27044,0 0.46509,-0.0723 0.19464,-0.0741 0.31694,-0.18949 0.12747,-0.12057 0.18949,-0.28077 0.0603,-0.16192 0.0603,-0.34107 0,-0.24632 -0.0844,-0.46164 -0.0844,-0.21532 -0.25322,-0.40308 v -0.0241 z"
       style="font-style:normal;font-variant:normal;font-weight:normal;font-stretch:normal;font-size:3.52778px;line-height:1.25;font-family:Verdana;-inkscape-font-specification:Verdana;stroke-width:0.264583"
       id="path6758" />
    <path
       d="m 142.06494,97.814483 v 0.363458 l -0.71486,0.251492 v 1.109321 l 0.71486,0.251492 v 0.346234 l -2.56487,-0.933623 v -0.454753 z m -1.00769,0.720025 -1.25918,0.449585 1.25918,0.451308 z"
       style="font-style:normal;font-variant:normal;font-weight:normal;font-stretch:normal;font-size:3.52778px;line-height:1.25;font-family:Verdana;-inkscape-font-specification:Verdana;stroke-width:0.264583"
       id="path6760" />
    <path
       d="m 148.55962,92.840913 q 0,0.429258 -0.24598,0.682472 -0.24598,0.252008 -0.68006,0.252008 -0.43288,0 -0.67886,-0.252008 -0.24598,-0.253214 -0.24598,-0.682472 0,-0.432875 0.24598,-0.683678 0.24598,-0.252008 0.67886,-0.252008 0.43167,0 0.67885,0.252008 0.24719,0.250803 0.24719,0.683678 z m -0.61374,0.45458 q 0.0675,-0.08199 0.10008,-0.192925 0.0325,-0.112138 0.0325,-0.262861 0,-0.161574 -0.0374,-0.274918 -0.0374,-0.113343 -0.0977,-0.183279 -0.0615,-0.07235 -0.14228,-0.104903 -0.0796,-0.03256 -0.1664,-0.03256 -0.088,0 -0.16639,0.03135 -0.0772,0.03135 -0.14229,0.103697 -0.0603,0.06752 -0.0989,0.186896 -0.0374,0.118166 -0.0374,0.274918 0,0.160369 0.0362,0.273712 0.0374,0.112138 0.0977,0.183279 0.0603,0.07114 0.14108,0.104903 0.0808,0.03376 0.17001,0.03376 0.0892,0 0.17002,-0.03376 0.0808,-0.03497 0.14108,-0.107314 z"
       style="font-style:normal;font-variant:normal;font-weight:bold;font-stretch:normal;font-size:2.46944px;line-height:1.25;font-family:Verdana;-inkscape-font-specification:'Verdana Bold';fill:#fcffff;fill-opacity:1;stroke-width:0.264583"
       id="path6763" />
    <path
       d="m 150.48525,93.088098 q 0,0.332796 -0.20257,0.510046 -0.20257,0.177249 -0.59686,0.177249 -0.39429,0 -0.59686,-0.177249 -0.20137,-0.17725 -0.20137,-0.50884 v -1.146698 h 0.46543 v 1.120171 q 0,0.186896 0.0784,0.278535 0.0784,0.09164 0.25442,0.09164 0.17363,0 0.25321,-0.08802 0.0808,-0.08802 0.0808,-0.282153 v -1.120171 h 0.46543 z"
       style="font-style:normal;font-variant:normal;font-weight:bold;font-stretch:normal;font-size:2.46944px;line-height:1.25;font-family:Verdana;-inkscape-font-specification:'Verdana Bold';fill:#fcffff;fill-opacity:1;stroke-width:0.264583"
       id="path6765" />
    <path
       d="m 152.32286,92.289871 h -0.56069 v 1.448143 h -0.46302 v -1.448143 h -0.56068 v -0.347265 h 1.58439 z"
       style="font-style:normal;font-variant:normal;font-weight:bold;font-stretch:normal;font-size:2.46944px;line-height:1.25;font-family:Verdana;-inkscape-font-specification:'Verdana Bold';fill:#fcffff;fill-opacity:1;stroke-width:0.264583"
       id="path6767" />
    <path
       d="m 153.89158,93.738014 h -1.19854 v -0.313503 h 0.37861 v -0.94895 h -0.37861 v -0.293005 q 0.0868,0 0.16639,-0.0096 0.0796,-0.01085 0.13264,-0.03617 0.0627,-0.03014 0.094,-0.07838 0.0314,-0.04823 0.0362,-0.120578 h 0.39912 v 1.486728 h 0.37017 z"
       style="font-style:normal;font-variant:normal;font-weight:bold;font-stretch:normal;font-size:2.46944px;line-height:1.25;font-family:Verdana;-inkscape-font-specification:'Verdana Bold';fill:#fcffff;fill-opacity:1;stroke-width:0.264583"
       id="path6769" />
    <path
       d="m 148.35388,108.9456 q 0,0.42925 -0.24598,0.68247 -0.24597,0.25201 -0.68006,0.25201 -0.43287,0 -0.67885,-0.25201 -0.24598,-0.25322 -0.24598,-0.68247 0,-0.43288 0.24598,-0.68368 0.24598,-0.25201 0.67885,-0.25201 0.43167,0 0.67886,0.25201 0.24718,0.2508 0.24718,0.68368 z m -0.61374,0.45458 q 0.0675,-0.082 0.10008,-0.19293 0.0326,-0.11214 0.0326,-0.26286 0,-0.16157 -0.0374,-0.27492 -0.0374,-0.11334 -0.0977,-0.18328 -0.0615,-0.0723 -0.14228,-0.1049 -0.0796,-0.0326 -0.1664,-0.0326 -0.088,0 -0.1664,0.0314 -0.0772,0.0313 -0.14228,0.1037 -0.0603,0.0675 -0.0989,0.1869 -0.0374,0.11816 -0.0374,0.27492 0,0.16036 0.0362,0.27371 0.0374,0.11214 0.0977,0.18328 0.0603,0.0711 0.14108,0.1049 0.0808,0.0338 0.17001,0.0338 0.0892,0 0.17002,-0.0338 0.0808,-0.035 0.14107,-0.10731 z"
       style="font-style:normal;font-variant:normal;font-weight:bold;font-stretch:normal;font-size:2.46944px;line-height:1.25;font-family:Verdana;-inkscape-font-specification:'Verdana Bold';fill:#fcffff;fill-opacity:1;stroke-width:0.264583"
       id="path6772" />
    <path
       d="m 150.27952,109.19278 q 0,0.3328 -0.20257,0.51005 -0.20258,0.17725 -0.59687,0.17725 -0.39429,0 -0.59686,-0.17725 -0.20136,-0.17725 -0.20136,-0.50884 v -1.1467 h 0.46543 v 1.12017 q 0,0.1869 0.0784,0.27854 0.0784,0.0916 0.25442,0.0916 0.17364,0 0.25322,-0.088 0.0808,-0.088 0.0808,-0.28215 v -1.12017 h 0.46543 z"
       style="font-style:normal;font-variant:normal;font-weight:bold;font-stretch:normal;font-size:2.46944px;line-height:1.25;font-family:Verdana;-inkscape-font-specification:'Verdana Bold';fill:#fcffff;fill-opacity:1;stroke-width:0.264583"
       id="path6774" />
    <path
       d="m 152.11713,108.39455 h -0.56069 v 1.44815 h -0.46302 v -1.44815 h -0.56069 v -0.34726 h 1.5844 z"
       style="font-style:normal;font-variant:normal;font-weight:bold;font-stretch:normal;font-size:2.46944px;line-height:1.25;font-family:Verdana;-inkscape-font-specification:'Verdana Bold';fill:#fcffff;fill-opacity:1;stroke-width:0.264583"
       id="path6776" />
    <path
       d="m 153.79919,109.8427 h -1.40956 v -0.29663 q 0.16158,-0.11696 0.32315,-0.24839 0.16278,-0.13143 0.26045,-0.22668 0.1459,-0.14108 0.2074,-0.24598 0.0615,-0.10491 0.0615,-0.2074 0,-0.12299 -0.0796,-0.1893 -0.0784,-0.0675 -0.22669,-0.0675 -0.11093,0 -0.23392,0.0458 -0.12178,0.0458 -0.22669,0.11696 h -0.0386 v -0.39911 q 0.0856,-0.0374 0.25201,-0.0748 0.1676,-0.0374 0.3352,-0.0374 0.33762,0 0.51487,0.14228 0.17725,0.14108 0.17725,0.40032 0,0.17002 -0.0856,0.32315 -0.0844,0.15314 -0.25924,0.31592 -0.10973,0.10128 -0.22066,0.18689 -0.11093,0.0844 -0.15796,0.11817 h 0.80667 z"
       style="font-style:normal;font-variant:normal;font-weight:bold;font-stretch:normal;font-size:2.46944px;line-height:1.25;font-family:Verdana;-inkscape-font-specification:'Verdana Bold';fill:#fcffff;fill-opacity:1;stroke-width:0.264583"
       id="path6778" />
    <path
       d="m 146.23441,11.044782 q 0,0.149861 -0.0706,0.296277 -0.0689,0.146417 -0.19464,0.248047 -0.13781,0.110243 -0.32212,0.172254 -0.18259,0.06201 -0.44097,0.06201 -0.27733,0 -0.49954,-0.05168 -0.22048,-0.05168 -0.44958,-0.153306 v -0.427191 h 0.0241 q 0.19465,0.161919 0.44959,0.249769 0.25493,0.08785 0.47887,0.08785 0.31694,0 0.49264,-0.118856 0.17743,-0.118855 0.17743,-0.316948 0,-0.170532 -0.0844,-0.251491 -0.0827,-0.08096 -0.25321,-0.125746 -0.12919,-0.03445 -0.28078,-0.05684 -0.14986,-0.02239 -0.31867,-0.05684 -0.34106,-0.07235 -0.50643,-0.246324 -0.16364,-0.175699 -0.16364,-0.4564738 0,-0.3221157 0.27216,-0.5270985 0.27217,-0.2067053 0.69074,-0.2067053 0.27044,0 0.4961,0.051676 0.22565,0.051676 0.39963,0.1274682 v 0.4030753 h -0.0241 q -0.14642,-0.1240232 -0.38585,-0.2049827 -0.23771,-0.082682 -0.48748,-0.082682 -0.27388,0 -0.44097,0.1136879 -0.16536,0.1136879 -0.16536,0.2928324 0,0.1601965 0.0827,0.2514915 0.0827,0.0913 0.29111,0.139526 0.11024,0.02412 0.3135,0.05857 0.20326,0.03445 0.34451,0.07062 0.28594,0.07579 0.43064,0.229098 0.14469,0.153307 0.14469,0.428914 z"
       style="font-style:normal;font-variant:normal;font-weight:normal;font-stretch:normal;font-size:3.52777px;line-height:1.25;font-family:Verdana;-inkscape-font-specification:Verdana;stroke-width:0.264583"
       id="path6781" />
    <path
       d="m 147.75542,11.759638 q -0.0913,0.02412 -0.19982,0.03962 -0.1068,0.0155 -0.1912,0.0155 -0.29456,0 -0.44786,-0.158474 -0.15331,-0.158474 -0.15331,-0.50815 v -1.023192 h -0.21876 V 9.8527815 h 0.21876 V 9.2998449 h 0.32384 v 0.5529366 h 0.66835 v 0.2721615 h -0.66835 v 0.876775 q 0,0.151584 0.007,0.237711 0.007,0.08441 0.0482,0.158474 0.0379,0.0689 0.10335,0.101631 0.0672,0.031 0.20326,0.031 0.0792,0 0.16537,-0.02239 0.0861,-0.02412 0.12402,-0.03962 h 0.0172 z"
       style="font-style:normal;font-variant:normal;font-weight:normal;font-stretch:normal;font-size:3.52777px;line-height:1.25;font-family:Verdana;-inkscape-font-specification:Verdana;stroke-width:0.264583"
       id="path6783" />
    <path
       d="m 149.6416,11.776863 h -0.32211 V 11.57188 q -0.0431,0.02928 -0.11714,0.08268 -0.0723,0.05168 -0.14125,0.08268 -0.081,0.03962 -0.18603,0.06546 -0.10508,0.02756 -0.24632,0.02756 -0.26011,0 -0.44098,-0.172254 -0.18086,-0.172255 -0.18086,-0.439249 0,-0.218763 0.093,-0.353122 0.0947,-0.136081 0.26872,-0.213595 0.1757,-0.07752 0.42202,-0.105075 0.24633,-0.02756 0.52883,-0.04134 v -0.04995 q 0,-0.110243 -0.0396,-0.18259 -0.0379,-0.07235 -0.11025,-0.113688 -0.0689,-0.03962 -0.16536,-0.0534 -0.0965,-0.01378 -0.20154,-0.01378 -0.12747,0 -0.28422,0.03445 -0.15675,0.03273 -0.32384,0.09646 h -0.0172 V 9.8941225 q 0.0947,-0.025838 0.27388,-0.056844 0.17915,-0.031006 0.35312,-0.031006 0.20326,0 0.35313,0.034451 0.15158,0.032728 0.26182,0.1136879 0.10852,0.079237 0.16537,0.2049826 0.0568,0.125746 0.0568,0.311781 z m -0.32211,-0.473699 v -0.535712 q -0.14814,0.0086 -0.34968,0.02584 -0.19982,0.01723 -0.31695,0.04995 -0.13953,0.03962 -0.22565,0.124023 -0.0861,0.08268 -0.0861,0.229099 0,0.165364 0.0999,0.249769 0.0999,0.08268 0.30489,0.08268 0.17053,0 0.31178,-0.06546 0.14125,-0.06718 0.26183,-0.160196 z"
       style="font-style:normal;font-variant:normal;font-weight:normal;font-stretch:normal;font-size:3.52777px;line-height:1.25;font-family:Verdana;-inkscape-font-specification:Verdana;stroke-width:0.264583"
       id="path6785" />
    <path
       d="m 151.26424,11.759638 q -0.0913,0.02412 -0.19982,0.03962 -0.1068,0.0155 -0.1912,0.0155 -0.29456,0 -0.44786,-0.158474 -0.15331,-0.158474 -0.15331,-0.50815 v -1.023192 h -0.21876 V 9.8527815 h 0.21876 V 9.2998449 h 0.32384 v 0.5529366 h 0.66835 v 0.2721615 h -0.66835 v 0.876775 q 0,0.151584 0.007,0.237711 0.007,0.08441 0.0482,0.158474 0.0379,0.0689 0.10335,0.101631 0.0672,0.031 0.20326,0.031 0.0792,0 0.16537,-0.02239 0.0861,-0.02412 0.12402,-0.03962 h 0.0172 z"
       style="font-style:normal;font-variant:normal;font-weight:normal;font-stretch:normal;font-size:3.52777px;line-height:1.25;font-family:Verdana;-inkscape-font-specification:Verdana;stroke-width:0.264583"
       id="path6787" />
    <path
       d="m 153.26583,10.848412 h -1.41765 q 0,0.177422 0.0534,0.310058 0.0534,0.130913 0.14641,0.215318 0.0896,0.08268 0.21188,0.124023 0.12402,0.04134 0.27216,0.04134 0.19637,0 0.39446,-0.07751 0.19982,-0.07924 0.28422,-0.155029 h 0.0172 v 0.353121 q -0.16364,0.0689 -0.33418,0.115411 -0.17053,0.04651 -0.35829,0.04651 -0.47886,0 -0.74758,-0.258381 -0.26872,-0.260104 -0.26872,-0.737249 0,-0.471977 0.25666,-0.749307 0.25838,-0.2773294 0.67869,-0.2773294 0.38929,0 0.59944,0.2273754 0.21187,0.227376 0.21187,0.645954 z m -0.31522,-0.248046 q -0.002,-0.254937 -0.12919,-0.394463 -0.12575,-0.139526 -0.38413,-0.139526 -0.2601,0 -0.41513,0.153306 -0.15331,0.153307 -0.17398,0.380683 z"
       style="font-style:normal;font-variant:normal;font-weight:normal;font-stretch:normal;font-size:3.52777px;line-height:1.25;font-family:Verdana;-inkscape-font-specification:Verdana;stroke-width:0.264583"
       id="path6789" />
    <path
       d="m 155.13135,11.222204 q 0,0.263549 -0.21876,0.432358 -0.21705,0.16881 -0.59428,0.16881 -0.2136,0 -0.39274,-0.04995 -0.17742,-0.05168 -0.298,-0.111965 V 11.298 h 0.0172 q 0.15331,0.11541 0.34107,0.184312 0.18775,0.06718 0.36001,0.06718 0.21359,0 0.33417,-0.0689 0.12058,-0.0689 0.12058,-0.217041 0,-0.113688 -0.0655,-0.172254 -0.0654,-0.05857 -0.25149,-0.09991 -0.0689,-0.0155 -0.18087,-0.03617 -0.11024,-0.02067 -0.20153,-0.04479 -0.25322,-0.06718 -0.36001,-0.19637 -0.10508,-0.130913 -0.10508,-0.320393 0,-0.118855 0.0482,-0.22393 0.05,-0.105076 0.14986,-0.1877577 0.0965,-0.08096 0.2446,-0.1274683 0.14987,-0.048231 0.33418,-0.048231 0.17225,0 0.34795,0.043064 0.17742,0.041341 0.29456,0.1016301 v 0.3462319 h -0.0172 q -0.12402,-0.0913 -0.30144,-0.153307 -0.17743,-0.06373 -0.34796,-0.06373 -0.17742,0 -0.29972,0.0689 -0.1223,0.06718 -0.1223,0.201538 0,0.118855 0.0741,0.179144 0.0723,0.06029 0.23426,0.09819 0.0896,0.02067 0.19982,0.04134 0.11196,0.02067 0.18603,0.0379 0.22566,0.05168 0.34796,0.177422 0.1223,0.127469 0.1223,0.337619 z"
       style="font-style:normal;font-variant:normal;font-weight:normal;font-stretch:normal;font-size:3.52777px;line-height:1.25;font-family:Verdana;-inkscape-font-specification:Verdana;stroke-width:0.264583"
       id="path6791" />
    <path
       d="m 142.6978,29.137809 q 0,0.149861 -0.0706,0.296278 -0.0689,0.146416 -0.19465,0.248046 -0.1378,0.110243 -0.32211,0.172254 -0.18259,0.06201 -0.44098,0.06201 -0.27733,0 -0.49953,-0.05168 -0.22049,-0.05168 -0.44959,-0.153307 v -0.427191 h 0.0241 q 0.19465,0.161919 0.44958,0.249769 0.25494,0.08785 0.47887,0.08785 0.31695,0 0.49265,-0.118856 0.17742,-0.118855 0.17742,-0.316948 0,-0.170532 -0.0844,-0.251491 -0.0827,-0.08096 -0.25321,-0.125746 -0.12919,-0.03445 -0.28077,-0.05684 -0.14987,-0.02239 -0.31867,-0.05684 -0.34107,-0.07235 -0.50643,-0.246324 -0.16364,-0.175699 -0.16364,-0.456474 0,-0.322115 0.27216,-0.527098 0.27216,-0.206705 0.69074,-0.206705 0.27044,0 0.49609,0.05168 0.22565,0.05168 0.39963,0.127468 v 0.403075 h -0.0241 q -0.14642,-0.124023 -0.38585,-0.204982 -0.23772,-0.08268 -0.48748,-0.08268 -0.27389,0 -0.44098,0.113687 -0.16536,0.113688 -0.16536,0.292833 0,0.160197 0.0827,0.251491 0.0827,0.0913 0.29111,0.139526 0.11024,0.02412 0.3135,0.05857 0.20327,0.03445 0.34451,0.07062 0.28595,0.07579 0.43064,0.229099 0.14469,0.153306 0.14469,0.428913 z"
       style="font-style:normal;font-variant:normal;font-weight:normal;font-stretch:normal;font-size:3.52777px;line-height:1.25;font-family:Verdana;-inkscape-font-specification:Verdana;stroke-width:0.264583"
       id="path6794" />
    <path
       d="m 143.56769,27.623693 h -0.36518 v -0.335896 h 0.36518 z m -0.0207,2.246197 h -0.32384 v -1.924081 h 0.32384 z"
       style="font-style:normal;font-variant:normal;font-weight:normal;font-stretch:normal;font-size:3.52777px;line-height:1.25;font-family:Verdana;-inkscape-font-specification:Verdana;stroke-width:0.264583"
       id="path6796" />
    <path
       d="m 145.58306,29.86989 h -1.55373 v -0.239433 l 1.12138,-1.414209 h -1.09726 v -0.270439 h 1.50033 v 0.23082 l -1.12654,1.419377 h 1.15582 z"
       style="font-style:normal;font-variant:normal;font-weight:normal;font-stretch:normal;font-size:3.52777px;line-height:1.25;font-family:Verdana;-inkscape-font-specification:Verdana;stroke-width:0.264583"
       id="path6798" />
    <path
       d="m 147.63117,28.941439 h -1.41765 q 0,0.177422 0.0534,0.310058 0.0534,0.130913 0.14642,0.215318 0.0896,0.08268 0.21187,0.124023 0.12403,0.04134 0.27217,0.04134 0.19637,0 0.39446,-0.07751 0.19981,-0.07924 0.28422,-0.155029 h 0.0172 v 0.353121 q -0.16364,0.0689 -0.33417,0.115411 -0.17053,0.04651 -0.35829,0.04651 -0.47887,0 -0.74758,-0.258381 -0.26872,-0.260104 -0.26872,-0.737249 0,-0.471977 0.25666,-0.749307 0.25838,-0.277329 0.67868,-0.277329 0.3893,0 0.59945,0.227376 0.21187,0.227375 0.21187,0.645954 z m -0.31523,-0.248046 q -0.002,-0.254937 -0.12919,-0.394463 -0.12574,-0.139526 -0.38412,-0.139526 -0.26011,0 -0.41514,0.153306 -0.1533,0.153307 -0.17397,0.380683 z"
       style="font-style:normal;font-variant:normal;font-weight:normal;font-stretch:normal;font-size:3.52777px;line-height:1.25;font-family:Verdana;-inkscape-font-specification:Verdana;stroke-width:0.264583"
       id="path6800" />
    <path
       d="m 152.84572,29.203954 q 0,0.149861 -0.0706,0.296278 -0.0689,0.146416 -0.19465,0.248046 -0.1378,0.110243 -0.32212,0.172254 -0.18259,0.06201 -0.44097,0.06201 -0.27733,0 -0.49953,-0.05168 -0.22049,-0.05168 -0.44959,-0.153307 V 29.35037 h 0.0241 q 0.19464,0.161919 0.44958,0.249769 0.25494,0.08785 0.47887,0.08785 0.31695,0 0.49265,-0.118856 0.17742,-0.118855 0.17742,-0.316948 0,-0.170532 -0.0844,-0.251491 -0.0827,-0.08096 -0.25321,-0.125746 -0.12919,-0.03445 -0.28078,-0.05684 -0.14986,-0.02239 -0.31867,-0.05684 -0.34106,-0.07235 -0.50642,-0.246324 -0.16365,-0.175699 -0.16365,-0.456474 0,-0.322115 0.27217,-0.527098 0.27216,-0.206705 0.69074,-0.206705 0.27044,0 0.49609,0.05168 0.22565,0.05168 0.39963,0.127468 v 0.403075 h -0.0241 q -0.14641,-0.124023 -0.38585,-0.204982 -0.23771,-0.08268 -0.48748,-0.08268 -0.27388,0 -0.44097,0.113687 -0.16536,0.113688 -0.16536,0.292833 0,0.160196 0.0827,0.251491 0.0827,0.09129 0.29111,0.139526 0.11024,0.02412 0.3135,0.05857 0.20326,0.03445 0.34451,0.07062 0.28594,0.07579 0.43064,0.229099 0.14469,0.153306 0.14469,0.428913 z"
       style="font-style:normal;font-variant:normal;font-weight:normal;font-stretch:normal;font-size:3.52777px;line-height:1.25;font-family:Verdana;-inkscape-font-specification:Verdana;stroke-width:0.264583"
       id="path6803" />
    <path
       d="m 155.06091,28.95074 q 0,0.234266 -0.0672,0.428913 -0.0672,0.192925 -0.18948,0.327284 -0.11368,0.127468 -0.26871,0.198092 -0.15331,0.0689 -0.32556,0.0689 -0.14986,0 -0.27217,-0.03273 -0.12057,-0.03273 -0.24632,-0.10163 v 0.80615 h -0.32384 V 28.01195 h 0.32384 v 0.201537 q 0.12919,-0.10852 0.28939,-0.180867 0.16192,-0.07407 0.34451,-0.07407 0.34795,0 0.54088,0.263549 0.19464,0.261827 0.19464,0.728636 z m -0.33417,0.0086 q 0,-0.347954 -0.11886,-0.520209 -0.11885,-0.172254 -0.36517,-0.172254 -0.13953,0 -0.28078,0.06029 -0.14125,0.06029 -0.27044,0.158474 v 1.09037 q 0.1378,0.06201 0.23599,0.08441 0.0999,0.02239 0.22565,0.02239 0.27044,0 0.42203,-0.182589 0.15158,-0.18259 0.15158,-0.540879 z"
       style="font-style:normal;font-variant:normal;font-weight:normal;font-stretch:normal;font-size:3.52777px;line-height:1.25;font-family:Verdana;-inkscape-font-specification:Verdana;stroke-width:0.264583"
       id="path6805" />
    <path
       d="m 157.1762,29.007584 h -1.41766 q 0,0.177422 0.0534,0.310058 0.0534,0.130913 0.14642,0.215318 0.0896,0.08268 0.21187,0.124023 0.12402,0.04134 0.27216,0.04134 0.19637,0 0.39447,-0.07751 0.19981,-0.07924 0.28422,-0.155029 h 0.0172 v 0.353121 q -0.16364,0.0689 -0.33417,0.115411 -0.17053,0.04651 -0.35829,0.04651 -0.47887,0 -0.74759,-0.258381 -0.26871,-0.260104 -0.26871,-0.737249 0,-0.471977 0.25666,-0.749307 0.25838,-0.277329 0.67868,-0.277329 0.38929,0 0.59944,0.227375 0.21188,0.227376 0.21188,0.645954 z m -0.31523,-0.248046 q -0.002,-0.254937 -0.12919,-0.394463 -0.12574,-0.139526 -0.38413,-0.139526 -0.2601,0 -0.41513,0.153306 -0.15331,0.153307 -0.17398,0.380683 z"
       style="font-style:normal;font-variant:normal;font-weight:normal;font-stretch:normal;font-size:3.52777px;line-height:1.25;font-family:Verdana;-inkscape-font-specification:Verdana;stroke-width:0.264583"
       id="path6807" />
    <path
       d="m 159.2777,29.007584 h -1.41765 q 0,0.177422 0.0534,0.310058 0.0534,0.130913 0.14641,0.215318 0.0896,0.08268 0.21188,0.124023 0.12402,0.04134 0.27216,0.04134 0.19637,0 0.39446,-0.07751 0.19981,-0.07924 0.28422,-0.155029 h 0.0172 v 0.353121 q -0.16364,0.0689 -0.33417,0.115411 -0.17053,0.04651 -0.35829,0.04651 -0.47887,0 -0.74758,-0.258381 -0.26872,-0.260104 -0.26872,-0.737249 0,-0.471977 0.25666,-0.749307 0.25838,-0.277329 0.67868,-0.277329 0.3893,0 0.59945,0.227375 0.21187,0.227376 0.21187,0.645954 z m -0.31522,-0.248046 q -0.002,-0.254937 -0.1292,-0.394463 -0.12574,-0.139526 -0.38412,-0.139526 -0.26011,0 -0.41514,0.153306 -0.1533,0.153307 -0.17397,0.380683 z"
       style="font-style:normal;font-variant:normal;font-weight:normal;font-stretch:normal;font-size:3.52777px;line-height:1.25;font-family:Verdana;-inkscape-font-specification:Verdana;stroke-width:0.264583"
       id="path6809" />
    <path
       d="m 161.32925,29.936035 h -0.32384 v -0.201537 q -0.13952,0.120578 -0.29111,0.187757 -0.15158,0.06718 -0.329,0.06718 -0.34451,0 -0.54777,-0.265272 -0.20154,-0.265272 -0.20154,-0.735526 0,-0.244601 0.0689,-0.435804 0.0706,-0.191202 0.18948,-0.32556 0.11713,-0.130914 0.27216,-0.199816 0.15675,-0.0689 0.32384,-0.0689 0.15159,0 0.26872,0.03273 0.11713,0.03101 0.24632,0.09819 v -0.833711 h 0.32384 z m -0.32384,-0.473699 v -1.104151 q -0.13091,-0.05857 -0.23426,-0.08096 -0.10336,-0.02239 -0.22566,-0.02239 -0.27216,0 -0.42374,0.18948 -0.15159,0.18948 -0.15159,0.537434 0,0.342786 0.11714,0.521931 0.11713,0.177422 0.37551,0.177422 0.1378,0 0.27905,-0.06029 0.14125,-0.06201 0.26355,-0.158474 z"
       style="font-style:normal;font-variant:normal;font-weight:normal;font-stretch:normal;font-size:3.52777px;line-height:1.25;font-family:Verdana;-inkscape-font-specification:Verdana;stroke-width:0.264583"
       id="path6811" />
    <path
       d="m 154.07957,46.042217 q 0,0.191203 -0.0724,0.337619 -0.0723,0.146416 -0.19464,0.241156 -0.1447,0.113688 -0.31868,0.161919 -0.17225,0.04823 -0.43924,0.04823 h -0.90951 v -2.564868 h 0.75964 q 0.28078,0 0.42031,0.02067 0.13952,0.02067 0.26699,0.08613 0.14125,0.07407 0.20498,0.191203 0.0637,0.11541 0.0637,0.277329 0,0.18259 -0.093,0.311781 -0.093,0.127468 -0.24805,0.204982 v 0.01378 q 0.26011,0.0534 0.40997,0.229098 0.14986,0.173977 0.14986,0.440971 z m -0.57361,-1.155827 q 0,-0.09302 -0.031,-0.156751 -0.031,-0.06373 -0.0999,-0.103353 -0.081,-0.04651 -0.19637,-0.05684 -0.11541,-0.01206 -0.28594,-0.01206 h -0.40652 v 0.740694 h 0.44097 q 0.16019,0 0.25493,-0.0155 0.0947,-0.01723 0.1757,-0.0689 0.081,-0.05168 0.11369,-0.132636 0.0344,-0.08268 0.0344,-0.194648 z m 0.21877,1.169608 q 0,-0.155029 -0.0465,-0.246324 -0.0465,-0.0913 -0.16881,-0.155029 -0.0827,-0.04306 -0.20154,-0.05512 -0.11713,-0.01378 -0.28594,-0.01378 h -0.53571 v 0.954289 h 0.4513 q 0.22393,0 0.3669,-0.02239 0.14298,-0.02412 0.23427,-0.08613 0.0965,-0.06718 0.14125,-0.153306 0.0448,-0.08613 0.0448,-0.222208 z"
       style="font-style:normal;font-variant:normal;font-weight:normal;font-stretch:normal;font-size:3.52777px;line-height:1.25;font-family:Verdana;-inkscape-font-specification:Verdana;stroke-width:0.264583"
       id="path6814" />
    <path
       d="m 154.86505,46.831142 h -0.32384 v -2.680278 h 0.32384 z"
       style="font-style:normal;font-variant:normal;font-weight:normal;font-stretch:normal;font-size:3.52777px;line-height:1.25;font-family:Verdana;-inkscape-font-specification:Verdana;stroke-width:0.264583"
       id="path6816" />
    <path
       d="m 157.1457,45.869963 q 0,0.470254 -0.24116,0.742416 -0.24115,0.272162 -0.64595,0.272162 -0.40825,0 -0.6494,-0.272162 -0.23943,-0.272162 -0.23943,-0.742416 0,-0.470255 0.23943,-0.742417 0.24115,-0.273884 0.6494,-0.273884 0.4048,0 0.64595,0.273884 0.24116,0.272162 0.24116,0.742417 z m -0.33418,0 q 0,-0.373792 -0.14641,-0.554659 -0.14642,-0.18259 -0.40652,-0.18259 -0.26355,0 -0.40997,0.18259 -0.14469,0.180867 -0.14469,0.554659 0,0.361734 0.14641,0.549491 0.14642,0.186035 0.40825,0.186035 0.25838,0 0.4048,-0.184312 0.14813,-0.186035 0.14813,-0.551214 z"
       style="font-style:normal;font-variant:normal;font-weight:normal;font-stretch:normal;font-size:3.52777px;line-height:1.25;font-family:Verdana;-inkscape-font-specification:Verdana;stroke-width:0.264583"
       id="path6818" />
    <path
       d="m 159.06978,46.710564 q -0.16192,0.07752 -0.30834,0.120578 -0.14469,0.04306 -0.30833,0.04306 -0.20843,0 -0.38241,-0.06029 -0.17397,-0.06201 -0.298,-0.186035 -0.12574,-0.124023 -0.19464,-0.313503 -0.0689,-0.18948 -0.0689,-0.442694 0,-0.471977 0.25839,-0.740693 0.2601,-0.268717 0.68557,-0.268717 0.16536,0 0.32384,0.04651 0.16019,0.04651 0.29283,0.113688 v 0.360012 h -0.0172 q -0.14813,-0.11541 -0.30661,-0.177422 -0.15675,-0.06201 -0.30661,-0.06201 -0.27561,0 -0.43581,0.186035 -0.15847,0.184312 -0.15847,0.542601 0,0.347954 0.15503,0.535712 0.15675,0.186034 0.43925,0.186034 0.0982,0 0.19981,-0.02584 0.10163,-0.02584 0.18259,-0.06718 0.0706,-0.03617 0.13264,-0.07579 0.062,-0.04134 0.0982,-0.07062 h 0.0172 z"
       style="font-style:normal;font-variant:normal;font-weight:normal;font-stretch:normal;font-size:3.52777px;line-height:1.25;font-family:Verdana;-inkscape-font-specification:Verdana;stroke-width:0.264583"
       id="path6820" />
    <path
       d="m 161.23157,46.831142 h -0.42719 l -0.7717,-0.842324 -0.21015,0.199816 v 0.642508 h -0.32384 v -2.680278 h 0.32384 v 1.719099 l 0.93534,-0.962902 h 0.40825 l -0.894,0.888833 z"
       style="font-style:normal;font-variant:normal;font-weight:normal;font-stretch:normal;font-size:3.52777px;line-height:1.25;font-family:Verdana;-inkscape-font-specification:Verdana;stroke-width:0.264583"
       id="path6822" />
    <path
       d="m 143.86853,63.944908 h -0.42202 l -1.21612,-2.294428 v 2.294428 h -0.31867 V 61.38004 h 0.52882 l 1.10932,2.094614 V 61.38004 h 0.31867 z"
       style="font-style:normal;font-variant:normal;font-weight:normal;font-stretch:normal;font-size:3.52777px;line-height:1.25;font-family:Verdana;-inkscape-font-specification:Verdana;stroke-width:0.264583"
       id="path6825" />
    <path
       d="m 146.1354,63.016457 h -1.41765 q 0,0.177422 0.0534,0.310058 0.0534,0.130913 0.14641,0.215318 0.0896,0.08268 0.21188,0.124023 0.12402,0.04134 0.27216,0.04134 0.19637,0 0.39446,-0.07751 0.19982,-0.07924 0.28422,-0.155029 h 0.0172 v 0.353121 q -0.16365,0.0689 -0.33418,0.115411 -0.17053,0.04651 -0.35829,0.04651 -0.47886,0 -0.74758,-0.258381 -0.26872,-0.260104 -0.26872,-0.737249 0,-0.471977 0.25666,-0.749307 0.25838,-0.277329 0.67868,-0.277329 0.3893,0 0.59945,0.227375 0.21187,0.227376 0.21187,0.645954 z m -0.31522,-0.248046 q -0.002,-0.254937 -0.12919,-0.394463 -0.12575,-0.139526 -0.38413,-0.139526 -0.26011,0 -0.41514,0.153306 -0.1533,0.153307 -0.17397,0.380683 z"
       style="font-style:normal;font-variant:normal;font-weight:normal;font-stretch:normal;font-size:3.52777px;line-height:1.25;font-family:Verdana;-inkscape-font-specification:Verdana;stroke-width:0.264583"
       id="path6827" />
    <path
       d="m 146.97428,61.698711 h -0.36518 v -0.335896 h 0.36518 z m -0.0207,2.246197 h -0.32384 v -1.924081 h 0.32384 z"
       style="font-style:normal;font-variant:normal;font-weight:normal;font-stretch:normal;font-size:3.52777px;line-height:1.25;font-family:Verdana;-inkscape-font-specification:Verdana;stroke-width:0.264583"
       id="path6829" />
    <path
       d="m 149.15502,63.726145 q 0,0.489203 -0.22221,0.718301 -0.22221,0.229098 -0.68385,0.229098 -0.1533,0 -0.29972,-0.02239 -0.14469,-0.02067 -0.28594,-0.06029 v -0.330728 h 0.0172 q 0.0792,0.03101 0.2515,0.07579 0.17225,0.04651 0.3445,0.04651 0.16537,0 0.27389,-0.03962 0.10852,-0.03962 0.16881,-0.110243 0.0603,-0.06718 0.0861,-0.161919 0.0258,-0.09474 0.0258,-0.211873 v -0.1757 q -0.14641,0.117133 -0.28077,0.1757 -0.13264,0.05684 -0.33934,0.05684 -0.34451,0 -0.54777,-0.248046 -0.20154,-0.249769 -0.20154,-0.702798 0,-0.248047 0.0689,-0.427191 0.0706,-0.180867 0.1912,-0.311781 0.11197,-0.1223 0.27217,-0.18948 0.16019,-0.0689 0.31867,-0.0689 0.16708,0 0.27905,0.03445 0.11369,0.03273 0.23943,0.10163 l 0.0207,-0.08268 h 0.30317 z m -0.32384,-0.310058 v -1.049029 q -0.12919,-0.05857 -0.24115,-0.08268 -0.11025,-0.02584 -0.22049,-0.02584 -0.26699,0 -0.4203,0.179144 -0.15331,0.179145 -0.15331,0.520208 0,0.323839 0.11369,0.490925 0.11369,0.167087 0.37724,0.167087 0.14125,0 0.2825,-0.0534 0.14297,-0.05512 0.26182,-0.146416 z"
       style="font-style:normal;font-variant:normal;font-weight:normal;font-stretch:normal;font-size:3.52777px;line-height:1.25;font-family:Verdana;-inkscape-font-specification:Verdana;stroke-width:0.264583"
       id="path6831" />
    <path
       d="m 151.40122,63.944908 h -0.32384 V 62.84937 q 0,-0.132636 -0.0155,-0.248046 -0.0155,-0.117133 -0.0568,-0.18259 -0.0431,-0.07235 -0.12402,-0.106798 -0.081,-0.03617 -0.21015,-0.03617 -0.13264,0 -0.27733,0.06546 -0.14469,0.06546 -0.27733,0.167086 v 1.436602 h -0.32384 V 61.26463 h 0.32384 v 0.969792 q 0.15158,-0.125746 0.3135,-0.19637 0.16192,-0.07062 0.33245,-0.07062 0.31179,0 0.47543,0.187757 0.16364,0.187757 0.16364,0.540879 z"
       style="font-style:normal;font-variant:normal;font-weight:normal;font-stretch:normal;font-size:3.52777px;line-height:1.25;font-family:Verdana;-inkscape-font-specification:Verdana;stroke-width:0.264583"
       id="path6833" />
    <path
       d="m 153.71804,62.968226 q 0,0.241156 -0.0689,0.434081 -0.0672,0.192925 -0.18259,0.323838 -0.1223,0.136081 -0.26872,0.204983 -0.14641,0.06718 -0.32211,0.06718 -0.16365,0 -0.28595,-0.03962 -0.1223,-0.03789 -0.24115,-0.103352 l -0.0207,0.08957 h -0.30317 V 61.26463 h 0.32384 v 0.957734 q 0.13608,-0.111965 0.28939,-0.182589 0.1533,-0.07235 0.3445,-0.07235 0.34107,0 0.53744,0.261826 0.19809,0.261827 0.19809,0.738972 z m -0.33417,0.0086 q 0,-0.344508 -0.11369,-0.52193 -0.11369,-0.179145 -0.3669,-0.179145 -0.14125,0 -0.28595,0.06201 -0.14469,0.06029 -0.26871,0.156751 v 1.102428 q 0.1378,0.06201 0.23599,0.08613 0.0999,0.02412 0.22565,0.02412 0.26872,0 0.4203,-0.175699 0.15331,-0.177422 0.15331,-0.55466 z"
       style="font-style:normal;font-variant:normal;font-weight:normal;font-stretch:normal;font-size:3.52777px;line-height:1.25;font-family:Verdana;-inkscape-font-specification:Verdana;stroke-width:0.264583"
       id="path6835" />
    <path
       d="m 155.86261,62.983729 q 0,0.470254 -0.24116,0.742416 -0.24116,0.272162 -0.64595,0.272162 -0.40825,0 -0.6494,-0.272162 -0.23944,-0.272162 -0.23944,-0.742416 0,-0.470255 0.23944,-0.742417 0.24115,-0.273884 0.6494,-0.273884 0.40479,0 0.64595,0.273884 0.24116,0.272162 0.24116,0.742417 z m -0.33418,0 q 0,-0.373792 -0.14641,-0.55466 -0.14642,-0.182589 -0.40652,-0.182589 -0.26355,0 -0.40997,0.182589 -0.14469,0.180868 -0.14469,0.55466 0,0.361734 0.14641,0.549491 0.14642,0.186035 0.40825,0.186035 0.25838,0 0.40479,-0.184312 0.14814,-0.186035 0.14814,-0.551214 z"
       style="font-style:normal;font-variant:normal;font-weight:normal;font-stretch:normal;font-size:3.52777px;line-height:1.25;font-family:Verdana;-inkscape-font-specification:Verdana;stroke-width:0.264583"
       id="path6837" />
    <path
       d="m 157.56448,62.373948 h -0.0172 q -0.0723,-0.01722 -0.14124,-0.02412 -0.0672,-0.0086 -0.1602,-0.0086 -0.14986,0 -0.28939,0.06718 -0.13952,0.06546 -0.26871,0.170532 v 1.365977 h -0.32384 v -1.924081 h 0.32384 v 0.284219 q 0.19292,-0.155029 0.33934,-0.218763 0.14814,-0.06546 0.30144,-0.06546 0.0844,0 0.1223,0.0052 0.0379,0.0034 0.11369,0.0155 z"
       style="font-style:normal;font-variant:normal;font-weight:normal;font-stretch:normal;font-size:3.52777px;line-height:1.25;font-family:Verdana;-inkscape-font-specification:Verdana;stroke-width:0.264583"
       id="path6839" />
    <path
       d="m 159.24396,63.390249 q 0,0.263549 -0.21876,0.432359 -0.21704,0.168809 -0.59428,0.168809 -0.2136,0 -0.39274,-0.04995 -0.17742,-0.05168 -0.298,-0.111965 v -0.363457 h 0.0172 q 0.1533,0.11541 0.34106,0.184312 0.18776,0.06718 0.36001,0.06718 0.2136,0 0.33417,-0.0689 0.12058,-0.0689 0.12058,-0.217041 0,-0.113688 -0.0654,-0.172254 -0.0655,-0.05857 -0.2515,-0.09991 -0.0689,-0.0155 -0.18086,-0.03617 -0.11025,-0.02067 -0.20154,-0.04479 -0.25321,-0.06718 -0.36001,-0.19637 -0.10508,-0.130914 -0.10508,-0.320394 0,-0.118855 0.0482,-0.22393 0.05,-0.105076 0.14987,-0.187758 0.0965,-0.08096 0.2446,-0.127468 0.14986,-0.04823 0.33417,-0.04823 0.17225,0 0.34795,0.04306 0.17743,0.04134 0.29456,0.101631 v 0.346231 h -0.0172 q -0.12402,-0.0913 -0.30144,-0.153307 -0.17742,-0.06373 -0.34796,-0.06373 -0.17742,0 -0.29972,0.0689 -0.1223,0.06718 -0.1223,0.201538 0,0.118855 0.0741,0.179144 0.0724,0.06029 0.23427,0.09819 0.0896,0.02067 0.19981,0.04134 0.11197,0.02067 0.18604,0.0379 0.22565,0.05168 0.34795,0.177422 0.1223,0.127469 0.1223,0.337619 z"
       style="font-style:normal;font-variant:normal;font-weight:normal;font-stretch:normal;font-size:3.52777px;line-height:1.25;font-family:Verdana;-inkscape-font-specification:Verdana;stroke-width:0.264583"
       id="path6841" />
    <path
       d="m 141.40859,46.20823 q 0,0.149862 -0.0706,0.296278 -0.0689,0.146416 -0.19464,0.248046 -0.13781,0.110243 -0.32212,0.172255 -0.18259,0.06201 -0.44097,0.06201 -0.27733,0 -0.49954,-0.05168 -0.22048,-0.05168 -0.44958,-0.153307 v -0.427191 h 0.0241 q 0.19465,0.16192 0.44959,0.249769 0.25493,0.08785 0.47886,0.08785 0.31695,0 0.49265,-0.118855 0.17742,-0.118856 0.17742,-0.316949 0,-0.170531 -0.0844,-0.251491 -0.0827,-0.08096 -0.25321,-0.125746 -0.1292,-0.03445 -0.28078,-0.05684 -0.14986,-0.02239 -0.31867,-0.05684 -0.34106,-0.07235 -0.50643,-0.246323 -0.16364,-0.1757 -0.16364,-0.456474 0,-0.322116 0.27216,-0.527099 0.27216,-0.206705 0.69074,-0.206705 0.27044,0 0.4961,0.05168 0.22565,0.05168 0.39963,0.127468 v 0.403076 h -0.0241 q -0.14642,-0.124024 -0.38585,-0.204983 -0.23771,-0.08268 -0.48748,-0.08268 -0.27388,0 -0.44097,0.113688 -0.16537,0.113688 -0.16537,0.292832 0,0.160197 0.0827,0.251492 0.0827,0.09129 0.29111,0.139526 0.11024,0.02412 0.3135,0.05857 0.20326,0.03445 0.34451,0.07062 0.28594,0.07579 0.43063,0.229099 0.1447,0.153306 0.1447,0.428913 z"
       style="font-style:normal;font-variant:normal;font-weight:normal;font-stretch:normal;font-size:3.52777px;line-height:1.25;font-family:Verdana;-inkscape-font-specification:Verdana;stroke-width:0.264583"
       id="path6844" />
    <path
       d="m 143.53938,46.940311 h -0.32384 v -1.095538 q 0,-0.132635 -0.0155,-0.248046 -0.0155,-0.117133 -0.0568,-0.18259 -0.0431,-0.07235 -0.12402,-0.106797 -0.081,-0.03617 -0.21015,-0.03617 -0.13264,0 -0.27733,0.06546 -0.1447,0.06546 -0.27733,0.167087 v 1.436601 h -0.32384 V 44.26004 h 0.32384 v 0.969792 q 0.15158,-0.125745 0.3135,-0.19637 0.16192,-0.07062 0.33245,-0.07062 0.31178,0 0.47542,0.187757 0.16365,0.187758 0.16365,0.540879 z"
       style="font-style:normal;font-variant:normal;font-weight:normal;font-stretch:normal;font-size:3.52777px;line-height:1.25;font-family:Verdana;-inkscape-font-specification:Verdana;stroke-width:0.264583"
       id="path6846" />
    <path
       d="m 145.6581,46.940311 h -0.32211 v -0.204982 q -0.0431,0.02928 -0.11713,0.08268 -0.0724,0.05168 -0.14125,0.08268 -0.081,0.03962 -0.18604,0.06546 -0.10507,0.02756 -0.24632,0.02756 -0.26011,0 -0.44097,-0.172254 -0.18087,-0.172254 -0.18087,-0.439249 0,-0.218763 0.093,-0.353121 0.0947,-0.136081 0.26871,-0.213596 0.1757,-0.07751 0.42203,-0.105075 0.24632,-0.02756 0.52882,-0.04134 v -0.04995 q 0,-0.110243 -0.0396,-0.182589 -0.0379,-0.07235 -0.11024,-0.113688 -0.0689,-0.03962 -0.16537,-0.0534 -0.0965,-0.01378 -0.20154,-0.01378 -0.12746,0 -0.28421,0.03445 -0.15676,0.03273 -0.32384,0.09646 h -0.0172 v -0.329006 q 0.0947,-0.02584 0.27389,-0.05684 0.17914,-0.03101 0.35312,-0.03101 0.20326,0 0.35312,0.03445 0.15158,0.03273 0.26183,0.113688 0.10852,0.07924 0.16536,0.204983 0.0568,0.125745 0.0568,0.31178 z m -0.32211,-0.473699 v -0.535711 q -0.14814,0.0086 -0.34968,0.02584 -0.19981,0.01723 -0.31695,0.04995 -0.13952,0.03962 -0.22565,0.124023 -0.0861,0.08268 -0.0861,0.229098 0,0.165364 0.0999,0.249769 0.0999,0.08268 0.30489,0.08268 0.17053,0 0.31178,-0.06546 0.14125,-0.06718 0.26183,-0.160196 z"
       style="font-style:normal;font-variant:normal;font-weight:normal;font-stretch:normal;font-size:3.52777px;line-height:1.25;font-family:Verdana;-inkscape-font-specification:Verdana;stroke-width:0.264583"
       id="path6848" />
    <path
       d="m 147.97493,45.955016 q 0,0.234266 -0.0672,0.428914 -0.0672,0.192925 -0.18948,0.327283 -0.11369,0.127468 -0.26872,0.198093 -0.15331,0.0689 -0.32556,0.0689 -0.14986,0 -0.27216,-0.03273 -0.12058,-0.03273 -0.24633,-0.10163 V 47.65 h -0.32383 v -2.63377 h 0.32383 v 0.201537 q 0.12919,-0.10852 0.28939,-0.180867 0.16192,-0.07407 0.34451,-0.07407 0.34795,0 0.54088,0.263549 0.19465,0.261827 0.19465,0.728636 z m -0.33418,0.0086 q 0,-0.347954 -0.11885,-0.520208 -0.11886,-0.172255 -0.36518,-0.172255 -0.13953,0 -0.28078,0.06029 -0.14125,0.06029 -0.27044,0.158474 V 46.5803 q 0.13781,0.06201 0.23599,0.0844 0.0999,0.02239 0.22566,0.02239 0.27043,0 0.42202,-0.182589 0.15158,-0.18259 0.15158,-0.540879 z"
       style="font-style:normal;font-variant:normal;font-weight:normal;font-stretch:normal;font-size:3.52777px;line-height:1.25;font-family:Verdana;-inkscape-font-specification:Verdana;stroke-width:0.264583"
       id="path6850" />
    <path
       d="m 150.09021,46.01186 h -1.41765 q 0,0.177422 0.0534,0.310058 0.0534,0.130913 0.14642,0.215318 0.0896,0.08268 0.21187,0.124023 0.12403,0.04134 0.27217,0.04134 0.19637,0 0.39446,-0.07751 0.19981,-0.07924 0.28422,-0.155029 h 0.0172 v 0.353121 q -0.16364,0.0689 -0.33417,0.115411 -0.17053,0.04651 -0.35829,0.04651 -0.47887,0 -0.74758,-0.258382 -0.26872,-0.260104 -0.26872,-0.737249 0,-0.471977 0.25666,-0.749306 0.25838,-0.27733 0.67868,-0.27733 0.3893,0 0.59945,0.227376 0.21187,0.227376 0.21187,0.645954 z m -0.31523,-0.248046 q -0.002,-0.254937 -0.12919,-0.394463 -0.12574,-0.139526 -0.38412,-0.139526 -0.26011,0 -0.41514,0.153307 -0.1533,0.153306 -0.17397,0.380682 z"
       style="font-style:normal;font-variant:normal;font-weight:normal;font-stretch:normal;font-size:3.52777px;line-height:1.25;font-family:Verdana;-inkscape-font-specification:Verdana;stroke-width:0.264583"
       id="path6852" />
  </g>
  <g
     inkscape:groupmode="layer"
     id="layer5"
     inkscape:label="Unused"
     style="display:none">
    <rect
       style="display:inline;fill:#0000ff;fill-opacity:0.5;stroke-width:0.47625"
       id="TEST_OUTPUT"
       width="9"
       height="9"
       x="8"
       y="40"
       inkscape:label="TEST" />
    <rect
       style="display:inline;fill:#0000ff;fill-opacity:0.5;stroke-width:0.47625"
       id="TEST3_OUTPUT"
       width="9"
       height="9"
       x="19"
       y="50"
       inkscape:label="TEST3"
       inkscape:transform-center-x="0.1984375"
       inkscape:transform-center-y="-3.175" />
    <rect
       style="display:inline;fill:#0000ff;fill-opacity:0.5;stroke-width:0.47625"
       id="TEST4_OUTPUT"
       width="9"
       height="9"
       x="19"
       y="60"
       inkscape:label="TEST4"
       inkscape:transform-center-x="0.1984375"
       inkscape:transform-center-y="-3.175" />
    <rect
       style="display:inline;fill:#0000ff;fill-opacity:0.5;stroke-width:0.47625"
       id="TEST5_OUTPUT"
       width="9"
       height="9"
       x="19"
       y="70"
       inkscape:label="TEST5"
       inkscape:transform-center-x="0.1984375"
       inkscape:transform-center-y="-3.175" />
    <rect
       style="display:inline;fill:#0000ff;fill-opacity:0.5;stroke-width:0.47625"
       id="TEST6_OUTPUT"
       width="9"
       height="9"
       x="19"
       y="80"
       inkscape:label="TEST6"
       inkscape:transform-center-x="0.1984375"
       inkscape:transform-center-y="-3.175" />
    <circle
       style="display:inline;fill:#00ffff;fill-opacity:0.5;stroke-width:0.472993"
       id="QUANT0_PARAM"
       cx="-4.8515625"
       cy="14.883333"
       r="2.2695303"
       inkscape:label="QUANT0" />
    <circle
       style="display:inline;fill:#ff00ff;fill-opacity:0.5;stroke-width:0.264583"
       id="QUANT0_LIGHT"
       cx="-4.8515625"
       cy="14.883333"
       r="1.2695303"
       inkscape:label="QUANT0" />
    <rect
       style="display:inline;fill:#ff8000;fill-opacity:0.5;stroke:none;stroke-width:0.316236"
       id="QUANTMODE_PARAM"
       width="6"
       height="10"
       x="23"
       y="88.941666"
       inkscape:label="QUANTMODE&lt;CKSSThree&gt;" />
    <text
       xml:space="preserve"
       style="font-size:2.82223px;line-height:1.25;font-family:Nunito;-inkscape-font-specification:Nunito;display:inline;stroke-width:0.264583"
       x="2.0673065"
       y="91.063087"
       id="text4186-8"><tspan
         sodipodi:role="line"
         id="tspan4184-1"
         x="2.0673065"
         y="91.063087"
         style="font-style:normal;font-variant:normal;font-weight:normal;font-stretch:normal;font-size:2.82223px;font-family:Verdana;-inkscape-font-specification:Verdana;stroke-width:0.264583">Algo</tspan><tspan
         sodipodi:role="line"
         x="2.0673065"
         y="94.618568"
         style="font-style:normal;font-variant:normal;font-weight:normal;font-stretch:normal;font-size:2.82223px;font-family:Verdana;-inkscape-font-specification:Verdana;stroke-width:0.264583"
         id="tspan4432">ritm<tspan
   style="font-style:italic;font-variant:normal;font-weight:normal;font-stretch:normal;font-size:2.82223px;font-family:Verdana;-inkscape-font-specification:'Verdana Italic';stroke-width:0.264583"
   id="tspan942" /></tspan><tspan
         sodipodi:role="line"
         x="2.0673065"
         y="98.174042"
         style="font-style:normal;font-variant:normal;font-weight:normal;font-stretch:normal;font-size:2.82223px;font-family:Verdana;-inkscape-font-specification:Verdana;stroke-width:0.264583"
         id="tspan4435"><tspan
           style="font-style:italic;font-variant:normal;font-weight:normal;font-stretch:normal;font-size:2.82223px;font-family:Verdana;-inkscape-font-specification:'Verdana Italic';stroke-width:0.264583"
           id="tspan4437">Arte</tspan></tspan></text>
  </g>
  <g
     inkscape:groupmode="layer"
     id="layer2"
     inkscape:label="components"
     style="display:none">
    <rect
       style="display:inline;fill:#ffff00;fill-opacity:0.5;stroke-width:6.35"
       id="TEST2_OUTPUT"
       width="120"
       height="120"
       x="16"
       y="4"
       inkscape:label="TEST2" />
    <rect
       style="display:inline;fill:#00ff00;fill-opacity:0.5;stroke-width:0.47625"
       id="RST_INPUT"
       width="9"
       height="9"
       x="4"
       y="9"
       inkscape:label="RST" />
    <circle
       style="display:inline;fill:#00ffff;fill-opacity:0.5;stroke-width:0.472993"
       id="RST_PARAM"
       cx="8"
       cy="22"
       r="2.2695303"
       inkscape:label="RST" />
    <rect
       style="display:inline;fill:#ff0000;fill-opacity:0.5;stroke-width:0.47625"
       id="NUMSTATES_PARAM"
       width="9"
       height="9"
       x="145"
       y="13"
       inkscape:label="NUMSTATES&lt;RoundBlackSnapKnob&gt;" />
    <rect
       style="display:inline;fill:#00ff00;fill-opacity:0.5;stroke-width:0.47625"
       id="COLCL_INPUT"
       width="9"
       height="9"
       x="4"
       y="113"
       inkscape:label="COLCL" />
    <rect
       style="display:inline;fill:#00ff00;fill-opacity:0.5;stroke-width:0.47625"
       id="COLCS_INPUT"
       width="9"
       height="9"
       x="4"
       y="102"
       inkscape:label="COLCS" />
    <rect
       style="display:inline;fill:#00ff00;fill-opacity:0.5;stroke-width:0.47625"
       id="COLCH_INPUT"
       width="9"
       height="9"
       x="4"
       y="91"
       inkscape:label="COLCH" />
    <rect
       style="display:inline;fill:#00ff00;fill-opacity:0.5;stroke-width:0.47625"
       id="COLSAMPLE_INPUT"
       width="9"
       height="9"
       x="4"
       y="73"
       inkscape:label="COLSAMPLE" />
    <circle
       style="display:inline;fill:#00ffff;fill-opacity:0.5;stroke-width:0.472993"
       id="COLSAMPLE_PARAM"
       cx="8"
       cy="86"
       r="2.2695303"
       inkscape:label="COLSAMPLE" />
    <rect
       style="display:inline;fill:#0000ff;fill-opacity:0.5;stroke-width:0.47625"
       id="OUT1_OUTPUT"
       width="9"
       height="9"
       x="145.76244"
       y="95"
       inkscape:label="OUT1"
       inkscape:transform-center-x="-0.28063302"
       inkscape:transform-center-y="2.2450641" />
    <rect
       style="display:inline;fill:#0000ff;fill-opacity:0.5;stroke-width:0.47625"
       id="OUT2_OUTPUT"
       width="9"
       height="9"
       x="145.76244"
       y="111"
       inkscape:label="OUT2"
       inkscape:transform-center-x="-0.28063302"
       inkscape:transform-center-y="2.2450641" />
    <rect
       style="display:inline;fill:#00ff00;fill-opacity:0.5;stroke-width:0.47625"
       id="RANDRULE_INPUT"
       width="9"
       height="9"
       x="4"
       y="30"
       inkscape:label="RANDRULE" />
    <circle
       style="display:inline;fill:#00ffff;fill-opacity:0.5;stroke-width:0.472993"
       id="RANDRULE_PARAM"
       cx="8"
       cy="43"
       r="2.2695303"
       inkscape:label="RANDRULE" />
    <rect
       style="display:inline;fill:#ff0000;fill-opacity:0.5;stroke-width:0.47625"
       id="CASIZE_PARAM"
       width="9"
       height="9"
       x="140"
       y="31"
       inkscape:label="CASIZE&lt;RoundSmallBlackKnobZnap&gt;" />
    <rect
       style="display:inline;fill:#00ff00;fill-opacity:0.5;stroke-width:0.47625"
       id="RANDBLOCK_INPUT"
       width="9"
       height="9"
       x="4"
       y="51"
       inkscape:label="RANDBLOCK" />
    <circle
       style="display:inline;fill:#00ffff;fill-opacity:0.5;stroke-width:0.472993"
       id="RANDBLOCK_PARAM"
       cx="8"
       cy="64"
       r="2.2695303"
       inkscape:label="RANDBLOCK" />
    <rect
       style="display:inline;fill:#ff0000;fill-opacity:0.5;stroke-width:0.47625"
       id="SPEED_PARAM"
       width="9"
       height="9"
       x="152"
       y="31"
       inkscape:label="SPEED&lt;RoundSmallBlackKnobZnap&gt;" />
    <rect
       style="display:inline;fill:#ff0000;fill-opacity:0.5;stroke-width:0.47625"
       id="BLOCKSIZE_PARAM"
       width="9"
       height="9"
       x="152"
       y="48"
       inkscape:label="BLOCKSIZE&lt;RoundSmallBlackKnobZnap&gt;" />
    <rect
       style="display:inline;fill:#ff0000;fill-opacity:0.5;stroke-width:0.47625"
       id="XNEIGH0_PARAM"
       width="9"
       height="9"
       x="140"
       y="66"
       inkscape:label="XNEIGH0&lt;RoundSmallBlackKnobZnap&gt;" />
    <rect
       style="display:inline;fill:#ff0000;fill-opacity:0.5;stroke-width:0.47625"
       id="XNEIGH1_PARAM"
       width="9"
       height="9"
       x="152"
       y="66"
       inkscape:label="XNEIGH1&lt;RoundSmallBlackKnobZnap&gt;" />
    <rect
       style="display:inline;fill:#ff0000;fill-opacity:0.5;stroke-width:0.47625"
       id="XNEIGH2_PARAM"
       width="9"
       height="9"
       x="140"
       y="78"
       inkscape:label="XNEIGH2&lt;RoundSmallBlackKnobZnap&gt;" />
    <rect
       style="display:inline;fill:#ff0000;fill-opacity:0.5;stroke-width:0.47625"
       id="XNEIGH3_PARAM"
       width="9"
       height="9"
       x="152"
       y="78"
       inkscape:label="XNEIGH3&lt;RoundSmallBlackKnobZnap&gt;" />
    <rect
       style="display:inline;fill:#ff8000;fill-opacity:0.5;stroke:none;stroke-width:0.264583"
       id="YSHAPE_PARAM"
       width="6"
       height="7"
       x="140"
       y="49"
       inkscape:label="YSHAPE" />
  </g>
</svg>
