<?xml version="1.0" encoding="UTF-8" standalone="no"?>
<svg
   xmlns:dc="http://purl.org/dc/elements/1.1/"
   xmlns:cc="http://creativecommons.org/ns#"
   xmlns:rdf="http://www.w3.org/1999/02/22-rdf-syntax-ns#"
   xmlns:svg="http://www.w3.org/2000/svg"
   xmlns="http://www.w3.org/2000/svg"
   xmlns:sodipodi="http://sodipodi.sourceforge.net/DTD/sodipodi-0.dtd"
   xmlns:inkscape="http://www.inkscape.org/namespaces/inkscape"
   width="30.48mm"
   height="128.5mm"
   viewBox="0 0 30.48 128.5"
   version="1.1"
   id="svg1364"
   inkscape:version="1.0.1 (3bc2e813f5, 2020-09-07)"
   sodipodi:docname="HoldMeTight.svg">
  <defs
     id="defs1358" />
  <sodipodi:namedview
     id="base"
     pagecolor="#ffffff"
     bordercolor="#666666"
     borderopacity="1.0"
     inkscape:pageopacity="0.0"
     inkscape:pageshadow="2"
     inkscape:zoom="1"
     inkscape:cx="59.825364"
     inkscape:cy="279.15481"
     inkscape:document-units="mm"
     inkscape:document-rotation="0"
     showgrid="true"
     inkscape:snap-nodes="true"
     inkscape:window-width="1695"
     inkscape:window-height="1030"
     inkscape:window-x="76"
     inkscape:window-y="49"
     inkscape:window-maximized="0"
     inkscape:snap-bbox="true"
     inkscape:snap-bbox-midpoints="false"
     inkscape:snap-bbox-edge-midpoints="false"
     inkscape:current-layer="layer1">
    <inkscape:grid
       type="xygrid"
       id="grid1368"
       units="mm"
       spacingx="1"
       spacingy="1" />
  </sodipodi:namedview>
  <metadata
     id="metadata1361">
    <rdf:RDF>
      <cc:Work
         rdf:about="">
        <dc:format>image/svg+xml</dc:format>
        <dc:type
           rdf:resource="http://purl.org/dc/dcmitype/StillImage" />
        <dc:title></dc:title>
      </cc:Work>
    </rdf:RDF>
  </metadata>
  <g
     inkscape:groupmode="layer"
     id="layer3"
     inkscape:label="Background"
     style="display:inline"
     sodipodi:insensitive="true">
    <rect
       style="display:inline;fill:#e6e6e6;fill-opacity:1;stroke-width:0.327907"
       id="rect1961"
       width="30.48"
       height="128.5"
       x="0"
       y="0" />
  </g>
  <g
     inkscape:label="Layer 1"
     inkscape:groupmode="layer"
     id="layer1"
     style="display:inline">
    <text
       xml:space="preserve"
       style="font-size:3.52777px;line-height:1.25;font-family:Sudo;-inkscape-font-specification:Sudo;stroke-width:0.264583"
       x="1"
       y="5.9999995"
       id="text4190"><tspan
         sodipodi:role="line"
         id="tspan4188"
         x="1"
         y="5.9999995"
         style="stroke-width:0.264583" /></text>
    <rect
       style="display:inline;fill:#000000;fill-opacity:0.983806;stroke-width:1.2174"
       id="rect3459-2-9"
       width="11"
       height="21"
       x="18"
       y="12"
       ry="1.9090909" />
    <text
       xml:space="preserve"
       style="font-size:3.52777px;line-height:1.25;font-family:Sudo;-inkscape-font-specification:Sudo;stroke-width:0.264583"
       x="18"
       y="94"
       id="text920"><tspan
         sodipodi:role="line"
         id="tspan918"
         x="18"
         y="94"
         style="stroke-width:0.264583" /></text>
    <rect
       style="display:inline;fill:#000000;fill-opacity:0.983806;stroke-width:1.2174"
       id="rect3459-2-9-1"
       width="11"
       height="21"
       x="18"
       y="39.058334"
       ry="1.9090909" />
    <rect
       style="display:inline;fill:#000000;fill-opacity:0.983806;stroke-width:1.2174"
       id="rect3459-2-9-1-5"
       width="11"
       height="21"
       x="18"
       y="64.058334"
       ry="1.9090909" />
    <path
       style="display:inline;fill:none;stroke:#000000;stroke-width:0.25;stroke-linecap:round;stroke-linejoin:miter;stroke-miterlimit:4;stroke-dasharray:none;stroke-opacity:1"
       d="M 2,62.000001 H 29"
       id="path2036-6" />
    <path
       style="display:inline;fill:none;stroke:#000000;stroke-width:0.25;stroke-linecap:round;stroke-linejoin:miter;stroke-miterlimit:4;stroke-dasharray:none;stroke-opacity:1"
       d="M 2,37 H 29"
       id="path2036" />
    <path
       style="display:inline;fill:none;stroke:#000000;stroke-width:0.25;stroke-linecap:round;stroke-linejoin:miter;stroke-miterlimit:4;stroke-dasharray:none;stroke-opacity:1"
       d="M 1.999999,87 H 29"
       id="path2036-6-9" />
    <path
       style="display:inline;fill:none;stroke:#000000;stroke-width:0.264583px;stroke-linecap:butt;stroke-linejoin:round;stroke-opacity:1"
       d="m 12,37 v -3 h 4 v 3"
       id="path3521" />
    <path
       style="display:inline;fill:none;stroke:#000000;stroke-width:0.264583px;stroke-linecap:butt;stroke-linejoin:round;stroke-opacity:1"
       d="m 12,62 v -3 h 4 v 3"
       id="path3523" />
    <path
       style="display:inline;fill:none;stroke:#000000;stroke-width:0.264583px;stroke-linecap:butt;stroke-linejoin:round;stroke-opacity:1"
       d="m 12,87 v -3.000002 h 3 V 87"
       id="path3525" />
  </g>
  <g
     inkscape:groupmode="layer"
     id="layer4"
     inkscape:label="Text"
     style="display:inline">
    <path
       d="m 4.6975238,101.44029 q 0,0.11989 -0.0565,0.23703 -0.055122,0.11713 -0.1557187,0.19844 -0.1102434,0.0882 -0.2576939,0.1378 -0.1460724,0.0496 -0.3527787,0.0496 -0.2218648,0 -0.3996322,-0.0413 -0.1763894,-0.0413 -0.359669,-0.12265 v -0.34175 h 0.019293 q 0.1557187,0.12953 0.359669,0.19981 0.2039502,0.0703 0.3830957,0.0703 0.2535597,0 0.39412,-0.0951 0.1419383,-0.0951 0.1419383,-0.25356 0,-0.13643 -0.067524,-0.20119 -0.066146,-0.0648 -0.2025721,-0.1006 -0.1033532,-0.0276 -0.2246209,-0.0455 -0.1198896,-0.0179 -0.2549378,-0.0455 -0.2728523,-0.0579 -0.4051443,-0.19706 -0.130914,-0.14056 -0.130914,-0.36518 0,-0.2577 0.2177306,-0.42168 0.2177307,-0.165369 0.5525949,-0.165369 0.2163526,0 0.3968761,0.04134 0.1805235,0.04134 0.3197057,0.101979 v 0.32246 h -0.019292 q -0.1171336,-0.0992 -0.3086815,-0.16399 -0.1901698,-0.0661 -0.3899859,-0.0661 -0.2191086,0 -0.3527787,0.091 -0.1322921,0.0909 -0.1322921,0.23426 0,0.12816 0.066146,0.2012 0.066146,0.073 0.2328891,0.11162 0.088195,0.0193 0.2508036,0.0469 0.162609,0.0276 0.2756084,0.0565 0.228755,0.0606 0.3445105,0.18328 0.1157556,0.12265 0.1157556,0.34313 z"
       style="font-style:normal;font-variant:normal;font-weight:normal;font-stretch:normal;font-size:2.82223px;line-height:1.25;font-family:Verdana;-inkscape-font-specification:Verdana;stroke-width:0.264583"
       id="path6987" />
    <path
       d="m 6.7204895,101.87713 q -0.075792,0.0331 -0.1378043,0.062 -0.060634,0.0289 -0.1598528,0.0606 -0.084061,0.0262 -0.1832796,0.0441 -0.097841,0.0193 -0.2163526,0.0193 -0.2232428,0 -0.4065224,-0.062 -0.1819016,-0.0634 -0.3169497,-0.19706 -0.132292,-0.13092 -0.2067063,-0.33211 -0.074414,-0.20257 -0.074414,-0.46991 0,-0.25356 0.071658,-0.45338 0.071658,-0.19981 0.2067063,-0.33762 0.130914,-0.13367 0.3155716,-0.20395 0.1860357,-0.07028 0.4120346,-0.07028 0.1653651,0 0.3293521,0.03996 0.165365,0.03997 0.3665592,0.14056 v 0.32384 h -0.020671 q -0.1694992,-0.14193 -0.3362422,-0.2067 -0.1667431,-0.0648 -0.3569129,-0.0648 -0.1557188,0 -0.2811206,0.051 -0.1240238,0.0496 -0.2218648,0.15572 -0.095085,0.10335 -0.1488285,0.26182 -0.052366,0.1571 -0.052366,0.36381 0,0.21635 0.057878,0.37207 0.059256,0.15572 0.1515846,0.25356 0.096463,0.10197 0.2246208,0.15158 0.129536,0.0482 0.2728524,0.0482 0.19706,0 0.3693152,-0.0675 0.1722553,-0.0675 0.3224619,-0.20257 h 0.019293 z"
       style="font-style:normal;font-variant:normal;font-weight:normal;font-stretch:normal;font-size:2.82223px;line-height:1.25;font-family:Verdana;-inkscape-font-specification:Verdana;stroke-width:0.264583"
       id="path6989" />
    <path
       d="M 8.7241626,102.02596 H 8.4333957 L 8.2322016,101.45408 H 7.3447425 l -0.2011941,0.57188 H 6.8665619 l 0.7468988,-2.051902 h 0.3638031 z m -0.5760216,-0.80615 -0.359669,-1.00735 -0.361047,1.00735 z"
       style="font-style:normal;font-variant:normal;font-weight:normal;font-stretch:normal;font-size:2.82223px;line-height:1.25;font-family:Verdana;-inkscape-font-specification:Verdana;stroke-width:0.264583"
       id="path6991" />
    <path
       d="M 10.333716,102.02596 H 9.0356001 v -2.051902 h 0.2728523 v 1.809372 h 1.0252636 z"
       style="font-style:normal;font-variant:normal;font-weight:normal;font-stretch:normal;font-size:2.82223px;line-height:1.25;font-family:Verdana;-inkscape-font-specification:Verdana;stroke-width:0.264583"
       id="path6993" />
    <path
       d="m 11.958427,102.02596 h -1.351859 v -2.051902 h 1.351859 v 0.242532 H 10.87942 v 0.56224 h 1.079007 v 0.24254 H 10.87942 v 0.76206 h 1.079007 z"
       style="font-style:normal;font-variant:normal;font-weight:normal;font-stretch:normal;font-size:2.82223px;line-height:1.25;font-family:Verdana;-inkscape-font-specification:Verdana;stroke-width:0.264583"
       id="path6995" />
    <path
       d="M 6.7642696,7.5710073 H 6.4232059 V 6.3152727 H 5.1433557 V 7.5710073 H 4.802292 V 5.0061393 H 5.1433557 V 6.012105 H 6.4232059 V 5.0061393 h 0.3410637 z"
       style="font-style:normal;font-variant:normal;font-weight:normal;font-stretch:normal;font-size:3.52777px;line-height:1.25;font-family:Verdana;-inkscape-font-specification:Verdana;stroke-width:0.264583"
       id="path6998" />
    <path
       d="m 9.067311,6.6098277 q 0,0.4702545 -0.2411562,0.7424165 -0.2411561,0.2721619 -0.645954,0.2721619 -0.4082429,0 -0.6493991,-0.2721619 -0.2394336,-0.272162 -0.2394336,-0.7424165 0,-0.4702545 0.2394336,-0.7424164 0.2411562,-0.2738845 0.6493991,-0.2738845 0.4047979,0 0.645954,0.2738845 0.2411562,0.2721619 0.2411562,0.7424164 z m -0.3341736,0 q 0,-0.373792 -0.1464162,-0.5546591 Q 8.440305,5.8725789 8.1802008,5.8725789 q -0.2635492,0 -0.4099654,0.1825897 -0.1446937,0.1808671 -0.1446937,0.5546591 0,0.3617343 0.1464162,0.5494915 0.1464162,0.1860348 0.4082429,0.1860348 0.2583816,0 0.4047979,-0.1843122 Q 8.7331374,6.975007 8.7331374,6.6098277 Z"
       style="font-style:normal;font-variant:normal;font-weight:normal;font-stretch:normal;font-size:3.52777px;line-height:1.25;font-family:Verdana;-inkscape-font-specification:Verdana;stroke-width:0.264583"
       id="path7000" />
    <path
       d="M 9.8958543,7.5710073 H 9.5720161 V 4.8907288 h 0.3238382 z"
       style="font-style:normal;font-variant:normal;font-weight:normal;font-stretch:normal;font-size:3.52777px;line-height:1.25;font-family:Verdana;-inkscape-font-specification:Verdana;stroke-width:0.264583"
       id="path7002" />
    <path
       d="M 12.097266,7.5710073 H 11.773428 V 7.3694696 q -0.139526,0.1205781 -0.29111,0.1877573 -0.151584,0.067179 -0.329006,0.067179 -0.344509,0 -0.547769,-0.2652718 -0.201538,-0.2652717 -0.201538,-0.7355262 0,-0.2446013 0.0689,-0.4358037 0.07062,-0.1912023 0.18948,-0.3255608 0.117133,-0.1309133 0.272162,-0.1998151 0.156751,-0.068902 0.323838,-0.068902 0.151584,0 0.268717,0.032728 0.117133,0.031006 0.246324,0.098185 V 4.8907288 h 0.323838 z M 11.773428,7.0973077 V 5.993157 Q 11.642514,5.93459 11.539162,5.912197 11.435809,5.889804 11.313508,5.889804 q -0.272162,0 -0.423745,0.1894799 -0.151584,0.1894798 -0.151584,0.5374337 0,0.3427862 0.117133,0.5219308 0.117133,0.177422 0.375514,0.177422 0.137804,0 0.279052,-0.060289 0.141249,-0.062012 0.26355,-0.1584737 z"
       style="font-style:normal;font-variant:normal;font-weight:normal;font-stretch:normal;font-size:3.52777px;line-height:1.25;font-family:Verdana;-inkscape-font-specification:Verdana;stroke-width:0.264583"
       id="path7004" />
    <path
       d="M 15.044539,7.5710073 H 14.703475 V 5.3609833 L 13.990342,6.8647642 H 13.787081 L 13.079116,5.3609833 v 2.210024 h -0.318671 v -2.564868 h 0.465087 l 0.68385,1.4279889 0.661457,-1.4279889 h 0.4737 z"
       style="font-style:normal;font-variant:normal;font-weight:normal;font-stretch:normal;font-size:3.52777px;line-height:1.25;font-family:Verdana;-inkscape-font-specification:Verdana;stroke-width:0.264583"
       id="path7006" />
    <path
       d="m 17.318296,6.6425561 h -1.417653 q 0,0.177422 0.0534,0.3100579 0.0534,0.1309133 0.146416,0.215318 0.08957,0.082682 0.211873,0.1240231 0.124023,0.041341 0.272162,0.041341 0.19637,0 0.394462,-0.077515 0.199815,-0.079237 0.28422,-0.155029 h 0.01722 v 0.3531216 q -0.163641,0.068902 -0.334173,0.1154104 -0.170532,0.046509 -0.358289,0.046509 -0.478867,0 -0.747584,-0.2583816 -0.268717,-0.2601041 -0.268717,-0.7372488 0,-0.4719771 0.256659,-0.7493066 0.258381,-0.2773296 0.678682,-0.2773296 0.389295,0 0.599445,0.2273758 0.211873,0.2273758 0.211873,0.645954 z M 17.003071,6.3945097 Q 17.001348,6.1395732 16.87388,6.0000472 16.748134,5.8605211 16.489753,5.8605211 q -0.260104,0 -0.415133,0.1533064 -0.153307,0.1533064 -0.173977,0.3806822 z"
       style="font-style:normal;font-variant:normal;font-weight:normal;font-stretch:normal;font-size:3.52777px;line-height:1.25;font-family:Verdana;-inkscape-font-specification:Verdana;stroke-width:0.264583"
       id="path7008" />
    <path
       d="M 19.423245,5.309307 H 18.506852 V 7.5710073 H 18.165788 V 5.309307 H 17.249395 V 5.0061393 h 2.17385 z"
       style="font-style:normal;font-variant:normal;font-weight:normal;font-stretch:normal;font-size:3.52777px;line-height:1.25;font-family:Verdana;-inkscape-font-specification:Verdana;stroke-width:0.264583"
       id="path7010" />
    <path
       d="M 20.089869,5.3248099 H 19.72469 V 4.9889138 h 0.365179 z m -0.02067,2.2461974 H 19.745361 V 5.6469256 h 0.323838 z"
       style="font-style:normal;font-variant:normal;font-weight:normal;font-stretch:normal;font-size:3.52777px;line-height:1.25;font-family:Verdana;-inkscape-font-specification:Verdana;stroke-width:0.264583"
       id="path7012" />
    <path
       d="m 22.27061,7.3522442 q 0,0.4892025 -0.222208,0.7183008 -0.222208,0.2290983 -0.68385,0.2290983 -0.153306,0 -0.299722,-0.022393 -0.144694,-0.02067 -0.285943,-0.060289 V 7.8862328 h 0.01723 q 0.07924,0.031006 0.251491,0.075792 0.172255,0.046509 0.344509,0.046509 0.165364,0 0.273885,-0.039618 0.10852,-0.039618 0.168809,-0.1102428 0.06029,-0.067179 0.08613,-0.1619191 0.02584,-0.09474 0.02584,-0.2118729 V 7.3091806 q -0.146416,0.117133 -0.280774,0.1756995 -0.132636,0.056844 -0.339342,0.056844 -0.344508,0 -0.547769,-0.2480463 -0.201537,-0.2497689 -0.201537,-0.702798 0,-0.2480463 0.0689,-0.4271909 0.07062,-0.1808671 0.191203,-0.3117804 0.111965,-0.1223006 0.272162,-0.1894799 0.160196,-0.068902 0.31867,-0.068902 0.167087,0 0.279053,0.034451 0.113687,0.032728 0.239433,0.1016301 l 0.02067,-0.082682 h 0.30316 z M 21.946772,7.0421863 V 5.993157 Q 21.817581,5.93459 21.705616,5.910475 21.595373,5.884637 21.48513,5.884637 q -0.266994,0 -0.4203,0.1791446 -0.153307,0.1791446 -0.153307,0.5202083 0,0.3238382 0.113688,0.490925 0.113688,0.1670868 0.377237,0.1670868 0.141249,0 0.282498,-0.053399 0.142971,-0.055121 0.261826,-0.1464164 z"
       style="font-style:normal;font-variant:normal;font-weight:normal;font-stretch:normal;font-size:3.52777px;line-height:1.25;font-family:Verdana;-inkscape-font-specification:Verdana;stroke-width:0.264583"
       id="path7014" />
    <path
       d="M 24.516808,7.5710073 H 24.19297 v -1.095538 q 0,-0.1326359 -0.0155,-0.2480463 -0.0155,-0.117133 -0.05684,-0.1825897 -0.04306,-0.072347 -0.124023,-0.1067977 -0.08096,-0.036174 -0.21015,-0.036174 -0.132636,0 -0.27733,0.065457 -0.144694,0.065457 -0.27733,0.1670868 V 7.5710073 H 22.907952 V 4.8907288 h 0.323838 v 0.9697923 q 0.151584,-0.1257457 0.313503,-0.19637 0.16192,-0.070624 0.332451,-0.070624 0.311781,0 0.475423,0.1877573 0.163641,0.1877573 0.163641,0.5408788 z"
       style="font-style:normal;font-variant:normal;font-weight:normal;font-stretch:normal;font-size:3.52777px;line-height:1.25;font-family:Verdana;-inkscape-font-specification:Verdana;stroke-width:0.264583"
       id="path7016" />
    <path
       d="m 26.139444,7.5537818 q -0.0913,0.024116 -0.199815,0.039618 -0.106798,0.015503 -0.191203,0.015503 -0.294555,0 -0.447861,-0.158474 Q 25.147259,7.2919551 25.147259,6.9422787 V 5.9190876 h -0.218764 v -0.272162 h 0.218764 V 5.093989 h 0.323838 v 0.5529366 h 0.668347 v 0.272162 h -0.668347 v 0.8767749 q 0,0.1515838 0.0069,0.237711 0.0069,0.084405 0.04823,0.1584741 0.0379,0.068902 0.103353,0.1016301 0.06718,0.031006 0.20326,0.031006 0.07924,0 0.165364,-0.022393 0.08613,-0.024116 0.124023,-0.039619 h 0.01723 z"
       style="font-style:normal;font-variant:normal;font-weight:normal;font-stretch:normal;font-size:3.52777px;line-height:1.25;font-family:Verdana;-inkscape-font-specification:Verdana;stroke-width:0.264583"
       id="path7018" />
    <path
       d="m 15.056334,98.78755 q -0.07579,0.03307 -0.137804,0.06201 -0.06063,0.02894 -0.159853,0.06063 -0.08406,0.02618 -0.18328,0.0441 -0.09784,0.01929 -0.216352,0.01929 -0.223243,0 -0.406523,-0.06201 -0.181901,-0.06339 -0.316949,-0.19706 -0.132292,-0.130914 -0.206707,-0.332108 -0.07441,-0.202573 -0.07441,-0.469913 0,-0.253559 0.07166,-0.453376 0.07166,-0.199816 0.206707,-0.33762 0.130914,-0.13367 0.315571,-0.20395 0.186036,-0.07028 0.412035,-0.07028 0.165365,0 0.329352,0.03996 0.165365,0.03996 0.366559,0.14056 v 0.32384 h -0.02067 q -0.169499,-0.141938 -0.336242,-0.206706 -0.166743,-0.06477 -0.356913,-0.06477 -0.155719,0 -0.28112,0.05099 -0.124024,0.04961 -0.221865,0.155719 -0.09508,0.103353 -0.148829,0.261828 -0.05236,0.157097 -0.05236,0.363803 0,0.216353 0.05788,0.372072 0.05926,0.155718 0.151585,0.253559 0.09646,0.101975 0.224621,0.151585 0.129536,0.04823 0.272852,0.04823 0.19706,0 0.369316,-0.06752 0.172255,-0.06752 0.322461,-0.202572 h 0.01929 z"
       style="font-style:normal;font-variant:normal;font-weight:normal;font-stretch:normal;font-size:2.82223px;line-height:1.25;font-family:Verdana;-inkscape-font-specification:Verdana;stroke-width:0.264583"
       id="path7021" />
    <path
       d="m 15.683343,98.936378 h -0.259072 v -2.144233 h 0.259072 z"
       style="font-style:normal;font-variant:normal;font-weight:normal;font-stretch:normal;font-size:2.82223px;line-height:1.25;font-family:Verdana;-inkscape-font-specification:Verdana;stroke-width:0.264583"
       id="path7023" />
    <path
       d="m 17.392115,98.936378 h -0.257694 v -0.163987 q -0.03445,0.02343 -0.09371,0.06615 -0.05788,0.04134 -0.112999,0.06615 -0.06477,0.03169 -0.148828,0.05236 -0.08406,0.02205 -0.197061,0.02205 -0.208084,0 -0.352778,-0.137804 -0.144695,-0.137805 -0.144695,-0.351401 0,-0.175011 0.07441,-0.282499 0.07579,-0.108865 0.214974,-0.170877 0.14056,-0.06201 0.33762,-0.08406 0.19706,-0.02205 0.423059,-0.03307 v -0.03996 q 0,-0.08819 -0.03169,-0.146072 -0.03032,-0.05788 -0.08819,-0.09095 -0.05512,-0.03169 -0.132292,-0.04272 -0.07717,-0.01103 -0.161231,-0.01103 -0.101975,0 -0.227377,0.02756 -0.125402,0.02618 -0.259072,0.07717 h -0.01378 v -0.263206 q 0.07579,-0.02067 0.219109,-0.04548 0.143317,-0.02481 0.282499,-0.02481 0.162609,0 0.282498,0.02756 0.121268,0.02618 0.209463,0.09095 0.08682,0.06339 0.132292,0.163987 0.04547,0.100597 0.04547,0.249426 z m -0.257694,-0.378961 v -0.428571 q -0.118511,0.0069 -0.279742,0.02067 -0.159853,0.01378 -0.25356,0.03996 -0.111621,0.03169 -0.180523,0.09922 -0.0689,0.06615 -0.0689,0.183279 0,0.132292 0.07993,0.199816 0.07993,0.06615 0.243913,0.06615 0.136427,0 0.249426,-0.05236 0.112999,-0.05374 0.209462,-0.128158 z"
       style="font-style:normal;font-variant:normal;font-weight:normal;font-stretch:normal;font-size:2.82223px;line-height:1.25;font-family:Verdana;-inkscape-font-specification:Verdana;stroke-width:0.264583"
       id="path7025" />
    <path
       d="m 20.137175,98.936378 h -0.259072 v -0.876434 q 0,-0.09922 -0.0096,-0.191548 -0.0083,-0.09233 -0.03721,-0.147451 -0.03169,-0.05926 -0.09095,-0.08957 -0.05926,-0.03032 -0.170877,-0.03032 -0.108866,0 -0.217731,0.05512 -0.108865,0.05374 -0.217731,0.137805 0.0041,0.03169 0.0069,0.07441 0.0028,0.04134 0.0028,0.08268 v 0.9853 h -0.259072 v -0.876434 q 0,-0.101975 -0.0096,-0.192926 -0.0083,-0.09233 -0.03721,-0.147451 -0.03169,-0.05925 -0.09095,-0.08819 -0.05926,-0.03032 -0.170878,-0.03032 -0.106109,0 -0.213596,0.05236 -0.106109,0.05237 -0.212219,0.13367 v 1.149287 h -0.259071 v -1.539272 h 0.259071 v 0.170877 q 0.121268,-0.100597 0.241158,-0.157097 0.121268,-0.0565 0.257694,-0.0565 0.157096,0 0.265962,0.06615 0.110243,0.06615 0.163987,0.18328 0.157097,-0.132292 0.286633,-0.19017 0.129535,-0.05926 0.276986,-0.05926 0.25356,0 0.373449,0.154341 0.121268,0.152963 0.121268,0.428571 z"
       style="font-style:normal;font-variant:normal;font-weight:normal;font-stretch:normal;font-size:2.82223px;line-height:1.25;font-family:Verdana;-inkscape-font-specification:Verdana;stroke-width:0.264583"
       id="path7027" />
    <path
       d="m 21.990641,98.148138 q 0,0.187414 -0.05374,0.343133 -0.05374,0.154341 -0.151585,0.261828 -0.09095,0.101975 -0.214974,0.158475 -0.122646,0.05512 -0.26045,0.05512 -0.11989,0 -0.217731,-0.02618 -0.09646,-0.02618 -0.19706,-0.08131 v 0.644924 h -0.259072 v -2.107026 h 0.259072 v 0.16123 q 0.103353,-0.08682 0.231511,-0.144694 0.129536,-0.05926 0.275608,-0.05926 0.278365,0 0.432706,0.210841 0.155718,0.209462 0.155718,0.582911 z m -0.26734,0.0069 q 0,-0.278365 -0.09509,-0.416169 -0.09508,-0.137804 -0.292145,-0.137804 -0.111621,0 -0.22462,0.04823 -0.113,0.04823 -0.216353,0.12678 v 0.872301 q 0.110243,0.04961 0.188792,0.06752 0.07993,0.01791 0.180523,0.01791 0.216353,0 0.337621,-0.146072 0.121267,-0.146073 0.121267,-0.432705 z"
       style="font-style:normal;font-variant:normal;font-weight:normal;font-stretch:normal;font-size:2.82223px;line-height:1.25;font-family:Verdana;-inkscape-font-specification:Verdana;stroke-width:0.264583"
       id="path7029" />
    <path
       d="m 13.06829,94.920746 h -0.33762 l -0.972898,-1.835552 v 1.835552 h -0.254937 v -2.051905 h 0.423059 l 0.887459,1.675699 v -1.675699 h 0.254937 z"
       style="font-style:normal;font-variant:normal;font-weight:normal;font-stretch:normal;font-size:2.82223px;line-height:1.25;font-family:Verdana;-inkscape-font-specification:Verdana;stroke-width:0.264583"
       id="path7032" />
    <path
       d="m 14.881794,94.177981 h -1.134129 q 0,0.141939 0.04272,0.248048 0.04272,0.104731 0.117133,0.172255 0.07166,0.06615 0.169499,0.09922 0.09922,0.03307 0.217731,0.03307 0.157097,0 0.315572,-0.06201 0.159852,-0.06339 0.227377,-0.124024 h 0.01378 v 0.282499 q -0.130914,0.05512 -0.26734,0.09233 -0.136426,0.03721 -0.286633,0.03721 -0.383096,0 -0.59807,-0.206706 -0.214975,-0.208085 -0.214975,-0.589802 0,-0.377584 0.205328,-0.599449 0.206707,-0.221864 0.542949,-0.221864 0.311438,0 0.479559,0.181901 0.169499,0.181902 0.169499,0.516766 z m -0.252182,-0.198438 q -0.0014,-0.20395 -0.103353,-0.315571 -0.100597,-0.111622 -0.307303,-0.111622 -0.208085,0 -0.332108,0.122646 -0.122646,0.122646 -0.139183,0.304547 z"
       style="font-style:normal;font-variant:normal;font-weight:normal;font-stretch:normal;font-size:2.82223px;line-height:1.25;font-family:Verdana;-inkscape-font-specification:Verdana;stroke-width:0.264583"
       id="path7034" />
    <path
       d="m 16.470676,94.920746 h -0.257694 v -0.163987 q -0.03445,0.02343 -0.09371,0.06615 -0.05788,0.04134 -0.113,0.06615 -0.06477,0.03169 -0.148828,0.05237 -0.08406,0.02205 -0.19706,0.02205 -0.208085,0 -0.352779,-0.137804 -0.144695,-0.137804 -0.144695,-0.351401 0,-0.175011 0.07442,-0.282498 0.07579,-0.108866 0.214974,-0.170878 0.14056,-0.06201 0.337621,-0.08406 0.19706,-0.02205 0.423058,-0.03307 v -0.03996 q 0,-0.08819 -0.03169,-0.146073 -0.03032,-0.05788 -0.08819,-0.09095 -0.05512,-0.03169 -0.132292,-0.04272 -0.07717,-0.01102 -0.161231,-0.01102 -0.101975,0 -0.227377,0.02756 -0.125402,0.02618 -0.259072,0.07717 h -0.01378 v -0.263206 q 0.07579,-0.02067 0.219108,-0.04547 0.143317,-0.02481 0.282499,-0.02481 0.162609,0 0.282498,0.02756 0.121268,0.02618 0.209463,0.09095 0.08682,0.06339 0.132292,0.163987 0.04547,0.100597 0.04547,0.249426 z m -0.257694,-0.378962 v -0.428571 q -0.118511,0.0069 -0.279742,0.02067 -0.159853,0.01378 -0.25356,0.03996 -0.111621,0.03169 -0.180523,0.09922 -0.0689,0.06615 -0.0689,0.18328 0,0.132292 0.07993,0.199816 0.07993,0.06615 0.243913,0.06615 0.136427,0 0.249426,-0.05237 0.112999,-0.05374 0.209462,-0.128158 z"
       style="font-style:normal;font-variant:normal;font-weight:normal;font-stretch:normal;font-size:2.82223px;line-height:1.25;font-family:Verdana;-inkscape-font-specification:Verdana;stroke-width:0.264583"
       id="path7036" />
    <path
       d="m 17.930023,93.663972 h -0.01378 q -0.05788,-0.01378 -0.112999,-0.01929 -0.05374,-0.0069 -0.128158,-0.0069 -0.11989,0 -0.231511,0.05374 -0.111622,0.05237 -0.214975,0.136427 v 1.092787 H 16.969528 V 93.381463 H 17.2286 v 0.227377 q 0.154341,-0.124024 0.271475,-0.175012 0.118511,-0.05236 0.241157,-0.05236 0.06752,0 0.09784,0.0041 0.03032,0.0028 0.09095,0.0124 z"
       style="font-style:normal;font-variant:normal;font-weight:normal;font-stretch:normal;font-size:2.82223px;line-height:1.25;font-family:Verdana;-inkscape-font-specification:Verdana;stroke-width:0.264583"
       id="path7038" />
    <path
       d="m 19.462406,94.177981 h -1.134129 q 0,0.141939 0.04272,0.248048 0.04272,0.104731 0.117133,0.172255 0.07166,0.06615 0.169499,0.09922 0.09922,0.03307 0.217731,0.03307 0.157097,0 0.315572,-0.06201 0.159852,-0.06339 0.227376,-0.124024 h 0.01378 v 0.282499 q -0.130914,0.05512 -0.26734,0.09233 -0.136426,0.03721 -0.286633,0.03721 -0.383096,0 -0.59807,-0.206706 -0.214975,-0.208085 -0.214975,-0.589802 0,-0.377584 0.205328,-0.599449 0.206707,-0.221864 0.542949,-0.221864 0.311438,0 0.479559,0.181901 0.169499,0.181902 0.169499,0.516766 z m -0.252182,-0.198438 q -0.0014,-0.20395 -0.103353,-0.315571 -0.100597,-0.111622 -0.307303,-0.111622 -0.208085,0 -0.332109,0.122646 -0.122645,0.122646 -0.139182,0.304547 z"
       style="font-style:normal;font-variant:normal;font-weight:normal;font-stretch:normal;font-size:2.82223px;line-height:1.25;font-family:Verdana;-inkscape-font-specification:Verdana;stroke-width:0.264583"
       id="path7040" />
    <path
       d="m 20.954826,94.477016 q 0,0.210841 -0.175012,0.345889 -0.173633,0.135048 -0.475424,0.135048 -0.170878,0 -0.314194,-0.03996 -0.141938,-0.04134 -0.238401,-0.08957 V 94.53765 h 0.01378 q 0.122646,0.09233 0.272853,0.147451 0.150206,0.05374 0.28801,0.05374 0.170878,0 0.267341,-0.05512 0.09646,-0.05512 0.09646,-0.173634 0,-0.09095 -0.05237,-0.137804 -0.05237,-0.04685 -0.201194,-0.07993 -0.05512,-0.0124 -0.144695,-0.02894 -0.08819,-0.01654 -0.161231,-0.03583 -0.202572,-0.05374 -0.28801,-0.157097 -0.08406,-0.104731 -0.08406,-0.256316 0,-0.09508 0.03859,-0.179145 0.03996,-0.08406 0.11989,-0.150207 0.07717,-0.06477 0.195682,-0.101975 0.119889,-0.03858 0.26734,-0.03858 0.137804,0 0.278364,0.03445 0.141939,0.03307 0.235646,0.0813 V 93.737 h -0.01378 q -0.09922,-0.07304 -0.241157,-0.122646 -0.141938,-0.05099 -0.278365,-0.05099 -0.141938,0 -0.239779,0.05512 -0.09784,0.05374 -0.09784,0.161231 0,0.09509 0.05926,0.143316 0.05788,0.04823 0.187414,0.07855 0.07166,0.01654 0.159852,0.03307 0.08957,0.01654 0.148829,0.03032 0.180524,0.04134 0.278365,0.141938 0.09784,0.101975 0.09784,0.270096 z"
       style="font-style:normal;font-variant:normal;font-weight:normal;font-stretch:normal;font-size:2.82223px;line-height:1.25;font-family:Verdana;-inkscape-font-specification:Verdana;stroke-width:0.264583"
       id="path7042" />
    <path
       d="m 22.124783,94.906965 q -0.07304,0.01929 -0.159853,0.03169 -0.08544,0.0124 -0.152963,0.0124 -0.235645,0 -0.358291,-0.12678 -0.122646,-0.12678 -0.122646,-0.406522 v -0.818557 h -0.175011 v -0.217731 h 0.175011 v -0.442352 h 0.259072 v 0.442352 h 0.534681 v 0.217731 h -0.534681 v 0.701423 q 0,0.121268 0.0055,0.19017 0.0055,0.06752 0.03859,0.12678 0.03032,0.05512 0.08268,0.0813 0.05374,0.02481 0.162609,0.02481 0.06339,0 0.132292,-0.01792 0.0689,-0.01929 0.09922,-0.03169 h 0.01378 z"
       style="font-style:normal;font-variant:normal;font-weight:normal;font-stretch:normal;font-size:2.82223px;line-height:1.25;font-family:Verdana;-inkscape-font-specification:Verdana;stroke-width:0.264583"
       id="path7044" />
    <path
       d="m 17.440358,89.772819 q 0,0.136427 -0.04823,0.25356 -0.04685,0.115756 -0.132292,0.201194 -0.106109,0.10611 -0.250803,0.159853 -0.144695,0.05237 -0.365181,0.05237 h -0.272853 v 0.764813 h -0.272852 v -2.051904 h 0.556729 q 0.184657,0 0.312815,0.03169 0.128158,0.03032 0.227377,0.09646 0.117134,0.07855 0.180524,0.195682 0.06477,0.117134 0.06477,0.296279 z m -0.283877,0.0069 q 0,-0.10611 -0.03721,-0.184658 -0.03721,-0.07855 -0.112999,-0.128158 -0.06615,-0.04272 -0.151585,-0.06063 -0.08406,-0.01929 -0.213597,-0.01929 h -0.270096 v 0.819935 h 0.230133 q 0.165365,0 0.268718,-0.02894 0.103354,-0.03032 0.168122,-0.09508 0.06477,-0.06615 0.09095,-0.139182 0.02756,-0.07304 0.02756,-0.163987 z"
       style="font-style:normal;font-variant:normal;font-weight:normal;font-stretch:normal;font-size:2.82223px;line-height:1.25;font-family:Verdana;-inkscape-font-specification:Verdana;stroke-width:0.264583"
       id="path7047" />
    <path
       d="m 18.739851,89.947831 h -0.01378 q -0.05788,-0.01378 -0.112999,-0.01929 -0.05374,-0.0069 -0.128158,-0.0069 -0.11989,0 -0.231511,0.05374 -0.111622,0.05236 -0.214975,0.136426 v 1.092787 h -0.259072 v -1.539273 h 0.259072 v 0.227377 q 0.154341,-0.124024 0.271474,-0.175011 0.118512,-0.05237 0.241158,-0.05237 0.06752,0 0.09784,0.0041 0.03032,0.0028 0.09095,0.0124 z"
       style="font-style:normal;font-variant:normal;font-weight:normal;font-stretch:normal;font-size:2.82223px;line-height:1.25;font-family:Verdana;-inkscape-font-specification:Verdana;stroke-width:0.264583"
       id="path7049" />
    <path
       d="m 20.295661,90.435658 q 0,0.376205 -0.192926,0.593936 -0.192926,0.21773 -0.516766,0.21773 -0.326596,0 -0.519522,-0.21773 -0.191548,-0.217731 -0.191548,-0.593936 0,-0.376206 0.191548,-0.593936 0.192926,-0.219109 0.519522,-0.219109 0.32384,0 0.516766,0.219109 0.192926,0.21773 0.192926,0.593936 z m -0.26734,0 q 0,-0.299035 -0.117134,-0.44373 -0.117134,-0.146072 -0.325218,-0.146072 -0.21084,0 -0.327974,0.146072 -0.115755,0.144695 -0.115755,0.44373 0,0.289388 0.117133,0.439595 0.117134,0.148829 0.326596,0.148829 0.206706,0 0.32384,-0.147451 0.118512,-0.148828 0.118512,-0.440973 z"
       style="font-style:normal;font-variant:normal;font-weight:normal;font-stretch:normal;font-size:2.82223px;line-height:1.25;font-family:Verdana;-inkscape-font-specification:Verdana;stroke-width:0.264583"
       id="path7051" />
    <path
       d="m 22.051286,90.416365 q 0,0.187414 -0.05374,0.343133 -0.05374,0.15434 -0.151585,0.261828 -0.09095,0.101975 -0.214974,0.158474 -0.122646,0.05512 -0.26045,0.05512 -0.11989,0 -0.217731,-0.02618 -0.09646,-0.02618 -0.19706,-0.0813 v 0.644923 h -0.259072 v -2.107026 h 0.259072 v 0.161231 q 0.103353,-0.08682 0.231511,-0.144694 0.129536,-0.05926 0.275609,-0.05926 0.278364,0 0.432705,0.21084 0.155718,0.209463 0.155718,0.582912 z m -0.26734,0.0069 q 0,-0.278364 -0.09509,-0.416168 -0.09508,-0.137805 -0.292145,-0.137805 -0.111621,0 -0.22462,0.04823 -0.113,0.04823 -0.216353,0.12678 v 0.8723 q 0.110243,0.04961 0.188792,0.06752 0.07993,0.01792 0.180523,0.01792 0.216353,0 0.337621,-0.146073 0.121267,-0.146072 0.121267,-0.432705 z"
       style="font-style:normal;font-variant:normal;font-weight:normal;font-stretch:normal;font-size:2.82223px;line-height:1.25;font-family:Verdana;-inkscape-font-specification:Verdana;stroke-width:0.264583"
       id="path7053" />
    <path
       d="M 3.4422171,11.708512 H 3.1693648 V 10.70392 H 2.1454796 v 1.004592 H 1.8726272 V 9.6566077 H 2.1454796 V 10.461384 H 3.1693648 V 9.6566077 h 0.2728523 z"
       style="font-style:normal;font-variant:normal;font-weight:normal;font-stretch:normal;font-size:2.82223px;line-height:1.25;font-family:Verdana;-inkscape-font-specification:Verdana;stroke-width:0.264583"
       id="path7056" />
    <path
       d="m 5.5230606,9.8922529 q 0.1254018,0.1378041 0.1915478,0.3376201 0.067524,0.199816 0.067524,0.453376 0,0.25356 -0.068902,0.454754 -0.067524,0.199816 -0.1901698,0.333486 -0.1267799,0.139182 -0.3004132,0.209462 -0.1722552,0.07028 -0.39412,0.07028 -0.2163526,0 -0.39412,-0.07166 -0.1763894,-0.07166 -0.3004132,-0.208084 -0.1240238,-0.136426 -0.1915478,-0.334864 -0.066146,-0.198438 -0.066146,-0.453376 0,-0.250804 0.066146,-0.449242 0.066146,-0.199816 0.1929259,-0.3417541 0.1212677,-0.1350481 0.3004131,-0.2067063 0.1805235,-0.071658 0.392742,-0.071658 0.2204867,0 0.3954981,0.073036 0.1763894,0.071658 0.2990351,0.2053283 z m -0.024805,0.7909961 q 0,-0.399632 -0.1791454,-0.615985 -0.1791455,-0.2177304 -0.4892049,-0.2177304 -0.3128156,0 -0.491961,0.2177304 -0.1777675,0.216353 -0.1777675,0.615985 0,0.403766 0.1819016,0.618741 0.1819015,0.213596 0.4878269,0.213596 0.3059253,0 0.4864488,-0.213596 0.1819015,-0.214975 0.1819015,-0.618741 z"
       style="font-style:normal;font-variant:normal;font-weight:normal;font-stretch:normal;font-size:2.82223px;line-height:1.25;font-family:Verdana;-inkscape-font-specification:Verdana;stroke-width:0.264583"
       id="path7058" />
    <path
       d="M 7.5129536,11.708512 H 6.214838 V 9.6566077 h 0.2728523 v 1.8093693 h 1.0252633 z"
       style="font-style:normal;font-variant:normal;font-weight:normal;font-stretch:normal;font-size:2.82223px;line-height:1.25;font-family:Verdana;-inkscape-font-specification:Verdana;stroke-width:0.264583"
       id="path7060" />
    <path
       d="m 9.5193826,10.684627 q 0,0.279743 -0.1226458,0.50712 -0.1212677,0.227376 -0.3238398,0.352778 -0.1405603,0.08682 -0.3141936,0.125402 -0.1722553,0.03859 -0.4547539,0.03859 H 7.7858057 V 9.6566077 h 0.5126316 q 0.3004132,0 0.4768026,0.044097 0.1777674,0.042719 0.3004131,0.1185116 0.2094624,0.130914 0.326596,0.3486447 0.1171336,0.217731 0.1171336,0.516766 z m -0.2852547,-0.0041 q 0,-0.241157 -0.084061,-0.406522 -0.08406,-0.1654 -0.2508032,-0.260484 Q 8.777996,9.9446185 8.6415698,9.9184357 8.5051436,9.8908749 8.3149738,9.8908749 H 8.058658 v 1.5833701 h 0.2563158 q 0.19706,0 0.3431325,-0.02894 0.1474505,-0.02894 0.2700962,-0.107487 0.1529627,-0.09784 0.228755,-0.257694 0.07717,-0.159853 0.07717,-0.399632 z"
       style="font-style:normal;font-variant:normal;font-weight:normal;font-stretch:normal;font-size:2.82223px;line-height:1.25;font-family:Verdana;-inkscape-font-specification:Verdana;stroke-width:0.264583"
       id="path7062" />
    <path
       d="m 22.033302,11.173402 h -0.33762 L 20.722784,9.3378498 V 11.173402 H 20.467846 V 9.1214972 h 0.423059 l 0.887459,1.6756988 V 9.1214972 h 0.254938 z"
       style="font-style:normal;font-variant:normal;font-weight:normal;font-stretch:normal;font-size:2.82223px;line-height:1.25;font-family:Verdana;-inkscape-font-specification:Verdana;stroke-width:0.264583"
       id="path7065" />
    <path
       d="M 23.930866,11.173402 H 22.579007 V 9.1214972 h 1.351859 v 0.2425354 h -1.079007 v 0.5622412 h 1.079007 v 0.2425352 h -1.079007 v 0.762057 h 1.079007 z"
       style="font-style:normal;font-variant:normal;font-weight:normal;font-stretch:normal;font-size:2.82223px;line-height:1.25;font-family:Verdana;-inkscape-font-specification:Verdana;stroke-width:0.264583"
       id="path7067" />
    <path
       d="m 26.193611,11.676387 q -0.08268,0.02067 -0.163987,0.02894 -0.07993,0.0096 -0.163987,0.0096 -0.239779,0 -0.385852,-0.132292 -0.144694,-0.130914 -0.157096,-0.376205 -0.03307,0.0055 -0.06477,0.0069 -0.03032,0.0028 -0.05926,0.0028 -0.216353,0 -0.39412,-0.07166 -0.17639,-0.07166 -0.300413,-0.208084 -0.124024,-0.136427 -0.191548,-0.334865 -0.06615,-0.198438 -0.06615,-0.453375 0,-0.2508041 0.06615,-0.4492422 0.06615,-0.199816 0.192926,-0.3417544 0.121267,-0.1350481 0.300413,-0.2067063 0.180523,-0.071658 0.392742,-0.071658 0.220486,0 0.395498,0.073036 0.176389,0.071658 0.299035,0.2053282 0.125402,0.1378042 0.191548,0.3376203 0.06752,0.1998161 0.06752,0.4533764 0,0.376205 -0.154341,0.633899 -0.152963,0.257694 -0.412034,0.361047 0.0055,0.157097 0.07441,0.243913 0.0689,0.08682 0.250803,0.08682 0.0565,0 0.133671,-0.01792 0.07855,-0.01654 0.111621,-0.03032 h 0.03721 z m -0.325218,-1.528248 q 0,-0.3996326 -0.179145,-0.6159852 -0.179146,-0.2177307 -0.489205,-0.2177307 -0.312816,0 -0.491961,0.2177307 -0.177768,0.2163526 -0.177768,0.6159852 0,0.403766 0.181902,0.61874 0.181901,0.213597 0.487827,0.213597 0.305925,0 0.486449,-0.213597 0.181901,-0.214974 0.181901,-0.61874 z"
       style="font-style:normal;font-variant:normal;font-weight:normal;font-stretch:normal;font-size:2.82223px;line-height:1.25;font-family:Verdana;-inkscape-font-specification:Verdana;stroke-width:0.264583"
       id="path7069" />
    <path
       d="m 15.203209,30.013691 q 0.02067,0.08268 0.02894,0.163987 0.0096,0.07993 0.0096,0.163987 0,0.239779 -0.132292,0.385852 -0.130914,0.144694 -0.376205,0.157096 0.0055,0.03307 0.0069,0.06477 0.0028,0.03032 0.0028,0.05926 0,0.216353 -0.07166,0.39412 -0.07166,0.17639 -0.208084,0.300413 -0.136426,0.124024 -0.334865,0.191548 -0.198438,0.06615 -0.453375,0.06615 -0.250804,0 -0.449242,-0.06615 -0.199816,-0.06615 -0.341754,-0.192926 -0.135049,-0.121267 -0.206707,-0.300413 -0.07166,-0.180523 -0.07166,-0.392742 0,-0.220487 0.07304,-0.395498 0.07166,-0.176389 0.205329,-0.299035 0.137804,-0.125402 0.33762,-0.191548 0.199816,-0.06752 0.453376,-0.06752 0.376205,0 0.633899,0.154341 0.257694,0.152962 0.361047,0.412034 0.157097,-0.0055 0.243913,-0.07441 0.08682,-0.0689 0.08682,-0.250804 0,-0.0565 -0.01791,-0.13367 -0.01654,-0.07855 -0.03032,-0.111621 v -0.03721 z m -1.528248,0.325218 q -0.399633,0 -0.615985,0.179145 -0.217731,0.179146 -0.217731,0.489205 0,0.312816 0.217731,0.491961 0.216352,0.177767 0.615985,0.177767 0.403766,0 0.618741,-0.181901 0.213596,-0.181902 0.213596,-0.487827 0,-0.305925 -0.213596,-0.486449 -0.214975,-0.181901 -0.618741,-0.181901 z"
       style="font-style:normal;font-variant:normal;font-weight:normal;font-stretch:normal;font-size:2.82223px;line-height:1.25;font-family:Verdana;-inkscape-font-specification:Verdana;stroke-width:0.264583"
       id="path7072" />
    <path
       d="m 14.700224,28.36693 v 0.259072 h -0.170877 q 0.103353,0.130914 0.158475,0.250804 0.05512,0.11989 0.05512,0.264584 0,0.242535 -0.14745,0.377584 -0.148829,0.135048 -0.435462,0.135048 H 13.16095 V 29.39495 h 0.876435 q 0.117133,0 0.201194,-0.01103 0.08268,-0.01102 0.141938,-0.04685 0.06063,-0.03721 0.08819,-0.09646 0.02756,-0.05926 0.02756,-0.172255 0,-0.100597 -0.05237,-0.219109 -0.05236,-0.119889 -0.13367,-0.223243 H 13.16094 v -0.259072 z"
       style="font-style:normal;font-variant:normal;font-weight:normal;font-stretch:normal;font-size:2.82223px;line-height:1.25;font-family:Verdana;-inkscape-font-specification:Verdana;stroke-width:0.264583"
       id="path7074" />
    <path
       d="m 14.700224,26.660915 v 0.257693 h -0.163987 q 0.02343,0.03445 0.06615,0.09371 0.04134,0.05788 0.06615,0.113 0.0317,0.06477 0.05237,0.148828 0.02205,0.08406 0.02205,0.19706 0,0.208085 -0.137804,0.352779 -0.137804,0.144694 -0.351401,0.144694 -0.175011,0 -0.282498,-0.07441 -0.108866,-0.07579 -0.170878,-0.214974 -0.06201,-0.140561 -0.08406,-0.337621 -0.02205,-0.19706 -0.03307,-0.423059 h -0.03996 q -0.0882,0 -0.146073,0.0317 -0.05788,0.03032 -0.09095,0.08819 -0.0317,0.05512 -0.04272,0.132292 -0.01102,0.07717 -0.01102,0.161231 0,0.101975 0.02756,0.227377 0.02618,0.125402 0.07717,0.259072 v 0.01378 h -0.263206 q -0.02067,-0.07579 -0.04548,-0.219108 -0.0248,-0.143317 -0.0248,-0.282499 0,-0.162609 0.02756,-0.282499 0.02618,-0.121267 0.09095,-0.209462 0.06339,-0.08682 0.163987,-0.132292 0.100598,-0.04547 0.249426,-0.04547 z m -0.378962,0.257693 h -0.428571 q 0.0069,0.118512 0.02067,0.279743 0.01378,0.159853 0.03996,0.25356 0.0317,0.111621 0.09922,0.180523 0.06615,0.0689 0.18328,0.0689 0.132292,0 0.199816,-0.07993 0.06615,-0.07993 0.06615,-0.243914 0,-0.136426 -0.05237,-0.249425 -0.05374,-0.113 -0.128158,-0.209463 z"
       style="font-style:normal;font-variant:normal;font-weight:normal;font-stretch:normal;font-size:2.82223px;line-height:1.25;font-family:Verdana;-inkscape-font-specification:Verdana;stroke-width:0.264583"
       id="path7076" />
    <path
       d="m 14.700224,24.874972 v 0.259072 h -0.876435 q -0.106109,0 -0.198438,0.0124 -0.09371,0.0124 -0.146072,0.04547 -0.05788,0.03445 -0.08544,0.09922 -0.02894,0.06477 -0.02894,0.168122 0,0.106109 0.05237,0.221864 0.05236,0.115756 0.13367,0.221865 h 1.149287 v 0.259072 h -1.539273 v -0.259072 h 0.170877 q -0.100597,-0.121268 -0.157097,-0.250804 -0.0565,-0.129536 -0.0565,-0.265962 0,-0.249425 0.150206,-0.380339 0.150207,-0.130914 0.432705,-0.130914 z"
       style="font-style:normal;font-variant:normal;font-weight:normal;font-stretch:normal;font-size:2.82223px;line-height:1.25;font-family:Verdana;-inkscape-font-specification:Verdana;stroke-width:0.264583"
       id="path7078" />
    <path
       d="m 14.686444,23.576857 q 0.01929,0.07304 0.03169,0.159852 0.0124,0.08544 0.0124,0.152963 0,0.235645 -0.12678,0.358291 -0.12678,0.122646 -0.406522,0.122646 h -0.818557 v 0.175011 h -0.217731 v -0.175011 h -0.442352 v -0.259072 h 0.442352 v -0.53468 h 0.217731 v 0.53468 h 0.701423 q 0.121268,0 0.19017,-0.0055 0.06752,-0.0055 0.12678,-0.03859 0.05512,-0.03032 0.0813,-0.08268 0.02481,-0.05374 0.02481,-0.162609 0,-0.06339 -0.01792,-0.132292 -0.01929,-0.0689 -0.03169,-0.09922 v -0.01378 z"
       style="font-style:normal;font-variant:normal;font-weight:normal;font-stretch:normal;font-size:2.82223px;line-height:1.25;font-family:Verdana;-inkscape-font-specification:Verdana;stroke-width:0.264583"
       id="path7080" />
    <path
       d="m 12.903257,22.985676 v 0.292145 h -0.268718 v -0.292145 z m 1.796967,0.01654 v 0.259072 h -1.539273 v -0.259072 z"
       style="font-style:normal;font-variant:normal;font-weight:normal;font-stretch:normal;font-size:2.82223px;line-height:1.25;font-family:Verdana;-inkscape-font-specification:Verdana;stroke-width:0.264583"
       id="path7082" />
    <path
       d="m 14.700224,21.373367 v 1.242994 h -0.191548 l -1.131372,-0.897105 v 0.877813 h -0.216353 v -1.200275 h 0.184658 l 1.135506,0.90124 v -0.924667 z"
       style="font-style:normal;font-variant:normal;font-weight:normal;font-stretch:normal;font-size:2.82223px;line-height:1.25;font-family:Verdana;-inkscape-font-specification:Verdana;stroke-width:0.264583"
       id="path7084" />
    <path
       d="m 13.957459,19.734875 v 1.134129 q 0.141939,0 0.248048,-0.04272 0.104731,-0.04272 0.172255,-0.117133 0.06615,-0.07166 0.09922,-0.169499 0.03307,-0.09922 0.03307,-0.217731 0,-0.157097 -0.06201,-0.315572 -0.06339,-0.159853 -0.124024,-0.227377 v -0.01378 h 0.282499 q 0.05512,0.130914 0.09233,0.26734 0.03721,0.136426 0.03721,0.286633 0,0.383096 -0.206706,0.59807 -0.208085,0.214975 -0.589802,0.214975 -0.377584,0 -0.599449,-0.205329 -0.221864,-0.206706 -0.221864,-0.542948 0,-0.311438 0.181901,-0.479559 0.181902,-0.169499 0.516766,-0.169499 z m -0.198438,0.252182 q -0.20395,0.0014 -0.315571,0.103353 -0.111622,0.100597 -0.111622,0.307303 0,0.208085 0.122646,0.332108 0.122646,0.122646 0.304547,0.139183 z"
       style="font-style:normal;font-variant:normal;font-weight:normal;font-stretch:normal;font-size:2.82223px;line-height:1.25;font-family:Verdana;-inkscape-font-specification:Verdana;stroke-width:0.264583"
       id="path7086" />
    <path
       d="m 22.064234,33.874285 q 0.125402,0.137804 0.191548,0.33762 0.06752,0.199816 0.06752,0.453376 0,0.25356 -0.0689,0.454754 -0.06752,0.199816 -0.19017,0.333486 -0.12678,0.139182 -0.300413,0.209462 -0.172255,0.07028 -0.39412,0.07028 -0.216353,0 -0.39412,-0.07166 -0.17639,-0.07166 -0.300413,-0.208084 -0.124024,-0.136426 -0.191548,-0.334864 -0.06615,-0.198438 -0.06615,-0.453376 0,-0.250804 0.06615,-0.449242 0.06615,-0.199816 0.192926,-0.341754 0.121267,-0.135048 0.300413,-0.206707 0.180523,-0.07166 0.392742,-0.07166 0.220486,0 0.395498,0.07304 0.176389,0.07166 0.299035,0.205329 z m -0.02481,0.790996 q 0,-0.399632 -0.179145,-0.615985 -0.179146,-0.217731 -0.489205,-0.217731 -0.312816,0 -0.491961,0.217731 -0.177768,0.216353 -0.177768,0.615985 0,0.403766 0.181902,0.618741 0.181901,0.213596 0.487827,0.213596 0.305925,0 0.486449,-0.213596 0.181901,-0.214975 0.181901,-0.618741 z"
       style="font-style:normal;font-variant:normal;font-weight:normal;font-stretch:normal;font-size:2.82223px;line-height:1.25;font-family:Verdana;-inkscape-font-specification:Verdana;stroke-width:0.264583"
       id="path7089" />
    <path
       d="m 24.300796,34.866475 q 0,0.223243 -0.04961,0.389986 -0.04823,0.165365 -0.159853,0.275608 -0.106109,0.104731 -0.248048,0.152963 -0.141938,0.04823 -0.33073,0.04823 -0.192926,0 -0.336242,-0.05099 -0.143316,-0.05099 -0.241157,-0.150207 -0.111622,-0.112999 -0.161231,-0.272852 -0.04823,-0.159853 -0.04823,-0.392742 V 33.63864 h 0.272853 v 1.241615 q 0,0.166743 0.02205,0.263206 0.02343,0.09646 0.07717,0.175012 0.06063,0.08957 0.163987,0.135048 0.104731,0.04547 0.250803,0.04547 0.147451,0 0.250804,-0.0441 0.103353,-0.04547 0.165365,-0.136426 0.05374,-0.07855 0.07579,-0.179146 0.02343,-0.101975 0.02343,-0.252181 V 33.63864 h 0.272852 z"
       style="font-style:normal;font-variant:normal;font-weight:normal;font-stretch:normal;font-size:2.82223px;line-height:1.25;font-family:Verdana;-inkscape-font-specification:Verdana;stroke-width:0.264583"
       id="path7091" />
    <path
       d="m 26.285177,33.881175 h -0.733119 v 1.809369 H 25.279206 V 33.881175 H 24.546088 V 33.63864 h 1.739089 z"
       style="font-style:normal;font-variant:normal;font-weight:normal;font-stretch:normal;font-size:2.82223px;line-height:1.25;font-family:Verdana;-inkscape-font-specification:Verdana;stroke-width:0.264583"
       id="path7093" />
    <path
       d="M 4.503392,34.647839 H 3.6931033 v -0.209463 h 0.2687182 v -1.63298 H 3.6931033 V 32.595934 H 4.503392 v 0.209462 H 4.2346738 v 1.63298 H 4.503392 Z"
       style="font-style:normal;font-variant:normal;font-weight:normal;font-stretch:normal;font-size:2.82223px;line-height:1.25;font-family:Verdana;-inkscape-font-specification:Verdana;stroke-width:0.264583"
       id="path7096" />
    <path
       d="M 6.533248,34.647839 H 6.1956277 L 5.22273,32.812287 v 1.835552 H 4.9677923 v -2.051905 h 0.4230589 l 0.887459,1.675699 V 32.595934 H 6.533248 Z"
       style="font-style:normal;font-variant:normal;font-weight:normal;font-stretch:normal;font-size:2.82223px;line-height:1.25;font-family:Verdana;-inkscape-font-specification:Verdana;stroke-width:0.264583"
       id="path7098" />
    <path
       d="M 3.9607363,91.063087 H 3.6699694 L 3.4687753,90.4912 H 2.5813162 L 2.3801221,91.063087 H 2.1031356 l 0.7468988,-2.051904 h 0.3638031 z m -0.5760216,-0.806154 -0.359669,-1.007349 -0.361047,1.007349 z"
       style="font-style:normal;font-variant:normal;font-weight:normal;font-stretch:normal;font-size:2.82223px;line-height:1.25;font-family:Verdana;-inkscape-font-specification:Verdana;stroke-width:0.264583"
       id="path7101" />
    <path
       d="M 4.5133311,91.063087 H 4.2542592 v -2.144233 h 0.2590719 z"
       style="font-style:normal;font-variant:normal;font-weight:normal;font-stretch:normal;font-size:2.82223px;line-height:1.25;font-family:Verdana;-inkscape-font-specification:Verdana;stroke-width:0.264583"
       id="path7103" />
    <path
       d="m 6.2744688,90.888076 q 0,0.391364 -0.1777674,0.574644 -0.1777674,0.183279 -0.5470827,0.183279 -0.1226457,0 -0.2397793,-0.01791 -0.1157556,-0.01654 -0.228755,-0.04823 v -0.264584 h 0.01378 q 0.06339,0.02481 0.2011942,0.06063 0.1378042,0.03721 0.2756084,0.03721 0.132292,0 0.2191087,-0.03169 0.086817,-0.03169 0.1350481,-0.08819 0.048231,-0.05374 0.068902,-0.129535 0.020671,-0.07579 0.020671,-0.1695 v -0.14056 q -0.1171336,0.09371 -0.2246208,0.14056 -0.1061093,0.04548 -0.2714743,0.04548 -0.2756084,0 -0.4382174,-0.198438 -0.1612309,-0.199816 -0.1612309,-0.562241 0,-0.198439 0.055122,-0.341755 0.0565,-0.144694 0.1529626,-0.249425 0.089573,-0.09784 0.2177307,-0.151585 0.1281579,-0.05512 0.2549378,-0.05512 0.13367,0 0.2232428,0.02756 0.090951,0.02618 0.1915478,0.08131 l 0.016536,-0.06615 H 6.2744688 Z M 6.0153969,90.640029 v -0.839228 q -0.1033531,-0.04685 -0.1929259,-0.06615 -0.088195,-0.02067 -0.1763894,-0.02067 -0.2135965,0 -0.3362422,0.143317 -0.1226458,0.143316 -0.1226458,0.416168 0,0.259072 0.090951,0.392742 0.090951,0.13367 0.3017912,0.13367 0.1129995,0 0.2259989,-0.04272 0.1143775,-0.0441 0.2094624,-0.117133 z"
       style="font-style:normal;font-variant:normal;font-weight:normal;font-stretch:normal;font-size:2.82223px;line-height:1.25;font-family:Verdana;-inkscape-font-specification:Verdana;stroke-width:0.264583"
       id="path7105" />
    <path
       d="m 8.0962403,90.29414 q 0,0.376205 -0.1929258,0.593936 -0.1929259,0.217731 -0.5167658,0.217731 -0.326596,0 -0.5195219,-0.217731 Q 6.675479,90.670345 6.675479,90.29414 q 0,-0.376205 0.1915478,-0.593936 0.1929259,-0.219109 0.5195219,-0.219109 0.3238399,0 0.5167658,0.219109 0.1929258,0.217731 0.1929258,0.593936 z m -0.2673401,0 q 0,-0.299035 -0.1171336,-0.44373 -0.1171336,-0.146072 -0.3252179,-0.146072 -0.2108404,0 -0.327974,0.146072 -0.1157555,0.144695 -0.1157555,0.44373 0,0.289389 0.1171335,0.439595 0.1171336,0.148829 0.326596,0.148829 0.2067063,0 0.3238399,-0.147451 0.1185116,-0.148828 0.1185116,-0.440973 z"
       style="font-style:normal;font-variant:normal;font-weight:normal;font-stretch:normal;font-size:2.82223px;line-height:1.25;font-family:Verdana;-inkscape-font-specification:Verdana;stroke-width:0.264583"
       id="path7107" />
    <path
       d="m 3.2827396,93.361792 h -0.01378 q -0.057878,-0.01378 -0.1129995,-0.01929 -0.053744,-0.0069 -0.1281579,-0.0069 -0.1198896,0 -0.231511,0.05374 -0.1116214,0.05236 -0.2149746,0.136426 v 1.092787 H 2.3222443 v -1.539273 h 0.2590719 v 0.227377 q 0.1543407,-0.124023 0.2714743,-0.175011 0.1185116,-0.05237 0.2411573,-0.05237 0.067524,0 0.097841,0.0041 0.030317,0.0028 0.090951,0.0124 z"
       style="font-style:normal;font-variant:normal;font-weight:normal;font-stretch:normal;font-size:2.82223px;line-height:1.25;font-family:Verdana;-inkscape-font-specification:Verdana;stroke-width:0.264583"
       id="path7109" />
    <path
       d="m 3.8050176,92.8216 h -0.292145 v -0.268719 h 0.292145 z M 3.788481,94.618566 H 3.5294091 V 93.079293 H 3.788481 Z"
       style="font-style:normal;font-variant:normal;font-weight:normal;font-stretch:normal;font-size:2.82223px;line-height:1.25;font-family:Verdana;-inkscape-font-specification:Verdana;stroke-width:0.264583"
       id="path7111" />
    <path
       d="m 5.100377,94.604786 q -0.073036,0.01929 -0.1598528,0.03169 -0.085439,0.0124 -0.1529627,0.0124 -0.2356452,0 -0.3582909,-0.12678 Q 4.3066248,94.395324 4.3066248,94.115581 V 93.297024 H 4.1316135 v -0.217731 h 0.1750113 v -0.442351 h 0.2590719 v 0.442351 H 5.100377 v 0.217731 H 4.5656967 v 0.701423 q 0,0.121268 0.00551,0.19017 0.00551,0.06752 0.038585,0.12678 0.030317,0.05512 0.082682,0.08131 0.053744,0.0248 0.162609,0.0248 0.06339,0 0.132292,-0.01791 0.068902,-0.01929 0.099219,-0.03169 h 0.01378 z"
       style="font-style:normal;font-variant:normal;font-weight:normal;font-stretch:normal;font-size:2.82223px;line-height:1.25;font-family:Verdana;-inkscape-font-specification:Verdana;stroke-width:0.264583"
       id="path7113" />
    <path
       d="M 7.6594012,94.618566 H 7.4003293 v -0.876434 q 0,-0.09922 -0.00965,-0.191548 -0.00827,-0.09233 -0.037207,-0.147451 -0.031695,-0.05926 -0.090951,-0.08957 -0.059256,-0.03032 -0.1708773,-0.03032 -0.1088653,0 -0.2177306,0.05512 -0.1088653,0.05374 -0.2177306,0.137805 0.00413,0.03169 0.00689,0.07441 0.00276,0.04134 0.00276,0.08268 v 0.9853 H 6.406761 v -0.876434 q 0,-0.101975 -0.00965,-0.192926 -0.00827,-0.09233 -0.037207,-0.147451 -0.031695,-0.05926 -0.090951,-0.08819 -0.059256,-0.03032 -0.1708772,-0.03032 -0.1061092,0 -0.2135965,0.05237 -0.1061092,0.05237 -0.2122185,0.13367 v 1.149287 H 5.4131926 v -1.539273 h 0.2590719 v 0.170878 q 0.1212677,-0.100597 0.2411574,-0.157097 0.1212677,-0.0565 0.2576939,-0.0565 0.1570968,0 0.2659621,0.06615 0.1102433,0.06615 0.163987,0.18328 0.1570968,-0.132292 0.2866327,-0.19017 0.129536,-0.05926 0.2769865,-0.05926 0.2535597,0 0.3734494,0.154341 0.1212677,0.152962 0.1212677,0.428571 z"
       style="font-style:normal;font-variant:normal;font-weight:normal;font-stretch:normal;font-size:2.82223px;line-height:1.25;font-family:Verdana;-inkscape-font-specification:Verdana;stroke-width:0.264583"
       id="path7115" />
    <path
       d="M 3.8050175,98.174045 H 3.5280311 L 3.459129,97.596646 H 2.574426 L 2.2381837,98.174045 H 1.9501729 l 1.2209453,-2.051904 h 0.361047 z M 3.4288121,97.373403 3.3006541,96.360542 2.70534,97.373403 Z"
       style="font-style:italic;font-variant:normal;font-weight:normal;font-stretch:normal;font-size:2.82223px;line-height:1.25;font-family:Verdana;-inkscape-font-specification:'Verdana Italic';stroke-width:0.264583"
       id="path7117" />
    <path
       d="m 5.3139736,96.907625 h -0.01378 q -0.055122,-0.01378 -0.1033532,-0.01929 -0.046853,-0.0069 -0.1143774,-0.0069 -0.129536,0 -0.2576939,0.05926 -0.1267799,0.05788 -0.2439134,0.14056 l -0.2480476,1.092787 h -0.261828 l 0.3514007,-1.539273 h 0.261828 l -0.052366,0.227377 q 0.1832796,-0.128158 0.3100595,-0.177767 0.1281579,-0.04961 0.2452915,-0.04961 0.067524,0 0.097841,0.0041 0.030317,0.0028 0.088195,0.0124 z"
       style="font-style:italic;font-variant:normal;font-weight:normal;font-stretch:normal;font-size:2.82223px;line-height:1.25;font-family:Verdana;-inkscape-font-specification:'Verdana Italic';stroke-width:0.264583"
       id="path7119" />
    <path
       d="m 6.4301877,96.634772 -0.046853,0.209463 H 5.848654 l -0.1653651,0.709691 q -0.01378,0.05374 -0.024805,0.124024 -0.011024,0.0689 -0.011024,0.110243 0,0.100598 0.050988,0.150207 0.050987,0.04823 0.1887917,0.04823 0.0565,0 0.1336701,-0.01929 0.078548,-0.01929 0.1061092,-0.03032 h 0.013781 l -0.048231,0.223243 q -0.07717,0.01929 -0.1653651,0.03169 -0.086817,0.0124 -0.1543407,0.0124 -0.1901698,0 -0.294901,-0.08268 -0.1033531,-0.08406 -0.1033531,-0.264584 0,-0.0441 0.00551,-0.08682 0.00689,-0.0441 0.017914,-0.09922 L 5.589582,96.844235 H 5.4145707 l 0.046853,-0.209463 H 5.6364351 L 5.7397882,96.192421 H 5.9988601 L 5.895507,96.634772 Z"
       style="font-style:italic;font-variant:normal;font-weight:normal;font-stretch:normal;font-size:2.82223px;line-height:1.25;font-family:Verdana;-inkscape-font-specification:'Verdana Italic';stroke-width:0.264583"
       id="path7121" />
    <path
       d="m 7.6332183,97.236977 q 0.00689,-0.03996 0.00965,-0.06752 0.00276,-0.02756 0.00276,-0.06063 0,-0.147451 -0.081304,-0.230133 -0.079926,-0.08268 -0.2576938,-0.08268 -0.195682,0 -0.3472666,0.121268 -0.1515847,0.121268 -0.2053283,0.319706 z m -0.5181438,0.972897 q -0.3197057,0 -0.5016073,-0.150206 -0.1819015,-0.150207 -0.1819015,-0.439596 0,-0.423059 0.2673401,-0.72485 0.2673402,-0.303169 0.6614602,-0.303169 0.261828,0 0.4010102,0.130914 0.1391823,0.129536 0.1391823,0.365181 0,0.04134 -0.012402,0.130914 -0.011024,0.08957 -0.037207,0.208084 H 6.7168204 q -0.00827,0.03996 -0.012402,0.07855 -0.00276,0.03858 -0.00276,0.07166 0,0.194304 0.1185116,0.305925 0.1185116,0.110244 0.3362423,0.110244 0.1515846,0 0.3114375,-0.05926 0.1612309,-0.05926 0.2700962,-0.13367 h 0.015159 l -0.0565,0.279742 q -0.068902,0.02481 -0.1240238,0.04548 -0.055122,0.02067 -0.1405603,0.04134 -0.085439,0.02067 -0.1515846,0.03169 -0.066146,0.01102 -0.1653651,0.01102 z"
       style="font-style:italic;font-variant:normal;font-weight:normal;font-stretch:normal;font-size:2.82223px;line-height:1.25;font-family:Verdana;-inkscape-font-specification:'Verdana Italic';stroke-width:0.264583"
       id="path7123" />
    <path
       d="M 14.53911,36.533703 H 13.428408 V 36.32424 h 0.427193 v -1.375285 h -0.427193 v -0.187414 q 0.08682,0 0.186035,-0.01378 0.09922,-0.01516 0.150207,-0.04272 0.06339,-0.03445 0.09922,-0.08682 0.03721,-0.05374 0.04272,-0.143316 h 0.213597 v 1.849332 h 0.418925 z"
       style="font-style:normal;font-variant:normal;font-weight:normal;font-stretch:normal;font-size:2.82223px;line-height:1.25;font-family:Verdana;-inkscape-font-specification:Verdana;stroke-width:0.264583"
       id="path7126" />
    <path
       d="m 14.505978,61.531742 h -1.389066 v -0.288011 q 0.144694,-0.124023 0.289389,-0.248047 0.146072,-0.124024 0.271474,-0.24667 0.264584,-0.256316 0.362425,-0.406522 0.09784,-0.151585 0.09784,-0.326596 0,-0.159853 -0.106109,-0.249426 -0.104731,-0.09095 -0.293523,-0.09095 -0.125402,0 -0.271474,0.0441 -0.146073,0.0441 -0.285255,0.135048 H 13.1679 v -0.289389 q 0.09784,-0.04823 0.260449,-0.08819 0.163987,-0.03996 0.31695,-0.03996 0.315572,0 0.494717,0.152963 0.179146,0.151584 0.179146,0.412034 0,0.117134 -0.03032,0.219109 -0.02894,0.100597 -0.08682,0.191548 -0.05374,0.08544 -0.12678,0.168121 -0.07166,0.08268 -0.175011,0.18328 -0.147451,0.144694 -0.304547,0.28112 -0.157097,0.135048 -0.293523,0.250804 h 1.103811 z"
       style="font-style:normal;font-variant:normal;font-weight:normal;font-stretch:normal;font-size:2.82223px;line-height:1.25;font-family:Verdana;-inkscape-font-specification:Verdana;stroke-width:0.264583"
       id="path7129" />
    <path
       d="m 14.042863,85.539066 q 0.06615,0.05926 0.108865,0.148829 0.04272,0.08957 0.04272,0.231511 0,0.14056 -0.05099,0.257694 -0.05099,0.117133 -0.143316,0.20395 -0.103353,0.09646 -0.243914,0.143316 -0.139182,0.04548 -0.305925,0.04548 -0.170877,0 -0.336242,-0.04134 -0.165365,-0.03996 -0.271475,-0.08819 v -0.288011 h 0.02067 q 0.117134,0.07717 0.275608,0.128158 0.158475,0.05099 0.305926,0.05099 0.08682,0 0.184657,-0.02894 0.09784,-0.02894 0.158475,-0.08544 0.06339,-0.06063 0.09371,-0.13367 0.0317,-0.07304 0.0317,-0.184658 0,-0.110243 -0.03583,-0.181901 -0.03445,-0.07304 -0.09646,-0.114378 -0.06201,-0.04272 -0.150207,-0.05788 -0.08819,-0.01654 -0.190169,-0.01654 h -0.124024 v -0.228755 h 0.09646 q 0.209462,0 0.333486,-0.08682 0.125402,-0.08819 0.125402,-0.256315 0,-0.07442 -0.03169,-0.129536 -0.0317,-0.0565 -0.0882,-0.09233 -0.05926,-0.03583 -0.12678,-0.04961 -0.06752,-0.01378 -0.152962,-0.01378 -0.130914,0 -0.278365,0.04685 -0.14745,0.04685 -0.278364,0.132292 h -0.01378 v -0.28801 q 0.09784,-0.04823 0.26045,-0.08819 0.163987,-0.04134 0.31695,-0.04134 0.150206,0 0.264584,0.02756 0.114377,0.02756 0.206706,0.08819 0.09922,0.06615 0.150207,0.159853 0.05099,0.09371 0.05099,0.219109 0,0.170877 -0.121267,0.299035 -0.11989,0.12678 -0.283877,0.159853 v 0.01929 q 0.06615,0.01103 0.151585,0.04685 0.08544,0.03445 0.144694,0.08682 z"
       style="font-style:normal;font-variant:normal;font-weight:normal;font-stretch:normal;font-size:2.82223px;line-height:1.25;font-family:Verdana;-inkscape-font-specification:Verdana;stroke-width:0.264583"
       id="path7132" />
  </g>
  <g
     inkscape:groupmode="layer"
     id="layer5"
     inkscape:label="Unused"
     style="display:none">
    <rect
       style="display:inline;fill:#ff0000;fill-opacity:0.5;stroke-width:0.582083"
       id="OFFSET_PARAM"
       width="11"
       height="11"
       x="15"
       y="4"
       inkscape:label="OFFSET&lt;RoundBlackSnapKnob&gt;" />
    <circle
       style="display:inline;fill:#00ffff;fill-opacity:0.5;stroke-width:0.472993"
       id="RST_PARAM"
       cx="13.219791"
       cy="22.106249"
       r="2.2695303"
       inkscape:label="RST" />
    <circle
       style="display:inline;fill:#ff00ff;fill-opacity:0.5;stroke-width:0.264583"
       id="LEDRST_LIGHT"
       cx="13.219791"
       cy="22.106249"
       r="1.2695303"
       inkscape:label="LEDRST" />
    <rect
       style="display:inline;fill:#0000ff;fill-opacity:0.5;stroke-width:0.47625"
       id="TEST_OUTPUT"
       width="9"
       height="9"
       x="8"
       y="40"
       inkscape:label="TEST" />
    <rect
       style="display:inline;fill:#0000ff;fill-opacity:0.5;stroke-width:0.47625"
       id="TEST2_OUTPUT"
       width="9"
       height="9"
       x="19"
       y="40"
       inkscape:label="TEST2" />
    <rect
       style="display:inline;fill:#0000ff;fill-opacity:0.5;stroke-width:0.47625"
       id="TEST3_OUTPUT"
       width="9"
       height="9"
       x="19"
       y="50"
       inkscape:label="TEST3"
       inkscape:transform-center-x="0.1984375"
       inkscape:transform-center-y="-3.175" />
    <rect
       style="display:inline;fill:#0000ff;fill-opacity:0.5;stroke-width:0.47625"
       id="TEST4_OUTPUT"
       width="9"
       height="9"
       x="19"
       y="60"
       inkscape:label="TEST4"
       inkscape:transform-center-x="0.1984375"
       inkscape:transform-center-y="-3.175" />
    <rect
       style="display:inline;fill:#0000ff;fill-opacity:0.5;stroke-width:0.47625"
       id="TEST5_OUTPUT"
       width="9"
       height="9"
       x="19"
       y="70"
       inkscape:label="TEST5"
       inkscape:transform-center-x="0.1984375"
       inkscape:transform-center-y="-3.175" />
    <rect
       style="display:inline;fill:#0000ff;fill-opacity:0.5;stroke-width:0.47625"
       id="TEST6_OUTPUT"
       width="9"
       height="9"
       x="19"
       y="80"
       inkscape:label="TEST6"
       inkscape:transform-center-x="0.1984375"
       inkscape:transform-center-y="-3.175" />
  </g>
  <g
     inkscape:groupmode="layer"
     id="layer2"
     inkscape:label="components"
     style="display:none">
    <circle
       style="display:inline;fill:#00ffff;fill-opacity:0.5;stroke-width:0.472993"
       id="STEP01_PARAM"
       cx="12"
       cy="106"
       r="2.2695303"
       inkscape:label="STEP01" />
    <circle
       style="display:inline;fill:#ff00ff;fill-opacity:0.5;stroke-width:0.264583"
       id="LEDSTEP01_LIGHT"
       cx="12"
       cy="106"
       r="1.2695303"
       inkscape:label="LEDSTEP01" />
    <circle
       style="display:inline;fill:#00ffff;fill-opacity:0.5;stroke-width:0.472993"
       id="STEP05_PARAM"
       cx="12"
       cy="113"
       r="2.2695303"
       inkscape:label="STEP05" />
    <circle
       style="display:inline;fill:#ff00ff;fill-opacity:0.5;stroke-width:0.264583"
       id="LEDSTEP05_LIGHT"
       cx="12"
       cy="113"
       r="1.2695303"
       inkscape:label="LEDSTEP05" />
    <circle
       style="display:inline;fill:#00ffff;fill-opacity:0.5;stroke-width:0.472993"
       id="STEP09_PARAM"
       cx="12"
       cy="120"
       r="2.2695303"
       inkscape:label="STEP09" />
    <circle
       style="display:inline;fill:#ff00ff;fill-opacity:0.5;stroke-width:0.264583"
       id="LEDSTEP09_LIGHT"
       cx="12"
       cy="120"
       r="1.2695303"
       inkscape:label="LEDSTEP09" />
    <rect
       style="display:inline;fill:#0000ff;fill-opacity:0.5;stroke-width:0.47625"
       id="OUT0_OUTPUT"
       width="9"
       height="9"
       x="19"
       y="23"
       inkscape:label="OUT0" />
    <circle
       style="display:inline;fill:#00ffff;fill-opacity:0.5;stroke-width:0.472993"
       id="STEP00_PARAM"
       cx="5"
       cy="106"
       r="2.2695303"
       inkscape:label="STEP00" />
    <circle
       style="display:inline;fill:#ff00ff;fill-opacity:0.5;stroke-width:0.264583"
       id="LEDSTEP00_LIGHT"
       cx="5"
       cy="106"
       inkscape:label="LEDSTEP00"
       r="1.2695303" />
    <circle
       style="display:inline;fill:#00ffff;fill-opacity:0.5;stroke-width:0.472993"
       id="STEP04_PARAM"
       cx="5"
       cy="112.94164"
       r="2.2695303"
       inkscape:label="STEP04" />
    <circle
       style="display:inline;fill:#ff00ff;fill-opacity:0.5;stroke-width:0.264583"
       id="LEDSTEP04_LIGHT"
       cx="5"
       cy="113"
       r="1.2695303"
       inkscape:label="LEDSTEP04" />
    <circle
       style="display:inline;fill:#00ffff;fill-opacity:0.5;stroke-width:0.472993"
       id="STEP08_PARAM"
       cx="5"
       cy="120"
       r="2.2695303"
       inkscape:label="STEP08" />
    <circle
       style="display:inline;fill:#ff00ff;fill-opacity:0.5;stroke-width:0.264583"
       id="LEDSTEP08_LIGHT"
       cx="5"
       cy="120"
       r="1.2695303"
       inkscape:label="LEDSTEP08" />
    <circle
       style="display:inline;fill:#00ffff;fill-opacity:0.5;stroke-width:0.472993"
       id="QUANT0_PARAM"
       cx="14"
       cy="15.941667"
       r="2.2695303"
       inkscape:label="QUANT0" />
    <circle
       style="display:inline;fill:#ff00ff;fill-opacity:0.5;stroke-width:0.264583"
       id="QUANT0_LIGHT"
       cx="14"
       cy="15.941667"
       r="1.2695303"
       inkscape:label="QUANT0" />
    <circle
       style="display:inline;fill:#00ffff;fill-opacity:0.5;stroke-width:0.472993"
       id="STEP03_PARAM"
       cx="26"
       cy="106"
       r="2.2695303"
       inkscape:label="STEP03" />
    <circle
       style="display:inline;fill:#ff00ff;fill-opacity:0.5;stroke-width:0.264583"
       id="LEDSTEP03_LIGHT"
       cx="26"
       cy="106"
       r="1.2695303"
       inkscape:label="LEDSTEP03" />
    <circle
       style="display:inline;fill:#00ffff;fill-opacity:0.5;stroke-width:0.472993"
       id="STEP07_PARAM"
       cx="26"
       cy="113"
       r="2.2695303"
       inkscape:label="STEP07" />
    <circle
       style="display:inline;fill:#ff00ff;fill-opacity:0.5;stroke-width:0.264583"
       id="LEDSTEP07_LIGHT"
       cx="26"
       cy="113"
       r="1.2695303"
       inkscape:label="LEDSTEP07" />
    <circle
       style="display:inline;fill:#00ffff;fill-opacity:0.5;stroke-width:0.472993"
       id="STEP11_PARAM"
       cx="26"
       cy="120"
       r="2.2695303"
       inkscape:label="STEP11" />
    <circle
       style="display:inline;fill:#ff00ff;fill-opacity:0.5;stroke-width:0.264583"
       id="LEDSTEP11_LIGHT"
       cx="26"
       cy="120"
       r="1.2695303"
       inkscape:label="LEDSTEP11" />
    <circle
       style="display:inline;fill:#00ffff;fill-opacity:0.5;stroke-width:0.472993"
       id="STEP02_PARAM"
       cx="19"
       cy="106"
       r="2.2695303"
       inkscape:label="STEP02" />
    <circle
       style="display:inline;fill:#ff00ff;fill-opacity:0.5;stroke-width:0.264583"
       id="LEDSTEP02_LIGHT"
       cx="19"
       cy="106"
       r="1.2695303"
       inkscape:label="LEDSTEP02" />
    <circle
       style="display:inline;fill:#00ffff;fill-opacity:0.5;stroke-width:0.472993"
       id="STEP06_PARAM"
       cx="19"
       cy="113"
       r="2.2695303"
       inkscape:label="STEP06" />
    <circle
       style="display:inline;fill:#ff00ff;fill-opacity:0.5;stroke-width:0.264583"
       id="LEDSTEP06_LIGHT"
       cx="19"
       cy="113"
       r="1.2695303"
       inkscape:label="LEDSTEP06" />
    <circle
       style="display:inline;fill:#00ffff;fill-opacity:0.5;stroke-width:0.472993"
       id="STEP10_PARAM"
       cx="19"
       cy="120"
       r="2.2695303"
       inkscape:label="STEP10" />
    <circle
       style="display:inline;fill:#ff00ff;fill-opacity:0.5;stroke-width:0.264583"
       id="LEDSTEP10_LIGHT"
       cx="19"
       cy="120"
       r="1.2695303"
       inkscape:label="LEDSTEP10" />
    <rect
       style="display:inline;fill:#00ff00;fill-opacity:0.5;stroke-width:0.47625"
       id="HOLD0_INPUT"
       width="9"
       height="9"
       x="1"
       y="13"
       inkscape:label="HOLD0" />
    <rect
       style="display:inline;fill:#00ff00;fill-opacity:0.5;stroke-width:0.47625"
       id="IN0_INPUT"
       width="9"
       height="9"
       x="1"
       y="23"
       inkscape:label="IN0" />
    <rect
       style="display:inline;fill:#0000ff;fill-opacity:0.5;stroke-width:0.47625"
       id="PULSE0_OUTPUT"
       width="9"
       height="9"
       x="19"
       y="13"
       inkscape:label="PULSE0" />
    <rect
       style="display:inline;fill:#ff8000;fill-opacity:0.5;stroke:none;stroke-width:0.316236"
       id="QUANTMODE_PARAM"
       width="6"
       height="10"
       x="23"
       y="88.941666"
       inkscape:label="QUANTMODE&lt;CKSSThree&gt;" />
    <rect
       style="display:inline;fill:#0000ff;fill-opacity:0.5;stroke-width:0.47625"
       id="OUT1_OUTPUT"
       width="9"
       height="9"
       x="19"
       y="50.058334"
       inkscape:label="OUT1" />
    <rect
       style="display:inline;fill:#00ff00;fill-opacity:0.5;stroke-width:0.47625"
       id="HOLD1_INPUT"
       width="9"
       height="9"
       x="1"
       y="40"
       inkscape:label="HOLD1" />
    <rect
       style="display:inline;fill:#00ff00;fill-opacity:0.5;stroke-width:0.47625"
       id="IN1_INPUT"
       width="9"
       height="9"
       x="1"
       y="50"
       inkscape:label="IN1" />
    <rect
       style="display:inline;fill:#0000ff;fill-opacity:0.5;stroke-width:0.47625"
       id="PULSE1_OUTPUT"
       width="9"
       height="9"
       x="19"
       y="40.058334"
       inkscape:label="PULSE1" />
    <circle
       style="display:inline;fill:#00ffff;fill-opacity:0.5;stroke-width:0.472993"
       id="QUANT1_PARAM"
       cx="14"
       cy="44.058334"
       r="2.2695303"
       inkscape:label="QUANT1" />
    <circle
       style="display:inline;fill:#ff00ff;fill-opacity:0.5;stroke-width:0.264583"
       id="QUANT1_LIGHT"
       cx="14"
       cy="44.058334"
       r="1.2695303"
       inkscape:label="QUANT1" />
    <rect
       style="display:inline;fill:#0000ff;fill-opacity:0.5;stroke-width:0.47625"
       id="OUT0_OUTPUT-0-2"
       width="9"
       height="9"
       x="19"
       y="75.058334"
       inkscape:label="OUT2" />
    <rect
       style="display:inline;fill:#00ff00;fill-opacity:0.5;stroke-width:0.47625"
       id="HOLD2_INPUT"
       width="9"
       height="9"
       x="1"
       y="65"
       inkscape:label="HOLD2" />
    <rect
       style="display:inline;fill:#00ff00;fill-opacity:0.5;stroke-width:0.47625"
       id="IN2_INPUT"
       width="9"
       height="9"
       x="1"
       y="75"
       inkscape:label="IN2" />
    <rect
       style="display:inline;fill:#0000ff;fill-opacity:0.5;stroke-width:0.47625"
       id="PULSE2_OUTPUT"
       width="9"
       height="9"
       x="19"
       y="65.058334"
       inkscape:label="PULSE2" />
    <circle
       style="display:inline;fill:#00ffff;fill-opacity:0.5;stroke-width:0.472993"
       id="QUANT2_PARAM"
       cx="14"
       cy="69.058334"
       r="2.2695303"
       inkscape:label="QUANT2" />
    <circle
       style="display:inline;fill:#ff00ff;fill-opacity:0.5;stroke-width:0.264583"
       id="QUANT2_LIGHT"
       cx="14"
       cy="69.058334"
       r="1.2695303"
       inkscape:label="QUANT2" />
  </g>
</svg>
