<?xml version="1.0" encoding="UTF-8" standalone="no"?>
<svg
   xmlns:dc="http://purl.org/dc/elements/1.1/"
   xmlns:cc="http://creativecommons.org/ns#"
   xmlns:rdf="http://www.w3.org/1999/02/22-rdf-syntax-ns#"
   xmlns:svg="http://www.w3.org/2000/svg"
   xmlns="http://www.w3.org/2000/svg"
   xmlns:sodipodi="http://sodipodi.sourceforge.net/DTD/sodipodi-0.dtd"
   xmlns:inkscape="http://www.inkscape.org/namespaces/inkscape"
   width="40.639999mm"
   height="128.5mm"
   viewBox="0 0 40.64 128.5"
   version="1.1"
   id="svg1364"
   inkscape:version="1.0.1 (3bc2e813f5, 2020-09-07)"
   sodipodi:docname="MusiMath.svg">
  <defs
     id="defs1358" />
  <sodipodi:namedview
     id="base"
     pagecolor="#ffffff"
     bordercolor="#666666"
     borderopacity="1.0"
     inkscape:pageopacity="0.0"
     inkscape:pageshadow="2"
     inkscape:zoom="1.4142136"
     inkscape:cx="137.57043"
     inkscape:cy="240.37791"
     inkscape:document-units="mm"
     inkscape:current-layer="layer4"
     inkscape:document-rotation="0"
     showgrid="true"
     inkscape:snap-nodes="true"
     inkscape:window-width="1695"
     inkscape:window-height="1030"
     inkscape:window-x="193"
     inkscape:window-y="54"
     inkscape:window-maximized="0"
     inkscape:snap-bbox="true"
     inkscape:snap-bbox-midpoints="true"
     inkscape:snap-bbox-edge-midpoints="false">
    <inkscape:grid
       type="xygrid"
       id="grid1368"
       units="mm"
       spacingx="1"
       spacingy="1" />
  </sodipodi:namedview>
  <metadata
     id="metadata1361">
    <rdf:RDF>
      <cc:Work
         rdf:about="">
        <dc:format>image/svg+xml</dc:format>
        <dc:type
           rdf:resource="http://purl.org/dc/dcmitype/StillImage" />
        <dc:title></dc:title>
      </cc:Work>
    </rdf:RDF>
  </metadata>
  <g
     inkscape:groupmode="layer"
     id="layer3"
     inkscape:label="Background"
     style="display:inline"
     sodipodi:insensitive="true">
    <rect
       style="display:inline;fill:#e6e6e6;fill-opacity:1;stroke-width:0.378634"
       id="rect1961"
       width="40.639999"
       height="128.5"
       x="0"
       y="0" />
  </g>
  <g
     inkscape:label="Layer 1"
     inkscape:groupmode="layer"
     id="layer1"
     style="display:inline">
    <text
       xml:space="preserve"
       style="font-size:3.52777px;line-height:1.25;font-family:Sudo;-inkscape-font-specification:Sudo;stroke-width:0.264583"
       x="1"
       y="5.9999995"
       id="text4190"><tspan
         sodipodi:role="line"
         id="tspan4188"
         x="1"
         y="5.9999995"
         style="stroke-width:0.264583" /></text>
    <text
       xml:space="preserve"
       style="font-size:3.52777px;line-height:1.25;font-family:Sudo;-inkscape-font-specification:Sudo;stroke-width:0.264583"
       x="18"
       y="94"
       id="text920"><tspan
         sodipodi:role="line"
         id="tspan918"
         x="18"
         y="94"
         style="stroke-width:0.264583" /></text>
    <path
       style="fill:none;stroke:#000000;stroke-width:0.187383;stroke-linecap:butt;stroke-linejoin:miter;stroke-miterlimit:4;stroke-dasharray:none;stroke-opacity:1"
       d="M 5,104.76253 V 99.762503"
       id="path931" />
    <path
       style="display:inline;fill:none;stroke:#000000;stroke-width:0.187383;stroke-linecap:butt;stroke-linejoin:miter;stroke-miterlimit:4;stroke-dasharray:none;stroke-opacity:1"
       d="M 34,67.500013 V 62.499986"
       id="path931-4" />
    <path
       style="display:inline;fill:none;stroke:#000000;stroke-width:0.187383;stroke-linecap:butt;stroke-linejoin:miter;stroke-miterlimit:4;stroke-dasharray:none;stroke-opacity:1"
       d="M 21,93.500013 V 88.499986"
       id="path931-5" />
    <path
       style="display:inline;fill:none;stroke:#000000;stroke-width:0.264583px;stroke-linecap:butt;stroke-linejoin:miter;stroke-opacity:1"
       d="M 1,39.999999 V 5.9999998 H 14 V 73.999999 H 1 V 51.000001"
       id="path1668" />
    <rect
       style="display:inline;fill:#000000;fill-opacity:0.983806;stroke-width:1.40572"
       id="rect3459-2-3-8"
       width="11"
       height="28"
       x="29"
       y="92"
       ry="2.5454547" />
    <path
       style="display:inline;fill:none;stroke:#000000;stroke-width:0.264583px;stroke-linecap:butt;stroke-linejoin:miter;stroke-opacity:1"
       d="m 14,90.999999 5,5.999999"
       id="path2048" />
  </g>
  <g
     inkscape:groupmode="layer"
     id="layer4"
     inkscape:label="Text"
     style="display:inline">
    <path
       d="m 14.110148,123.76956 h -0.341063 v -2.21002 l -0.713133,1.50378 h -0.203261 l -0.707965,-1.50378 v 2.21002 h -0.318671 v -2.56487 h 0.465087 l 0.68385,1.42799 0.661457,-1.42799 h 0.473699 z"
       style="font-style:normal;font-variant:normal;font-weight:normal;font-stretch:normal;font-size:3.52777px;line-height:1.25;font-family:Verdana;-inkscape-font-specification:Verdana;stroke-width:0.264583"
       id="path953" />
    <path
       d="m 16.368404,123.76956 h -0.323839 v -0.21359 q -0.163641,0.12919 -0.313503,0.19809 -0.149861,0.0689 -0.330728,0.0689 -0.303168,0 -0.471977,-0.18431 -0.168809,-0.18604 -0.168809,-0.54433 v -1.24884 h 0.323838 v 1.09554 q 0,0.14641 0.01378,0.25149 0.01378,0.10335 0.05857,0.17742 0.04651,0.0758 0.120578,0.11024 0.07407,0.0345 0.215318,0.0345 0.125745,0 0.273884,-0.0655 0.149862,-0.0655 0.279052,-0.16709 v -1.4366 h 0.323839 z"
       style="font-style:normal;font-variant:normal;font-weight:normal;font-stretch:normal;font-size:3.52777px;line-height:1.25;font-family:Verdana;-inkscape-font-specification:Verdana;stroke-width:0.264583"
       id="path955" />
    <path
       d="m 18.380335,123.2149 q 0,0.26355 -0.218763,0.43236 -0.217041,0.16881 -0.594278,0.16881 -0.213595,0 -0.39274,-0.0499 -0.177422,-0.0517 -0.298,-0.11197 v -0.36346 h 0.01722 q 0.153307,0.11541 0.341064,0.18432 0.187757,0.0672 0.360012,0.0672 0.213595,0 0.334173,-0.0689 0.120578,-0.0689 0.120578,-0.21704 0,-0.11368 -0.06546,-0.17225 -0.06546,-0.0586 -0.251492,-0.0999 -0.0689,-0.0155 -0.180867,-0.0362 -0.110243,-0.0207 -0.201537,-0.0448 -0.253214,-0.0672 -0.360012,-0.19637 -0.105075,-0.13091 -0.105075,-0.32039 0,-0.11886 0.04823,-0.22393 0.04995,-0.10508 0.149861,-0.18776 0.09646,-0.081 0.244602,-0.12747 0.149861,-0.0482 0.334173,-0.0482 0.172254,0 0.347954,0.0431 0.177422,0.0413 0.294555,0.10163 v 0.34623 h -0.01722 q -0.124024,-0.0913 -0.301446,-0.15331 -0.177422,-0.0637 -0.347954,-0.0637 -0.177422,0 -0.299722,0.0689 -0.122301,0.0672 -0.122301,0.20154 0,0.11885 0.07407,0.17914 0.07235,0.0603 0.234266,0.0982 0.08957,0.0207 0.199815,0.0413 0.111965,0.0207 0.186034,0.0379 0.225654,0.0517 0.347954,0.17742 0.122301,0.12747 0.122301,0.33762 z"
       style="font-style:normal;font-variant:normal;font-weight:normal;font-stretch:normal;font-size:3.52777px;line-height:1.25;font-family:Verdana;-inkscape-font-specification:Verdana;stroke-width:0.264583"
       id="path957" />
    <path
       d="m 19.191653,121.52336 h -0.365179 v -0.33589 h 0.365179 z m -0.02067,2.2462 h -0.323839 v -1.92408 h 0.323839 z"
       style="font-style:normal;font-variant:normal;font-weight:normal;font-stretch:normal;font-size:3.52777px;line-height:1.25;font-family:Verdana;-inkscape-font-specification:Verdana;stroke-width:0.264583"
       id="path959" />
    <path
       d="m 22.1217,123.76956 h -0.341063 v -2.21002 l -0.713134,1.50378 h -0.20326 l -0.707965,-1.50378 v 2.21002 h -0.318671 v -2.56487 h 0.465087 l 0.68385,1.42799 0.661457,-1.42799 H 22.1217 Z"
       style="font-style:normal;font-variant:normal;font-weight:normal;font-stretch:normal;font-size:3.52777px;line-height:1.25;font-family:Verdana;-inkscape-font-specification:Verdana;stroke-width:0.264583"
       id="path961" />
    <path
       d="m 24.280048,123.76956 h -0.322116 v -0.20498 q -0.04306,0.0293 -0.117133,0.0827 -0.07235,0.0517 -0.141248,0.0827 -0.08096,0.0396 -0.186035,0.0655 -0.105075,0.0276 -0.246324,0.0276 -0.260104,0 -0.440971,-0.17225 -0.180867,-0.17226 -0.180867,-0.43925 0,-0.21877 0.09302,-0.35312 0.09474,-0.13608 0.268717,-0.2136 0.1757,-0.0775 0.422023,-0.10507 0.246324,-0.0276 0.528821,-0.0413 v -0.05 q 0,-0.11024 -0.03962,-0.18259 -0.0379,-0.0724 -0.110243,-0.11369 -0.0689,-0.0396 -0.165364,-0.0534 -0.09646,-0.0138 -0.201538,-0.0138 -0.127468,0 -0.284219,0.0345 -0.156752,0.0327 -0.323839,0.0965 h -0.01722 V 121.887 q 0.09474,-0.0258 0.273884,-0.0568 0.179145,-0.031 0.353122,-0.031 0.20326,0 0.353121,0.0345 0.151584,0.0327 0.261827,0.11369 0.10852,0.0792 0.165364,0.20498 0.05684,0.12575 0.05684,0.31178 z m -0.322116,-0.4737 v -0.53571 q -0.148138,0.009 -0.349676,0.0258 -0.199815,0.0172 -0.316948,0.0499 -0.139526,0.0396 -0.225653,0.12403 -0.08613,0.0827 -0.08613,0.22909 0,0.16537 0.09991,0.24977 0.09991,0.0827 0.30489,0.0827 0.170532,0 0.311781,-0.0655 0.141248,-0.0672 0.261826,-0.1602 z"
       style="font-style:normal;font-variant:normal;font-weight:normal;font-stretch:normal;font-size:3.52777px;line-height:1.25;font-family:Verdana;-inkscape-font-specification:Verdana;stroke-width:0.264583"
       id="path963" />
    <path
       d="m 25.902684,123.75234 q -0.0913,0.0241 -0.199815,0.0396 -0.106798,0.0155 -0.191202,0.0155 -0.294555,0 -0.447862,-0.15848 -0.153306,-0.15847 -0.153306,-0.50815 v -1.02319 h -0.218763 v -0.27216 h 0.218763 v -0.55294 h 0.323838 v 0.55294 h 0.668347 v 0.27216 h -0.668347 v 0.87678 q 0,0.15158 0.0069,0.23771 0.0069,0.0844 0.04823,0.15847 0.03789,0.0689 0.103352,0.10163 0.06718,0.031 0.20326,0.031 0.07924,0 0.165365,-0.0224 0.08613,-0.0241 0.124023,-0.0396 h 0.01722 z"
       style="font-style:normal;font-variant:normal;font-weight:normal;font-stretch:normal;font-size:3.52777px;line-height:1.25;font-family:Verdana;-inkscape-font-specification:Verdana;stroke-width:0.264583"
       id="path965" />
    <path
       d="m 27.902558,123.76956 h -0.323839 v -1.09554 q 0,-0.13263 -0.0155,-0.24804 -0.0155,-0.11714 -0.05684,-0.18259 -0.04306,-0.0724 -0.124023,-0.1068 -0.08096,-0.0362 -0.21015,-0.0362 -0.132636,0 -0.27733,0.0654 -0.144693,0.0655 -0.277329,0.16709 v 1.4366 h -0.323838 v -2.68028 h 0.323838 v 0.9698 q 0.151584,-0.12575 0.313503,-0.19637 0.161919,-0.0706 0.332451,-0.0706 0.31178,0 0.475422,0.18776 0.163642,0.18776 0.163642,0.54088 z"
       style="font-style:normal;font-variant:normal;font-weight:normal;font-stretch:normal;font-size:3.52777px;line-height:1.25;font-family:Verdana;-inkscape-font-specification:Verdana;stroke-width:0.264583"
       id="path967" />
    <path
       d="m 19.462013,5.2111013 q 0,0.1498613 -0.07062,0.2962775 -0.0689,0.1464163 -0.194648,0.2480464 -0.137803,0.1102428 -0.322115,0.1722544 -0.18259,0.062012 -0.440972,0.062012 -0.277329,0 -0.499537,-0.051676 -0.220486,-0.051676 -0.449584,-0.1533064 V 5.3575175 h 0.02412 q 0.194648,0.1619192 0.449584,0.2497689 0.254937,0.08785 0.478867,0.08785 0.316948,0 0.492648,-0.1188555 0.177422,-0.1188555 0.177422,-0.3169481 0,-0.1705318 -0.08441,-0.2514914 -0.08268,-0.08096 -0.253214,-0.1257457 -0.12919,-0.034451 -0.280774,-0.056844 -0.149862,-0.022393 -0.318671,-0.056844 -0.341064,-0.072347 -0.506428,-0.2463238 -0.163642,-0.1756995 -0.163642,-0.4564742 0,-0.3221157 0.272162,-0.5270984 0.272162,-0.2067053 0.690741,-0.2067053 0.270439,0 0.496092,0.051676 0.225653,0.051676 0.39963,0.1274683 v 0.4030753 h -0.02412 q -0.146416,-0.1240232 -0.38585,-0.2049828 -0.237711,-0.082682 -0.48748,-0.082682 -0.273884,0 -0.440971,0.1136879 -0.165364,0.1136879 -0.165364,0.2928325 0,0.1601966 0.08268,0.2514914 0.08268,0.091295 0.29111,0.1395261 0.110242,0.024116 0.313503,0.058567 0.20326,0.034451 0.344508,0.070624 0.285943,0.075792 0.430636,0.2290983 0.144694,0.1533064 0.144694,0.4289135 z"
       style="font-style:normal;font-variant:normal;font-weight:normal;font-stretch:normal;font-size:3.52777px;line-height:1.25;font-family:Verdana;-inkscape-font-specification:Verdana;stroke-width:0.264583"
       id="path970" />
    <path
       d="m 20.983019,5.925957 q -0.09129,0.024116 -0.199815,0.039618 -0.106798,0.015503 -0.191202,0.015503 -0.294555,0 -0.447862,-0.158474 Q 19.990834,5.6641303 19.990834,5.3144539 V 4.2912628 H 19.772071 V 4.0191009 h 0.218763 V 3.4661642 h 0.323838 v 0.5529367 h 0.668347 v 0.2721619 h -0.668347 v 0.8767749 q 0,0.1515839 0.0069,0.2377111 0.0069,0.084405 0.04823,0.158474 0.0379,0.068902 0.103352,0.1016301 0.06718,0.031006 0.20326,0.031006 0.07924,0 0.165365,-0.022393 0.08613,-0.024116 0.124023,-0.039619 h 0.01722 z"
       style="font-style:normal;font-variant:normal;font-weight:normal;font-stretch:normal;font-size:3.52777px;line-height:1.25;font-family:Verdana;-inkscape-font-specification:Verdana;stroke-width:0.264583"
       id="path972" />
    <path
       d="M 22.869205,5.9431825 H 22.547089 V 5.7381997 q -0.04306,0.029283 -0.117133,0.082682 -0.07235,0.051676 -0.141248,0.082682 -0.08096,0.039618 -0.186035,0.065457 -0.105075,0.027561 -0.246324,0.027561 -0.260104,0 -0.440971,-0.1722544 -0.180867,-0.1722544 -0.180867,-0.4392487 0,-0.2187631 0.09302,-0.3531215 0.09474,-0.136081 0.268717,-0.2135954 0.175699,-0.077515 0.422023,-0.1050752 0.246324,-0.027561 0.528821,-0.041341 v -0.049954 q 0,-0.1102428 -0.03962,-0.1825896 -0.0379,-0.072347 -0.110243,-0.1136879 -0.0689,-0.039618 -0.165364,-0.053399 -0.09646,-0.01378 -0.201538,-0.01378 -0.127468,0 -0.28422,0.034451 -0.156751,0.032728 -0.323838,0.096463 h -0.01723 V 4.0604419 q 0.09474,-0.025838 0.273885,-0.056844 0.179145,-0.031006 0.353121,-0.031006 0.203261,0 0.353122,0.034451 0.151584,0.032728 0.261827,0.1136879 0.10852,0.079237 0.165364,0.2049827 0.05684,0.1257457 0.05684,0.3117804 z M 22.547089,5.4694829 V 4.9337717 q -0.148139,0.00861 -0.349676,0.025838 -0.199815,0.017225 -0.316948,0.049954 -0.139526,0.039619 -0.225654,0.1240232 -0.08613,0.082682 -0.08613,0.2290984 0,0.1653642 0.09991,0.2497688 0.09991,0.082682 0.30489,0.082682 0.170532,0 0.31178,-0.065457 0.141249,-0.067179 0.261827,-0.1601966 z"
       style="font-style:normal;font-variant:normal;font-weight:normal;font-stretch:normal;font-size:3.52777px;line-height:1.25;font-family:Verdana;-inkscape-font-specification:Verdana;stroke-width:0.264583"
       id="path974" />
    <path
       d="m 24.693379,4.3722224 h -0.01723 q -0.07235,-0.017226 -0.141248,-0.024116 -0.06718,-0.00861 -0.160197,-0.00861 -0.149861,0 -0.289387,0.067179 -0.139526,0.065457 -0.268717,0.1705318 V 5.9431825 H 23.492766 V 4.0191009 h 0.323838 v 0.2842197 q 0.192925,-0.1550289 0.339341,-0.2187631 0.148139,-0.065457 0.301445,-0.065457 0.08441,0 0.122301,0.00517 0.0379,0.00345 0.113688,0.015503 z"
       style="font-style:normal;font-variant:normal;font-weight:normal;font-stretch:normal;font-size:3.52777px;line-height:1.25;font-family:Verdana;-inkscape-font-specification:Verdana;stroke-width:0.264583"
       id="path976" />
    <path
       d="m 25.997345,5.925957 q -0.09129,0.024116 -0.199815,0.039618 -0.106798,0.015503 -0.191203,0.015503 -0.294555,0 -0.447861,-0.158474 Q 25.00516,5.6641303 25.00516,5.3144539 V 4.2912628 H 24.786397 V 4.0191009 H 25.00516 V 3.4661642 h 0.323838 v 0.5529367 h 0.668347 v 0.2721619 h -0.668347 v 0.8767749 q 0,0.1515839 0.0069,0.2377111 0.0069,0.084405 0.04823,0.158474 0.0379,0.068902 0.103353,0.1016301 0.06718,0.031006 0.20326,0.031006 0.07924,0 0.165364,-0.022393 0.08613,-0.024116 0.124024,-0.039619 h 0.01722 z"
       style="font-style:normal;font-variant:normal;font-weight:normal;font-stretch:normal;font-size:3.52777px;line-height:1.25;font-family:Verdana;-inkscape-font-specification:Verdana;stroke-width:0.264583"
       id="path978" />
    <path
       d="m 24.297705,22.065714 h -0.363457 l -0.251492,-0.714856 h -1.109318 l -0.251491,0.714856 h -0.346232 l 0.933619,-2.564868 h 0.454752 z m -0.720024,-1.007688 -0.449584,-1.25918 -0.451306,1.25918 z"
       style="font-style:normal;font-variant:normal;font-weight:normal;font-stretch:normal;font-size:3.52777px;line-height:1.25;font-family:Verdana;-inkscape-font-specification:Verdana;stroke-width:0.264583"
       id="path981" />
    <path
       d="m 26.221786,22.065714 h -0.323838 v -0.201538 q -0.139526,0.120578 -0.29111,0.187758 -0.151584,0.06718 -0.329006,0.06718 -0.344509,0 -0.547769,-0.265272 -0.201538,-0.265272 -0.201538,-0.735526 0,-0.244602 0.0689,-0.435804 0.07062,-0.191202 0.18948,-0.325561 0.117133,-0.130913 0.272162,-0.199815 0.156751,-0.0689 0.323838,-0.0689 0.151584,0 0.268717,0.03273 0.117133,0.03101 0.246324,0.09819 v -0.833712 h 0.323838 z m -0.323838,-0.4737 v -1.10415 q -0.130913,-0.05857 -0.234266,-0.08096 -0.103353,-0.02239 -0.225653,-0.02239 -0.272162,0 -0.423746,0.18948 -0.151584,0.18948 -0.151584,0.537434 0,0.342786 0.117133,0.52193 0.117133,0.177422 0.375515,0.177422 0.137803,0 0.279052,-0.06029 0.141248,-0.06201 0.263549,-0.158474 z"
       style="font-style:normal;font-variant:normal;font-weight:normal;font-stretch:normal;font-size:3.52777px;line-height:1.25;font-family:Verdana;-inkscape-font-specification:Verdana;stroke-width:0.264583"
       id="path983" />
    <path
       d="m 28.419752,22.065714 h -0.323838 v -0.201538 q -0.139526,0.120578 -0.29111,0.187758 -0.151584,0.06718 -0.329006,0.06718 -0.344509,0 -0.547769,-0.265272 -0.201537,-0.265272 -0.201537,-0.735526 0,-0.244602 0.0689,-0.435804 0.07062,-0.191202 0.18948,-0.325561 0.117133,-0.130913 0.272162,-0.199815 0.156752,-0.0689 0.323838,-0.0689 0.151584,0 0.268717,0.03273 0.117133,0.03101 0.246324,0.09819 v -0.833712 h 0.323838 z m -0.323838,-0.4737 v -1.10415 q -0.130913,-0.05857 -0.234266,-0.08096 -0.103353,-0.02239 -0.225653,-0.02239 -0.272162,0 -0.423746,0.18948 -0.151584,0.18948 -0.151584,0.537434 0,0.342786 0.117133,0.52193 0.117133,0.177422 0.375515,0.177422 0.137803,0 0.279052,-0.06029 0.141248,-0.06201 0.263549,-0.158474 z"
       style="font-style:normal;font-variant:normal;font-weight:normal;font-stretch:normal;font-size:3.52777px;line-height:1.25;font-family:Verdana;-inkscape-font-specification:Verdana;stroke-width:0.264583"
       id="path985" />
    <path
       d="m 32.34543,22.065714 h -0.363457 l -0.251491,-0.714856 h -1.109318 l -0.251492,0.714856 h -0.346231 l 0.933619,-2.564868 h 0.454751 z m -0.720023,-1.007688 -0.449584,-1.25918 -0.451307,1.25918 z"
       style="font-style:normal;font-variant:normal;font-weight:normal;font-stretch:normal;font-size:3.52777px;line-height:1.25;font-family:Verdana;-inkscape-font-specification:Verdana;stroke-width:0.264583"
       id="path987" />
    <path
       d="M 24.297707,38.065712 H 23.93425 L 23.682758,37.350856 H 22.57344 l -0.251491,0.714856 h -0.346232 l 0.933619,-2.564868 h 0.454752 z m -0.720024,-1.007688 -0.449584,-1.25918 -0.451306,1.25918 z"
       style="font-style:normal;font-variant:normal;font-weight:normal;font-stretch:normal;font-size:3.52777px;line-height:1.25;font-family:Verdana;-inkscape-font-specification:Verdana;stroke-width:0.264583"
       id="path990" />
    <path
       d="M 26.221788,38.065712 H 25.89795 v -0.201538 q -0.139526,0.120578 -0.29111,0.187758 -0.151584,0.06718 -0.329006,0.06718 -0.344509,0 -0.547769,-0.265272 -0.201538,-0.265272 -0.201538,-0.735526 0,-0.244601 0.0689,-0.435804 0.07062,-0.191202 0.18948,-0.325561 0.117133,-0.130913 0.272162,-0.199815 0.156751,-0.0689 0.323838,-0.0689 0.151584,0 0.268717,0.03273 0.117133,0.03101 0.246324,0.09819 v -0.833711 h 0.323838 z m -0.323838,-0.4737 v -1.10415 q -0.130914,-0.05857 -0.234266,-0.08096 -0.103353,-0.02239 -0.225653,-0.02239 -0.272162,0 -0.423746,0.18948 -0.151584,0.18948 -0.151584,0.537434 0,0.342786 0.117133,0.52193 0.117133,0.177422 0.375514,0.177422 0.137804,0 0.279053,-0.06029 0.141248,-0.06201 0.263549,-0.158474 z"
       style="font-style:normal;font-variant:normal;font-weight:normal;font-stretch:normal;font-size:3.52777px;line-height:1.25;font-family:Verdana;-inkscape-font-specification:Verdana;stroke-width:0.264583"
       id="path992" />
    <path
       d="m 28.419754,38.065712 h -0.323838 v -0.201538 q -0.139526,0.120578 -0.29111,0.187758 -0.151584,0.06718 -0.329006,0.06718 -0.344509,0 -0.547769,-0.265272 -0.201538,-0.265272 -0.201538,-0.735526 0,-0.244601 0.0689,-0.435804 0.07062,-0.191202 0.18948,-0.325561 0.117133,-0.130913 0.272162,-0.199815 0.156751,-0.0689 0.323838,-0.0689 0.151584,0 0.268717,0.03273 0.117133,0.03101 0.246324,0.09819 v -0.833711 h 0.323838 z m -0.323838,-0.4737 v -1.10415 q -0.130913,-0.05857 -0.234266,-0.08096 -0.103353,-0.02239 -0.225653,-0.02239 -0.272162,0 -0.423746,0.18948 -0.151584,0.18948 -0.151584,0.537434 0,0.342786 0.117133,0.52193 0.117133,0.177422 0.375515,0.177422 0.137803,0 0.279052,-0.06029 0.141248,-0.06201 0.263549,-0.158474 z"
       style="font-style:normal;font-variant:normal;font-weight:normal;font-stretch:normal;font-size:3.52777px;line-height:1.25;font-family:Verdana;-inkscape-font-specification:Verdana;stroke-width:0.264583"
       id="path994" />
    <path
       d="m 32.257582,37.276787 q 0,0.191202 -0.07235,0.337618 -0.07235,0.146417 -0.194648,0.241157 -0.144694,0.113688 -0.318671,0.161919 -0.172254,0.04823 -0.439248,0.04823 h -0.909503 v -2.564868 h 0.759641 q 0.280775,0 0.420301,0.02067 0.139526,0.02067 0.266994,0.08613 0.141249,0.07407 0.204983,0.191202 0.06373,0.115411 0.06373,0.27733 0,0.182589 -0.09302,0.31178 -0.09302,0.127468 -0.248046,0.204983 v 0.01378 q 0.260104,0.0534 0.409965,0.229099 0.149861,0.173977 0.149861,0.440971 z M 31.683975,36.12096 q 0,-0.09302 -0.03101,-0.156752 -0.03101,-0.06373 -0.09991,-0.103352 -0.08096,-0.04651 -0.19637,-0.05684 -0.115411,-0.01206 -0.285942,-0.01206 h -0.406521 v 0.740694 h 0.440972 q 0.160196,0 0.254936,-0.0155 0.09474,-0.01722 0.1757,-0.0689 0.08096,-0.05168 0.113687,-0.132636 0.03445,-0.08268 0.03445,-0.194647 z m 0.218763,1.169607 q 0,-0.155029 -0.04651,-0.246324 -0.04651,-0.09129 -0.16881,-0.155029 -0.08268,-0.04306 -0.201537,-0.05512 -0.117133,-0.01378 -0.285943,-0.01378 h -0.535711 v 0.954289 h 0.451307 q 0.223931,0 0.366902,-0.02239 0.142971,-0.02412 0.234266,-0.08613 0.09646,-0.06718 0.141248,-0.153307 0.04479,-0.08613 0.04479,-0.222208 z"
       style="font-style:normal;font-variant:normal;font-weight:normal;font-stretch:normal;font-size:3.52777px;line-height:1.25;font-family:Verdana;-inkscape-font-specification:Verdana;stroke-width:0.264583"
       id="path996" />
    <path
       d="m 19.566115,105.15267 h -0.341063 v -2.21002 l -0.713133,1.50378 h -0.203261 l -0.707965,-1.50378 v 2.21002 h -0.318671 v -2.56487 h 0.465087 l 0.68385,1.42799 0.661457,-1.42799 h 0.473699 z"
       style="font-style:normal;font-variant:normal;font-weight:normal;font-stretch:normal;font-size:3.52777px;line-height:1.25;font-family:Verdana;-inkscape-font-specification:Verdana;stroke-width:0.264583"
       id="path999" />
    <path
       d="m 21.869157,104.19149 q 0,0.47026 -0.241156,0.74242 -0.241157,0.27216 -0.645954,0.27216 -0.408243,0 -0.649399,-0.27216 -0.239434,-0.27216 -0.239434,-0.74242 0,-0.47025 0.239434,-0.74241 0.241156,-0.27389 0.649399,-0.27389 0.404797,0 0.645954,0.27389 0.241156,0.27216 0.241156,0.74241 z m -0.334174,0 q 0,-0.37379 -0.146416,-0.55466 -0.146416,-0.18259 -0.40652,-0.18259 -0.26355,0 -0.409966,0.18259 -0.144694,0.18087 -0.144694,0.55466 0,0.36174 0.146417,0.54949 0.146416,0.18604 0.408243,0.18604 0.258381,0 0.404797,-0.18431 0.148139,-0.18604 0.148139,-0.55122 z"
       style="font-style:normal;font-variant:normal;font-weight:normal;font-stretch:normal;font-size:3.52777px;line-height:1.25;font-family:Verdana;-inkscape-font-specification:Verdana;stroke-width:0.264583"
       id="path1001" />
    <path
       d="m 23.931042,105.15267 h -0.323838 v -0.20154 q -0.139526,0.12058 -0.29111,0.18776 -0.151584,0.0672 -0.329006,0.0672 -0.344509,0 -0.547769,-0.26527 -0.201538,-0.26527 -0.201538,-0.73553 0,-0.2446 0.0689,-0.4358 0.07062,-0.1912 0.18948,-0.32556 0.117133,-0.13092 0.272162,-0.19982 0.156751,-0.0689 0.323838,-0.0689 0.151584,0 0.268717,0.0327 0.117133,0.031 0.246324,0.0982 v -0.83371 h 0.323838 z m -0.323838,-0.4737 v -1.10415 q -0.130914,-0.0586 -0.234266,-0.081 -0.103353,-0.0224 -0.225654,-0.0224 -0.272162,0 -0.423745,0.18948 -0.151584,0.18948 -0.151584,0.53743 0,0.34279 0.117133,0.52193 0.117133,0.17743 0.375514,0.17743 0.137804,0 0.279052,-0.0603 0.141249,-0.062 0.26355,-0.15848 z"
       style="font-style:normal;font-variant:normal;font-weight:normal;font-stretch:normal;font-size:3.52777px;line-height:1.25;font-family:Verdana;-inkscape-font-specification:Verdana;stroke-width:0.264583"
       id="path1003" />
    <path
       d="m 26.178962,104.22422 h -1.417654 q 0,0.17742 0.0534,0.31006 0.0534,0.13091 0.146416,0.21532 0.08957,0.0827 0.211873,0.12402 0.124023,0.0413 0.272162,0.0413 0.19637,0 0.394463,-0.0775 0.199815,-0.0792 0.284219,-0.15503 h 0.01723 v 0.35312 q -0.163642,0.0689 -0.334174,0.11541 -0.170532,0.0465 -0.358289,0.0465 -0.478867,0 -0.747584,-0.25838 -0.268717,-0.26011 -0.268717,-0.73725 0,-0.47198 0.256659,-0.74931 0.258382,-0.27733 0.678683,-0.27733 0.389294,0 0.599445,0.22738 0.211873,0.22737 0.211873,0.64595 z m -0.315226,-0.24805 q -0.0017,-0.25493 -0.129191,-0.39446 -0.125745,-0.13952 -0.384127,-0.13952 -0.260104,0 -0.415133,0.1533 -0.153306,0.15331 -0.173977,0.38068 z"
       style="font-style:normal;font-variant:normal;font-weight:normal;font-stretch:normal;font-size:3.52777px;line-height:1.25;font-family:Verdana;-inkscape-font-specification:Verdana;stroke-width:0.264583"
       id="path1005" />
    <path
       d="m 32.166615,52.269405 q 0,0.170531 -0.06029,0.316948 -0.05857,0.144693 -0.165364,0.251491 -0.132636,0.132636 -0.313504,0.199815 -0.180867,0.06546 -0.456474,0.06546 H 30.82992 v 0.956012 H 30.488857 V 51.49426 h 0.695908 q 0.230821,0 0.391017,0.03962 0.160197,0.0379 0.28422,0.120578 0.146416,0.09818 0.225653,0.244602 0.08096,0.146416 0.08096,0.370347 z m -0.354844,0.0086 q 0,-0.132636 -0.04651,-0.230821 -0.04651,-0.09819 -0.141249,-0.160196 -0.08268,-0.0534 -0.189479,-0.07579 -0.105076,-0.02412 -0.266995,-0.02412 H 30.82992 v 1.024914 h 0.287664 q 0.206706,0 0.335897,-0.03617 0.12919,-0.0379 0.21015,-0.118856 0.08096,-0.08268 0.113688,-0.173977 0.03445,-0.09129 0.03445,-0.204983 z"
       style="font-style:normal;font-variant:normal;font-weight:normal;font-stretch:normal;font-size:3.52777px;line-height:1.25;font-family:Verdana;-inkscape-font-specification:Verdana;stroke-width:0.264583"
       id="path1008" />
    <path
       d="m 33.790974,52.488168 h -0.01723 q -0.07235,-0.01723 -0.141248,-0.02412 -0.06718,-0.0086 -0.160197,-0.0086 -0.149861,0 -0.289387,0.06718 -0.139526,0.06546 -0.268717,0.170531 v 1.365978 h -0.323838 v -1.924082 h 0.323838 v 0.28422 q 0.192925,-0.155029 0.339341,-0.218763 0.148139,-0.06546 0.301445,-0.06546 0.0844,0 0.122301,0.0052 0.0379,0.0034 0.113688,0.0155 z"
       style="font-style:normal;font-variant:normal;font-weight:normal;font-stretch:normal;font-size:3.52777px;line-height:1.25;font-family:Verdana;-inkscape-font-specification:Verdana;stroke-width:0.264583"
       id="path1010" />
    <path
       d="m 35.735726,53.097948 q 0,0.470255 -0.241156,0.742417 -0.241157,0.272162 -0.645954,0.272162 -0.408243,0 -0.649399,-0.272162 -0.239434,-0.272162 -0.239434,-0.742417 0,-0.470254 0.239434,-0.742416 0.241156,-0.273885 0.649399,-0.273885 0.404797,0 0.645954,0.273885 0.241156,0.272162 0.241156,0.742416 z m -0.334174,0 q 0,-0.373792 -0.146416,-0.554659 -0.146416,-0.18259 -0.40652,-0.18259 -0.26355,0 -0.409966,0.18259 -0.144694,0.180867 -0.144694,0.554659 0,0.361735 0.146417,0.549492 0.146416,0.186035 0.408243,0.186035 0.258381,0 0.404797,-0.184313 0.148139,-0.186034 0.148139,-0.551214 z"
       style="font-style:normal;font-variant:normal;font-weight:normal;font-stretch:normal;font-size:3.52777px;line-height:1.25;font-family:Verdana;-inkscape-font-specification:Verdana;stroke-width:0.264583"
       id="path1012" />
    <path
       d="m 37.930247,53.082445 q 0,0.241157 -0.0689,0.434081 -0.06718,0.192925 -0.18259,0.323839 -0.1223,0.136081 -0.268717,0.204982 -0.146416,0.06718 -0.322115,0.06718 -0.163642,0 -0.285943,-0.03962 -0.1223,-0.0379 -0.241156,-0.103352 l -0.02067,0.08957 h -0.303168 v -2.680279 h 0.323838 v 0.957735 q 0.136081,-0.111966 0.289388,-0.18259 0.153306,-0.07235 0.344508,-0.07235 0.341064,0 0.537434,0.261827 0.198093,0.261827 0.198093,0.738971 z m -0.334174,0.0086 q 0,-0.344509 -0.113688,-0.521931 -0.113688,-0.179144 -0.366902,-0.179144 -0.141248,0 -0.285942,0.06201 -0.144694,0.06029 -0.268717,0.156752 v 1.102428 q 0.137804,0.06201 0.235989,0.08613 0.09991,0.02412 0.225653,0.02412 0.268717,0 0.420301,-0.1757 0.153306,-0.177422 0.153306,-0.554659 z"
       style="font-style:normal;font-variant:normal;font-weight:normal;font-stretch:normal;font-size:3.52777px;line-height:1.25;font-family:Verdana;-inkscape-font-specification:Verdana;stroke-width:0.264583"
       id="path1014" />
    <path
       d="m 3.2049725,79.808533 q -0.09474,0.04134 -0.1722544,0.07752 -0.075792,0.03617 -0.1998151,0.07579 -0.1050752,0.03273 -0.2290984,0.05512 -0.1223006,0.02412 -0.2704394,0.02412 -0.2790521,0 -0.5081504,-0.07752 Q 1.597839,79.884325 1.4290296,79.717238 1.2636654,79.553597 1.170648,79.302105 1.077631,79.048891 1.077631,78.714718 q 0,-0.316948 0.089572,-0.566717 0.089572,-0.249769 0.2583816,-0.422024 0.1636416,-0.167086 0.3944625,-0.254936 0.2325435,-0.08785 0.5150407,-0.08785 0.2067052,0 0.411688,0.04995 0.2067053,0.04995 0.4581967,0.175699 v 0.404798 H 3.1791343 Q 2.9672614,77.83622 2.7588336,77.755261 q -0.2084278,-0.08096 -0.4461389,-0.08096 -0.1946475,0 -0.351399,0.06373 -0.1550289,0.06201 -0.2773295,0.194648 -0.1188556,0.129191 -0.1860348,0.327283 -0.065457,0.19637 -0.065457,0.454752 0,0.270439 0.072347,0.465087 0.074069,0.194647 0.1894798,0.316948 0.1205781,0.127468 0.2807747,0.18948 0.1619191,0.06029 0.3410637,0.06029 0.2463238,0 0.4616418,-0.08441 0.215318,-0.0844 0.4030753,-0.253214 h 0.024116 z"
       style="font-style:normal;font-variant:normal;font-weight:normal;font-stretch:normal;font-size:3.52777px;line-height:1.25;font-family:Verdana;-inkscape-font-specification:Verdana;stroke-width:0.264583"
       id="path1017" />
    <path
       d="M 3.9887299,79.994568 H 3.6648916 v -2.680279 h 0.3238383 z"
       style="font-style:normal;font-variant:normal;font-weight:normal;font-stretch:normal;font-size:3.52777px;line-height:1.25;font-family:Verdana;-inkscape-font-specification:Verdana;stroke-width:0.264583"
       id="path1019" />
    <path
       d="m 6.2693782,79.033388 q 0,0.470255 -0.2411562,0.742417 -0.2411561,0.272162 -0.645954,0.272162 -0.4082429,0 -0.6493991,-0.272162 -0.2394336,-0.272162 -0.2394336,-0.742417 0,-0.470254 0.2394336,-0.742416 0.2411562,-0.273885 0.6493991,-0.273885 0.4047979,0 0.645954,0.273885 0.2411562,0.272162 0.2411562,0.742416 z m -0.3341736,0 q 0,-0.373792 -0.1464162,-0.554659 Q 5.6423722,78.29614 5.382268,78.29614 q -0.2635492,0 -0.4099654,0.182589 -0.1446937,0.180867 -0.1446937,0.554659 0,0.361735 0.1464162,0.549492 0.1464162,0.186035 0.4082429,0.186035 0.2583816,0 0.4047979,-0.184313 0.1481387,-0.186034 0.1481387,-0.551214 z"
       style="font-style:normal;font-variant:normal;font-weight:normal;font-stretch:normal;font-size:3.52777px;line-height:1.25;font-family:Verdana;-inkscape-font-specification:Verdana;stroke-width:0.264583"
       id="path1021" />
    <path
       d="m 8.1934597,79.87399 q -0.1619191,0.07751 -0.3083353,0.120578 -0.1446937,0.04306 -0.3083354,0.04306 -0.2084278,0 -0.3824048,-0.06029 -0.1739769,-0.06201 -0.2980001,-0.186034 -0.1257457,-0.124023 -0.1946474,-0.313503 -0.068902,-0.18948 -0.068902,-0.442694 0,-0.471977 0.2583816,-0.740694 Q 7.1513206,78.0257 7.576789,78.0257 q 0.1653642,0 0.3238383,0.04651 0.1601965,0.04651 0.2928324,0.113688 v 0.360011 H 8.1762343 Q 8.0280955,78.430498 7.8696215,78.368486 7.71287,78.306475 7.5630086,78.306475 q -0.275607,0 -0.4358036,0.186035 -0.158474,0.184312 -0.158474,0.542601 0,0.347954 0.1550289,0.535711 0.1567515,0.186035 0.4392487,0.186035 0.098185,0 0.1998151,-0.02584 0.1016301,-0.02584 0.1825897,-0.06718 0.070624,-0.03617 0.1326359,-0.07579 0.062012,-0.04134 0.098185,-0.07062 h 0.017225 z"
       style="font-style:normal;font-variant:normal;font-weight:normal;font-stretch:normal;font-size:3.52777px;line-height:1.25;font-family:Verdana;-inkscape-font-specification:Verdana;stroke-width:0.264583"
       id="path1023" />
    <path
       d="M 10.355253,79.994568 H 9.9280616 L 9.1563619,79.152244 8.9462115,79.352059 v 0.642509 H 8.6223733 v -2.680279 h 0.3238382 v 1.719099 l 0.9353414,-0.962902 h 0.4082431 l -0.8940005,0.888833 z"
       style="font-style:normal;font-variant:normal;font-weight:normal;font-stretch:normal;font-size:3.52777px;line-height:1.25;font-family:Verdana;-inkscape-font-specification:Verdana;stroke-width:0.264583"
       id="path1025" />
    <path
       d="m 10.494542,104.24741 v -0.4427 l 1.019746,-0.85782 v -0.48059 h -1.019746 v -0.34107 h 2.564868 v 0.7183 q 0,0.23255 -0.03101,0.38758 -0.02928,0.15502 -0.106797,0.27905 -0.08785,0.13952 -0.222209,0.21704 -0.132635,0.0792 -0.337618,0.0792 -0.27733,0 -0.465087,-0.13953 -0.186035,-0.13953 -0.280775,-0.38413 z m 1.843122,-0.79754 q 0.110243,0 0.194648,-0.0396 0.08613,-0.0379 0.144693,-0.12747 0.04995,-0.0741 0.0689,-0.1757 0.02067,-0.10163 0.02067,-0.23943 v -0.40135 h -0.96807 v 0.3445 q 0,0.16192 0.02756,0.2825 0.02928,0.12058 0.106797,0.20498 0.07235,0.0775 0.165365,0.11369 0.09474,0.0379 0.239433,0.0379 z"
       style="font-style:normal;font-variant:normal;font-weight:normal;font-stretch:normal;font-size:3.52777px;line-height:1.25;font-family:Verdana;-inkscape-font-specification:Verdana;stroke-width:0.264583"
       id="path1028" />
    <path
       d="m 11.226623,106.44193 q -0.149861,0 -0.296277,-0.0706 -0.146416,-0.0689 -0.248047,-0.19464 -0.110242,-0.13781 -0.172254,-0.32212 -0.06201,-0.18259 -0.06201,-0.44097 0,-0.27733 0.05168,-0.49954 0.05168,-0.22048 0.153306,-0.44958 h 0.427191 v 0.0241 q -0.161919,0.19465 -0.249769,0.44959 -0.08785,0.25493 -0.08785,0.47886 0,0.31695 0.118856,0.49265 0.118856,0.17742 0.316948,0.17742 0.170532,0 0.251491,-0.0844 0.08096,-0.0827 0.125746,-0.25322 0.03445,-0.12919 0.05684,-0.28077 0.02239,-0.14986 0.05684,-0.31867 0.07235,-0.34106 0.246324,-0.50643 0.175699,-0.16364 0.456474,-0.16364 0.322116,0 0.527098,0.27216 0.206706,0.27216 0.206706,0.69074 0,0.27044 -0.05168,0.49609 -0.05168,0.22566 -0.127468,0.39963 h -0.403075 v -0.0241 q 0.124023,-0.14642 0.204983,-0.38585 0.08268,-0.23771 0.08268,-0.48748 0,-0.27389 -0.113688,-0.44097 -0.113688,-0.16537 -0.292833,-0.16537 -0.160196,0 -0.251491,0.0827 -0.0913,0.0827 -0.139526,0.29111 -0.02412,0.11024 -0.05857,0.3135 -0.03445,0.20326 -0.07062,0.34451 -0.07579,0.28594 -0.229098,0.43063 -0.153307,0.1447 -0.428914,0.1447 z"
       style="font-style:normal;font-variant:normal;font-weight:normal;font-stretch:normal;font-size:3.52777px;line-height:1.25;font-family:Verdana;-inkscape-font-specification:Verdana;stroke-width:0.264583"
       id="path1030" />
    <path
       d="m 12.756242,108.81904 v -0.9164 h -2.2617 v -0.34106 h 2.2617 v -0.91639 h 0.303168 v 2.17385 z"
       style="font-style:normal;font-variant:normal;font-weight:normal;font-stretch:normal;font-size:3.52777px;line-height:1.25;font-family:Verdana;-inkscape-font-specification:Verdana;stroke-width:0.264583"
       id="path1032" />
    <path
       d="m 18.510248,77.630711 q 0.156752,0.172254 0.239434,0.422023 0.0844,0.249769 0.0844,0.566717 0,0.316948 -0.08613,0.56844 -0.0844,0.249769 -0.237711,0.416855 -0.158474,0.173977 -0.375514,0.261827 -0.215318,0.08785 -0.492648,0.08785 -0.270439,0 -0.492648,-0.08957 -0.220485,-0.08957 -0.375514,-0.260104 -0.155029,-0.170532 -0.239434,-0.418578 -0.08268,-0.248046 -0.08268,-0.566717 0,-0.313503 0.08268,-0.561549 0.08268,-0.249769 0.241156,-0.427191 0.151584,-0.168809 0.375515,-0.258382 0.225653,-0.08957 0.490925,-0.08957 0.275607,0 0.49437,0.0913 0.220486,0.08957 0.373792,0.256659 z m -0.03101,0.98874 q 0,-0.499538 -0.22393,-0.769977 -0.223931,-0.272162 -0.611504,-0.272162 -0.391017,0 -0.614948,0.272162 -0.222208,0.270439 -0.222208,0.769977 0,0.504706 0.227376,0.773422 0.227376,0.266995 0.60978,0.266995 0.382405,0 0.608059,-0.266995 0.227375,-0.268716 0.227375,-0.773422 z"
       style="font-style:normal;font-variant:normal;font-weight:normal;font-stretch:normal;font-size:3.52777px;line-height:1.25;font-family:Verdana;-inkscape-font-specification:Verdana;stroke-width:0.264583"
       id="path1035" />
    <path
       d="m 20.384376,77.534248 h -0.01723 q -0.0534,-0.0155 -0.139526,-0.03101 -0.08613,-0.01723 -0.151584,-0.01723 -0.208427,0 -0.303167,0.09302 -0.09302,0.09129 -0.09302,0.332451 v 0.06546 h 0.583943 v 0.272162 h -0.573607 v 1.65192 h -0.323839 v -1.65192 h -0.218763 v -0.272162 h 0.218763 v -0.06373 q 0,-0.342786 0.170532,-0.525376 0.170532,-0.184312 0.492648,-0.184312 0.10852,0 0.194647,0.01033 0.08785,0.01034 0.160197,0.02412 z"
       style="font-style:normal;font-variant:normal;font-weight:normal;font-stretch:normal;font-size:3.52777px;line-height:1.25;font-family:Verdana;-inkscape-font-specification:Verdana;stroke-width:0.264583"
       id="path1037" />
    <path
       d="m 21.624608,77.534248 h -0.01723 q -0.0534,-0.0155 -0.139526,-0.03101 -0.08613,-0.01723 -0.151584,-0.01723 -0.208428,0 -0.303167,0.09302 -0.09302,0.09129 -0.09302,0.332451 v 0.06546 h 0.583943 v 0.272162 h -0.573608 v 1.65192 h -0.323838 v -1.65192 h -0.218763 v -0.272162 h 0.218763 v -0.06373 q 0,-0.342786 0.170532,-0.525376 0.170532,-0.184312 0.492648,-0.184312 0.10852,0 0.194647,0.01033 0.08785,0.01034 0.160197,0.02412 z"
       style="font-style:normal;font-variant:normal;font-weight:normal;font-stretch:normal;font-size:3.52777px;line-height:1.25;font-family:Verdana;-inkscape-font-specification:Verdana;stroke-width:0.264583"
       id="path1039" />
    <path
       d="m 23.20418,79.346365 q 0,0.263549 -0.218763,0.432358 -0.21704,0.16881 -0.594277,0.16881 -0.213596,0 -0.39274,-0.04995 -0.177423,-0.05168 -0.298001,-0.111966 v -0.363456 h 0.01723 q 0.153306,0.11541 0.341064,0.184312 0.187757,0.06718 0.360011,0.06718 0.213596,0 0.334174,-0.0689 0.120578,-0.0689 0.120578,-0.21704 0,-0.113688 -0.06546,-0.172255 -0.06546,-0.05857 -0.251491,-0.09991 -0.0689,-0.0155 -0.180867,-0.03617 -0.110243,-0.02067 -0.201538,-0.04479 -0.253214,-0.06718 -0.360012,-0.19637 -0.105075,-0.130913 -0.105075,-0.320393 0,-0.118855 0.04823,-0.223931 0.04995,-0.105075 0.149862,-0.187757 0.09646,-0.08096 0.244601,-0.127468 0.149861,-0.04823 0.334173,-0.04823 0.172255,0 0.347954,0.04306 0.177422,0.04134 0.294555,0.10163 v 0.346232 h -0.01722 q -0.124023,-0.0913 -0.301445,-0.153307 -0.177422,-0.06373 -0.347954,-0.06373 -0.177422,0 -0.299723,0.0689 -0.1223,0.06718 -0.1223,0.201537 0,0.118856 0.07407,0.179145 0.07235,0.06029 0.234266,0.09819 0.08957,0.02067 0.199815,0.04134 0.111965,0.02067 0.186035,0.0379 0.225653,0.05168 0.347954,0.177422 0.1223,0.127468 0.1223,0.337619 z"
       style="font-style:normal;font-variant:normal;font-weight:normal;font-stretch:normal;font-size:3.52777px;line-height:1.25;font-family:Verdana;-inkscape-font-specification:Verdana;stroke-width:0.264583"
       id="path1041" />
    <path
       d="M 25.278123,78.972573 H 23.86047 q 0,0.177422 0.0534,0.310058 0.0534,0.130913 0.146416,0.215318 0.08957,0.08268 0.211873,0.124023 0.124023,0.04134 0.272162,0.04134 0.19637,0 0.394462,-0.07752 0.199815,-0.07924 0.28422,-0.155029 h 0.01722 v 0.353122 q -0.163641,0.0689 -0.334173,0.11541 -0.170532,0.04651 -0.358289,0.04651 -0.478868,0 -0.747584,-0.258382 -0.268717,-0.260104 -0.268717,-0.737248 0,-0.471977 0.256659,-0.749307 0.258381,-0.27733 0.678682,-0.27733 0.389295,0 0.599445,0.227376 0.211873,0.227376 0.211873,0.645954 z m -0.315225,-0.248047 q -0.0017,-0.254936 -0.129191,-0.394462 -0.125746,-0.139526 -0.384127,-0.139526 -0.260104,0 -0.415133,0.153306 -0.153307,0.153307 -0.173977,0.380682 z"
       style="font-style:normal;font-variant:normal;font-weight:normal;font-stretch:normal;font-size:3.52777px;line-height:1.25;font-family:Verdana;-inkscape-font-specification:Verdana;stroke-width:0.264583"
       id="path1043" />
    <path
       d="m 26.768124,79.883798 q -0.09129,0.02412 -0.199816,0.03962 -0.106797,0.0155 -0.191202,0.0155 -0.294555,0 -0.447861,-0.158474 -0.153307,-0.158474 -0.153307,-0.508151 V 78.249102 H 25.557175 V 77.97694 h 0.218763 v -0.552936 h 0.323839 v 0.552936 h 0.668347 v 0.272162 h -0.668347 v 0.876775 q 0,0.151584 0.0069,0.237711 0.0069,0.08441 0.04823,0.158474 0.0379,0.0689 0.103353,0.10163 0.06718,0.03101 0.20326,0.03101 0.07924,0 0.165364,-0.02239 0.08613,-0.02412 0.124023,-0.03962 h 0.01723 z"
       style="font-style:normal;font-variant:normal;font-weight:normal;font-stretch:normal;font-size:3.52777px;line-height:1.25;font-family:Verdana;-inkscape-font-specification:Verdana;stroke-width:0.264583"
       id="path1045" />
    <path
       d="m 3.7048852,47.607445 q 0.1498614,0 0.2962776,0.07062 0.1464162,0.0689 0.2480463,0.194648 0.1102428,0.137803 0.1722544,0.322115 0.062012,0.18259 0.062012,0.440972 0,0.277329 -0.051676,0.499537 -0.051676,0.220486 -0.1533064,0.449584 H 3.8513015 v -0.02412 q 0.1619191,-0.194648 0.2497688,-0.449584 0.08785,-0.254937 0.08785,-0.478867 0,-0.316948 -0.1188555,-0.492648 -0.1188556,-0.177422 -0.3169481,-0.177422 -0.1705319,0 -0.2514915,0.08441 -0.08096,0.08268 -0.1257457,0.253214 -0.034451,0.12919 -0.056844,0.280774 -0.022393,0.149862 -0.056844,0.318671 -0.072347,0.341064 -0.2463238,0.506428 -0.1756994,0.163642 -0.4564741,0.163642 -0.3221157,0 -0.5270985,-0.272162 -0.2067052,-0.272162 -0.2067052,-0.690741 0,-0.270439 0.051676,-0.496092 0.051676,-0.225653 0.1274682,-0.39963 h 0.4030753 v 0.02412 q -0.1240231,0.146416 -0.2049827,0.38585 -0.082682,0.237711 -0.082682,0.48748 0,0.273884 0.1136879,0.440971 0.1136879,0.165364 0.2928325,0.165364 0.1601965,0 0.2514914,-0.08268 0.091295,-0.08268 0.139526,-0.29111 0.024116,-0.110242 0.058566,-0.313503 0.034451,-0.20326 0.070624,-0.344508 0.075792,-0.285943 0.2290984,-0.430636 0.1533064,-0.144694 0.4289134,-0.144694 z"
       style="font-style:normal;font-variant:normal;font-weight:normal;font-stretch:normal;font-size:3.52777px;line-height:1.25;font-family:Verdana;-inkscape-font-specification:Verdana;stroke-width:0.264583"
       id="path1048" />
    <path
       d="m 4.3163883,45.662693 q 0.077515,0.161919 0.1205781,0.308335 0.043064,0.144694 0.043064,0.308336 0,0.208427 -0.060289,0.382404 -0.062012,0.173977 -0.1860348,0.298 -0.1240231,0.125746 -0.313503,0.194648 -0.1894798,0.0689 -0.4426938,0.0689 -0.471977,0 -0.7406939,-0.258382 -0.2687168,-0.260104 -0.2687168,-0.685572 0,-0.165365 0.046509,-0.323839 0.046509,-0.160196 0.1136879,-0.292832 h 0.3600116 v 0.01723 q -0.1154104,0.148139 -0.177422,0.306613 -0.062012,0.156752 -0.062012,0.306613 0,0.275607 0.1860348,0.435804 0.1843122,0.158474 0.5426013,0.158474 0.3479539,0 0.5357112,-0.155029 0.1860348,-0.156752 0.1860348,-0.439249 0,-0.09819 -0.025838,-0.199815 -0.025838,-0.10163 -0.067179,-0.18259 -0.036173,-0.07062 -0.075792,-0.132636 -0.041341,-0.06201 -0.070624,-0.09819 v -0.01723 z"
       style="font-style:normal;font-variant:normal;font-weight:normal;font-stretch:normal;font-size:3.52777px;line-height:1.25;font-family:Verdana;-inkscape-font-specification:Verdana;stroke-width:0.264583"
       id="path1050" />
    <path
       d="m 4.4369664,43.752392 v 0.322115 H 4.2319837 q 0.029283,0.04306 0.082682,0.117133 0.051676,0.07235 0.082682,0.141249 0.039619,0.08096 0.065457,0.186035 0.027561,0.105075 0.027561,0.246323 0,0.260104 -0.1722544,0.440972 -0.1722544,0.180867 -0.4392487,0.180867 -0.2187631,0 -0.3531215,-0.09302 -0.136081,-0.09474 -0.2135955,-0.268717 -0.077514,-0.175699 -0.1050752,-0.422023 -0.027561,-0.246324 -0.041341,-0.528821 h -0.049954 q -0.1102428,0 -0.1825897,0.03962 -0.072347,0.0379 -0.1136879,0.110243 -0.039619,0.0689 -0.053399,0.165364 -0.01378,0.09646 -0.01378,0.201537 0,0.127469 0.034451,0.28422 0.032728,0.156752 0.096462,0.323838 v 0.01723 H 2.5542259 q -0.025838,-0.09474 -0.056844,-0.273885 -0.031006,-0.179144 -0.031006,-0.353121 0,-0.20326 0.034451,-0.353122 0.032728,-0.151584 0.1136879,-0.261826 0.079237,-0.108521 0.2049827,-0.165365 0.1257457,-0.05684 0.3117805,-0.05684 z M 3.9632668,44.074507 H 3.4275557 q 0.00861,0.148139 0.025838,0.349677 0.017225,0.199815 0.049954,0.316948 0.039619,0.139526 0.1240232,0.225653 0.082682,0.08613 0.2290983,0.08613 0.1653642,0 0.2497689,-0.09991 0.082682,-0.09991 0.082682,-0.304891 0,-0.170531 -0.065457,-0.31178 -0.067179,-0.141249 -0.1601963,-0.261827 z"
       style="font-style:normal;font-variant:normal;font-weight:normal;font-stretch:normal;font-size:3.52777px;line-height:1.25;font-family:Verdana;-inkscape-font-specification:Verdana;stroke-width:0.264583"
       id="path1052" />
    <path
       d="m 4.4369664,42.801547 v 0.323838 H 1.756688 v -0.323838 z"
       style="font-style:normal;font-variant:normal;font-weight:normal;font-stretch:normal;font-size:3.52777px;line-height:1.25;font-family:Verdana;-inkscape-font-specification:Verdana;stroke-width:0.264583"
       id="path1054" />
    <path
       d="m 3.5085152,40.550182 v 1.417654 q 0.1774221,0 0.3100579,-0.0534 0.1309134,-0.0534 0.215318,-0.146416 0.082682,-0.08957 0.1240232,-0.211873 0.041341,-0.124023 0.041341,-0.272162 0,-0.19637 -0.077515,-0.394462 -0.079237,-0.199816 -0.155029,-0.28422 v -0.01723 h 0.3531215 q 0.068902,0.163642 0.1154105,0.334174 0.046509,0.170532 0.046509,0.358289 0,0.478867 -0.2583816,0.747584 -0.2601042,0.268717 -0.7372489,0.268717 -0.471977,0 -0.7493066,-0.256659 -0.2773296,-0.258382 -0.2773296,-0.678682 0,-0.389295 0.2273758,-0.599446 0.2273759,-0.211873 0.645954,-0.211873 z m -0.2480463,0.315226 q -0.2549365,0.0017 -0.3944626,0.129191 -0.139526,0.125745 -0.139526,0.384127 0,0.260104 0.1533064,0.415133 0.1533064,0.153307 0.3806822,0.173977 z"
       style="font-style:normal;font-variant:normal;font-weight:normal;font-stretch:normal;font-size:3.52777px;line-height:1.25;font-family:Verdana;-inkscape-font-specification:Verdana;stroke-width:0.264583"
       id="path1056" />
    <path
       d="m 32.705376,95.174084 q -0.21015,0.09646 -0.459919,0.168809 -0.248046,0.07062 -0.48059,0.07062 -0.299722,0 -0.549491,-0.08268 -0.249769,-0.08268 -0.425469,-0.248046 -0.177422,-0.167087 -0.273884,-0.416856 -0.09646,-0.251491 -0.09646,-0.587387 0,-0.614948 0.358289,-0.969793 0.360011,-0.356566 0.987017,-0.356566 0.218763,0 0.446139,0.0534 0.229099,0.05168 0.492648,0.177422 v 0.404798 h -0.03101 q -0.0534,-0.04134 -0.155029,-0.108521 -0.10163,-0.06718 -0.199815,-0.111965 -0.118856,-0.0534 -0.270439,-0.08785 -0.149862,-0.03617 -0.341064,-0.03617 -0.430636,0 -0.682128,0.277329 -0.249768,0.275607 -0.249768,0.747584 0,0.497816 0.261826,0.775145 0.261827,0.275607 0.713133,0.275607 0.165365,0 0.329006,-0.03273 0.165365,-0.03273 0.289388,-0.08441 v -0.628728 h -0.687295 v -0.299723 h 1.024913 z"
       style="font-style:normal;font-variant:normal;font-weight:normal;font-stretch:normal;font-size:3.52777px;line-height:1.25;font-family:Verdana;-inkscape-font-specification:Verdana;fill:#ffffff;fill-opacity:1;stroke-width:0.264583"
       id="path1059" />
    <path
       d="m 34.770706,95.363564 h -0.322115 v -0.204983 q -0.04306,0.02928 -0.117133,0.08268 -0.07235,0.05168 -0.141249,0.08268 -0.08096,0.03962 -0.186035,0.06546 -0.105075,0.02756 -0.246323,0.02756 -0.260104,0 -0.440972,-0.172254 -0.180867,-0.172254 -0.180867,-0.439249 0,-0.218763 0.09302,-0.353121 0.09474,-0.136081 0.268717,-0.213596 0.175699,-0.07751 0.422023,-0.105075 0.246324,-0.02756 0.528821,-0.04134 v -0.04995 q 0,-0.110242 -0.03962,-0.182589 -0.0379,-0.07235 -0.110243,-0.113688 -0.0689,-0.03962 -0.165364,-0.0534 -0.09646,-0.01378 -0.201537,-0.01378 -0.127469,0 -0.28422,0.03445 -0.156752,0.03273 -0.323838,0.09646 h -0.01723 v -0.329006 q 0.09474,-0.02584 0.273885,-0.05684 0.179144,-0.03101 0.353121,-0.03101 0.20326,0 0.353122,0.03445 0.151584,0.03273 0.261826,0.113688 0.108521,0.07924 0.165365,0.204983 0.05684,0.125745 0.05684,0.31178 z m -0.322115,-0.4737 v -0.535711 q -0.148139,0.0086 -0.349677,0.02584 -0.199815,0.01722 -0.316948,0.04995 -0.139526,0.03962 -0.225653,0.124023 -0.08613,0.08268 -0.08613,0.229098 0,0.165364 0.09991,0.249769 0.09991,0.08268 0.304891,0.08268 0.170531,0 0.31178,-0.06546 0.141249,-0.06718 0.261827,-0.160197 z"
       style="font-style:normal;font-variant:normal;font-weight:normal;font-stretch:normal;font-size:3.52777px;line-height:1.25;font-family:Verdana;-inkscape-font-specification:Verdana;fill:#ffffff;fill-opacity:1;stroke-width:0.264583"
       id="path1061" />
    <path
       d="m 36.393343,95.346338 q -0.0913,0.02412 -0.199815,0.03962 -0.106798,0.0155 -0.191203,0.0155 -0.294555,0 -0.447861,-0.158475 -0.153306,-0.158474 -0.153306,-0.50815 V 93.711642 H 35.182395 V 93.43948 h 0.218763 v -0.552937 h 0.323838 v 0.552937 h 0.668347 v 0.272162 h -0.668347 v 0.876775 q 0,0.151584 0.0069,0.237711 0.0069,0.0844 0.04823,0.158474 0.0379,0.0689 0.103353,0.10163 0.06718,0.03101 0.20326,0.03101 0.07924,0 0.165364,-0.02239 0.08613,-0.02412 0.124024,-0.03962 h 0.01723 z"
       style="font-style:normal;font-variant:normal;font-weight:normal;font-stretch:normal;font-size:3.52777px;line-height:1.25;font-family:Verdana;-inkscape-font-specification:Verdana;fill:#ffffff;fill-opacity:1;stroke-width:0.264583"
       id="path1063" />
    <path
       d="m 38.394939,94.435112 h -1.417654 q 0,0.177422 0.0534,0.310058 0.0534,0.130914 0.146416,0.215318 0.08957,0.08268 0.211873,0.124023 0.124023,0.04134 0.272162,0.04134 0.19637,0 0.394463,-0.07751 0.199815,-0.07924 0.284219,-0.155029 h 0.01723 v 0.353122 q -0.163642,0.0689 -0.334174,0.11541 -0.170531,0.04651 -0.358289,0.04651 -0.478867,0 -0.747584,-0.258382 -0.268717,-0.260104 -0.268717,-0.737249 0,-0.471977 0.256659,-0.749306 0.258382,-0.27733 0.678683,-0.27733 0.389295,0 0.599445,0.227376 0.211873,0.227376 0.211873,0.645954 z m -0.315226,-0.248046 q -0.0017,-0.254936 -0.12919,-0.394463 -0.125746,-0.139526 -0.384128,-0.139526 -0.260104,0 -0.415133,0.153307 -0.153306,0.153306 -0.173977,0.380682 z"
       style="font-style:normal;font-variant:normal;font-weight:normal;font-stretch:normal;font-size:3.52777px;line-height:1.25;font-family:Verdana;-inkscape-font-specification:Verdana;fill:#ffffff;fill-opacity:1;stroke-width:0.264583"
       id="path1065" />
    <path
       d="m 32.818073,106.15575 q 0.156752,0.17225 0.239434,0.42202 0.0844,0.24977 0.0844,0.56672 0,0.31695 -0.08613,0.56844 -0.0844,0.24977 -0.237711,0.41686 -0.158474,0.17397 -0.375514,0.26182 -0.215318,0.0879 -0.492648,0.0879 -0.270439,0 -0.492648,-0.0896 -0.220485,-0.0896 -0.375514,-0.2601 -0.155029,-0.17054 -0.239434,-0.41858 -0.08268,-0.24805 -0.08268,-0.56672 0,-0.3135 0.08268,-0.56155 0.08268,-0.24977 0.241156,-0.42719 0.151584,-0.16881 0.375515,-0.25838 0.225653,-0.0896 0.490925,-0.0896 0.275607,0 0.49437,0.0913 0.220486,0.0896 0.373792,0.25666 z m -0.03101,0.98874 q 0,-0.49954 -0.22393,-0.76998 -0.223931,-0.27216 -0.611503,-0.27216 -0.391018,0 -0.614949,0.27216 -0.222208,0.27044 -0.222208,0.76998 0,0.50471 0.227376,0.77342 0.227376,0.267 0.609781,0.267 0.382404,0 0.608058,-0.267 0.227375,-0.26871 0.227375,-0.77342 z"
       style="font-style:normal;font-variant:normal;font-weight:normal;font-stretch:normal;font-size:3.52777px;line-height:1.25;font-family:Verdana;-inkscape-font-specification:Verdana;fill:#ffffff;fill-opacity:1;stroke-width:0.264583"
       id="path1068" />
    <path
       d="m 35.613762,107.39598 q 0,0.27905 -0.06201,0.48748 -0.06029,0.20671 -0.199815,0.34451 -0.132636,0.13091 -0.310058,0.1912 -0.177422,0.0603 -0.41341,0.0603 -0.241156,0 -0.420301,-0.0637 -0.179144,-0.0637 -0.301445,-0.18776 -0.139526,-0.14125 -0.201538,-0.34106 -0.06029,-0.19982 -0.06029,-0.49093 v -1.53478 h 0.341064 v 1.55201 q 0,0.20843 0.02756,0.329 0.02928,0.12058 0.09646,0.21877 0.07579,0.11196 0.204983,0.16881 0.130913,0.0568 0.313503,0.0568 0.184312,0 0.313503,-0.0551 0.129191,-0.0569 0.206705,-0.17053 0.06718,-0.0982 0.09474,-0.22393 0.02928,-0.12747 0.02928,-0.31523 v -1.56062 h 0.341064 z"
       style="font-style:normal;font-variant:normal;font-weight:normal;font-stretch:normal;font-size:3.52777px;line-height:1.25;font-family:Verdana;-inkscape-font-specification:Verdana;fill:#ffffff;fill-opacity:1;stroke-width:0.264583"
       id="path1070" />
    <path
       d="m 38.094225,106.16436 h -0.916393 v 2.2617 h -0.341064 v -2.2617 h -0.916393 v -0.30316 h 2.17385 z"
       style="font-style:normal;font-variant:normal;font-weight:normal;font-stretch:normal;font-size:3.52777px;line-height:1.25;font-family:Verdana;-inkscape-font-specification:Verdana;fill:#ffffff;fill-opacity:1;stroke-width:0.264583"
       id="path1072" />
    <g
       aria-label="Base"
       id="text4186-8-3-1-5-7"
       style="font-size:3.52777px;line-height:1.25;font-family:Nunito;-inkscape-font-specification:Nunito;display:inline;stroke-width:0.264583">
      <path
         d="m 32.497075,79.176659 q 0,0.191202 -0.07235,0.337618 -0.07235,0.146417 -0.194647,0.241156 -0.144694,0.113688 -0.318671,0.16192 -0.172254,0.04823 -0.439249,0.04823 h -0.9095 V 77.400716 H 31.3223 q 0.280775,0 0.420301,0.02067 0.139526,0.02067 0.266994,0.08613 0.141249,0.07407 0.204983,0.191202 0.06373,0.11541 0.06373,0.27733 0,0.182589 -0.09302,0.31178 -0.09302,0.127468 -0.248046,0.204983 v 0.01378 q 0.260104,0.0534 0.409966,0.229098 0.149861,0.173977 0.149861,0.440972 z m -0.573607,-1.155827 q 0,-0.09302 -0.03101,-0.156752 -0.03101,-0.06373 -0.09991,-0.103352 -0.08096,-0.04651 -0.19637,-0.05684 -0.11541,-0.01206 -0.285942,-0.01206 h -0.40652 v 0.740694 h 0.440971 q 0.160197,0 0.254936,-0.0155 0.09474,-0.01723 0.1757,-0.0689 0.08096,-0.05168 0.113688,-0.132636 0.03445,-0.08268 0.03445,-0.194647 z m 0.218763,1.169607 q 0,-0.155029 -0.04651,-0.246324 -0.04651,-0.0913 -0.168809,-0.155029 -0.08268,-0.04306 -0.201538,-0.05512 -0.117133,-0.01378 -0.285942,-0.01378 h -0.535711 v 0.954289 h 0.451306 q 0.223931,0 0.366902,-0.02239 0.142971,-0.02412 0.234266,-0.08613 0.09646,-0.06718 0.141249,-0.153307 0.04479,-0.08613 0.04479,-0.222208 z"
         style="font-style:normal;font-variant:normal;font-weight:normal;font-stretch:normal;font-family:Verdana;-inkscape-font-specification:Verdana;stroke-width:0.264583"
         id="path1075" />
      <path
         d="m 34.45044,79.965584 h -0.322116 v -0.204983 q -0.04306,0.02928 -0.117133,0.08268 -0.07235,0.05168 -0.141249,0.08268 -0.08096,0.03962 -0.186034,0.06546 -0.105075,0.02756 -0.246324,0.02756 -0.260104,0 -0.440971,-0.172255 -0.180867,-0.172254 -0.180867,-0.439248 0,-0.218764 0.09302,-0.353122 0.09474,-0.136081 0.268717,-0.213595 0.175699,-0.07751 0.422023,-0.105076 0.246324,-0.02756 0.528821,-0.04134 v -0.04995 q 0,-0.110243 -0.03962,-0.18259 -0.0379,-0.07235 -0.110243,-0.113688 -0.0689,-0.03962 -0.165364,-0.0534 -0.09646,-0.01378 -0.201538,-0.01378 -0.127468,0 -0.28422,0.03445 -0.156751,0.03273 -0.323838,0.09646 h -0.01723 v -0.329006 q 0.09474,-0.02584 0.273885,-0.05684 0.179144,-0.031 0.353121,-0.031 0.203261,0 0.353122,0.03445 0.151584,0.03273 0.261827,0.113688 0.10852,0.07924 0.165364,0.204983 0.05684,0.125746 0.05684,0.31178 z m -0.322116,-0.4737 v -0.535711 q -0.148139,0.0086 -0.349676,0.02584 -0.199815,0.01723 -0.316948,0.04995 -0.139527,0.03962 -0.225654,0.124023 -0.08613,0.08268 -0.08613,0.229098 0,0.165365 0.09991,0.249769 0.09991,0.08268 0.30489,0.08268 0.170532,0 0.31178,-0.06546 0.141249,-0.06718 0.261827,-0.160197 z"
         style="font-style:normal;font-variant:normal;font-weight:normal;font-stretch:normal;font-family:Verdana;-inkscape-font-specification:Verdana;stroke-width:0.264583"
         id="path1077" />
      <path
         d="m 36.448591,79.410925 q 0,0.263549 -0.218763,0.432358 -0.217041,0.168809 -0.594278,0.168809 -0.213595,0 -0.39274,-0.04995 -0.177422,-0.05168 -0.298,-0.111966 V 79.48672 h 0.01723 q 0.153307,0.11541 0.341064,0.184312 0.187757,0.06718 0.360012,0.06718 0.213595,0 0.334173,-0.0689 0.120578,-0.0689 0.120578,-0.21704 0,-0.113688 -0.06546,-0.172255 -0.06546,-0.05857 -0.251492,-0.09991 -0.0689,-0.0155 -0.180867,-0.03617 -0.110243,-0.02067 -0.201537,-0.04479 -0.253214,-0.06718 -0.360012,-0.19637 -0.105075,-0.130913 -0.105075,-0.320393 0,-0.118856 0.04823,-0.223931 0.04995,-0.105075 0.149861,-0.187757 0.09646,-0.08096 0.244601,-0.127468 0.149862,-0.04823 0.334174,-0.04823 0.172254,0 0.347954,0.04306 0.177422,0.04134 0.294555,0.10163 v 0.346232 h -0.01723 q -0.124023,-0.0913 -0.301445,-0.153307 -0.177422,-0.06373 -0.347954,-0.06373 -0.177422,0 -0.299722,0.0689 -0.122301,0.06718 -0.122301,0.201537 0,0.118856 0.07407,0.179145 0.07235,0.06029 0.234266,0.09819 0.08957,0.02067 0.199816,0.04134 0.111965,0.02067 0.186034,0.0379 0.225654,0.05168 0.347954,0.177422 0.122301,0.127468 0.122301,0.337619 z"
         style="font-style:normal;font-variant:normal;font-weight:normal;font-stretch:normal;font-family:Verdana;-inkscape-font-specification:Verdana;stroke-width:0.264583"
         id="path1079" />
      <path
         d="M 38.522534,79.037133 H 37.10488 q 0,0.177422 0.0534,0.310058 0.0534,0.130913 0.146416,0.215318 0.08957,0.08268 0.211873,0.124023 0.124023,0.04134 0.272162,0.04134 0.19637,0 0.394463,-0.07752 0.199815,-0.07924 0.284219,-0.155029 h 0.01723 v 0.353122 q -0.163642,0.0689 -0.334174,0.11541 -0.170532,0.04651 -0.358289,0.04651 -0.478867,0 -0.747584,-0.258382 -0.268717,-0.260104 -0.268717,-0.737248 0,-0.471978 0.256659,-0.749307 0.258382,-0.27733 0.678683,-0.27733 0.389295,0 0.599445,0.227376 0.211873,0.227376 0.211873,0.645954 z m -0.315226,-0.248047 q -0.0017,-0.254936 -0.12919,-0.394462 -0.125746,-0.139526 -0.384128,-0.139526 -0.260104,0 -0.415133,0.153306 -0.153306,0.153306 -0.173977,0.380682 z"
         style="font-style:normal;font-variant:normal;font-weight:normal;font-stretch:normal;font-family:Verdana;-inkscape-font-specification:Verdana;stroke-width:0.264583"
         id="path1081" />
    </g>
    <path
       d="m 17.501493,53.965584 h -1.622637 v -2.564868 h 0.341064 v 2.2617 h 1.281573 z"
       style="font-style:normal;font-variant:normal;font-weight:normal;font-stretch:normal;font-size:3.52777px;line-height:1.25;font-family:Verdana;-inkscape-font-specification:Verdana;stroke-width:0.264583"
       id="path1084" />
    <path
       d="m 19.427297,53.037133 h -1.417654 q 0,0.177422 0.0534,0.310058 0.0534,0.130913 0.146416,0.215318 0.08957,0.08268 0.211873,0.124023 0.124023,0.04134 0.272162,0.04134 0.19637,0 0.394463,-0.07752 0.199815,-0.07924 0.28422,-0.155029 h 0.01722 v 0.353122 q -0.163642,0.0689 -0.334174,0.11541 -0.170531,0.04651 -0.358289,0.04651 -0.478867,0 -0.747584,-0.258382 -0.268717,-0.260104 -0.268717,-0.737248 0,-0.471978 0.256659,-0.749307 0.258382,-0.27733 0.678683,-0.27733 0.389295,0 0.599445,0.227376 0.211873,0.227376 0.211873,0.645954 z m -0.315226,-0.248047 q -0.0017,-0.254936 -0.12919,-0.394462 -0.125746,-0.139526 -0.384128,-0.139526 -0.260104,0 -0.415133,0.153306 -0.153306,0.153306 -0.173977,0.380682 z"
       style="font-style:normal;font-variant:normal;font-weight:normal;font-stretch:normal;font-size:3.52777px;line-height:1.25;font-family:Verdana;-inkscape-font-specification:Verdana;stroke-width:0.264583"
       id="path1086" />
    <path
       d="M 21.527078,53.965584 H 21.20324 v -1.095538 q 0,-0.132636 -0.0155,-0.248046 -0.0155,-0.117133 -0.05684,-0.18259 -0.04306,-0.07235 -0.124023,-0.106798 -0.08096,-0.03617 -0.210151,-0.03617 -0.132636,0 -0.277329,0.06546 -0.144694,0.06546 -0.27733,0.167087 v 1.436602 h -0.323838 v -1.924082 h 0.323838 v 0.213596 q 0.151584,-0.125746 0.313503,-0.19637 0.161919,-0.07062 0.332451,-0.07062 0.311781,0 0.475422,0.187758 0.163642,0.187757 0.163642,0.540878 z"
       style="font-style:normal;font-variant:normal;font-weight:normal;font-stretch:normal;font-size:3.52777px;line-height:1.25;font-family:Verdana;-inkscape-font-specification:Verdana;stroke-width:0.264583"
       id="path1088" />
    <path
       d="m 23.711264,53.746821 q 0,0.489202 -0.222208,0.718301 -0.222209,0.229098 -0.68385,0.229098 -0.153307,0 -0.299723,-0.02239 -0.144694,-0.02067 -0.285942,-0.06029 v -0.330729 h 0.01722 q 0.07924,0.03101 0.251492,0.07579 0.172254,0.04651 0.344508,0.04651 0.165365,0 0.273885,-0.03962 0.10852,-0.03962 0.168809,-0.110242 0.06029,-0.06718 0.08613,-0.161919 0.02584,-0.09474 0.02584,-0.211873 v -0.1757 q -0.146417,0.117133 -0.280775,0.1757 -0.132636,0.05684 -0.339341,0.05684 -0.344509,0 -0.547769,-0.248047 -0.201538,-0.249769 -0.201538,-0.702798 0,-0.248046 0.0689,-0.427191 0.07062,-0.180867 0.191202,-0.31178 0.111966,-0.122301 0.272162,-0.18948 0.160197,-0.0689 0.318671,-0.0689 0.167087,0 0.279052,0.03445 0.113688,0.03273 0.239434,0.10163 l 0.02067,-0.08268 h 0.303168 z m -0.323838,-0.310058 v -1.049029 q -0.129191,-0.05857 -0.241157,-0.08268 -0.110242,-0.02584 -0.220485,-0.02584 -0.266995,0 -0.420301,0.179145 -0.153306,0.179144 -0.153306,0.520208 0,0.323838 0.113687,0.490925 0.113688,0.167087 0.377238,0.167087 0.141248,0 0.282497,-0.0534 0.142971,-0.05512 0.261827,-0.146416 z"
       style="font-style:normal;font-variant:normal;font-weight:normal;font-stretch:normal;font-size:3.52777px;line-height:1.25;font-family:Verdana;-inkscape-font-specification:Verdana;stroke-width:0.264583"
       id="path1090" />
    <path
       d="m 25.34768,53.948358 q -0.09129,0.02412 -0.199815,0.03962 -0.106798,0.0155 -0.191202,0.0155 -0.294555,0 -0.447862,-0.158474 -0.153306,-0.158474 -0.153306,-0.508151 V 52.313662 H 24.136732 V 52.0415 h 0.218763 v -0.552936 h 0.323838 V 52.0415 h 0.668347 v 0.272162 h -0.668347 v 0.876775 q 0,0.151584 0.0069,0.237711 0.0069,0.0844 0.04823,0.158474 0.0379,0.0689 0.103353,0.10163 0.06718,0.03101 0.20326,0.03101 0.07924,0 0.165364,-0.02239 0.08613,-0.02412 0.124024,-0.03962 h 0.01722 z"
       style="font-style:normal;font-variant:normal;font-weight:normal;font-stretch:normal;font-size:3.52777px;line-height:1.25;font-family:Verdana;-inkscape-font-specification:Verdana;stroke-width:0.264583"
       id="path1092" />
    <path
       d="m 27.347553,53.965584 h -0.323838 v -1.095538 q 0,-0.132636 -0.0155,-0.248046 -0.0155,-0.117133 -0.05684,-0.18259 -0.04306,-0.07235 -0.124023,-0.106798 -0.08096,-0.03617 -0.21015,-0.03617 -0.132636,0 -0.27733,0.06546 -0.144693,0.06546 -0.277329,0.167087 v 1.436602 h -0.323839 v -2.680279 h 0.323839 v 0.969793 q 0.151584,-0.125746 0.313503,-0.19637 0.161919,-0.07062 0.332451,-0.07062 0.31178,0 0.475422,0.187758 0.163641,0.187757 0.163641,0.540878 z"
       style="font-style:normal;font-variant:normal;font-weight:normal;font-stretch:normal;font-size:3.52777px;line-height:1.25;font-family:Verdana;-inkscape-font-specification:Verdana;stroke-width:0.264583"
       id="path1094" />
    <path
       d="M 3.9371906,112.28243 H 3.5961269 v -2.21002 l -0.7131332,1.50378 H 2.6797335 l -0.7079656,-1.50378 v 2.21002 H 1.6530973 v -2.56487 h 0.4650869 l 0.6838499,1.42799 0.6614569,-1.42799 h 0.4736996 z"
       style="font-style:normal;font-variant:normal;font-weight:normal;font-stretch:normal;font-size:3.52777px;line-height:1.25;font-family:Verdana;-inkscape-font-specification:Verdana;stroke-width:0.264583"
       id="path1097" />
    <path
       d="M 4.9483239,110.03624 H 4.5831446 v -0.3359 h 0.3651793 z m -0.020671,2.24619 H 4.6038151 v -1.92408 h 0.3238383 z"
       style="font-style:normal;font-variant:normal;font-weight:normal;font-stretch:normal;font-size:3.52777px;line-height:1.25;font-family:Verdana;-inkscape-font-specification:Verdana;stroke-width:0.264583"
       id="path1099" />
    <path
       d="M 6.769053,110.71147 H 6.751827 q -0.072347,-0.0172 -0.1412486,-0.0241 -0.067179,-0.009 -0.1601965,-0.009 -0.1498614,0 -0.2893874,0.0672 -0.1395261,0.0655 -0.2687169,0.17054 v 1.36597 H 5.5684398 V 110.358 h 0.3238383 v 0.28422 q 0.1929249,-0.15503 0.3393412,-0.21876 0.1481388,-0.0655 0.3014452,-0.0655 0.084405,0 0.1223006,0.005 0.037896,0.003 0.1136879,0.0155 z"
       style="font-style:normal;font-variant:normal;font-weight:normal;font-stretch:normal;font-size:3.52777px;line-height:1.25;font-family:Verdana;-inkscape-font-specification:Verdana;stroke-width:0.264583"
       id="path1101" />
    <path
       d="m 9.4653749,113.36594 q 0.1567515,0.17225 0.2394336,0.42202 0.084405,0.24977 0.084405,0.56672 0,0.31695 -0.086127,0.56844 -0.084405,0.24977 -0.237711,0.41686 -0.1584741,0.17397 -0.3755146,0.26182 -0.215318,0.0879 -0.4926476,0.0879 -0.2704394,0 -0.4926476,-0.0896 -0.2204856,-0.0896 -0.3755145,-0.2601 -0.155029,-0.17054 -0.2394337,-0.41858 -0.082682,-0.24805 -0.082682,-0.56672 0,-0.3135 0.082682,-0.56155 0.082682,-0.24977 0.2411562,-0.42719 0.1515839,-0.16881 0.3755146,-0.25838 0.2256532,-0.0896 0.490925,-0.0896 0.275607,0 0.4943701,0.0913 0.2204857,0.0896 0.3737915,0.25666 z m -0.031006,0.98874 q 0,-0.49954 -0.2239307,-0.76998 -0.2239307,-0.27216 -0.6115031,-0.27216 -0.3910175,0 -0.6149482,0.27216 -0.2222082,0.27044 -0.2222082,0.76998 0,0.50471 0.2273758,0.77342 0.2273758,0.267 0.6097806,0.267 0.3824047,0 0.608058,-0.267 0.2273758,-0.26871 0.2273758,-0.77342 z"
       style="font-style:normal;font-variant:normal;font-weight:normal;font-stretch:normal;font-size:3.52777px;line-height:1.25;font-family:Verdana;-inkscape-font-specification:Verdana;stroke-width:0.264583"
       id="path1104" />
    <path
       d="m 11.91311,115.63625 h -0.323839 v -1.09553 q 0,-0.13264 -0.0155,-0.24805 -0.0155,-0.11713 -0.05684,-0.18259 -0.04306,-0.0724 -0.124024,-0.1068 -0.08096,-0.0362 -0.21015,-0.0362 -0.132636,0 -0.277329,0.0654 -0.144694,0.0655 -0.27733,0.16709 v 1.4366 H 10.30426 v -1.92408 h 0.323838 v 0.2136 q 0.151584,-0.12575 0.313503,-0.19637 0.161919,-0.0706 0.332451,-0.0706 0.31178,0 0.475422,0.18776 0.163642,0.18776 0.163642,0.54088 z"
       style="font-style:normal;font-variant:normal;font-weight:normal;font-stretch:normal;font-size:3.52777px;line-height:1.25;font-family:Verdana;-inkscape-font-specification:Verdana;stroke-width:0.264583"
       id="path1106" />
    <path
       d="m 9.436387,117.74012 q 0.1567515,0.17225 0.2394336,0.42202 0.084405,0.24977 0.084405,0.56672 0,0.31694 -0.086127,0.56844 -0.084405,0.24977 -0.2377111,0.41685 -0.1584741,0.17398 -0.3755146,0.26183 -0.215318,0.0878 -0.4926476,0.0878 -0.2704394,0 -0.4926475,-0.0896 -0.2204857,-0.0896 -0.3755146,-0.26011 -0.155029,-0.17053 -0.2394336,-0.41858 -0.082682,-0.24804 -0.082682,-0.56671 0,-0.31351 0.082682,-0.56155 0.082682,-0.24977 0.2411561,-0.42719 0.1515839,-0.16881 0.3755146,-0.25839 0.2256533,-0.0896 0.490925,-0.0896 0.2756071,0 0.4943701,0.0913 0.2204857,0.0896 0.3737921,0.25666 z m -0.031006,0.98874 q 0,-0.49954 -0.2239307,-0.76998 -0.2239307,-0.27216 -0.6115031,-0.27216 -0.3910175,0 -0.6149482,0.27216 -0.2222082,0.27044 -0.2222082,0.76998 0,0.5047 0.2273758,0.77342 0.2273758,0.26699 0.6097806,0.26699 0.3824047,0 0.608058,-0.26699 0.2273758,-0.26872 0.2273758,-0.77342 z"
       style="font-style:normal;font-variant:normal;font-weight:normal;font-stretch:normal;font-size:3.52777px;line-height:1.25;font-family:Verdana;-inkscape-font-specification:Verdana;stroke-width:0.264583"
       id="path1109" />
    <path
       d="m 11.310515,117.64365 h -0.01723 q -0.0534,-0.0155 -0.139526,-0.031 -0.08613,-0.0172 -0.151584,-0.0172 -0.208427,0 -0.303167,0.093 -0.09302,0.0913 -0.09302,0.33245 v 0.0655 h 0.583943 v 0.27216 H 10.61633 v 1.65192 h -0.323839 v -1.65192 h -0.218763 v -0.27216 h 0.218763 v -0.0637 q 0,-0.34278 0.170532,-0.52537 0.170532,-0.18431 0.492648,-0.18431 0.10852,0 0.194647,0.0103 0.08785,0.0103 0.160197,0.0241 z"
       style="font-style:normal;font-variant:normal;font-weight:normal;font-stretch:normal;font-size:3.52777px;line-height:1.25;font-family:Verdana;-inkscape-font-specification:Verdana;stroke-width:0.264583"
       id="path1111" />
    <path
       d="m 12.550746,117.64365 h -0.01722 q -0.0534,-0.0155 -0.139526,-0.031 -0.08613,-0.0172 -0.151584,-0.0172 -0.208428,0 -0.303168,0.093 -0.09302,0.0913 -0.09302,0.33245 v 0.0655 h 0.583942 v 0.27216 h -0.573607 v 1.65192 h -0.323838 v -1.65192 H 11.31396 v -0.27216 h 0.218763 v -0.0637 q 0,-0.34278 0.170532,-0.52537 0.170532,-0.18431 0.492647,-0.18431 0.108521,0 0.194648,0.0103 0.08785,0.0103 0.160196,0.0241 z"
       style="font-style:normal;font-variant:normal;font-weight:normal;font-stretch:normal;font-size:3.52777px;line-height:1.25;font-family:Verdana;-inkscape-font-specification:Verdana;stroke-width:0.264583"
       id="path1113" />
    <path
       d="m 17.619234,73.121542 -0.250067,0.148361 -0.464832,-0.389182 -0.76324,0.452816 0.118766,0.594497 -0.238216,0.141329 -0.404608,-2.145793 0.312882,-0.185627 z m -0.906726,-0.399406 -0.823314,-0.682832 0.203478,1.050569 z"
       style="font-style:normal;font-variant:normal;font-weight:normal;font-stretch:normal;font-size:2.82222px;line-height:1.25;font-family:Verdana;-inkscape-font-specification:Verdana;text-align:end;text-anchor:end;stroke-width:0.264583"
       id="path1116" />
    <path
       d="m 18.094482,72.839587 -0.222809,0.132188 -1.094072,-1.844101 0.222809,-0.132188 z"
       style="font-style:normal;font-variant:normal;font-weight:normal;font-stretch:normal;font-size:2.82222px;line-height:1.25;font-family:Verdana;-inkscape-font-specification:Verdana;text-align:end;text-anchor:end;stroke-width:0.264583"
       id="path1118" />
    <path
       d="m 19.519813,71.790471 q 0.199689,0.336584 0.14032,0.584914 -0.05937,0.248329 -0.37699,0.436768 -0.105479,0.06258 -0.215356,0.106942 -0.107992,0.04484 -0.221344,0.07524 l -0.135001,-0.22755 0.01185,-0.007 q 0.06718,-0.01101 0.203969,-0.05051 0.137501,-0.03831 0.256017,-0.108625 0.113775,-0.0675 0.17227,-0.139052 0.0585,-0.07155 0.07115,-0.144753 0.01406,-0.07083 -0.0068,-0.146561 -0.02089,-0.07573 -0.06871,-0.15632 l -0.07172,-0.120886 q -0.05292,0.14036 -0.121461,0.235496 -0.06805,0.09326 -0.21027,0.177631 -0.237031,0.140627 -0.478131,0.05293 -0.240616,-0.08958 -0.42554,-0.401277 -0.10125,-0.170662 -0.126971,-0.322043 -0.02524,-0.15327 0.0043,-0.292561 0.02711,-0.129847 0.10991,-0.241461 0.0821,-0.112797 0.19113,-0.177485 0.11496,-0.0682 0.206057,-0.0902 0.09158,-0.02389 0.206219,-0.02782 l -0.01953,-0.06533 0.208587,-0.123751 z m -0.349373,-0.08114 -0.428207,-0.72176 q -0.112792,0.01244 -0.199674,0.04155 -0.08639,0.02722 -0.162247,0.07222 -0.183699,0.108985 -0.216052,0.29482 -0.03235,0.185835 0.106867,0.420495 0.132188,0.22281 0.278612,0.291364 0.146423,0.06855 0.327752,-0.03903 0.09718,-0.05766 0.172569,-0.152055 0.07587,-0.09629 0.120377,-0.207614 z"
       style="font-style:normal;font-variant:normal;font-weight:normal;font-stretch:normal;font-size:2.82222px;line-height:1.25;font-family:Verdana;-inkscape-font-specification:Verdana;text-align:end;text-anchor:end;stroke-width:0.264583"
       id="path1120" />
    <path
       d="m 20.783539,70.35013 q 0.191954,0.323547 0.137127,0.60924 -0.05483,0.285693 -0.333338,0.450929 -0.280882,0.166642 -0.557898,0.07783 -0.275832,-0.08952 -0.467786,-0.413067 -0.191955,-0.323547 -0.138313,-0.608537 0.05412,-0.286878 0.335005,-0.45352 0.278512,-0.165236 0.556232,-0.07524 0.277016,0.08882 0.468971,0.412364 z m -0.22992,0.136408 q -0.15258,-0.257179 -0.327147,-0.321854 -0.17527,-0.06586 -0.354228,0.04031 -0.18133,0.107579 -0.207536,0.292972 -0.02572,0.183504 0.126856,0.440683 0.147657,0.248883 0.325037,0.318298 0.176676,0.06823 0.35682,-0.03865 0.177773,-0.10547 0.203276,-0.292048 0.02598,-0.188465 -0.123078,-0.439718 z"
       style="font-style:normal;font-variant:normal;font-weight:normal;font-stretch:normal;font-size:2.82222px;line-height:1.25;font-family:Verdana;-inkscape-font-specification:Verdana;text-align:end;text-anchor:end;stroke-width:0.264583"
       id="path1122" />
    <path
       d="m 21.705564,69.235892 -0.01185,0.007 q -0.05681,0.01768 -0.107026,0.04107 -0.04974,0.02149 -0.11374,0.05946 -0.103108,0.06117 -0.171686,0.164344 -0.06928,0.101993 -0.115274,0.227019 l 0.557583,0.939828 -0.222809,0.132188 -0.785398,-1.323818 0.22281,-0.132188 0.116016,0.19555 q 0.06946,-0.185414 0.144178,-0.289031 0.0752,-0.10551 0.180681,-0.168088 0.05807,-0.03445 0.08624,-0.0464 0.0275,-0.01306 0.08455,-0.03574 z"
       style="font-style:normal;font-variant:normal;font-weight:normal;font-stretch:normal;font-size:2.82222px;line-height:1.25;font-family:Verdana;-inkscape-font-specification:Verdana;text-align:end;text-anchor:end;stroke-width:0.264583"
       id="path1124" />
    <path
       d="m 21.87911,68.504824 -0.251253,0.149064 -0.13711,-0.231105 0.251253,-0.149064 z m 0.902658,1.553881 -0.222809,0.132189 -0.785397,-1.323818 0.222809,-0.132189 z"
       style="font-style:normal;font-variant:normal;font-weight:normal;font-stretch:normal;font-size:2.82222px;line-height:1.25;font-family:Verdana;-inkscape-font-specification:Verdana;text-align:end;text-anchor:end;stroke-width:0.264583"
       id="path1126" />
    <path
       d="m 23.903008,69.377472 q -0.05297,0.05386 -0.121308,0.108817 -0.06715,0.05426 -0.125226,0.08871 -0.202662,0.120236 -0.372828,0.07378 -0.170167,-0.04646 -0.312902,-0.287042 l -0.41766,-0.703982 -0.150515,0.0893 -0.111095,-0.187254 0.150515,-0.0893 -0.225705,-0.380435 0.222809,-0.132189 0.225705,0.380435 0.45984,-0.272814 0.111095,0.187254 -0.45984,0.272815 0.357894,0.603244 q 0.06187,0.104294 0.101762,0.160745 0.03918,0.05526 0.09788,0.08934 0.0542,0.03193 0.11259,0.02773 0.05888,-0.0061 0.152508,-0.06163 0.05452,-0.03234 0.104636,-0.0829 0.04941,-0.05175 0.06916,-0.07788 l 0.01185,-0.007 z"
       style="font-style:normal;font-variant:normal;font-weight:normal;font-stretch:normal;font-size:2.82222px;line-height:1.25;font-family:Verdana;-inkscape-font-specification:Verdana;text-align:end;text-anchor:end;stroke-width:0.264583"
       id="path1128" />
    <path
       d="m 26.110872,68.083609 -0.222809,0.132188 -0.447191,-0.753758 q -0.05063,-0.08533 -0.105991,-0.159838 -0.05425,-0.07517 -0.107237,-0.107826 -0.0575,-0.03479 -0.123922,-0.03063 -0.06644,0.0042 -0.16243,0.06111 -0.09363,0.05555 -0.15913,0.158499 -0.06621,0.101766 -0.116941,0.229611 0.0197,0.02516 0.0439,0.06047 0.0235,0.03413 0.0446,0.06968 l 0.502738,0.847385 -0.222809,0.132189 -0.447191,-0.753758 q -0.05203,-0.0877 -0.106694,-0.161024 -0.05425,-0.07517 -0.107237,-0.107825 -0.0575,-0.03479 -0.123218,-0.02944 -0.06644,0.0042 -0.162429,0.06111 -0.09126,0.05414 -0.156978,0.154025 -0.06454,0.09918 -0.114311,0.223242 l 0.586411,0.98842 -0.222809,0.132188 -0.785397,-1.323818 0.222809,-0.132189 0.08719,0.14696 q 0.05296,-0.148392 0.127246,-0.258156 0.07546,-0.110468 0.192795,-0.180078 0.135108,-0.08016 0.262488,-0.07881 0.128559,6.32e-4 0.234549,0.07395 0.06761,-0.193932 0.14948,-0.309803 0.08117,-0.117051 0.207984,-0.192286 0.218069,-0.129376 0.399928,-0.05781 0.182342,0.06968 0.322968,0.306708 z"
       style="font-style:normal;font-variant:normal;font-weight:normal;font-stretch:normal;font-size:2.82222px;line-height:1.25;font-family:Verdana;-inkscape-font-specification:Verdana;text-align:end;text-anchor:end;stroke-width:0.264583"
       id="path1130" />
    <path
       d="m 24.534288,73.15308 -0.238217,0.141329 -0.353868,-0.461424 -0.76087,0.45141 0.0054,0.668144 -0.247696,0.146954 0.0031,-2.387671 0.31051,-0.18422 z m -0.732067,-0.496621 -0.627021,-0.805698 0.0048,1.174842 z"
       style="font-style:italic;font-variant:normal;font-weight:normal;font-stretch:normal;font-size:2.82222px;line-height:1.25;font-family:Verdana;-inkscape-font-specification:'Verdana Italic';text-align:end;text-anchor:end;stroke-width:0.264583"
       id="path1132" />
    <path
       d="m 25.185855,71.293994 -0.01185,0.007 q -0.05444,0.01627 -0.09873,0.03615 -0.04381,0.01797 -0.101889,0.05243 -0.111404,0.06609 -0.191392,0.182442 -0.0795,0.114467 -0.138053,0.24534 l 0.344255,1.066392 -0.225179,0.133595 -0.483184,-1.503117 0.22518,-0.133595 0.07098,0.222267 q 0.09224,-0.203735 0.175956,-0.311089 0.08491,-0.108057 0.185645,-0.167823 0.05807,-0.03445 0.08624,-0.0464 0.02751,-0.01306 0.08217,-0.03433 z"
       style="font-style:italic;font-variant:normal;font-weight:normal;font-stretch:normal;font-size:2.82222px;line-height:1.25;font-family:Verdana;-inkscape-font-specification:'Verdana Italic';text-align:end;text-anchor:end;stroke-width:0.264583"
       id="path1134" />
    <path
       d="m 26.006611,70.489797 0.06658,0.204048 -0.45984,0.272815 0.219894,0.694731 q 0.01557,0.05325 0.04195,0.119318 0.02567,0.06488 0.04676,0.10044 0.05133,0.08652 0.120494,0.103165 0.06846,0.01546 0.186975,-0.05485 0.04859,-0.02883 0.105117,-0.08479 0.05771,-0.05667 0.07579,-0.08022 l 0.01185,-0.007 0.07243,0.216604 q -0.05653,0.05597 -0.126049,0.11163 -0.06834,0.05496 -0.12641,0.08942 -0.163551,0.09703 -0.29581,0.07936 -0.131778,-0.01956 -0.223888,-0.174815 -0.0225,-0.03793 -0.03957,-0.07747 -0.01657,-0.04145 -0.03522,-0.09447 l -0.257142,-0.808828 -0.150515,0.0893 -0.06658,-0.204049 0.150515,-0.0893 -0.136819,-0.43317 0.22281,-0.132188 0.136818,0.43317 z"
       style="font-style:italic;font-variant:normal;font-weight:normal;font-stretch:normal;font-size:2.82222px;line-height:1.25;font-family:Verdana;-inkscape-font-specification:'Verdana Italic';text-align:end;text-anchor:end;stroke-width:0.264583"
       id="path1136" />
    <path
       d="m 27.34852,70.393876 q -0.01446,-0.03789 -0.0262,-0.06297 -0.01165,-0.02513 -0.02853,-0.05357 -0.07524,-0.126812 -0.187343,-0.156438 -0.110929,-0.03032 -0.263811,0.06038 -0.168292,0.09984 -0.236784,0.281482 -0.06849,0.181638 -0.01346,0.379722 z m 0.05079,1.101097 q -0.274956,0.163127 -0.508038,0.126758 -0.233082,-0.03637 -0.380739,-0.285251 -0.215862,-0.363843 -0.139927,-0.759799 0.07523,-0.397142 0.414186,-0.598237 0.225179,-0.133595 0.411678,-0.09202 0.185795,0.04039 0.30603,0.243049 0.02109,0.03555 0.05613,0.118917 0.03622,0.08266 0.07417,0.197945 l -0.975383,0.578677 q 0.01325,0.0386 0.02942,0.07388 0.01728,0.03461 0.03416,0.06306 0.09914,0.167106 0.258018,0.202635 0.158174,0.03434 0.345428,-0.07675 0.130367,-0.07734 0.237608,-0.209872 0.108432,-0.133224 0.164088,-0.252774 l 0.01304,-0.0077 0.09414,0.269414 q -0.0466,0.05649 -0.08346,0.102388 -0.03686,0.0459 -0.09979,0.107273 -0.06293,0.06137 -0.114198,0.104599 -0.05126,0.04324 -0.13659,0.09386 z"
       style="font-style:italic;font-variant:normal;font-weight:normal;font-stretch:normal;font-size:2.82222px;line-height:1.25;font-family:Verdana;-inkscape-font-specification:'Verdana Italic';text-align:end;text-anchor:end;stroke-width:0.264583"
       id="path1138" />
    <path
       d="m 16.408865,127.3295 h -0.716579 v -2.68442 h 0.716579 v 0.19706 h -0.476801 v 2.2903 h 0.476801 z"
       style="font-style:normal;font-variant:normal;font-weight:normal;font-stretch:normal;font-size:2.82222px;line-height:1.25;font-family:Verdana;-inkscape-font-specification:Verdana;stroke-width:0.264583"
       id="path1141" />
    <path
       d="m 18.467653,126.15817 q 0,0.15296 -0.05788,0.27009 -0.05788,0.11713 -0.155718,0.19293 -0.115755,0.091 -0.254937,0.12953 -0.137804,0.0386 -0.351399,0.0386 h -0.727604 v -2.0519 h 0.607714 q 0.224621,0 0.336242,0.0165 0.111621,0.0165 0.213595,0.0689 0.112999,0.0592 0.163987,0.15296 0.05099,0.0923 0.05099,0.22186 0,0.14608 -0.07441,0.24943 -0.07441,0.10197 -0.198437,0.16398 v 0.011 q 0.208083,0.0427 0.327973,0.18328 0.119889,0.13918 0.119889,0.35278 z m -0.458887,-0.92467 q 0,-0.0744 -0.0248,-0.1254 -0.0248,-0.051 -0.07993,-0.0827 -0.06477,-0.0372 -0.157097,-0.0455 -0.09233,-0.01 -0.228754,-0.01 h -0.325217 v 0.59255 h 0.352778 q 0.128157,0 0.203949,-0.0124 0.07579,-0.0138 0.14056,-0.0551 0.06477,-0.0413 0.09095,-0.10611 0.02756,-0.0661 0.02756,-0.15572 z m 0.175011,0.93569 q 0,-0.12402 -0.03721,-0.19706 -0.03721,-0.073 -0.135047,-0.12402 -0.06615,-0.0345 -0.161231,-0.0441 -0.09371,-0.011 -0.228754,-0.011 h -0.42857 v 0.76343 h 0.361046 q 0.179145,0 0.293522,-0.0179 0.114377,-0.0193 0.187413,-0.0689 0.07717,-0.0537 0.112999,-0.12264 0.03583,-0.0689 0.03583,-0.17777 z"
       style="font-style:normal;font-variant:normal;font-weight:normal;font-stretch:normal;font-size:2.82222px;line-height:1.25;font-family:Verdana;-inkscape-font-specification:Verdana;stroke-width:0.264583"
       id="path1143" />
    <path
       d="m 20.122675,126.04654 h -1.134124 q 0,0.14194 0.04272,0.24805 0.04272,0.10473 0.117133,0.17226 0.07166,0.0661 0.169499,0.0992 0.09922,0.0331 0.217729,0.0331 0.157097,0 0.315571,-0.062 0.159852,-0.0634 0.227376,-0.12403 h 0.01378 v 0.2825 q -0.130913,0.0551 -0.267339,0.0923 -0.136425,0.0372 -0.286631,0.0372 -0.383095,0 -0.598069,-0.20671 -0.214973,-0.20808 -0.214973,-0.5898 0,-0.37758 0.205327,-0.59945 0.206706,-0.22186 0.542947,-0.22186 0.311436,0 0.479557,0.1819 0.169498,0.1819 0.169498,0.51676 z m -0.25218,-0.19843 q -0.0014,-0.20395 -0.103353,-0.31557 -0.100597,-0.11162 -0.307303,-0.11162 -0.208083,0 -0.332107,0.12264 -0.122645,0.12265 -0.139181,0.30455 z"
       style="font-style:normal;font-variant:normal;font-weight:normal;font-stretch:normal;font-size:2.82222px;line-height:1.25;font-family:Verdana;-inkscape-font-specification:Verdana;stroke-width:0.264583"
       id="path1145" />
    <path
       d="m 21.314677,126.77553 q -0.07304,0.0193 -0.159852,0.0317 -0.08544,0.0124 -0.152962,0.0124 -0.235644,0 -0.35829,-0.12678 -0.122645,-0.12678 -0.122645,-0.40652 v -0.81855 h -0.175011 v -0.21773 h 0.175011 v -0.44235 h 0.259071 v 0.44235 h 0.534678 v 0.21773 h -0.534678 v 0.70142 q 0,0.12127 0.0055,0.19017 0.0055,0.0675 0.03859,0.12678 0.03032,0.0551 0.08268,0.0813 0.05374,0.0248 0.162609,0.0248 0.06339,0 0.132291,-0.0179 0.0689,-0.0193 0.09922,-0.0317 h 0.01378 z"
       style="font-style:normal;font-variant:normal;font-weight:normal;font-stretch:normal;font-size:2.82222px;line-height:1.25;font-family:Verdana;-inkscape-font-specification:Verdana;stroke-width:0.264583"
       id="path1147" />
    <path
       d="m 22.823628,126.78931 h -0.257693 v -0.16399 q -0.03445,0.0234 -0.09371,0.0661 -0.05788,0.0413 -0.112999,0.0661 -0.06477,0.0317 -0.148828,0.0524 -0.08406,0.0221 -0.197059,0.0221 -0.208084,0 -0.352777,-0.13781 -0.144694,-0.1378 -0.144694,-0.3514 0,-0.17501 0.07441,-0.2825 0.07579,-0.10886 0.214973,-0.17087 0.14056,-0.062 0.33762,-0.0841 0.197059,-0.0221 0.423057,-0.0331 v -0.04 q 0,-0.0882 -0.03169,-0.14607 -0.03032,-0.0579 -0.08819,-0.091 -0.05512,-0.0317 -0.132292,-0.0427 -0.07717,-0.011 -0.16123,-0.011 -0.101975,0 -0.227376,0.0276 -0.125402,0.0262 -0.259071,0.0772 h -0.01378 v -0.26321 q 0.07579,-0.0207 0.219108,-0.0455 0.143316,-0.0248 0.282498,-0.0248 0.162608,0 0.282497,0.0276 0.121268,0.0262 0.209462,0.0909 0.08682,0.0634 0.132292,0.16399 0.04547,0.1006 0.04547,0.24942 z m -0.257693,-0.37896 v -0.42857 q -0.118511,0.007 -0.279742,0.0207 -0.159852,0.0138 -0.253558,0.04 -0.111621,0.0317 -0.180523,0.0992 -0.0689,0.0661 -0.0689,0.18328 0,0.13229 0.07993,0.19981 0.07993,0.0661 0.243913,0.0661 0.136425,0 0.249424,-0.0524 0.112999,-0.0537 0.209462,-0.12815 z"
       style="font-style:normal;font-variant:normal;font-weight:normal;font-stretch:normal;font-size:2.82222px;line-height:1.25;font-family:Verdana;-inkscape-font-specification:Verdana;stroke-width:0.264583"
       id="path1149" />
    <path
       d="m 24.019764,127.3295 h -0.716579 v -0.19706 h 0.476801 v -2.2903 h -0.476801 v -0.19706 h 0.716579 z"
       style="font-style:normal;font-variant:normal;font-weight:normal;font-stretch:normal;font-size:2.82222px;line-height:1.25;font-family:Verdana;-inkscape-font-specification:Verdana;stroke-width:0.264583"
       id="path1151" />
    <path
       d="m 17.587627,20.713943 h -0.272851 v -1.004589 h -1.023882 v 1.004589 h -0.272851 v -2.051897 h 0.272851 v 0.804774 h 1.023882 v -0.804774 h 0.272851 z"
       style="font-style:normal;font-variant:normal;font-weight:normal;font-stretch:normal;font-size:2.82222px;line-height:1.25;font-family:Verdana;-inkscape-font-specification:Verdana;stroke-width:0.264583"
       id="path1154" />
    <path
       d="m 18.396535,18.916983 h -0.292144 v -0.268717 h 0.292144 z m -0.01654,1.79696 h -0.259071 v -1.539267 h 0.259071 z"
       style="font-style:normal;font-variant:normal;font-weight:normal;font-stretch:normal;font-size:2.82222px;line-height:1.25;font-family:Verdana;-inkscape-font-specification:Verdana;stroke-width:0.264583"
       id="path1156" />
    <path
       d="m 38.304254,20.578249 h -1.298116 v -2.051905 h 0.272853 v 1.80937 h 1.025263 z"
       style="font-style:normal;font-variant:normal;font-weight:normal;font-stretch:normal;font-size:2.82223px;line-height:1.25;font-family:Verdana;-inkscape-font-specification:Verdana;stroke-width:0.264583"
       id="path1159" />
    <path
       d="m 39.868331,19.809302 q 0,0.376205 -0.192925,0.593936 -0.192926,0.21773 -0.516766,0.21773 -0.326596,0 -0.519522,-0.21773 -0.191548,-0.217731 -0.191548,-0.593936 0,-0.376206 0.191548,-0.593937 0.192926,-0.219108 0.519522,-0.219108 0.32384,0 0.516766,0.219108 0.192925,0.217731 0.192925,0.593937 z m -0.26734,0 q 0,-0.299036 -0.117133,-0.44373 Q 39.366724,19.2195 39.15864,19.2195 q -0.210841,0 -0.327974,0.146072 -0.115756,0.144694 -0.115756,0.44373 0,0.289388 0.117134,0.439595 0.117133,0.148828 0.326596,0.148828 0.206706,0 0.32384,-0.14745 0.118511,-0.148829 0.118511,-0.440973 z"
       style="font-style:normal;font-variant:normal;font-weight:normal;font-stretch:normal;font-size:2.82223px;line-height:1.25;font-family:Verdana;-inkscape-font-specification:Verdana;stroke-width:0.264583"
       id="path1161" />
    <path
       d="m 15.282434,85.166397 v 0.442693 l -1.019746,0.857827 v 0.48059 h 1.019746 v 0.341064 H 12.717566 V 86.57027 q 0,-0.232544 0.03101,-0.387572 0.02928,-0.155029 0.106798,-0.279053 0.08785,-0.139526 0.222208,-0.21704 0.132636,-0.07924 0.337619,-0.07924 0.277329,0 0.465087,0.139526 0.186034,0.139526 0.280774,0.384127 z m -1.843122,0.797537 q -0.110242,0 -0.194647,0.03962 -0.08613,0.0379 -0.144694,0.127468 -0.04995,0.07407 -0.0689,0.1757 -0.02067,0.10163 -0.02067,0.239433 v 0.401353 h 0.96807 v -0.344509 q 0,-0.161919 -0.02756,-0.282497 -0.02928,-0.120578 -0.106798,-0.204983 -0.07235,-0.07751 -0.165364,-0.113688 -0.09474,-0.0379 -0.239434,-0.0379 z"
       style="font-style:normal;font-variant:normal;font-weight:normal;font-stretch:normal;font-size:3.52777px;line-height:1.25;font-family:Verdana;-inkscape-font-specification:Verdana;stroke-width:0.264583"
       id="path1164" />
    <path
       d="m 15.282434,83.145853 v 1.689815 h -2.564868 v -1.689815 h 0.303168 v 1.348751 h 0.702798 V 83.145853 H 14.0267 v 1.348751 h 0.952567 v -1.348751 z"
       style="font-style:normal;font-variant:normal;font-weight:normal;font-stretch:normal;font-size:3.52777px;line-height:1.25;font-family:Verdana;-inkscape-font-specification:Verdana;stroke-width:0.264583"
       id="path1166" />
    <path
       d="m 15.282434,80.982337 v 1.622637 H 12.717566 V 82.26391 h 2.261701 v -1.281573 z"
       style="font-style:normal;font-variant:normal;font-weight:normal;font-stretch:normal;font-size:3.52777px;line-height:1.25;font-family:Verdana;-inkscape-font-specification:Verdana;stroke-width:0.264583"
       id="path1168" />
  </g>
  <g
     inkscape:groupmode="layer"
     id="layer5"
     inkscape:label="Unused"
     style="display:none">
    <rect
       style="display:inline;fill:#0000ff;fill-opacity:0.5;stroke-width:0.47625"
       id="TEST_OUTPUT"
       width="9"
       height="9"
       x="8"
       y="40"
       inkscape:label="TEST" />
    <rect
       style="display:inline;fill:#0000ff;fill-opacity:0.5;stroke-width:0.47625"
       id="TEST2_OUTPUT"
       width="9"
       height="9"
       x="19"
       y="40"
       inkscape:label="TEST2" />
    <rect
       style="display:inline;fill:#0000ff;fill-opacity:0.5;stroke-width:0.47625"
       id="TEST3_OUTPUT"
       width="9"
       height="9"
       x="19"
       y="50"
       inkscape:label="TEST3"
       inkscape:transform-center-x="0.1984375"
       inkscape:transform-center-y="-3.175" />
    <rect
       style="display:inline;fill:#0000ff;fill-opacity:0.5;stroke-width:0.47625"
       id="TEST4_OUTPUT"
       width="9"
       height="9"
       x="19"
       y="60"
       inkscape:label="TEST4"
       inkscape:transform-center-x="0.1984375"
       inkscape:transform-center-y="-3.175" />
    <rect
       style="display:inline;fill:#0000ff;fill-opacity:0.5;stroke-width:0.47625"
       id="TEST5_OUTPUT"
       width="9"
       height="9"
       x="19"
       y="70"
       inkscape:label="TEST5"
       inkscape:transform-center-x="0.1984375"
       inkscape:transform-center-y="-3.175" />
    <rect
       style="display:inline;fill:#0000ff;fill-opacity:0.5;stroke-width:0.47625"
       id="TEST6_OUTPUT"
       width="9"
       height="9"
       x="19"
       y="80"
       inkscape:label="TEST6"
       inkscape:transform-center-x="0.1984375"
       inkscape:transform-center-y="-3.175" />
  </g>
  <g
     inkscape:groupmode="layer"
     id="layer2"
     inkscape:label="components"
     style="display:none">
    <circle
       style="display:inline;fill:#00ffff;fill-opacity:0.5;stroke-width:0.472993"
       id="STEP01_PARAM"
       cx="5"
       cy="64.941643"
       r="2.2695303"
       inkscape:label="STEP01" />
    <circle
       style="display:inline;fill:#ff00ff;fill-opacity:0.5;stroke-width:0.264583"
       id="LEDSTEP01_LIGHT"
       cx="5"
       cy="64.941643"
       r="1.2695303"
       inkscape:label="LEDSTEP01" />
    <circle
       style="display:inline;fill:#00ffff;fill-opacity:0.5;stroke-width:0.472993"
       id="STEP05_PARAM"
       cx="10"
       cy="40"
       r="2.2695303"
       inkscape:label="STEP05" />
    <circle
       style="display:inline;fill:#ff00ff;fill-opacity:0.5;stroke-width:0.264583"
       id="LEDSTEP05_LIGHT"
       cx="10"
       cy="40"
       r="1.2695303"
       inkscape:label="LEDSTEP05" />
    <circle
       style="display:inline;fill:#00ffff;fill-opacity:0.5;stroke-width:0.472993"
       id="STEP09_PARAM"
       cx="10"
       cy="20"
       r="2.2695303"
       inkscape:label="STEP09" />
    <circle
       style="display:inline;fill:#ff00ff;fill-opacity:0.5;stroke-width:0.264583"
       id="LEDSTEP09_LIGHT"
       cx="10"
       cy="20"
       r="1.2695303"
       inkscape:label="LEDSTEP09" />
    <circle
       style="display:inline;fill:#00ffff;fill-opacity:0.5;stroke-width:0.472993"
       id="STEP00_PARAM"
       cx="10"
       cy="69.941643"
       r="2.2695303"
       inkscape:label="STEP00" />
    <circle
       style="display:inline;fill:#ff00ff;fill-opacity:0.5;stroke-width:0.264583"
       id="LEDSTEP00_LIGHT"
       cx="10"
       cy="69.941643"
       inkscape:label="LEDSTEP00"
       r="1.2695303" />
    <circle
       style="display:inline;fill:#00ffff;fill-opacity:0.5;stroke-width:0.472993"
       id="STEP04_PARAM"
       cx="10"
       cy="49.941643"
       r="2.2695303"
       inkscape:label="STEP04" />
    <circle
       style="display:inline;fill:#ff00ff;fill-opacity:0.5;stroke-width:0.264583"
       id="LEDSTEP04_LIGHT"
       cx="10"
       cy="50"
       r="1.2695303"
       inkscape:label="LEDSTEP04" />
    <circle
       style="display:inline;fill:#00ffff;fill-opacity:0.5;stroke-width:0.472993"
       id="STEP08_PARAM"
       cx="5"
       cy="25"
       r="2.2695303"
       inkscape:label="STEP08" />
    <circle
       style="display:inline;fill:#ff00ff;fill-opacity:0.5;stroke-width:0.264583"
       id="LEDSTEP08_LIGHT"
       cx="5"
       cy="25"
       r="1.2695303"
       inkscape:label="LEDSTEP08" />
    <circle
       style="display:inline;fill:#00ffff;fill-opacity:0.5;stroke-width:0.472993"
       id="STEP03_PARAM"
       cx="5"
       cy="54.941643"
       r="2.2695303"
       inkscape:label="STEP03" />
    <circle
       style="display:inline;fill:#ff00ff;fill-opacity:0.5;stroke-width:0.264583"
       id="LEDSTEP03_LIGHT"
       cx="5"
       cy="54.941643"
       r="1.2695303"
       inkscape:label="LEDSTEP03" />
    <circle
       style="display:inline;fill:#00ffff;fill-opacity:0.5;stroke-width:0.472993"
       id="STEP07_PARAM"
       cx="10"
       cy="30"
       r="2.2695303"
       inkscape:label="STEP07" />
    <circle
       style="display:inline;fill:#ff00ff;fill-opacity:0.5;stroke-width:0.264583"
       id="LEDSTEP07_LIGHT"
       cx="10"
       cy="30"
       r="1.2695303"
       inkscape:label="LEDSTEP07" />
    <circle
       style="display:inline;fill:#00ffff;fill-opacity:0.5;stroke-width:0.472993"
       id="STEP02_PARAM"
       cx="10"
       cy="59.941643"
       r="2.2695303"
       inkscape:label="STEP02" />
    <circle
       style="display:inline;fill:#ff00ff;fill-opacity:0.5;stroke-width:0.264583"
       id="LEDSTEP02_LIGHT"
       cx="10"
       cy="59.941643"
       r="1.2695303"
       inkscape:label="LEDSTEP02" />
    <circle
       style="display:inline;fill:#00ffff;fill-opacity:0.5;stroke-width:0.472993"
       id="STEP06_PARAM"
       cx="5"
       cy="35"
       r="2.2695303"
       inkscape:label="STEP06" />
    <circle
       style="display:inline;fill:#ff00ff;fill-opacity:0.5;stroke-width:0.264583"
       id="LEDSTEP06_LIGHT"
       cx="5"
       cy="35"
       r="1.2695303"
       inkscape:label="LEDSTEP06" />
    <circle
       style="display:inline;fill:#00ffff;fill-opacity:0.5;stroke-width:0.472993"
       id="STEP11_PARAM"
       cx="10"
       cy="10"
       r="2.2695303"
       inkscape:label="STEP11" />
    <circle
       style="display:inline;fill:#ff00ff;fill-opacity:0.5;stroke-width:0.264583"
       id="LEDSTEP11_LIGHT"
       cx="10"
       cy="10"
       r="1.2695303"
       inkscape:label="LEDSTEP11" />
    <circle
       style="display:inline;fill:#00ffff;fill-opacity:0.5;stroke-width:0.472993"
       id="STEP10_PARAM"
       cx="5"
       cy="15"
       r="2.2695303"
       inkscape:label="STEP10" />
    <circle
       style="display:inline;fill:#ff00ff;fill-opacity:0.5;stroke-width:0.264583"
       id="LEDSTEP10_LIGHT"
       cx="5"
       cy="15"
       r="1.2695303"
       inkscape:label="LEDSTEP10" />
    <rect
       style="display:inline;fill:#00ff00;fill-opacity:0.5;stroke-width:0.47625"
       id="OFFSET_INPUT"
       width="9"
       height="9"
       x="17"
       y="92"
       inkscape:label="OFFSET" />
    <rect
       style="display:inline;fill:#0000ff;fill-opacity:0.5;stroke-width:0.47625"
       id="MAIN_OUTPUT"
       width="9"
       height="9"
       x="30"
       y="109"
       inkscape:label="MAIN" />
    <rect
       style="display:inline;fill:#ff0000;fill-opacity:0.5;stroke-width:0.47625"
       id="OFFSET_PARAM"
       width="9"
       height="9"
       x="17"
       y="81"
       inkscape:label="OFFSET&lt;RoundSmallBlackKnobZnap&gt;" />
    <rect
       style="display:inline;fill:#00ff00;fill-opacity:0.5;stroke-width:0.47625"
       id="RST_INPUT"
       width="9"
       height="9"
       x="1"
       y="92"
       inkscape:label="RST" />
    <rect
       style="display:inline;fill:#00ff00;fill-opacity:0.5;stroke-width:0.47625"
       id="CLOCK_INPUT"
       width="9"
       height="9"
       x="1"
       y="81"
       inkscape:label="CLOCK" />
    <rect
       style="display:inline;fill:#00ff00;fill-opacity:0.5;stroke-width:0.47625"
       id="PROB_INPUT"
       width="9"
       height="9"
       x="30"
       y="66"
       inkscape:label="PROB" />
    <rect
       style="display:inline;fill:#ff0000;fill-opacity:0.5;stroke-width:0.47625"
       id="PROB_PARAM"
       width="9"
       height="9"
       x="30"
       y="55"
       inkscape:label="PROB&lt;RoundSmallBlackKnob&gt;" />
    <rect
       style="display:inline;fill:#ff0000;fill-opacity:0.5;stroke-width:0.47625"
       id="MODE_PARAM"
       width="9"
       height="9"
       x="17"
       y="106"
       inkscape:label="MODE&lt;RoundSmallBlackKnobZnap&gt;" />
    <circle
       style="display:inline;fill:#00ffff;fill-opacity:0.5;stroke-width:0.472993"
       id="RST_PARAM"
       cx="5"
       cy="105"
       r="2.2695303"
       inkscape:label="RST" />
    <circle
       style="display:inline;fill:#ff00ff;fill-opacity:0.5;stroke-width:0.264583"
       id="RST_LIGHT"
       cx="5"
       cy="105"
       r="1.2695303"
       inkscape:label="RST" />
    <rect
       style="display:inline;fill:#0000ff;fill-opacity:0.5;stroke-width:0.47625"
       id="DBG_OUTPUT"
       width="9"
       height="9"
       x="17"
       y="118"
       inkscape:label="DBG" />
    <rect
       style="display:inline;fill:#0000ff;fill-opacity:0.5;stroke-width:0.47625"
       id="GATE_OUTPUT"
       width="9"
       height="9"
       x="30"
       y="96"
       inkscape:label="GATE" />
    <rect
       style="display:inline;fill:#ff0000;fill-opacity:0.5;stroke-width:0.582083"
       id="START1_PARAM"
       width="11"
       height="11"
       x="16"
       y="7"
       inkscape:label="START1&lt;RoundBlackSnapKnob&gt;" />
    <rect
       style="display:inline;fill:#ff0000;fill-opacity:0.5;stroke-width:0.582083"
       id="START0_PARAM"
       width="11"
       height="11"
       x="29"
       y="7"
       inkscape:label="START0&lt;RoundBlackSnapKnob&gt;" />
    <rect
       style="display:inline;fill:#ff0000;fill-opacity:0.5;stroke-width:0.582083"
       id="ADDA1_PARAM"
       width="11"
       height="11"
       x="16"
       y="23"
       inkscape:label="ADDA1&lt;RoundBlackSnapKnob&gt;" />
    <rect
       style="display:inline;fill:#ff0000;fill-opacity:0.5;stroke-width:0.582083"
       id="ADDA0_PARAM"
       width="11"
       height="11"
       x="29"
       y="23"
       inkscape:label="ADDA0&lt;RoundBlackSnapKnob&gt;" />
    <rect
       style="display:inline;fill:#ff0000;fill-opacity:0.5;stroke-width:0.582083"
       id="ADDB1_PARAM"
       width="11"
       height="11"
       x="16"
       y="39"
       inkscape:label="ADDB1&lt;RoundBlackSnapKnob&gt;" />
    <rect
       style="display:inline;fill:#ff0000;fill-opacity:0.5;stroke-width:0.582083"
       id="ADDB0_PARAM"
       width="11"
       height="11"
       x="29"
       y="39"
       inkscape:label="ADDB0&lt;RoundBlackSnapKnob&gt;" />
    <rect
       style="display:inline;fill:#ff8000;fill-opacity:0.5;stroke:none;stroke-width:0.264583"
       id="FMIRROR_PARAM"
       width="6"
       height="7"
       x="1"
       y="113"
       inkscape:label="FMIRROR" />
    <rect
       style="display:inline;fill:#ff0000;fill-opacity:0.5;stroke-width:0.47625"
       id="LEN_PARAM"
       width="9"
       height="9"
       x="17"
       y="55"
       inkscape:label="LEN&lt;RoundSmallBlackKnobZnap&gt;" />
    <rect
       style="display:inline;fill:#ff0000;fill-opacity:0.5;stroke-width:0.47625"
       id="BASE_PARAM"
       width="9"
       height="9"
       x="30"
       y="81"
       inkscape:label="BASE&lt;RoundSmallBlackKnobZnap&gt;" />
    <circle
       style="display:inline;fill:#00ffff;fill-opacity:0.5;stroke-width:0.472993"
       id="Z1REL_PARAM"
       cx="14"
       cy="91"
       r="2.2695303"
       inkscape:label="Z1REL" />
    <circle
       style="display:inline;fill:#ff00ff;fill-opacity:0.5;stroke-width:0.264583"
       id="Z1REL_LIGHT"
       cx="14"
       cy="91"
       r="1.2695303"
       inkscape:label="Z1REL" />
  </g>
</svg>
