<?xml version="1.0" encoding="UTF-8" standalone="no"?>
<svg
   xmlns:dc="http://purl.org/dc/elements/1.1/"
   xmlns:cc="http://creativecommons.org/ns#"
   xmlns:rdf="http://www.w3.org/1999/02/22-rdf-syntax-ns#"
   xmlns:svg="http://www.w3.org/2000/svg"
   xmlns="http://www.w3.org/2000/svg"
   xmlns:sodipodi="http://sodipodi.sourceforge.net/DTD/sodipodi-0.dtd"
   xmlns:inkscape="http://www.inkscape.org/namespaces/inkscape"
   width="40.639999mm"
   height="128.5mm"
   viewBox="0 0 40.64 128.5"
   version="1.1"
   id="svg1364"
   inkscape:version="1.0.1 (3bc2e813f5, 2020-09-07)"
   sodipodi:docname="Planetz.svg">
  <defs
     id="defs1358" />
  <sodipodi:namedview
     id="base"
     pagecolor="#ffffff"
     bordercolor="#666666"
     borderopacity="1.0"
     inkscape:pageopacity="0.0"
     inkscape:pageshadow="2"
     inkscape:zoom="2.2994782"
     inkscape:cx="-6.0774016"
     inkscape:cy="357.26583"
     inkscape:document-units="mm"
     inkscape:current-layer="layer1"
     inkscape:document-rotation="0"
     showgrid="true"
     inkscape:snap-nodes="true"
     inkscape:window-width="1583"
     inkscape:window-height="1030"
     inkscape:window-x="189"
     inkscape:window-y="80"
     inkscape:window-maximized="0"
     inkscape:snap-bbox="true"
     inkscape:snap-bbox-midpoints="false"
     inkscape:snap-bbox-edge-midpoints="false">
    <inkscape:grid
       type="xygrid"
       id="grid1368"
       units="mm"
       spacingx="0.1"
       spacingy="0.1" />
  </sodipodi:namedview>
  <metadata
     id="metadata1361">
    <rdf:RDF>
      <cc:Work
         rdf:about="">
        <dc:format>image/svg+xml</dc:format>
        <dc:type
           rdf:resource="http://purl.org/dc/dcmitype/StillImage" />
        <dc:title></dc:title>
      </cc:Work>
    </rdf:RDF>
  </metadata>
  <g
     inkscape:label="Layer 1"
     inkscape:groupmode="layer"
     id="layer1"
     style="display:inline">
    <rect
       style="fill:#e6e6e6;fill-opacity:1;stroke-width:0.378633"
       id="rect1961"
       width="40.639999"
       height="128.5"
       x="0"
       y="0" />
    <path
       d="m 14.24295,2.3214328 q 0,0.1705319 -0.06029,0.3169481 -0.05857,0.1446937 -0.165365,0.2514914 -0.132635,0.1326359 -0.313503,0.1998151 -0.180867,0.065457 -0.456474,0.065457 H 12.906256 V 4.111156 H 12.565192 V 1.546288 H 13.2611 q 0.230821,0 0.391017,0.039619 0.160197,0.037896 0.28422,0.1205781 0.146416,0.098185 0.225653,0.2446013 0.08096,0.1464162 0.08096,0.3703464 z m -0.354844,0.00861 q 0,-0.1326359 -0.04651,-0.2308209 -0.04651,-0.098185 -0.141249,-0.1601966 -0.08268,-0.053399 -0.189479,-0.075792 -0.105076,-0.024116 -0.266995,-0.024116 H 12.906255 V 2.864031 h 0.287664 q 0.206706,0 0.335897,-0.036173 0.12919,-0.037896 0.21015,-0.1188555 0.08096,-0.082682 0.113688,-0.1739769 0.03445,-0.091295 0.03445,-0.2049828 z"
       style="font-style:normal;font-variant:normal;font-weight:normal;font-stretch:normal;font-size:3.52777px;line-height:1.25;font-family:Verdana;-inkscape-font-specification:Verdana;stroke-width:0.264583"
       id="path1969" />
    <path
       d="M 14.993979,4.111156 H 14.670141 V 1.4308776 h 0.323838 z"
       style="font-style:normal;font-variant:normal;font-weight:normal;font-stretch:normal;font-size:3.52777px;line-height:1.25;font-family:Verdana;-inkscape-font-specification:Verdana;stroke-width:0.264583"
       id="path1971" />
    <path
       d="M 17.129933,4.111156 H 16.807818 V 3.9061733 q -0.04306,0.029283 -0.117133,0.082682 -0.07235,0.051676 -0.141249,0.082682 -0.08096,0.039619 -0.186035,0.065457 -0.105075,0.027561 -0.246323,0.027561 -0.260105,0 -0.440972,-0.1722543 -0.180867,-0.1722544 -0.180867,-0.4392488 0,-0.218763 0.09302,-0.3531215 0.09474,-0.1360809 0.268716,-0.2135954 0.1757,-0.077514 0.422024,-0.1050752 0.246324,-0.027561 0.528821,-0.041341 v -0.049954 q 0,-0.1102428 -0.03962,-0.1825897 -0.0379,-0.072347 -0.110243,-0.1136879 -0.0689,-0.039619 -0.165364,-0.053399 -0.09646,-0.01378 -0.201537,-0.01378 -0.127469,0 -0.28422,0.034451 -0.156752,0.032728 -0.323838,0.096462 h -0.01723 V 2.2284154 q 0.09474,-0.025838 0.273885,-0.056844 0.179144,-0.031006 0.353121,-0.031006 0.20326,0 0.353122,0.034451 0.151583,0.032728 0.261826,0.1136879 0.108521,0.079237 0.165364,0.2049827 0.05684,0.1257457 0.05684,0.3117805 z M 16.807818,3.6374564 V 3.1017452 q -0.148139,0.00861 -0.349677,0.025838 -0.199815,0.017225 -0.316948,0.049954 -0.139526,0.039619 -0.225653,0.1240231 -0.08613,0.082682 -0.08613,0.2290984 0,0.1653642 0.09991,0.2497688 0.09991,0.082682 0.304891,0.082682 0.170531,0 0.31178,-0.065457 0.141249,-0.067179 0.261827,-0.1601961 z"
       style="font-style:normal;font-variant:normal;font-weight:normal;font-stretch:normal;font-size:3.52777px;line-height:1.25;font-family:Verdana;-inkscape-font-specification:Verdana;stroke-width:0.264583"
       id="path1973" />
    <path
       d="M 19.36235,4.111156 H 19.038512 V 3.015618 q 0,-0.1326359 -0.0155,-0.2480463 -0.0155,-0.117133 -0.05684,-0.1825897 -0.04306,-0.072347 -0.124023,-0.1067977 -0.08096,-0.036173 -0.21015,-0.036173 -0.132636,0 -0.27733,0.065457 -0.144694,0.065457 -0.27733,0.1670867 V 4.111156 H 17.753494 V 2.1870744 h 0.323838 v 0.2135954 q 0.151584,-0.1257457 0.313503,-0.19637 0.16192,-0.070624 0.332451,-0.070624 0.311781,0 0.475423,0.1877573 0.163641,0.1877573 0.163641,0.5408788 z"
       style="font-style:normal;font-variant:normal;font-weight:normal;font-stretch:normal;font-size:3.52777px;line-height:1.25;font-family:Verdana;-inkscape-font-specification:Verdana;stroke-width:0.264583"
       id="path1975" />
    <path
       d="m 21.59649,3.1827048 h -1.417654 q 0,0.177422 0.0534,0.3100579 0.0534,0.1309133 0.146416,0.215318 0.08957,0.082682 0.211873,0.1240232 0.124023,0.041341 0.272162,0.041341 0.19637,0 0.394463,-0.077514 0.199815,-0.079237 0.284219,-0.1550289 h 0.01723 v 0.353121 q -0.163642,0.068902 -0.334174,0.1154104 -0.170531,0.046509 -0.358289,0.046509 -0.478867,0 -0.747584,-0.2583816 -0.268717,-0.2601041 -0.268717,-0.7372488 0,-0.471977 0.256659,-0.7493066 0.258382,-0.2773296 0.678683,-0.2773296 0.389295,0 0.599445,0.2273758 0.211873,0.2273758 0.211873,0.645954 z M 21.281264,2.9346585 q -0.0017,-0.2549365 -0.12919,-0.3944626 -0.125746,-0.1395261 -0.384128,-0.1395261 -0.260104,0 -0.415133,0.1533064 -0.153306,0.1533065 -0.173977,0.3806823 z"
       style="font-style:normal;font-variant:normal;font-weight:normal;font-stretch:normal;font-size:3.52777px;line-height:1.25;font-family:Verdana;-inkscape-font-specification:Verdana;stroke-width:0.264583"
       id="path1977" />
    <path
       d="m 23.086491,4.0939305 q -0.09129,0.024116 -0.199815,0.039619 -0.106798,0.015503 -0.191203,0.015503 -0.294555,0 -0.447861,-0.1584741 -0.153307,-0.158474 -0.153307,-0.5081505 V 2.4592363 H 21.875542 V 2.1870744 h 0.218763 V 1.6341378 h 0.323839 v 0.5529366 h 0.668347 v 0.2721619 h -0.668347 v 0.8767749 q 0,0.1515839 0.0069,0.2377111 0.0069,0.084405 0.04823,0.158474 0.0379,0.068902 0.103353,0.1016301 0.06718,0.031006 0.20326,0.031006 0.07924,0 0.165364,-0.022393 0.08613,-0.024116 0.124023,-0.039619 h 0.01723 z"
       style="font-style:normal;font-variant:normal;font-weight:normal;font-stretch:normal;font-size:3.52777px;line-height:1.25;font-family:Verdana;-inkscape-font-specification:Verdana;stroke-width:0.264583"
       id="path1979" />
    <path
       d="M 24.872769,4.111156 H 23.319034 V 3.8717224 L 24.44041,2.4575138 H 23.34315 V 2.1870744 h 1.500335 v 0.2308209 l -1.126543,1.4193762 h 1.155827 z"
       style="font-style:normal;font-variant:normal;font-weight:normal;font-stretch:normal;font-size:3.52777px;line-height:1.25;font-family:Verdana;-inkscape-font-specification:Verdana;stroke-width:0.264583"
       id="path1981" />
    <text
       xml:space="preserve"
       style="font-size:3.52777px;line-height:1.25;font-family:Sudo;-inkscape-font-specification:Sudo;stroke-width:0.264583"
       x="1"
       y="5.9999995"
       id="text4190"><tspan
         sodipodi:role="line"
         id="tspan4188"
         x="1"
         y="5.9999995"
         style="stroke-width:0.264583" /></text>
    <rect
       style="display:inline;fill:#000000;fill-opacity:0.983806;stroke-width:0.993997"
       id="rect3459-2-3"
       width="11"
       height="14.000001"
       x="15.22916"
       y="106.82082"
       ry="1.2727273" />
    <text
       xml:space="preserve"
       style="font-size:3.52777px;line-height:1.25;font-family:Sudo;-inkscape-font-specification:Sudo;stroke-width:0.264583"
       x="18"
       y="94"
       id="text920"><tspan
         sodipodi:role="line"
         id="tspan918"
         x="18"
         y="94"
         style="stroke-width:0.264583" /></text>
    <path
       d="m 11.880174,22.861792 h -0.354157 l -0.686265,-0.815801 h -0.384474 v 0.815801 h -0.272852 v -2.051905 h 0.574643 q 0.186036,0 0.31006,0.02481 0.124024,0.02343 0.223243,0.08544 0.111621,0.07028 0.173633,0.177768 0.06339,0.106109 0.06339,0.270096 0,0.221865 -0.111622,0.372071 -0.111621,0.148829 -0.307303,0.224621 z M 11.24214,21.387287 q 0,-0.08819 -0.03169,-0.155719 -0.03032,-0.0689 -0.101975,-0.115756 -0.05926,-0.03996 -0.14056,-0.05512 -0.08131,-0.01654 -0.191548,-0.01654 h -0.321084 v 0.77446 h 0.275609 q 0.129536,0 0.225998,-0.02205 0.09646,-0.02343 0.163987,-0.08544 0.06201,-0.05788 0.09095,-0.132293 0.03032,-0.07579 0.03032,-0.191547 z"
       style="font-style:normal;font-variant:normal;font-weight:normal;font-stretch:normal;font-size:2.82223px;line-height:1.25;font-family:Verdana;-inkscape-font-specification:Verdana;stroke-width:0.264583"
       id="path1962" />
    <path
       d="m 13.635799,22.276124 q 0,0.119889 -0.0565,0.237023 -0.05512,0.117134 -0.155719,0.198438 -0.110244,0.08819 -0.257694,0.137804 -0.146073,0.04961 -0.352779,0.04961 -0.221865,0 -0.399632,-0.04134 -0.176389,-0.04134 -0.359669,-0.122645 v -0.341755 h 0.01929 q 0.155718,0.129536 0.359669,0.199816 0.20395,0.07028 0.383095,0.07028 0.25356,0 0.39412,-0.09509 0.141939,-0.09509 0.141939,-0.25356 0,-0.136426 -0.06752,-0.201194 -0.06615,-0.06477 -0.202573,-0.100597 -0.103353,-0.02756 -0.224621,-0.04548 -0.119889,-0.01791 -0.254937,-0.04547 -0.272853,-0.05788 -0.405145,-0.19706 -0.130914,-0.14056 -0.130914,-0.365181 0,-0.257694 0.217731,-0.421681 0.217731,-0.165365 0.552595,-0.165365 0.216352,0 0.396876,0.04134 0.180523,0.04134 0.319706,0.101975 v 0.322462 h -0.01929 q -0.117133,-0.09922 -0.308681,-0.163987 -0.19017,-0.06615 -0.389986,-0.06615 -0.219109,0 -0.352779,0.09095 -0.132292,0.09095 -0.132292,0.234267 0,0.128158 0.06615,0.201194 0.06615,0.07304 0.232889,0.111622 0.0882,0.01929 0.250804,0.04685 0.162609,0.02756 0.275608,0.0565 0.228755,0.06063 0.344511,0.183279 0.115755,0.122646 0.115755,0.343133 z"
       style="font-style:normal;font-variant:normal;font-weight:normal;font-stretch:normal;font-size:2.82223px;line-height:1.25;font-family:Verdana;-inkscape-font-specification:Verdana;stroke-width:0.264583"
       id="path1964" />
    <path
       d="m 15.537497,21.052422 h -0.733118 v 1.80937 h -0.272853 v -1.80937 h -0.733118 v -0.242535 h 1.739089 z"
       style="font-style:normal;font-variant:normal;font-weight:normal;font-stretch:normal;font-size:2.82223px;line-height:1.25;font-family:Verdana;-inkscape-font-specification:Verdana;stroke-width:0.264583"
       id="path1966" />
    <path
       d="M 5.9159841,30.355764 H 5.5618273 l -0.6862649,-0.8158 H 4.4910886 v 0.8158 H 4.2182363 V 28.30386 h 0.5746435 q 0.1860357,0 0.3100595,0.02481 0.1240238,0.02343 0.2232428,0.08544 0.1116214,0.07028 0.1736333,0.177768 0.06339,0.106109 0.06339,0.270096 0,0.221865 -0.1116214,0.372071 -0.1116214,0.148829 -0.3073033,0.224621 z M 5.2779506,28.881259 q 0,-0.08819 -0.031695,-0.155718 -0.030317,-0.0689 -0.1019751,-0.115756 -0.059256,-0.03996 -0.1405603,-0.05512 -0.081305,-0.01654 -0.1915479,-0.01654 H 4.4910886 v 0.77446 H 4.766697 q 0.129536,0 0.2259989,-0.02205 0.096463,-0.02343 0.163987,-0.08544 0.062012,-0.05788 0.090951,-0.132292 0.030317,-0.07579 0.030317,-0.191548 z"
       style="font-style:normal;font-variant:normal;font-weight:normal;font-stretch:normal;font-size:2.82223px;line-height:1.25;font-family:Verdana;-inkscape-font-specification:Verdana;stroke-width:0.264583"
       id="path1984" />
    <path
       d="M 7.7983896,30.355764 H 7.5076227 L 7.3064286,29.783877 H 6.4189695 L 6.2177753,30.355764 H 5.9407889 L 6.6876877,28.30386 H 7.0514908 Z M 7.222368,29.54961 6.862699,28.542261 6.501652,29.54961 Z"
       style="font-style:normal;font-variant:normal;font-weight:normal;font-stretch:normal;font-size:2.82223px;line-height:1.25;font-family:Verdana;-inkscape-font-specification:Verdana;stroke-width:0.264583"
       id="path1986" />
    <path
       d="m 9.4520399,28.30386 -0.722094,1.152043 v 0.899861 H 8.4570935 V 29.484842 L 7.7322434,28.30386 H 8.0340346 L 8.5948978,29.221636 9.161273,28.30386 Z"
       style="font-style:normal;font-variant:normal;font-weight:normal;font-stretch:normal;font-size:2.82223px;line-height:1.25;font-family:Verdana;-inkscape-font-specification:Verdana;stroke-width:0.264583"
       id="path1988" />
    <rect
       style="display:inline;fill:#000000;fill-opacity:0.983806;stroke-width:0.993998"
       id="rect3459-2-3-9"
       width="11"
       height="14.000001"
       x="27.229174"
       y="91.879173"
       ry="1.2727273" />
    <rect
       style="display:inline;fill:#000000;fill-opacity:0.983806;stroke-width:0.993998"
       id="rect3459-2-3-8"
       width="11"
       height="14.000001"
       x="15.22916"
       y="91.879173"
       ry="1.2727273" />
    <rect
       style="display:inline;fill:#000000;fill-opacity:0.983806;stroke-width:0.993998"
       id="rect3459-2-3-6"
       width="11"
       height="14.000001"
       x="27.229174"
       y="106.82082"
       ry="1.2727273" />
    <path
       d="m 16.509995,30.514767 h -0.290767 l -0.201194,-0.571888 h -0.88746 l -0.201194,0.571888 h -0.276986 l 0.746899,-2.051905 h 0.363803 z m -0.576022,-0.806155 -0.359669,-1.007349 -0.361047,1.007349 z"
       style="font-style:normal;font-variant:normal;font-weight:normal;font-stretch:normal;font-size:2.82223px;line-height:1.25;font-family:Verdana;-inkscape-font-specification:Verdana;stroke-width:0.264583"
       id="path1991" />
    <path
       d="M 18.386888,30.514767 H 18.049267 L 17.07637,28.679215 v 1.835552 h -0.254938 v -2.051905 h 0.423059 l 0.887459,1.675699 v -1.675699 h 0.254938 z"
       style="font-style:normal;font-variant:normal;font-weight:normal;font-stretch:normal;font-size:2.82223px;line-height:1.25;font-family:Verdana;-inkscape-font-specification:Verdana;stroke-width:0.264583"
       id="path1993" />
    <path
       d="m 20.644121,30.363182 q -0.168121,0.07717 -0.367937,0.135048 -0.198438,0.0565 -0.384474,0.0565 -0.239779,0 -0.439595,-0.06615 -0.199817,-0.06615 -0.340377,-0.198438 -0.141938,-0.13367 -0.219108,-0.333486 -0.07717,-0.201194 -0.07717,-0.469913 0,-0.491961 0.286633,-0.775837 0.288011,-0.285255 0.789618,-0.285255 0.175011,0 0.356913,0.04272 0.183279,0.04134 0.39412,0.141939 v 0.323839 h -0.02481 q -0.04272,-0.03307 -0.124024,-0.08682 -0.0813,-0.05374 -0.159853,-0.08957 -0.09508,-0.04272 -0.216352,-0.07028 -0.11989,-0.02894 -0.272852,-0.02894 -0.344511,0 -0.545705,0.221865 -0.199816,0.220487 -0.199816,0.59807 0,0.398254 0.209462,0.620119 0.209463,0.220487 0.57051,0.220487 0.132292,0 0.263206,-0.02618 0.132292,-0.02618 0.231511,-0.06752 v -0.502985 h -0.549839 v -0.23978 h 0.819935 z"
       style="font-style:normal;font-variant:normal;font-weight:normal;font-stretch:normal;font-size:2.82223px;line-height:1.25;font-family:Verdana;-inkscape-font-specification:Verdana;stroke-width:0.264583"
       id="path1995" />
    <path
       d="m 22.419039,30.514767 h -1.298116 v -2.051905 h 0.272853 v 1.809369 h 1.025263 z"
       style="font-style:normal;font-variant:normal;font-weight:normal;font-stretch:normal;font-size:2.82223px;line-height:1.25;font-family:Verdana;-inkscape-font-specification:Verdana;stroke-width:0.264583"
       id="path1997" />
    <path
       d="m 24.04375,30.514767 h -1.351859 v -2.051905 h 1.351859 v 0.242535 h -1.079007 v 0.562242 h 1.079007 v 0.242535 h -1.079007 v 0.762057 h 1.079007 z"
       style="font-style:normal;font-variant:normal;font-weight:normal;font-stretch:normal;font-size:2.82223px;line-height:1.25;font-family:Verdana;-inkscape-font-specification:Verdana;stroke-width:0.264583"
       id="path1999" />
    <path
       d="m 29.460673,29.742917 q 0,0.119889 -0.0565,0.237023 -0.05512,0.117134 -0.155718,0.198438 -0.110244,0.0882 -0.257694,0.137804 -0.146073,0.04961 -0.352779,0.04961 -0.221865,0 -0.399632,-0.04134 -0.17639,-0.04134 -0.359669,-0.122646 V 29.86005 h 0.01929 q 0.155719,0.129536 0.359669,0.199816 0.203951,0.07028 0.383096,0.07028 0.25356,0 0.39412,-0.09509 0.141938,-0.09509 0.141938,-0.25356 0,-0.136426 -0.06752,-0.201194 -0.06615,-0.06477 -0.202572,-0.100597 -0.103353,-0.02756 -0.224621,-0.04548 -0.119889,-0.01791 -0.254938,-0.04547 -0.272852,-0.05788 -0.405144,-0.19706 -0.130914,-0.14056 -0.130914,-0.365181 0,-0.257694 0.217731,-0.421681 0.21773,-0.165365 0.552595,-0.165365 0.216352,0 0.396876,0.04134 0.180523,0.04134 0.319706,0.101975 v 0.322462 h -0.01929 q -0.117134,-0.09922 -0.308681,-0.163987 -0.19017,-0.06615 -0.389986,-0.06615 -0.219109,0 -0.352779,0.09095 -0.132292,0.09095 -0.132292,0.234267 0,0.128158 0.06615,0.201194 0.06615,0.07304 0.232889,0.111622 0.0882,0.01929 0.250804,0.04685 0.162609,0.02756 0.275608,0.0565 0.228755,0.06063 0.34451,0.183279 0.115756,0.122646 0.115756,0.343133 z"
       style="font-style:normal;font-variant:normal;font-weight:normal;font-stretch:normal;font-size:2.82223px;line-height:1.25;font-family:Verdana;-inkscape-font-specification:Verdana;stroke-width:0.264583"
       id="path2002" />
    <path
       d="m 31.241103,28.896799 q 0,0.136426 -0.04823,0.25356 -0.04685,0.115755 -0.132292,0.201194 -0.106109,0.106109 -0.250804,0.159853 -0.144694,0.05236 -0.365181,0.05236 H 30.171744 V 30.32858 H 29.89889 v -2.0519 h 0.556729 q 0.184658,0 0.312816,0.0317 0.128158,0.03032 0.227377,0.09646 0.117133,0.07855 0.180523,0.195682 0.06477,0.117134 0.06477,0.296279 z m -0.283876,0.0069 q 0,-0.106109 -0.03721,-0.184657 -0.03721,-0.07855 -0.113,-0.128158 -0.06615,-0.04272 -0.151585,-0.06063 -0.08406,-0.01929 -0.213596,-0.01929 H 30.17174 v 0.819935 h 0.230133 q 0.165365,0 0.268718,-0.02894 0.103353,-0.03032 0.168121,-0.09509 0.06477,-0.06615 0.09095,-0.139182 0.02756,-0.07304 0.02756,-0.163987 z"
       style="font-style:normal;font-variant:normal;font-weight:normal;font-stretch:normal;font-size:2.82223px;line-height:1.25;font-family:Verdana;-inkscape-font-specification:Verdana;stroke-width:0.264583"
       id="path2004" />
    <path
       d="M 32.952631,30.328585 H 31.600772 V 28.27668 h 1.351859 v 0.242535 h -1.079006 v 0.562242 h 1.079006 v 0.242535 h -1.079006 v 0.762057 h 1.079006 z"
       style="font-style:normal;font-variant:normal;font-weight:normal;font-stretch:normal;font-size:2.82223px;line-height:1.25;font-family:Verdana;-inkscape-font-specification:Verdana;stroke-width:0.264583"
       id="path2006" />
    <path
       d="M 34.737196,30.328585 H 33.385337 V 28.27668 h 1.351859 v 0.242535 h -1.079007 v 0.562242 h 1.079007 v 0.242535 h -1.079007 v 0.762057 h 1.079007 z"
       style="font-style:normal;font-variant:normal;font-weight:normal;font-stretch:normal;font-size:2.82223px;line-height:1.25;font-family:Verdana;-inkscape-font-specification:Verdana;stroke-width:0.264583"
       id="path2008" />
    <path
       d="m 36.903478,29.304699 q 0,0.279743 -0.122646,0.50712 -0.121267,0.227377 -0.323839,0.352779 -0.140561,0.08682 -0.314194,0.125401 -0.172255,0.03859 -0.454754,0.03859 H 35.169901 V 28.27668 h 0.512632 q 0.300413,0 0.476802,0.0441 0.177768,0.04272 0.300414,0.118512 0.209462,0.130914 0.326596,0.348645 0.117133,0.21773 0.117133,0.516765 z m -0.285255,-0.0041 q 0,-0.241157 -0.08406,-0.406522 -0.08406,-0.165365 -0.250804,-0.26045 -0.121267,-0.0689 -0.257694,-0.09509 -0.136426,-0.02756 -0.326596,-0.02756 h -0.256315 v 1.583371 h 0.256315 q 0.19706,0 0.343133,-0.02894 0.14745,-0.02894 0.270096,-0.107488 0.152963,-0.09784 0.228755,-0.257693 0.07717,-0.159853 0.07717,-0.399633 z"
       style="font-style:normal;font-variant:normal;font-weight:normal;font-stretch:normal;font-size:2.82223px;line-height:1.25;font-family:Verdana;-inkscape-font-specification:Verdana;stroke-width:0.264583"
       id="path2010" />
    <path
       inkscape:connector-curvature="0"
       id="path35805"
       d="m 6,21.324998 v -8.5"
       style="display:inline;fill:none;stroke:#000000;stroke-width:0.163157;stroke-linecap:round;stroke-linejoin:round;stroke-miterlimit:10;stroke-opacity:1" />
    <path
       d="M 20.762796,95.044525 H 20.22743 l -0.387056,-0.590833 -0.394291,0.590833 h -0.511251 l 0.636653,-0.904336 -0.623389,-0.891072 h 0.534161 l 0.373792,0.559482 0.384644,-0.559482 h 0.512457 l -0.627006,0.872985 z"
       style="font-style:normal;font-variant:normal;font-weight:bold;font-stretch:normal;font-size:2.46944px;line-height:1.25;font-family:Verdana;-inkscape-font-specification:'Verdana Bold';fill:#fcffff;fill-opacity:1;stroke-width:0.264583"
       id="path2013" />
    <path
       d="m 22.31102,95.044525 h -1.198547 v -0.313503 h 0.378615 v -0.94895 h -0.378615 v -0.293005 q 0.08682,0 0.166398,-0.0096 0.07958,-0.01085 0.132636,-0.03617 0.0627,-0.03014 0.09405,-0.07838 0.03135,-0.04823 0.03617,-0.120578 h 0.399114 v 1.486728 h 0.370175 z"
       style="font-style:normal;font-variant:normal;font-weight:bold;font-stretch:normal;font-size:2.46944px;line-height:1.25;font-family:Verdana;-inkscape-font-specification:'Verdana Bold';fill:#fcffff;fill-opacity:1;stroke-width:0.264583"
       id="path2015" />
    <path
       d="m 32.7729,92.778284 -0.661974,1.100878 v 0.69453 h -0.46302 V 93.900866 L 30.97508,92.778284 h 0.52572 l 0.388262,0.69453 0.374998,-0.69453 z"
       style="font-style:normal;font-variant:normal;font-weight:bold;font-stretch:normal;font-size:2.46944px;line-height:1.25;font-family:Verdana;-inkscape-font-specification:'Verdana Bold';fill:#fcffff;fill-opacity:1;stroke-width:0.264583"
       id="path2018" />
    <path
       d="m 34.303036,94.573692 h -1.198547 v -0.313503 h 0.378616 v -0.94895 h -0.378616 v -0.293004 q 0.08682,0 0.166398,-0.0096 0.07958,-0.01085 0.132636,-0.03617 0.0627,-0.03015 0.09405,-0.07838 0.03135,-0.04823 0.03617,-0.120578 h 0.399113 v 1.486728 h 0.370175 z"
       style="font-style:normal;font-variant:normal;font-weight:bold;font-stretch:normal;font-size:2.46944px;line-height:1.25;font-family:Verdana;-inkscape-font-specification:'Verdana Bold';fill:#fcffff;fill-opacity:1;stroke-width:0.264583"
       id="path2020" />
    <path
       d="m 32.195545,107.78872 -0.661974,1.10088 v 0.69453 h -0.46302 v -0.67283 l -0.672826,-1.12258 h 0.525721 l 0.388261,0.69453 0.374998,-0.69453 z"
       style="font-style:normal;font-variant:normal;font-weight:bold;font-stretch:normal;font-size:2.46944px;line-height:1.25;font-family:Verdana;-inkscape-font-specification:'Verdana Bold';fill:#fcffff;fill-opacity:1;stroke-width:0.264583"
       id="path2023" />
    <path
       d="m 33.839025,109.58413 h -1.409558 v -0.29662 q 0.161574,-0.11696 0.323149,-0.24839 0.162781,-0.13143 0.260449,-0.22669 0.145899,-0.14108 0.207394,-0.24598 0.0615,-0.1049 0.0615,-0.20739 0,-0.12299 -0.07958,-0.18931 -0.07837,-0.0675 -0.226686,-0.0675 -0.110932,0 -0.233922,0.0458 -0.121784,0.0458 -0.226687,0.11696 h -0.03858 v -0.39911 q 0.08561,-0.0374 0.252008,-0.0748 0.167604,-0.0374 0.335208,-0.0374 0.337618,0 0.514868,0.14229 0.17725,0.14107 0.17725,0.40031 0,0.17002 -0.08561,0.32315 -0.08441,0.15314 -0.259243,0.31592 -0.109726,0.10128 -0.220658,0.1869 -0.110932,0.0844 -0.157958,0.11816 h 0.806668 z"
       style="font-style:normal;font-variant:normal;font-weight:bold;font-stretch:normal;font-size:2.46944px;line-height:1.25;font-family:Verdana;-inkscape-font-specification:'Verdana Bold';fill:#fcffff;fill-opacity:1;stroke-width:0.264583"
       id="path2025" />
    <path
       d="m 20.421902,109.46922 h -0.535367 l -0.387056,-0.59083 -0.39429,0.59083 h -0.511252 l 0.636653,-0.90433 -0.623389,-0.89108 h 0.534161 l 0.373792,0.55949 0.384644,-0.55949 h 0.512457 l -0.627006,0.87299 z"
       style="font-style:normal;font-variant:normal;font-weight:bold;font-stretch:normal;font-size:2.46944px;line-height:1.25;font-family:Verdana;-inkscape-font-specification:'Verdana Bold';fill:#fcffff;fill-opacity:1;stroke-width:0.264583"
       id="path2028" />
    <path
       d="M 22.083468,109.46922 H 20.67391 v -0.29662 q 0.161575,-0.11696 0.323149,-0.24839 0.162781,-0.13143 0.260449,-0.22669 0.1459,-0.14107 0.207394,-0.24598 0.0615,-0.1049 0.0615,-0.20739 0,-0.12299 -0.07958,-0.18931 -0.07838,-0.0675 -0.226687,-0.0675 -0.110932,0 -0.233922,0.0458 -0.121784,0.0458 -0.226687,0.11696 h -0.03858 v -0.39912 q 0.08561,-0.0374 0.252009,-0.0747 0.167603,-0.0374 0.335207,-0.0374 0.337619,0 0.514869,0.14228 0.177249,0.14108 0.177249,0.40032 0,0.17001 -0.08561,0.32315 -0.08441,0.15313 -0.259243,0.31591 -0.109726,0.10129 -0.220658,0.1869 -0.110932,0.0844 -0.157957,0.11817 h 0.806667 z"
       style="font-style:normal;font-variant:normal;font-weight:bold;font-stretch:normal;font-size:2.46944px;line-height:1.25;font-family:Verdana;-inkscape-font-specification:'Verdana Bold';fill:#fcffff;fill-opacity:1;stroke-width:0.264583"
       id="path2030" />
    <path
       d="m 13.024171,126.28801 h -0.290767 l -0.201194,-0.57189 h -0.887459 l -0.201194,0.57189 H 11.16657 l 0.746899,-2.0519 h 0.363803 z m -0.576022,-0.80615 -0.359669,-1.00735 -0.361047,1.00735 z"
       style="font-style:normal;font-variant:normal;font-weight:normal;font-stretch:normal;font-size:2.82223px;line-height:1.25;font-family:Verdana;-inkscape-font-specification:Verdana;stroke-width:0.264583"
       id="path2048" />
    <path
       d="m 13.576766,126.28801 h -0.259072 v -2.14423 h 0.259072 z"
       style="font-style:normal;font-variant:normal;font-weight:normal;font-stretch:normal;font-size:2.82223px;line-height:1.25;font-family:Verdana;-inkscape-font-specification:Verdana;stroke-width:0.264583"
       id="path2050" />
    <path
       d="m 15.337903,126.113 q 0,0.39136 -0.177767,0.57464 -0.177767,0.18328 -0.547083,0.18328 -0.122645,0 -0.239779,-0.0179 -0.115756,-0.0165 -0.228755,-0.0482 v -0.26459 h 0.01378 q 0.06339,0.0248 0.201195,0.0606 0.137804,0.0372 0.275608,0.0372 0.132292,0 0.219109,-0.0317 0.08682,-0.0317 0.135048,-0.0882 0.04823,-0.0537 0.0689,-0.12953 0.02067,-0.0758 0.02067,-0.1695 v -0.14056 q -0.117134,0.0937 -0.224621,0.14056 -0.10611,0.0455 -0.271475,0.0455 -0.275608,0 -0.438217,-0.19844 -0.161231,-0.19981 -0.161231,-0.56224 0,-0.19843 0.05512,-0.34175 0.0565,-0.1447 0.152962,-0.24943 0.08957,-0.0978 0.217731,-0.15158 0.128158,-0.0551 0.254938,-0.0551 0.13367,0 0.223243,0.0276 0.09095,0.0262 0.191548,0.0813 l 0.01654,-0.0661 h 0.242535 z m -0.259071,-0.24805 v -0.83923 q -0.103354,-0.0469 -0.192926,-0.0661 -0.0882,-0.0207 -0.17639,-0.0207 -0.213596,0 -0.336242,0.14331 -0.122646,0.14332 -0.122646,0.41617 0,0.25907 0.09095,0.39274 0.09095,0.13367 0.301791,0.13367 0.113,0 0.225999,-0.0427 0.114378,-0.0441 0.209463,-0.11713 z"
       style="font-style:normal;font-variant:normal;font-weight:normal;font-stretch:normal;font-size:2.82223px;line-height:1.25;font-family:Verdana;-inkscape-font-specification:Verdana;stroke-width:0.264583"
       id="path2052" />
    <path
       d="m 17.159675,125.51906 q 0,0.37621 -0.192926,0.59394 -0.192926,0.21773 -0.516766,0.21773 -0.326596,0 -0.519522,-0.21773 -0.191547,-0.21773 -0.191547,-0.59394 0,-0.3762 0.191547,-0.59393 0.192926,-0.21911 0.519522,-0.21911 0.32384,0 0.516766,0.21911 0.192926,0.21773 0.192926,0.59393 z m -0.26734,0 q 0,-0.29903 -0.117134,-0.44373 -0.117133,-0.14607 -0.325218,-0.14607 -0.21084,0 -0.327974,0.14607 -0.115755,0.1447 -0.115755,0.44373 0,0.28939 0.117133,0.4396 0.117134,0.14883 0.326596,0.14883 0.206707,0 0.32384,-0.14745 0.118512,-0.14883 0.118512,-0.44098 z"
       style="font-style:normal;font-variant:normal;font-weight:normal;font-stretch:normal;font-size:2.82223px;line-height:1.25;font-family:Verdana;-inkscape-font-specification:Verdana;stroke-width:0.264583"
       id="path2054" />
    <path
       d="M 18.521181,125.03124 H 18.5074 q -0.05788,-0.0138 -0.112999,-0.0193 -0.05374,-0.007 -0.128158,-0.007 -0.11989,0 -0.231511,0.0538 -0.111622,0.0524 -0.214975,0.13642 v 1.09279 h -0.259072 v -1.53927 h 0.259072 v 0.22737 q 0.154341,-0.12402 0.271474,-0.17501 0.118512,-0.0524 0.241158,-0.0524 0.06752,0 0.09784,0.004 0.03032,0.003 0.09095,0.0124 z"
       style="font-style:normal;font-variant:normal;font-weight:normal;font-stretch:normal;font-size:2.82223px;line-height:1.25;font-family:Verdana;-inkscape-font-specification:Verdana;stroke-width:0.264583"
       id="path2056" />
    <path
       d="m 19.043458,124.49104 h -0.292144 v -0.26872 h 0.292144 z m -0.01654,1.79697 H 18.76785 v -1.53927 h 0.259072 z"
       style="font-style:normal;font-variant:normal;font-weight:normal;font-stretch:normal;font-size:2.82223px;line-height:1.25;font-family:Verdana;-inkscape-font-specification:Verdana;stroke-width:0.264583"
       id="path2058" />
    <path
       d="m 20.338818,126.27423 q -0.07304,0.0193 -0.159853,0.0317 -0.08544,0.0124 -0.152963,0.0124 -0.235645,0 -0.358291,-0.12678 -0.122646,-0.12678 -0.122646,-0.40653 v -0.81855 h -0.175011 v -0.21773 h 0.175011 v -0.44235 h 0.259072 v 0.44235 h 0.534681 v 0.21773 h -0.534681 v 0.70142 q 0,0.12127 0.0055,0.19017 0.0055,0.0675 0.03858,0.12678 0.03032,0.0551 0.08268,0.0813 0.05374,0.0248 0.162609,0.0248 0.06339,0 0.132292,-0.0179 0.0689,-0.0193 0.09922,-0.0317 h 0.01378 z"
       style="font-style:normal;font-variant:normal;font-weight:normal;font-stretch:normal;font-size:2.82223px;line-height:1.25;font-family:Verdana;-inkscape-font-specification:Verdana;stroke-width:0.264583"
       id="path2060" />
    <path
       d="M 22.897842,126.28801 H 22.63877 v -0.87644 q 0,-0.0992 -0.0096,-0.19154 -0.0083,-0.0923 -0.03721,-0.14745 -0.03169,-0.0593 -0.09095,-0.0896 -0.05926,-0.0303 -0.170877,-0.0303 -0.108865,0 -0.217731,0.0551 -0.108865,0.0537 -0.21773,0.1378 0.0041,0.0317 0.0069,0.0744 0.0028,0.0413 0.0028,0.0827 v 0.9853 H 21.6453 v -0.87644 q 0,-0.10197 -0.0096,-0.19292 -0.0083,-0.0923 -0.03721,-0.14745 -0.03169,-0.0593 -0.09095,-0.0882 -0.05926,-0.0303 -0.170877,-0.0303 -0.106109,0 -0.213597,0.0524 -0.106109,0.0524 -0.212218,0.13367 v 1.14929 h -0.259072 v -1.53927 h 0.259072 v 0.17087 q 0.121267,-0.10059 0.241157,-0.15709 0.121268,-0.0565 0.257694,-0.0565 0.157097,0 0.265962,0.0661 0.110243,0.0662 0.163987,0.18328 0.157097,-0.13229 0.286633,-0.19017 0.129536,-0.0593 0.276986,-0.0593 0.25356,0 0.37345,0.15434 0.121267,0.15296 0.121267,0.42857 z"
       style="font-style:normal;font-variant:normal;font-weight:normal;font-stretch:normal;font-size:2.82223px;line-height:1.25;font-family:Verdana;-inkscape-font-specification:Verdana;stroke-width:0.264583"
       id="path2062" />
    <path
       d="M 24.879466,126.28801 H 24.60248 l -0.0689,-0.5774 h -0.884703 l -0.336243,0.5774 h -0.28801 l 1.220945,-2.0519 h 0.361047 z m -0.376205,-0.80064 -0.128158,-1.01286 -0.595314,1.01286 z"
       style="font-style:italic;font-variant:normal;font-weight:normal;font-stretch:normal;font-size:2.82223px;line-height:1.25;font-family:Verdana;-inkscape-font-specification:'Verdana Italic';stroke-width:0.264583"
       id="path2064" />
    <path
       d="m 26.388423,125.02159 h -0.01378 q -0.05512,-0.0138 -0.103353,-0.0193 -0.04685,-0.007 -0.114378,-0.007 -0.129535,0 -0.257693,0.0592 -0.12678,0.0579 -0.243914,0.14056 l -0.248047,1.09279 H 25.14543 l 0.3514,-1.53927 h 0.261828 l -0.05236,0.22737 q 0.183279,-0.12815 0.310059,-0.17776 0.128158,-0.0496 0.245292,-0.0496 0.06752,0 0.09784,0.004 0.03032,0.003 0.08819,0.0124 z"
       style="font-style:italic;font-variant:normal;font-weight:normal;font-stretch:normal;font-size:2.82223px;line-height:1.25;font-family:Verdana;-inkscape-font-specification:'Verdana Italic';stroke-width:0.264583"
       id="path2066" />
    <path
       d="m 27.504637,124.74874 -0.04685,0.20946 h -0.53468 l -0.165365,0.70969 q -0.01378,0.0537 -0.02481,0.12402 -0.01102,0.0689 -0.01102,0.11025 0,0.10059 0.05099,0.1502 0.05099,0.0482 0.188792,0.0482 0.0565,0 0.13367,-0.0193 0.07855,-0.0193 0.106109,-0.0303 h 0.01378 l -0.04823,0.22324 q -0.07717,0.0193 -0.165365,0.0317 -0.08682,0.0124 -0.154341,0.0124 -0.190169,0 -0.294901,-0.0827 -0.103353,-0.0841 -0.103353,-0.26458 0,-0.0441 0.0055,-0.0868 0.0069,-0.0441 0.01792,-0.0992 l 0.191548,-0.82682 H 26.48902 l 0.04685,-0.20946 h 0.175011 l 0.103353,-0.44235 h 0.259072 l -0.103353,0.44235 z"
       style="font-style:italic;font-variant:normal;font-weight:normal;font-stretch:normal;font-size:2.82223px;line-height:1.25;font-family:Verdana;-inkscape-font-specification:'Verdana Italic';stroke-width:0.264583"
       id="path2068" />
    <path
       d="m 28.707667,125.35094 q 0.0069,-0.04 0.0096,-0.0675 0.0028,-0.0276 0.0028,-0.0606 0,-0.14745 -0.0813,-0.23013 -0.07993,-0.0827 -0.257694,-0.0827 -0.195682,0 -0.347267,0.12127 -0.151584,0.12126 -0.205328,0.3197 z m -0.518144,0.9729 q -0.319706,0 -0.501607,-0.15021 -0.181902,-0.1502 -0.181902,-0.43959 0,-0.42306 0.26734,-0.72485 0.267341,-0.30317 0.661461,-0.30317 0.261828,0 0.40101,0.13091 0.139182,0.12954 0.139182,0.36518 0,0.0413 -0.0124,0.13092 -0.01103,0.0896 -0.03721,0.20808 h -1.134129 q -0.0083,0.04 -0.0124,0.0785 -0.0028,0.0386 -0.0028,0.0717 0,0.1943 0.118512,0.30592 0.118512,0.11025 0.336242,0.11025 0.151585,0 0.311438,-0.0593 0.161231,-0.0593 0.270096,-0.13367 h 0.01516 l -0.0565,0.27974 q -0.0689,0.0248 -0.124024,0.0455 -0.05512,0.0207 -0.14056,0.0413 -0.08544,0.0207 -0.151585,0.0317 -0.06615,0.011 -0.165365,0.011 z"
       style="font-style:italic;font-variant:normal;font-weight:normal;font-stretch:normal;font-size:2.82223px;line-height:1.25;font-family:Verdana;-inkscape-font-specification:'Verdana Italic';stroke-width:0.264583"
       id="path2070" />
    <path
       d="m 2.9565929,106.61897 q 0,0.13643 -0.048231,0.25356 -0.046853,0.11576 -0.1322921,0.2012 -0.1061092,0.10611 -0.2508036,0.15985 -0.1446944,0.0524 -0.3651812,0.0524 H 1.8872323 v 0.76481 H 1.61438 v -2.05191 h 0.556729 q 0.1846576,0 0.3128155,0.0317 0.1281579,0.0303 0.227377,0.0965 0.1171335,0.0786 0.1805235,0.19568 0.064768,0.11714 0.064768,0.29628 z m -0.2838766,0.007 q 0,-0.10611 -0.037207,-0.18465 -0.037207,-0.0785 -0.1129994,-0.12816 -0.066146,-0.0427 -0.1515846,-0.0606 -0.084061,-0.0193 -0.2135965,-0.0193 H 1.8872323 v 0.81994 h 0.230133 q 0.1653651,0 0.2687182,-0.0289 0.1033532,-0.0303 0.1681212,-0.0951 0.064768,-0.0661 0.090951,-0.13918 0.027561,-0.073 0.027561,-0.16399 z"
       style="font-style:normal;font-variant:normal;font-weight:normal;font-stretch:normal;font-size:2.82223px;line-height:1.25;font-family:Verdana;-inkscape-font-specification:Verdana;stroke-width:0.264583"
       id="path2033" />
    <path
       d="M 3.5574192,108.05076 H 3.2983473 v -2.14424 h 0.2590719 z"
       style="font-style:normal;font-variant:normal;font-weight:normal;font-stretch:normal;font-size:2.82223px;line-height:1.25;font-family:Verdana;-inkscape-font-specification:Verdana;stroke-width:0.264583"
       id="path2035" />
    <path
       d="M 5.2661913,108.05076 H 5.0084975 v -0.16399 q -0.034451,0.0234 -0.093707,0.0662 -0.057878,0.0413 -0.1129994,0.0661 -0.064768,0.0317 -0.1488286,0.0524 -0.084061,0.022 -0.19706,0.022 -0.2080843,0 -0.3527787,-0.13781 -0.1446945,-0.1378 -0.1446945,-0.3514 0,-0.17501 0.074414,-0.2825 0.075792,-0.10886 0.2149746,-0.17087 0.1405603,-0.062 0.3376203,-0.0841 0.19706,-0.022 0.4230589,-0.0331 v -0.04 q 0,-0.0882 -0.031695,-0.14607 -0.030317,-0.0579 -0.088195,-0.0909 -0.055122,-0.0317 -0.132292,-0.0427 -0.07717,-0.011 -0.1612309,-0.011 -0.1019751,0 -0.227377,0.0276 -0.1254018,0.0262 -0.2590719,0.0772 h -0.01378 v -0.2632 q 0.075792,-0.0207 0.2191087,-0.0455 0.1433164,-0.0248 0.2824986,-0.0248 0.162609,0 0.2824986,0.0276 0.1212677,0.0262 0.2094624,0.0909 0.086817,0.0634 0.132292,0.16399 0.045475,0.10059 0.045475,0.24942 z M 5.0084975,107.6718 v -0.42857 q -0.1185116,0.007 -0.2797426,0.0207 -0.1598528,0.0138 -0.2535597,0.04 -0.1116214,0.0317 -0.1805235,0.0992 -0.068902,0.0661 -0.068902,0.18328 0,0.13229 0.079926,0.19981 0.079927,0.0662 0.2439135,0.0662 0.1364261,0 0.2494256,-0.0524 0.1129994,-0.0537 0.2094624,-0.12815 z"
       style="font-style:normal;font-variant:normal;font-weight:normal;font-stretch:normal;font-size:2.82223px;line-height:1.25;font-family:Verdana;-inkscape-font-specification:Verdana;stroke-width:0.264583"
       id="path2037" />
    <path
       d="M 7.0521339,108.05076 H 6.793062 v -0.87644 q 0,-0.10611 -0.012402,-0.19843 -0.012402,-0.0937 -0.045475,-0.14608 -0.034451,-0.0579 -0.099219,-0.0854 -0.064768,-0.0289 -0.1681211,-0.0289 -0.1061092,0 -0.2218648,0.0524 -0.1157555,0.0524 -0.2218647,0.13367 v 1.14929 H 5.7650427 v -1.53927 h 0.2590719 v 0.17087 q 0.1212677,-0.10059 0.2508036,-0.15709 0.129536,-0.0565 0.2659621,-0.0565 0.2494257,0 0.3803396,0.1502 0.130914,0.15021 0.130914,0.43271 z"
       style="font-style:normal;font-variant:normal;font-weight:normal;font-stretch:normal;font-size:2.82223px;line-height:1.25;font-family:Verdana;-inkscape-font-specification:Verdana;stroke-width:0.264583"
       id="path2039" />
    <path
       d="M 8.8394541,107.30799 H 7.7053255 q 0,0.14194 0.042719,0.24805 0.042719,0.10473 0.1171335,0.17226 0.071658,0.0661 0.1694992,0.0992 0.099219,0.0331 0.2177306,0.0331 0.1570968,0 0.3155717,-0.062 0.1598529,-0.0634 0.2273769,-0.12403 h 0.01378 v 0.2825 q -0.130914,0.0551 -0.2673401,0.0923 -0.1364262,0.0372 -0.2866328,0.0372 -0.3830957,0 -0.5980702,-0.20671 -0.2149746,-0.20808 -0.2149746,-0.5898 0,-0.37758 0.2053283,-0.59945 0.2067063,-0.22186 0.5429486,-0.22186 0.3114375,0 0.4795586,0.1819 0.1694992,0.1819 0.1694992,0.51676 z m -0.2521817,-0.19843 q -0.00138,-0.20395 -0.1033532,-0.31558 -0.1005971,-0.11162 -0.3073034,-0.11162 -0.2080843,0 -0.3321081,0.12265 -0.1226457,0.12264 -0.1391822,0.30455 z"
       style="font-style:normal;font-variant:normal;font-weight:normal;font-stretch:normal;font-size:2.82223px;line-height:1.25;font-family:Verdana;-inkscape-font-specification:Verdana;stroke-width:0.264583"
       id="path2041" />
    <path
       d="m 10.031461,108.03698 q -0.073037,0.0193 -0.1598533,0.0317 -0.085439,0.0124 -0.1529626,0.0124 -0.2356452,0 -0.358291,-0.12678 -0.1226457,-0.12678 -0.1226457,-0.40653 v -0.81855 H 9.0626971 v -0.21773 h 0.1750113 v -0.44236 h 0.2590719 v 0.44236 h 0.5346807 v 0.21773 H 9.4967803 v 0.70142 q 0,0.12127 0.00551,0.19017 0.00551,0.0675 0.038585,0.12678 0.030317,0.0551 0.082683,0.0813 0.053744,0.0248 0.1626089,0.0248 0.06339,0 0.1322921,-0.0179 0.068902,-0.0193 0.099219,-0.0317 h 0.01378 z"
       style="font-style:normal;font-variant:normal;font-weight:normal;font-stretch:normal;font-size:2.82223px;line-height:1.25;font-family:Verdana;-inkscape-font-specification:Verdana;stroke-width:0.264583"
       id="path2043" />
    <path
       d="m 11.443953,107.60703 q 0,0.21084 -0.175011,0.34589 -0.173633,0.13505 -0.475424,0.13505 -0.170878,0 -0.314194,-0.04 -0.141938,-0.0413 -0.238401,-0.0896 v -0.29077 h 0.01378 q 0.122646,0.0923 0.272852,0.14745 0.150207,0.0537 0.288011,0.0537 0.170877,0 0.26734,-0.0551 0.09646,-0.0551 0.09646,-0.17364 0,-0.091 -0.05236,-0.1378 -0.05237,-0.0469 -0.201194,-0.0799 -0.05512,-0.0124 -0.144695,-0.0289 -0.08819,-0.0165 -0.161231,-0.0358 -0.202572,-0.0537 -0.288011,-0.15709 -0.08406,-0.10473 -0.08406,-0.25632 0,-0.0951 0.03858,-0.17914 0.03996,-0.0841 0.11989,-0.15021 0.07717,-0.0648 0.195682,-0.10198 0.119889,-0.0386 0.26734,-0.0386 0.137804,0 0.278364,0.0345 0.141939,0.0331 0.235646,0.0813 v 0.27699 h -0.01378 q -0.09922,-0.073 -0.241157,-0.12265 -0.141939,-0.051 -0.278365,-0.051 -0.141938,0 -0.239779,0.0551 -0.09784,0.0537 -0.09784,0.16123 0,0.0951 0.05926,0.14332 0.05788,0.0482 0.187413,0.0785 0.07166,0.0165 0.159853,0.0331 0.08957,0.0165 0.148829,0.0303 0.180523,0.0413 0.278364,0.14194 0.09784,0.10198 0.09784,0.2701 z"
       style="font-style:normal;font-variant:normal;font-weight:normal;font-stretch:normal;font-size:2.82223px;line-height:1.25;font-family:Verdana;-inkscape-font-specification:Verdana;stroke-width:0.264583"
       id="path2045" />
    <path
       d="m 20.696837,20.852782 q 0,0.11989 -0.0565,0.237023 -0.05512,0.117134 -0.155718,0.198438 -0.110244,0.08819 -0.257694,0.137804 -0.146073,0.04961 -0.352779,0.04961 -0.221865,0 -0.399632,-0.04134 -0.17639,-0.04134 -0.359669,-0.122646 v -0.341754 h 0.01929 q 0.155719,0.129536 0.359669,0.199816 0.203951,0.07028 0.383096,0.07028 0.25356,0 0.39412,-0.09509 0.141938,-0.09508 0.141938,-0.25356 0,-0.136426 -0.06752,-0.201194 -0.06615,-0.06477 -0.202572,-0.100597 -0.103353,-0.02756 -0.224621,-0.04547 -0.119889,-0.01792 -0.254937,-0.04548 -0.272853,-0.05788 -0.405145,-0.19706 -0.130914,-0.14056 -0.130914,-0.365181 0,-0.257694 0.217731,-0.421681 0.217731,-0.165365 0.552595,-0.165365 0.216352,0 0.396876,0.04134 0.180523,0.04134 0.319706,0.101975 v 0.322462 h -0.01929 q -0.117134,-0.09922 -0.308681,-0.163987 -0.19017,-0.06615 -0.389986,-0.06615 -0.219109,0 -0.352779,0.09095 -0.132292,0.09095 -0.132292,0.234267 0,0.128158 0.06615,0.201194 0.06615,0.07304 0.232889,0.111622 0.08819,0.01929 0.250804,0.04685 0.162609,0.02756 0.275608,0.0565 0.228755,0.06063 0.344511,0.18328 0.115755,0.122645 0.115755,0.343132 z"
       style="font-style:normal;font-variant:normal;font-weight:normal;font-stretch:normal;font-size:2.82223px;line-height:1.25;font-family:Verdana;-inkscape-font-specification:Verdana;stroke-width:0.264583"
       id="path1947" />
    <path
       d="m 22.719803,21.289621 q -0.07579,0.03307 -0.137804,0.06201 -0.06063,0.02894 -0.159853,0.06063 -0.08406,0.02618 -0.18328,0.0441 -0.09784,0.01929 -0.216352,0.01929 -0.223243,0 -0.406523,-0.06201 -0.181901,-0.06339 -0.31695,-0.19706 -0.132292,-0.130914 -0.206706,-0.332108 -0.07441,-0.202572 -0.07441,-0.469912 0,-0.25356 0.07166,-0.453376 0.07166,-0.199816 0.206706,-0.337621 0.130914,-0.13367 0.315572,-0.20395 0.186036,-0.07028 0.412035,-0.07028 0.165365,0 0.329352,0.03996 0.165365,0.03996 0.366559,0.140561 v 0.32384 h -0.02067 q -0.169499,-0.141939 -0.336242,-0.206707 -0.166743,-0.06477 -0.356913,-0.06477 -0.155719,0 -0.281121,0.05099 -0.124023,0.04961 -0.221864,0.155719 -0.09508,0.103353 -0.148829,0.261828 -0.05236,0.157096 -0.05236,0.363803 0,0.216352 0.05788,0.372071 0.05926,0.155719 0.151585,0.25356 0.09646,0.101975 0.224621,0.151584 0.129536,0.04823 0.272852,0.04823 0.19706,0 0.369315,-0.06752 0.172256,-0.06752 0.322462,-0.202572 h 0.01929 z"
       style="font-style:normal;font-variant:normal;font-weight:normal;font-stretch:normal;font-size:2.82223px;line-height:1.25;font-family:Verdana;-inkscape-font-specification:Verdana;stroke-width:0.264583"
       id="path1949" />
    <path
       d="m 24.723476,21.43845 h -0.290767 l -0.201194,-0.571888 h -0.887459 l -0.201194,0.571888 h -0.276987 l 0.746899,-2.051905 h 0.363803 z m -0.576022,-0.806155 -0.359669,-1.007348 -0.361047,1.007348 z"
       style="font-style:normal;font-variant:normal;font-weight:normal;font-stretch:normal;font-size:2.82223px;line-height:1.25;font-family:Verdana;-inkscape-font-specification:Verdana;stroke-width:0.264583"
       id="path1951" />
    <path
       d="m 26.333029,21.43845 h -1.298116 v -2.051905 h 0.272853 v 1.809369 h 1.025263 z"
       style="font-style:normal;font-variant:normal;font-weight:normal;font-stretch:normal;font-size:2.82223px;line-height:1.25;font-family:Verdana;-inkscape-font-specification:Verdana;stroke-width:0.264583"
       id="path1953" />
    <path
       d="m 27.95774,21.43845 h -1.351859 v -2.051905 h 1.351859 v 0.242536 h -1.079007 v 0.562241 h 1.079007 v 0.242535 h -1.079007 v 0.762057 h 1.079007 z"
       style="font-style:normal;font-variant:normal;font-weight:normal;font-stretch:normal;font-size:2.82223px;line-height:1.25;font-family:Verdana;-inkscape-font-specification:Verdana;stroke-width:0.264583"
       id="path1955" />
    <path
       d="m 30.948092,19.386545 -0.708313,1.014239 0.706935,1.037666 h -0.315571 l -0.559486,-0.84474 -0.573265,0.84474 h -0.297657 l 0.715204,-1.025263 -0.698668,-1.026642 h 0.314194 l 0.552595,0.833716 0.564997,-0.833716 z"
       style="font-style:normal;font-variant:normal;font-weight:normal;font-stretch:normal;font-size:2.82223px;line-height:1.25;font-family:Verdana;-inkscape-font-specification:Verdana;stroke-width:0.264583"
       id="path1957" />
    <path
       d="m 32.768485,19.386545 -0.722094,1.152043 v 0.899862 h -0.272852 v -0.870923 l -0.72485,-1.180982 h 0.301791 l 0.560863,0.917776 0.566375,-0.917776 z"
       style="font-style:normal;font-variant:normal;font-weight:normal;font-stretch:normal;font-size:2.82223px;line-height:1.25;font-family:Verdana;-inkscape-font-specification:Verdana;stroke-width:0.264583"
       id="path1959" />
    <path
       inkscape:connector-curvature="0"
       id="path35805-1"
       d="M 17,37 H 8.978933"
       style="display:inline;fill:none;stroke:#000000;stroke-width:0.158494;stroke-linecap:round;stroke-linejoin:round;stroke-miterlimit:10;stroke-opacity:1" />
    <path
       inkscape:connector-curvature="0"
       id="path35805-1-5"
       d="M 30,37 H 21.978933"
       style="display:inline;fill:none;stroke:#000000;stroke-width:0.158494;stroke-linecap:round;stroke-linejoin:round;stroke-miterlimit:10;stroke-opacity:1" />
    <path
       inkscape:connector-curvature="0"
       id="path35805-1-6"
       d="M 17,49 H 8.978933"
       style="display:inline;fill:none;stroke:#000000;stroke-width:0.158494;stroke-linecap:round;stroke-linejoin:round;stroke-miterlimit:10;stroke-opacity:1" />
    <path
       inkscape:connector-curvature="0"
       id="path35805-1-5-3"
       d="M 30,49 H 21.978933"
       style="display:inline;fill:none;stroke:#000000;stroke-width:0.158494;stroke-linecap:round;stroke-linejoin:round;stroke-miterlimit:10;stroke-opacity:1" />
    <path
       inkscape:connector-curvature="0"
       id="path35805-1-9"
       d="M 17.021067,61 H 9"
       style="display:inline;fill:none;stroke:#000000;stroke-width:0.158494;stroke-linecap:round;stroke-linejoin:round;stroke-miterlimit:10;stroke-opacity:1" />
    <path
       inkscape:connector-curvature="0"
       id="path35805-1-5-2"
       d="M 30.021067,61 H 22"
       style="display:inline;fill:none;stroke:#000000;stroke-width:0.158494;stroke-linecap:round;stroke-linejoin:round;stroke-miterlimit:10;stroke-opacity:1" />
    <path
       inkscape:connector-curvature="0"
       id="path35805-1-57"
       d="M 17,73 H 8.978933"
       style="display:inline;fill:none;stroke:#000000;stroke-width:0.158494;stroke-linecap:round;stroke-linejoin:round;stroke-miterlimit:10;stroke-opacity:1" />
    <path
       inkscape:connector-curvature="0"
       id="path35805-1-5-33"
       d="M 30,73 H 21.978933"
       style="display:inline;fill:none;stroke:#000000;stroke-width:0.158494;stroke-linecap:round;stroke-linejoin:round;stroke-miterlimit:10;stroke-opacity:1" />
    <path
       inkscape:connector-curvature="0"
       id="path35805-1-3"
       d="M 17.021067,85 H 9"
       style="display:inline;fill:none;stroke:#000000;stroke-width:0.158494;stroke-linecap:round;stroke-linejoin:round;stroke-miterlimit:10;stroke-opacity:1" />
    <path
       inkscape:connector-curvature="0"
       id="path35805-1-5-8"
       d="M 30.021067,85 H 22"
       style="display:inline;fill:none;stroke:#000000;stroke-width:0.158494;stroke-linecap:round;stroke-linejoin:round;stroke-miterlimit:10;stroke-opacity:1" />
  </g>
  <g
     inkscape:groupmode="layer"
     id="layer3"
     inkscape:label="unused"
     style="display:none">
    <rect
       style="display:inline;fill:#00ff00;fill-opacity:0.5;stroke-width:0.47625"
       id="RST_INPUT"
       width="9"
       height="9"
       x="18"
       y="69"
       inkscape:label="RST" />
    <rect
       style="display:inline;fill:#ff0000;fill-opacity:0.5;stroke-width:0.582083"
       id="OFFSET_PARAM"
       width="11"
       height="11"
       x="17"
       y="6"
       inkscape:label="OFFSET&lt;RoundBlackSnapKnob&gt;" />
    <circle
       style="display:inline;fill:#00ffff;fill-opacity:0.5;stroke-width:0.472993"
       id="RST_PARAM"
       cx="22"
       cy="64"
       r="2.2695303"
       inkscape:label="RST" />
    <circle
       style="display:inline;fill:#ff00ff;fill-opacity:0.5;stroke-width:0.264583"
       id="LEDRST_LIGHT"
       cx="22"
       cy="64"
       r="1.2695303"
       inkscape:label="LEDRST" />
    <rect
       style="display:inline;fill:#ff0000;fill-opacity:0.5;stroke-width:0.582083"
       id="NUMSTEPS_PARAM"
       width="11"
       height="11"
       x="17"
       y="43.991684"
       inkscape:label="NUMSTEPS&lt;RoundBlackSnapKnob&gt;" />
    <rect
       style="display:inline;fill:#ff0000;fill-opacity:0.5;stroke-width:0.582083"
       id="INC1_PARAM"
       width="11"
       height="11"
       x="17"
       y="19.058334"
       inkscape:label="INC1&lt;RoundBlackSnapKnob&gt;" />
    <rect
       style="display:inline;fill:#ff8000;fill-opacity:0.5;stroke:none;stroke-width:0.264583"
       id="MODE_PARAM"
       width="6"
       height="7"
       x="-25"
       y="-89"
       inkscape:label="MODE"
       transform="scale(-1)" />
    <rect
       style="display:inline;fill:#ff0000;fill-opacity:0.5;stroke-width:0.582083"
       id="INC2_PARAM"
       width="11"
       height="11"
       x="17"
       y="31.058334"
       inkscape:label="INC2&lt;RoundBlackSnapKnob&gt;" />
    <rect
       style="display:inline;fill:#00ff00;fill-opacity:0.5;stroke-width:0.47625"
       id="X1_INPUT"
       width="9"
       height="9"
       x="-17"
       y="50"
       inkscape:label="X1" />
    <rect
       style="display:inline;fill:#00ff00;fill-opacity:0.5;stroke-width:0.47625"
       id="Y1_INPUT"
       width="9"
       height="9"
       x="-17"
       y="40"
       inkscape:label="Y1" />
    <rect
       style="display:inline;fill:#00ff00;fill-opacity:0.5;stroke-width:0.47625"
       id="Y2_INPUT"
       width="9"
       height="9"
       x="-17"
       y="61"
       inkscape:label="Y2" />
    <circle
       style="display:inline;fill:#ff00ff;fill-opacity:0.5;stroke-width:0.264583"
       id="LEDRST_LIGHT-1"
       cx="22.510321"
       cy="9.3159628"
       r="1.2695303"
       inkscape:label="LEDRST" />
    <circle
       style="display:inline;fill:#00ffff;fill-opacity:0.5;stroke-width:0.472993"
       id="DBG_PARAM"
       cx="32.060493"
       cy="24.044542"
       r="2.2695303"
       inkscape:label="DBG" />
  </g>
  <g
     inkscape:groupmode="layer"
     id="layer2"
     inkscape:label="components"
     style="display:none">
    <rect
       style="display:inline;fill:#00ff00;fill-opacity:0.5;stroke-width:0.47625"
       id="IN_INPUT"
       width="9"
       height="9"
       x="2"
       y="8"
       inkscape:label="RST" />
    <rect
       style="display:inline;fill:#ff0000;fill-opacity:0.5;stroke-width:0.582083"
       id="P1RAY_PARAM"
       width="11"
       height="11"
       x="1"
       y="32"
       inkscape:label="P1RAY&lt;RoundBlackSnapKnob&gt;" />
    <rect
       style="display:inline;fill:#ff0000;fill-opacity:0.5;stroke-width:0.582083"
       id="P1ALPHA_PARAM"
       width="11"
       height="11"
       x="14"
       y="32"
       inkscape:label="P1ALPHA&lt;RoundBlackSnapKnob&gt;" />
    <rect
       style="display:inline;fill:#ff0000;fill-opacity:0.5;stroke-width:0.582083"
       id="P2RAY_PARAM"
       width="11"
       height="11"
       x="1"
       y="44"
       inkscape:label="P2RAY&lt;RoundBlackSnapKnob&gt;" />
    <rect
       style="display:inline;fill:#ff0000;fill-opacity:0.5;stroke-width:0.582083"
       id="P2ALPHA_PARAM"
       width="11"
       height="11"
       x="14"
       y="44"
       inkscape:label="P2ALPHA&lt;RoundBlackSnapKnob&gt;" />
    <rect
       style="display:inline;fill:#ff0000;fill-opacity:0.5;stroke-width:0.582083"
       id="P3RAY_PARAM"
       width="11"
       height="11"
       x="1"
       y="56"
       inkscape:label="P3RAY&lt;RoundBlackSnapKnob&gt;" />
    <rect
       style="display:inline;fill:#ff0000;fill-opacity:0.5;stroke-width:0.582083"
       id="P3ALPHA_PARAM"
       width="11"
       height="11"
       x="14"
       y="56"
       inkscape:label="P3ALPHA&lt;RoundBlackSnapKnob&gt;" />
    <rect
       style="display:inline;fill:#ff0000;fill-opacity:0.5;stroke-width:0.582083"
       id="P4RAY_PARAM"
       width="11"
       height="11"
       x="1"
       y="68"
       inkscape:label="P4RAY&lt;RoundBlackSnapKnob&gt;" />
    <rect
       style="display:inline;fill:#ff0000;fill-opacity:0.5;stroke-width:0.582083"
       id="P4ALPHA_PARAM"
       width="11"
       height="11"
       x="14"
       y="68"
       inkscape:label="P4ALPHA&lt;RoundBlackSnapKnob&gt;" />
    <rect
       style="display:inline;fill:#0000ff;fill-opacity:0.5;stroke-width:0.47625"
       id="OUTP1Y_OUTPUT"
       width="9"
       height="9"
       x="28.28751"
       y="95.879173"
       inkscape:label="OUTP1Y" />
    <rect
       style="display:inline;fill:#0000ff;fill-opacity:0.5;stroke-width:0.47625"
       id="OUTP1X_OUTPUT"
       width="9"
       height="9"
       x="16.287493"
       y="95.879173"
       inkscape:label="OUTP1X" />
    <rect
       style="display:inline;fill:#0000ff;fill-opacity:0.5;stroke-width:0.47625"
       id="OUTP2Y_OUTPUT"
       width="9"
       height="9"
       x="28.28751"
       y="110.82082"
       inkscape:label="OUTP2Y" />
    <rect
       style="display:inline;fill:#0000ff;fill-opacity:0.5;stroke-width:0.47625"
       id="OUTP2X_OUTPUT"
       width="9"
       height="9"
       x="16.287493"
       y="110.82082"
       inkscape:label="OUTP2X" />
    <rect
       style="display:inline;fill:#ff0000;fill-opacity:0.5;stroke-width:0.582083"
       id="P1SPEED_PARAM"
       width="11"
       height="11"
       x="27"
       y="32"
       inkscape:label="P1SPEED&lt;RoundBlackSnapKnob&gt;" />
    <rect
       style="display:inline;fill:#ff0000;fill-opacity:0.5;stroke-width:0.582083"
       id="P2SPEED_PARAM"
       width="11"
       height="11"
       x="27"
       y="44"
       inkscape:label="P2SPEED&lt;RoundBlackSnapKnob&gt;" />
    <rect
       style="display:inline;fill:#ff0000;fill-opacity:0.5;stroke-width:0.582083"
       id="P3SPEED_PARAM"
       width="11"
       height="11"
       x="27"
       y="56"
       inkscape:label="P3SPEED&lt;RoundBlackSnapKnob&gt;" />
    <rect
       style="display:inline;fill:#ff0000;fill-opacity:0.5;stroke-width:0.582083"
       id="P4SPEED_PARAM"
       width="11"
       height="11"
       x="27"
       y="68"
       inkscape:label="P4SPEED&lt;RoundBlackSnapKnob&gt;" />
    <rect
       style="display:inline;fill:#ff0000;fill-opacity:0.5;stroke-width:0.582083"
       id="SELP1_PARAM"
       width="11"
       height="11"
       x="1"
       y="93.879173"
       inkscape:label="SELP1&lt;RoundBlackSnapKnob&gt;" />
    <rect
       style="display:inline;fill:#ff0000;fill-opacity:0.5;stroke-width:0.582083"
       id="SELP2_PARAM"
       width="11"
       height="11"
       x="1"
       y="109.34997"
       inkscape:label="SELP2&lt;RoundBlackSnapKnob&gt;" />
    <rect
       style="display:inline;fill:#ff0000;fill-opacity:0.5;stroke-width:0.582083"
       id="P5RAY_PARAM"
       width="11"
       height="11"
       x="1"
       y="80"
       inkscape:label="P5RAY&lt;RoundBlackSnapKnob&gt;" />
    <rect
       style="display:inline;fill:#ff0000;fill-opacity:0.5;stroke-width:0.582083"
       id="P5ALPHA_PARAM"
       width="11"
       height="11"
       x="14"
       y="80"
       inkscape:label="P5ALPHA&lt;RoundBlackSnapKnob&gt;" />
    <rect
       style="display:inline;fill:#ff0000;fill-opacity:0.5;stroke-width:0.582083"
       id="P5SPEED_PARAM"
       width="11"
       height="11"
       x="27"
       y="80"
       inkscape:label="P5SPEED&lt;RoundBlackSnapKnob&gt;" />
    <circle
       style="display:inline;fill:#00ffff;fill-opacity:0.5;stroke-width:0.472993"
       id="DBG_PARAM-9"
       cx="6"
       cy="22"
       r="2.2695303"
       inkscape:label="RST" />
    <rect
       style="display:inline;fill:#ff0000;fill-opacity:0.5;stroke-width:0.582083"
       id="SCALEX_PARAM"
       width="11"
       height="11"
       x="14"
       y="7"
       inkscape:label="SCALEX" />
    <rect
       style="display:inline;fill:#ff0000;fill-opacity:0.5;stroke-width:0.582083"
       id="SCALEY_PARAM"
       width="11"
       height="11"
       x="27"
       y="7"
       inkscape:label="SCALEY" />
  </g>
</svg>
